<svg width="275" height="165" viewBox="0 0 275 165" fill="none" xmlns="http://www.w3.org/2000/svg">
<path d="M239.317 31.1302C239.317 33.252 238.351 34.9699 237.156 34.9699C235.962 34.9699 234.996 33.252 234.996 31.1302C234.996 29.0084 235.962 27.2905 237.156 27.2905C238.351 27.2905 239.317 29.0114 239.317 31.1302Z" fill="#222324"/>
<path d="M266.708 35.7339C268.114 35.7339 269.254 33.6724 269.254 31.1294C269.254 28.5864 268.114 26.5249 266.708 26.5249C265.302 26.5249 264.162 28.5864 264.162 31.1294C264.162 33.6724 265.302 35.7339 266.708 35.7339Z" fill="#222324"/>
<path d="M244.643 48.5598C244.509 48.5596 244.379 48.514 244.275 48.4305C244.171 48.347 244.098 48.2306 244.069 48.1003C243.275 44.5937 244.862 41.2383 247.605 40.6215C250.349 40.0046 253.225 42.3485 254.015 45.8644C254.037 45.9415 254.043 46.0223 254.033 46.1018C254.023 46.1814 253.997 46.258 253.956 46.3271C253.915 46.3961 253.86 46.456 253.795 46.5032C253.73 46.5505 253.657 46.5839 253.578 46.6016C253.5 46.6192 253.419 46.6207 253.34 46.606C253.261 46.5912 253.186 46.5605 253.12 46.5158C253.053 46.471 252.996 46.4131 252.953 46.3456C252.909 46.2782 252.88 46.2026 252.867 46.1234C252.216 43.2522 249.969 41.303 247.864 41.778C245.76 42.2529 244.572 44.9792 245.22 47.8505C245.237 47.9259 245.239 48.0039 245.226 48.0801C245.213 48.1563 245.185 48.2292 245.144 48.2945C245.103 48.3599 245.049 48.4164 244.986 48.4609C244.922 48.5054 244.851 48.5369 244.775 48.5537C244.732 48.5616 244.687 48.5637 244.643 48.5598Z" fill="#222324"/>
<path d="M272.212 15.4742H264.275C264.107 15.4742 263.942 15.4362 263.791 15.3631C263.64 15.29 263.508 15.1837 263.405 15.0522C263.301 14.9206 263.228 14.7674 263.193 14.6038C263.157 14.4403 263.159 14.2707 263.198 14.1079L264.198 9.93519C264.255 9.69268 264.392 9.4766 264.588 9.32207C264.783 9.16753 265.025 9.08363 265.275 9.08399H273.45C273.622 9.0836 273.793 9.12353 273.947 9.20058C274.101 9.27763 274.236 9.38968 274.339 9.52778C274.443 9.66588 274.512 9.82622 274.543 9.99602C274.573 10.1658 274.563 10.3404 274.514 10.5057L273.28 14.6816C273.212 14.9114 273.071 15.1129 272.878 15.2558C272.686 15.3988 272.452 15.4754 272.212 15.4742Z" fill="#222324"/>
<path d="M241.367 16.3765H233.433C233.265 16.377 233.1 16.3393 232.949 16.2664C232.797 16.1935 232.665 16.0873 232.561 15.9557C232.457 15.8241 232.384 15.6707 232.348 15.5069C232.312 15.3431 232.314 15.1733 232.353 15.0103L233.353 10.8344C233.412 10.5928 233.551 10.378 233.747 10.2242C233.942 10.0705 234.184 9.98675 234.433 9.98633H242.608C242.78 9.98643 242.95 10.0267 243.104 10.104C243.258 10.1812 243.392 10.2933 243.495 10.4314C243.598 10.5694 243.668 10.7296 243.698 10.8991C243.728 11.0687 243.719 11.2429 243.67 11.4081L242.435 15.5839C242.366 15.8132 242.225 16.0142 242.033 16.1569C241.84 16.2997 241.607 16.3767 241.367 16.3765Z" fill="#222324"/>
<path d="M218.582 82.259C218.342 100.113 218.923 118.015 217.568 135.836C217.26 139.868 217.621 145.501 213.805 147.987C210.97 149.834 207.262 149.925 203.989 149.978C198.616 150.066 193.238 149.978 187.865 149.946C181.997 149.908 176.115 149.769 170.247 149.927C169.658 149.944 169.656 150.861 170.247 150.845C181.322 150.547 192.414 151.039 203.492 150.902C206.551 150.866 209.763 150.782 212.623 149.615C214.071 149.066 215.337 148.121 216.275 146.889C217.53 145.165 217.796 143.026 218.015 140.963C218.976 131.838 219.216 122.655 219.334 113.494C219.469 103.084 219.349 92.6713 219.49 82.259C219.49 81.6682 218.58 81.6682 218.57 82.259H218.582Z" fill="#222324"/>
<path d="M231.91 67.0179L217.36 59.2446L209.853 75.7324C209.305 76.8923 211.953 79.2072 215.762 80.9987C218.765 82.4131 221.591 83.0278 222.923 82.6556C222.923 82.6556 223.571 82.305 223.643 82.1465C223.716 81.988 231.91 67.0179 231.91 67.0179Z" fill="#F7F7F7"/>
<path d="M221.999 83.2235C220.387 83.2235 218.015 82.5703 215.567 81.4176C213.676 80.5267 212.005 79.4821 210.871 78.476C209.23 77.0207 209.189 76.0746 209.43 75.5415C209.511 75.3662 216.859 59.2122 216.934 59.0585L217.136 58.6118L232.527 66.8317L232.305 67.2375C229.506 72.3597 224.176 82.1092 224.049 82.3662C224.013 82.4454 223.914 82.6519 223.133 83.0746L223.037 83.113C222.698 83.1963 222.349 83.2335 221.999 83.2235ZM217.578 59.8821L210.271 75.9329C210.141 76.2067 210.463 76.8934 211.472 77.7892C212.546 78.7497 214.134 79.7343 215.951 80.5868C219.145 82.0924 221.692 82.491 222.744 82.2293C222.922 82.1356 223.092 82.0263 223.251 81.9027C223.686 81.0958 229.21 70.9909 231.279 67.2039L217.578 59.8821ZM223.244 81.9315V81.9531V81.9315Z" fill="#222324"/>
<path d="M232.215 66.8248C231.65 68.0255 227.649 67.3051 223.713 65.4512C219.777 63.5973 216.541 61.0159 217.105 59.82C217.67 58.6241 221.827 59.2725 225.756 61.1215C229.685 62.9706 232.777 65.6289 232.215 66.8248Z" fill="#F7F7F7"/>
<path d="M230.625 67.8716C230.129 67.8647 229.634 67.8182 229.145 67.7323C227.194 67.3564 225.301 66.7292 223.512 65.8665C220.299 64.3536 215.823 61.4432 216.685 59.6229C217.466 57.9684 222.099 58.9025 225.946 60.7059C227.752 61.5351 229.44 62.5993 230.966 63.8709C232.441 65.1629 233.001 66.2243 232.624 67.0191C232.357 67.5859 231.687 67.8716 230.625 67.8716ZM218.788 59.6685C218.067 59.6685 217.615 59.8006 217.514 60.0143C217.204 60.6699 219.595 63.0089 223.901 65.0356C225.613 65.8641 227.426 66.4663 229.294 66.827C231.057 67.1224 231.697 66.827 231.793 66.6277C231.886 66.4308 231.706 65.7416 230.351 64.5625C228.889 63.3472 227.273 62.3299 225.545 61.5368C222.659 60.1728 220.206 59.6685 218.788 59.6685Z" fill="#222324"/>
<path d="M225.775 63.7038C225.715 63.8359 225.318 63.7782 224.89 63.5765C224.463 63.3748 224.145 63.0962 224.206 62.9666C224.266 62.8369 224.686 62.9017 225.111 63.1034C225.537 63.3052 225.837 63.5669 225.775 63.7038Z" fill="#222324"/>
<path d="M222.93 62.2447C222.87 62.3719 222.478 62.3167 222.058 62.1174C221.637 61.9181 221.322 61.6371 221.382 61.5194C221.442 61.4018 221.863 61.4546 222.276 61.6539C222.69 61.8532 222.99 62.127 222.93 62.2447Z" fill="#222324"/>
<path d="M226.555 62.9341C226.495 63.0638 226.106 63.0062 225.683 62.8092C225.26 62.6123 224.962 62.329 225.01 62.2089C225.058 62.0888 225.491 62.1465 225.901 62.3434C226.312 62.5403 226.615 62.8068 226.555 62.9341Z" fill="#222324"/>
<path d="M225.201 64.5674C225.141 64.6971 224.75 64.6395 224.329 64.4402C223.909 64.2408 223.594 63.9599 223.654 63.8422C223.714 63.7245 224.134 63.7774 224.548 63.9767C224.961 64.176 225.261 64.4402 225.201 64.5674Z" fill="#222324"/>
<path d="M228.236 65.0098C228.173 65.137 227.784 65.0794 227.363 64.8825C226.943 64.6856 226.628 64.4022 226.688 64.2821C226.748 64.1621 227.169 64.2197 227.582 64.4166C227.995 64.6135 228.296 64.8705 228.236 65.0098Z" fill="#222324"/>
<path d="M50.2451 41.7738L54.7122 56.3189L70.3577 50.4067C71.4726 50.0033 71.2443 46.7662 69.9203 43.1186C68.8726 40.2369 67.4237 37.9988 66.3159 37.3793C66.3159 37.3793 65.6599 37.1872 65.5085 37.2424C65.3572 37.2976 50.2451 41.7738 50.2451 41.7738Z" fill="#F7F7F7"/>
<path d="M54.4167 56.9227L49.6709 41.4771L50.1154 41.345C55.2769 39.8154 65.1073 36.8977 65.3572 36.8184C65.4341 36.7896 65.6408 36.7152 66.441 36.9505L66.5347 36.9889C67.7866 37.6877 69.2836 40.0363 70.3505 42.9732C71.5784 46.3495 72.1527 50.2541 70.5163 50.8497L54.8756 56.7498L54.4167 56.9227ZM50.8267 42.0847L55.0078 55.7172L70.2015 49.9756C70.7326 49.7834 70.9561 47.3124 69.4807 43.2757C68.3729 40.2284 66.9744 38.3193 66.1166 37.8054C65.9441 37.7549 65.7683 37.7172 65.5903 37.6925C64.7349 37.9567 54.6522 40.9488 50.8267 42.0847ZM65.6672 37.6733H65.6408H65.6672Z" fill="#222324"/>
<path d="M49.9218 41.7168C51.0704 41.2989 53.2258 44.3799 54.5931 48.1404C55.9604 51.901 56.4001 55.7071 55.2539 56.1226C54.1077 56.538 51.8057 53.4114 50.448 49.6389C49.0904 45.8663 48.7756 42.125 49.9218 41.7168Z" fill="#222324"/>
<path d="M69.4146 42.0676C71.8776 43.4436 73.6317 46.0226 75.1095 48.3448C76.9144 51.2146 78.473 54.2319 79.7688 57.3643C82.4961 63.848 83.5655 70.9321 84.8558 77.8144C86.1846 84.9105 87.141 92.0665 87.1482 99.2971C87.1396 103.242 86.9045 107.182 86.4442 111.1C86.1822 113.364 85.8554 115.619 85.483 117.867C85.1682 119.745 85.0192 121.841 84.344 123.63C83.4693 125.945 81.5734 127.938 79.9995 129.794C78.2165 131.896 76.3446 133.954 74.8068 136.245C73.8576 137.659 72.6585 139.594 73.1247 141.386C73.4972 142.81 75.0471 143.879 76.2173 144.628C79.8986 146.979 84.4281 148.014 88.6645 148.806C94.1912 149.839 99.7924 150.345 105.389 150.662C114.909 151.2 124.442 151.087 133.969 150.879C134.512 150.867 135.058 150.855 135.601 150.847C136.192 150.847 136.194 149.923 135.601 149.93C127.046 150.045 118.509 150.269 109.952 149.956C104.173 149.743 98.3819 149.363 92.6509 148.537C87.9484 147.86 83.0392 146.983 78.7139 144.935C77.1929 144.215 75.5901 143.324 74.4968 142.015C73.1391 140.385 74.6121 138.144 75.5829 136.696C77.1592 134.345 79.1008 132.249 80.9198 130.09C82.4337 128.296 84.1181 126.416 85.0601 124.24C85.6872 122.785 85.8266 121.118 86.1005 119.562C86.4802 117.411 86.8134 115.249 87.1002 113.079C87.6306 109.141 87.9419 105.178 88.0325 101.206C88.1719 94.1653 87.4198 87.1677 86.2135 80.2374C85.5455 76.3952 84.7717 72.5914 83.9691 68.7828C83.3107 65.6274 82.7052 62.5129 81.583 59.4847C79.4829 53.8079 76.6594 47.718 72.4158 43.2995C71.6709 42.496 70.8109 41.8074 69.8639 41.2559C69.3473 40.9678 68.8859 41.7602 69.4002 42.0484L69.4146 42.0676Z" fill="#222324"/>
<path d="M150.911 147.67C150.656 147.67 150.41 147.575 150.221 147.403L142.866 140.679C142.678 140.494 142.569 140.243 142.562 139.979C142.555 139.715 142.651 139.459 142.829 139.264C143.007 139.069 143.254 138.951 143.517 138.934C143.781 138.917 144.041 139.003 144.243 139.174L151.598 145.898C151.749 146.036 151.855 146.218 151.902 146.417C151.948 146.617 151.934 146.827 151.859 147.018C151.785 147.209 151.655 147.374 151.486 147.49C151.316 147.606 151.116 147.669 150.911 147.67Z" fill="#FF5353"/>
<path d="M160.093 145.672C160.019 145.671 159.946 145.663 159.874 145.648C159.61 145.589 159.38 145.429 159.234 145.201C159.088 144.973 159.038 144.697 159.095 144.433L160.443 138.276C160.472 138.145 160.526 138.021 160.603 137.911C160.68 137.802 160.777 137.708 160.89 137.636C161.003 137.564 161.129 137.514 161.26 137.491C161.392 137.467 161.527 137.47 161.658 137.499C161.789 137.527 161.913 137.582 162.023 137.658C162.133 137.735 162.226 137.832 162.298 137.945C162.371 138.058 162.42 138.183 162.443 138.315C162.467 138.447 162.464 138.582 162.435 138.713L161.087 144.867C161.038 145.095 160.913 145.298 160.732 145.445C160.551 145.591 160.325 145.671 160.093 145.672Z" fill="#FF5353"/>
<path d="M140.71 165.001C140.492 165.001 140.278 164.932 140.102 164.802C139.926 164.673 139.796 164.49 139.732 164.281C139.668 164.072 139.673 163.848 139.746 163.642C139.819 163.436 139.957 163.259 140.138 163.137L150.339 156.262C150.448 156.171 150.576 156.104 150.713 156.065C150.85 156.026 150.994 156.016 151.135 156.036C151.276 156.056 151.411 156.105 151.532 156.18C151.653 156.256 151.757 156.356 151.837 156.473C151.917 156.591 151.971 156.725 151.997 156.865C152.022 157.005 152.018 157.149 151.984 157.287C151.951 157.426 151.889 157.555 151.802 157.668C151.715 157.781 151.605 157.875 151.48 157.943L141.28 164.825C141.112 164.939 140.913 165 140.71 165.001Z" fill="#FF5353"/>
<path d="M165.956 163.226C165.812 163.226 165.669 163.195 165.537 163.136C165.405 163.077 165.288 162.99 165.192 162.882L159.327 156.257C159.232 156.157 159.158 156.04 159.11 155.912C159.061 155.783 159.039 155.646 159.045 155.509C159.051 155.372 159.084 155.237 159.143 155.113C159.202 154.989 159.285 154.879 159.388 154.788C159.491 154.697 159.611 154.627 159.742 154.584C159.872 154.54 160.01 154.524 160.147 154.534C160.283 154.545 160.417 154.584 160.538 154.647C160.66 154.711 160.768 154.799 160.855 154.905L166.72 161.533C166.851 161.68 166.935 161.861 166.965 162.055C166.994 162.249 166.967 162.447 166.886 162.626C166.806 162.805 166.675 162.957 166.51 163.063C166.345 163.169 166.153 163.226 165.956 163.226Z" fill="#FF5353"/>
<path d="M9.34943 11C9.34943 11 0.887432 16.8526 0.436126 17.5467C0.101172 18.0753 -0.269041 22.1485 0.280988 22.3141C0.767553 22.4586 8.32693 16.9971 10.2802 15.7286C10.5553 15.5489 10.5623 14.6715 10.5412 14.3403C10.4671 13.2974 10.2133 11.0846 9.34943 11Z" fill="#222324"/>
<path d="M28.0675 1.8939C28.2649 1.61907 33.6594 -0.10747 34.2165 0.00528296C34.7736 0.118036 34.5691 3.33503 33.7934 3.93051C33.0177 4.52599 28.346 4.78321 28.0886 4.78321C27.8312 4.78321 26.9357 3.48655 28.0675 1.8939Z" fill="#222324"/>
<path d="M20.781 25.4082L6.21582 32.1487C7.78834 35.1015 16.0494 39.7913 20.781 25.4082Z" fill="#222324"/>
<path d="M31.9355 18.4501L41.9842 14.0527C42.9361 18.887 41.5646 24.1442 31.9355 18.4501Z" fill="#222324"/>
<path d="M27.0133 40.4345C26.8606 40.4343 26.7126 40.3822 26.5934 40.2868C26.4743 40.1914 26.3911 40.0583 26.3575 39.9095C25.4514 35.9032 27.2636 32.0696 30.3946 31.3614C33.5255 30.6531 36.8151 33.3381 37.7212 37.3514C37.7605 37.5257 37.7289 37.7084 37.6334 37.8594C37.5378 38.0104 37.3862 38.1173 37.2118 38.1565C37.0374 38.1958 36.8545 38.1642 36.7034 38.0687C36.5523 37.9732 36.4454 37.8217 36.4061 37.6474C35.6657 34.367 33.0954 32.1401 30.6943 32.6862C28.2932 33.2324 26.9287 36.319 27.6691 39.5994C27.6889 39.6857 27.6915 39.7751 27.6767 39.8624C27.6619 39.9497 27.63 40.0332 27.5828 40.1082C27.5356 40.1831 27.4741 40.2481 27.4018 40.2992C27.3295 40.3504 27.2478 40.3868 27.1614 40.4063C27.1132 40.421 27.0635 40.4304 27.0133 40.4345Z" fill="#222324"/>
</svg>
