<svg id="et5x8JQXKg21" xmlns="http://www.w3.org/2000/svg" xmlns:xlink="http://www.w3.org/1999/xlink" viewBox="0 0 801 665" shape-rendering="geometricPrecision" text-rendering="geometricPrecision"><style><![CDATA[#et5x8JQXKg252_to {animation: et5x8JQXKg252_to__to 3000ms linear infinite alternate forwards}@keyframes et5x8JQXKg252_to__to { 0% {transform: translate(329.043259px,327.532639px)} 16.666667% {transform: translate(329.043259px,355.145082px)} 100% {transform: translate(329.043259px,355.145082px)}} #et5x8JQXKg264_to {animation: et5x8JQXKg264_to__to 3000ms linear infinite alternate forwards}@keyframes et5x8JQXKg264_to__to { 0% {transform: translate(612.966248px,90.72672px)} 40% {transform: translate(612.966248px,90.72672px)} 56.666667% {transform: translate(612.966248px,191.29565px)} 100% {transform: translate(612.966248px,191.29565px)}} #et5x8JQXKg270_to {animation: et5x8JQXKg270_to__to 3000ms linear infinite alternate forwards}@keyframes et5x8JQXKg270_to__to { 0% {transform: translate(457.621995px,99.935325px)} 23.333333% {transform: translate(457.621995px,99.935325px)} 40% {transform: translate(457.621995px,204.46768px)} 100% {transform: translate(457.621995px,204.46768px)}} #et5x8JQXKg276_to {animation: et5x8JQXKg276_to__to 3000ms linear infinite alternate forwards}@keyframes et5x8JQXKg276_to__to { 0% {transform: translate(586.754349px,204.985328px)} 23.333333% {transform: translate(586.754349px,204.985328px)} 40% {transform: translate(586.754349px,273.677593px)} 100% {transform: translate(586.754349px,273.677593px)}} #et5x8JQXKg282_to {animation: et5x8JQXKg282_to__to 3000ms linear infinite alternate forwards}@keyframes et5x8JQXKg282_to__to { 0% {transform: translate(410.558594px,251.47876px)} 23.333333% {transform: translate(410.558594px,305.31374px)} 100% {transform: translate(410.558594px,305.31374px)}} #et5x8JQXKg290 {animation: et5x8JQXKg290_c_o 3000ms linear infinite alternate forwards}@keyframes et5x8JQXKg290_c_o { 0% {opacity: 0} 20% {opacity: 0} 23.333333% {opacity: 1} 100% {opacity: 1}} #et5x8JQXKg291 {animation: et5x8JQXKg291_c_o 3000ms linear infinite alternate forwards}@keyframes et5x8JQXKg291_c_o { 0% {opacity: 0} 20% {opacity: 0} 23.333333% {opacity: 1} 100% {opacity: 1}} #et5x8JQXKg292 {animation: et5x8JQXKg292_c_o 3000ms linear infinite alternate forwards}@keyframes et5x8JQXKg292_c_o { 0% {opacity: 0} 16.666667% {opacity: 0} 30% {opacity: 0.97} 100% {opacity: 0.97}} #et5x8JQXKg2100 {animation: et5x8JQXKg2100_c_o 3000ms linear infinite alternate forwards}@keyframes et5x8JQXKg2100_c_o { 0% {opacity: 0} 53.333333% {opacity: 0} 56.666667% {opacity: 0.99} 100% {opacity: 0.99}} #et5x8JQXKg2101 {animation: et5x8JQXKg2101_c_o 3000ms linear infinite alternate forwards}@keyframes et5x8JQXKg2101_c_o { 0% {opacity: 0} 40% {opacity: 0} 43.333333% {opacity: 1} 100% {opacity: 1}}]]></style><defs><linearGradient id="et5x8JQXKg25-fill" x1="261.382" y1="584.253" x2="596.132" y2="-15.5757" spreadMethod="pad" gradientUnits="userSpaceOnUse" gradientTransform="translate(0 0)"><stop id="et5x8JQXKg25-fill-0" offset="0%" stop-color="#53637a"/><stop id="et5x8JQXKg25-fill-1" offset="100%" stop-color="#323a47"/></linearGradient><linearGradient id="et5x8JQXKg241-fill" x1="195.046" y1="-146.223" x2="293.053" y2="513.834" spreadMethod="pad" gradientUnits="userSpaceOnUse" gradientTransform="translate(0 0)"><stop id="et5x8JQXKg241-fill-0" offset="0%" stop-color="#2300a1"/><stop id="et5x8JQXKg241-fill-1" offset="8.41%" stop-color="#39009b"/><stop id="et5x8JQXKg241-fill-2" offset="25.94%" stop-color="#71008b"/><stop id="et5x8JQXKg241-fill-3" offset="50.89%" stop-color="#cb0171"/><stop id="et5x8JQXKg241-fill-4" offset="58.6%" stop-color="#e80169"/><stop id="et5x8JQXKg241-fill-5" offset="100%" stop-color="#fa0"/></linearGradient><linearGradient id="et5x8JQXKg243-fill" x1="226.032" y1="293.641" x2="312.285" y2="461.284" spreadMethod="pad" gradientUnits="userSpaceOnUse" gradientTransform="translate(0 0)"><stop id="et5x8JQXKg243-fill-0" offset="0%" stop-color="#000"/><stop id="et5x8JQXKg243-fill-1" offset="36.76%" stop-color="#2e3847"/><stop id="et5x8JQXKg243-fill-2" offset="80.06%" stop-color="#627696"/><stop id="et5x8JQXKg243-fill-3" offset="100%" stop-color="#768fb5"/></linearGradient><linearGradient id="et5x8JQXKg245-fill" x1="188.958" y1="124.771" x2="236.861" y2="447.397" spreadMethod="pad" gradientUnits="userSpaceOnUse" gradientTransform="translate(0 0)"><stop id="et5x8JQXKg245-fill-0" offset="0%" stop-color="#fff"/><stop id="et5x8JQXKg245-fill-1" offset="100%" stop-color="#000"/></linearGradient><linearGradient id="et5x8JQXKg247-fill" x1="164.261" y1="-141.653" x2="262.267" y2="518.404" spreadMethod="pad" gradientUnits="userSpaceOnUse" gradientTransform="translate(0 0)"><stop id="et5x8JQXKg247-fill-0" offset="0%" stop-color="#2300a1"/><stop id="et5x8JQXKg247-fill-1" offset="8.41%" stop-color="#39009b"/><stop id="et5x8JQXKg247-fill-2" offset="25.94%" stop-color="#71008b"/><stop id="et5x8JQXKg247-fill-3" offset="50.89%" stop-color="#cb0171"/><stop id="et5x8JQXKg247-fill-4" offset="58.6%" stop-color="#e80169"/><stop id="et5x8JQXKg247-fill-5" offset="100%" stop-color="#fa0"/></linearGradient><linearGradient id="et5x8JQXKg249-fill" x1="181.621" y1="478.743" x2="328.075" y2="478.743" spreadMethod="pad" gradientUnits="userSpaceOnUse" gradientTransform="translate(0 0)"><stop id="et5x8JQXKg249-fill-0" offset="0%" stop-color="#000"/><stop id="et5x8JQXKg249-fill-1" offset="36.76%" stop-color="#2e3847"/><stop id="et5x8JQXKg249-fill-2" offset="80.06%" stop-color="#627696"/><stop id="et5x8JQXKg249-fill-3" offset="100%" stop-color="#768fb5"/></linearGradient><linearGradient id="et5x8JQXKg251-fill" x1="199.248" y1="208.252" x2="248.856" y2="542.36" spreadMethod="pad" gradientUnits="userSpaceOnUse" gradientTransform="translate(0 0)"><stop id="et5x8JQXKg251-fill-0" offset="0%" stop-color="#fff"/><stop id="et5x8JQXKg251-fill-1" offset="100%" stop-color="#000"/></linearGradient><linearGradient id="et5x8JQXKg253-fill" x1="257.371" y1="-155.477" x2="355.377" y2="504.58" spreadMethod="pad" gradientUnits="userSpaceOnUse" gradientTransform="translate(0 0)"><stop id="et5x8JQXKg253-fill-0" offset="0%" stop-color="#2300a1"/><stop id="et5x8JQXKg253-fill-1" offset="8.41%" stop-color="#39009b"/><stop id="et5x8JQXKg253-fill-2" offset="25.94%" stop-color="#71008b"/><stop id="et5x8JQXKg253-fill-3" offset="50.89%" stop-color="#cb0171"/><stop id="et5x8JQXKg253-fill-4" offset="58.6%" stop-color="#e80169"/><stop id="et5x8JQXKg253-fill-5" offset="100%" stop-color="#fa0"/></linearGradient><linearGradient id="et5x8JQXKg255-fill" x1="283.982" y1="244.681" x2="394.739" y2="449.579" spreadMethod="pad" gradientUnits="userSpaceOnUse" gradientTransform="translate(0 0)"><stop id="et5x8JQXKg255-fill-0" offset="0%" stop-color="#000"/><stop id="et5x8JQXKg255-fill-1" offset="36.76%" stop-color="#2e3847"/><stop id="et5x8JQXKg255-fill-2" offset="80.06%" stop-color="#627696"/><stop id="et5x8JQXKg255-fill-3" offset="100%" stop-color="#768fb5"/></linearGradient><linearGradient id="et5x8JQXKg257-fill" x1="246.457" y1="60.8281" x2="297.19" y2="402.504" spreadMethod="pad" gradientUnits="userSpaceOnUse" gradientTransform="translate(0 0)"><stop id="et5x8JQXKg257-fill-0" offset="0%" stop-color="#fff"/><stop id="et5x8JQXKg257-fill-1" offset="100%" stop-color="#000"/></linearGradient><linearGradient id="et5x8JQXKg259-fill" x1="54.8397" y1="-125.405" x2="152.846" y2="534.653" spreadMethod="pad" gradientUnits="userSpaceOnUse" gradientTransform="translate(0 0)"><stop id="et5x8JQXKg259-fill-0" offset="0%" stop-color="#2300a1"/><stop id="et5x8JQXKg259-fill-1" offset="8.41%" stop-color="#39009b"/><stop id="et5x8JQXKg259-fill-2" offset="25.94%" stop-color="#71008b"/><stop id="et5x8JQXKg259-fill-3" offset="50.89%" stop-color="#cb0171"/><stop id="et5x8JQXKg259-fill-4" offset="58.6%" stop-color="#e80169"/><stop id="et5x8JQXKg259-fill-5" offset="100%" stop-color="#fa0"/></linearGradient><linearGradient id="et5x8JQXKg261-fill" x1="111.196" y1="333.57" x2="151.38" y2="456.109" spreadMethod="pad" gradientUnits="userSpaceOnUse" gradientTransform="translate(0 0)"><stop id="et5x8JQXKg261-fill-0" offset="0%" stop-color="#000"/><stop id="et5x8JQXKg261-fill-1" offset="36.76%" stop-color="#2e3847"/><stop id="et5x8JQXKg261-fill-2" offset="80.06%" stop-color="#627696"/><stop id="et5x8JQXKg261-fill-3" offset="100%" stop-color="#768fb5"/></linearGradient><linearGradient id="et5x8JQXKg263-fill" x1="72.5329" y1="86.9899" x2="127.258" y2="455.552" spreadMethod="pad" gradientUnits="userSpaceOnUse" gradientTransform="translate(0 0)"><stop id="et5x8JQXKg263-fill-0" offset="0%" stop-color="#fff"/><stop id="et5x8JQXKg263-fill-1" offset="100%" stop-color="#000"/></linearGradient><linearGradient id="et5x8JQXKg265-fill" x1="506.682" y1="-214.132" x2="604.246" y2="442.953" spreadMethod="pad" gradientUnits="userSpaceOnUse" gradientTransform="translate(0 0)"><stop id="et5x8JQXKg265-fill-0" offset="0%" stop-color="#2300a1"/><stop id="et5x8JQXKg265-fill-1" offset="8.41%" stop-color="#39009b"/><stop id="et5x8JQXKg265-fill-2" offset="25.94%" stop-color="#71008b"/><stop id="et5x8JQXKg265-fill-3" offset="50.89%" stop-color="#cb0171"/><stop id="et5x8JQXKg265-fill-4" offset="58.6%" stop-color="#e80169"/><stop id="et5x8JQXKg265-fill-5" offset="100%" stop-color="#fa0"/></linearGradient><linearGradient id="et5x8JQXKg267-fill" x1="485.27" y1="-8.18093" x2="620.551" y2="168.016" spreadMethod="pad" gradientUnits="userSpaceOnUse" gradientTransform="translate(0 0)"><stop id="et5x8JQXKg267-fill-0" offset="0%" stop-color="#000"/><stop id="et5x8JQXKg267-fill-1" offset="36.76%" stop-color="#2e3847"/><stop id="et5x8JQXKg267-fill-2" offset="80.06%" stop-color="#627696"/><stop id="et5x8JQXKg267-fill-3" offset="100%" stop-color="#768fb5"/></linearGradient><linearGradient id="et5x8JQXKg269-fill" x1="472.718" y1="-238.24" x2="534.806" y2="179.92" spreadMethod="pad" gradientUnits="userSpaceOnUse" gradientTransform="translate(0 0)"><stop id="et5x8JQXKg269-fill-0" offset="0%" stop-color="#fff"/><stop id="et5x8JQXKg269-fill-1" offset="100%" stop-color="#000"/></linearGradient><linearGradient id="et5x8JQXKg271-fill" x1="367.102" y1="-200.056" x2="465.109" y2="460.001" spreadMethod="pad" gradientUnits="userSpaceOnUse" gradientTransform="translate(0 0)"><stop id="et5x8JQXKg271-fill-0" offset="0%" stop-color="#2300a1"/><stop id="et5x8JQXKg271-fill-1" offset="8.41%" stop-color="#39009b"/><stop id="et5x8JQXKg271-fill-2" offset="25.94%" stop-color="#71008b"/><stop id="et5x8JQXKg271-fill-3" offset="50.89%" stop-color="#cb0171"/><stop id="et5x8JQXKg271-fill-4" offset="58.6%" stop-color="#e80169"/><stop id="et5x8JQXKg271-fill-5" offset="100%" stop-color="#fa0"/></linearGradient><linearGradient id="et5x8JQXKg273-fill" x1="346.245" y1="45.7097" x2="461.917" y2="163.369" spreadMethod="pad" gradientUnits="userSpaceOnUse" gradientTransform="translate(0 0)"><stop id="et5x8JQXKg273-fill-0" offset="0%" stop-color="#000"/><stop id="et5x8JQXKg273-fill-1" offset="36.76%" stop-color="#2e3847"/><stop id="et5x8JQXKg273-fill-2" offset="80.06%" stop-color="#627696"/><stop id="et5x8JQXKg273-fill-3" offset="100%" stop-color="#768fb5"/></linearGradient><linearGradient id="et5x8JQXKg275-fill" x1="375.517" y1="-119.605" x2="417.568" y2="163.599" spreadMethod="pad" gradientUnits="userSpaceOnUse" gradientTransform="translate(0 0)"><stop id="et5x8JQXKg275-fill-0" offset="0%" stop-color="#fff"/><stop id="et5x8JQXKg275-fill-1" offset="100%" stop-color="#000"/></linearGradient><linearGradient id="et5x8JQXKg277-fill" x1="476.536" y1="-216.304" x2="574.542" y2="443.752" spreadMethod="pad" gradientUnits="userSpaceOnUse" gradientTransform="translate(0 0)"><stop id="et5x8JQXKg277-fill-0" offset="0%" stop-color="#2300a1"/><stop id="et5x8JQXKg277-fill-1" offset="8.41%" stop-color="#39009b"/><stop id="et5x8JQXKg277-fill-2" offset="25.94%" stop-color="#71008b"/><stop id="et5x8JQXKg277-fill-3" offset="50.89%" stop-color="#cb0171"/><stop id="et5x8JQXKg277-fill-4" offset="58.6%" stop-color="#e80169"/><stop id="et5x8JQXKg277-fill-5" offset="100%" stop-color="#fa0"/></linearGradient><linearGradient id="et5x8JQXKg279-fill" x1="477.587" y1="86.6977" x2="572.663" y2="246.501" spreadMethod="pad" gradientUnits="userSpaceOnUse" gradientTransform="translate(0 0)"><stop id="et5x8JQXKg279-fill-0" offset="0%" stop-color="#000"/><stop id="et5x8JQXKg279-fill-1" offset="36.76%" stop-color="#2e3847"/><stop id="et5x8JQXKg279-fill-2" offset="80.06%" stop-color="#627696"/><stop id="et5x8JQXKg279-fill-3" offset="100%" stop-color="#768fb5"/></linearGradient><linearGradient id="et5x8JQXKg281-fill" x1="504.604" y1="-8.61366" x2="541.09" y2="237.112" spreadMethod="pad" gradientUnits="userSpaceOnUse" gradientTransform="translate(0 0)"><stop id="et5x8JQXKg281-fill-0" offset="0%" stop-color="#fff"/><stop id="et5x8JQXKg281-fill-1" offset="100%" stop-color="#000"/></linearGradient><linearGradient id="et5x8JQXKg283-fill" x1="321.533" y1="-185.602" x2="419.539" y2="474.453" spreadMethod="pad" gradientUnits="userSpaceOnUse" gradientTransform="translate(0 0)"><stop id="et5x8JQXKg283-fill-0" offset="0%" stop-color="#2300a1"/><stop id="et5x8JQXKg283-fill-1" offset="8.41%" stop-color="#39009b"/><stop id="et5x8JQXKg283-fill-2" offset="25.94%" stop-color="#71008b"/><stop id="et5x8JQXKg283-fill-3" offset="50.89%" stop-color="#cb0171"/><stop id="et5x8JQXKg283-fill-4" offset="58.6%" stop-color="#e80169"/><stop id="et5x8JQXKg283-fill-5" offset="100%" stop-color="#fa0"/></linearGradient><linearGradient id="et5x8JQXKg285-fill" x1="319.99" y1="151.506" x2="453.297" y2="337.786" spreadMethod="pad" gradientUnits="userSpaceOnUse" gradientTransform="translate(0 0)"><stop id="et5x8JQXKg285-fill-0" offset="0%" stop-color="#000"/><stop id="et5x8JQXKg285-fill-1" offset="36.76%" stop-color="#2e3847"/><stop id="et5x8JQXKg285-fill-2" offset="80.06%" stop-color="#627696"/><stop id="et5x8JQXKg285-fill-3" offset="100%" stop-color="#768fb5"/></linearGradient><linearGradient id="et5x8JQXKg287-fill" x1="307.789" y1="-26.4225" x2="355.124" y2="292.368" spreadMethod="pad" gradientUnits="userSpaceOnUse" gradientTransform="translate(0 0)"><stop id="et5x8JQXKg287-fill-0" offset="0%" stop-color="#fff"/><stop id="et5x8JQXKg287-fill-1" offset="100%" stop-color="#000"/></linearGradient><linearGradient id="et5x8JQXKg290-fill" x1="513.962" y1="337.937" x2="513.962" y2="622.357" spreadMethod="pad" gradientUnits="userSpaceOnUse" gradientTransform="translate(0 0)"><stop id="et5x8JQXKg290-fill-0" offset="0%" stop-color="#ffda00"/><stop id="et5x8JQXKg290-fill-1" offset="100%" stop-color="#fa0"/></linearGradient><linearGradient id="et5x8JQXKg291-fill" x1="180.139" y1="295.936" x2="180.139" y2="140.689" spreadMethod="pad" gradientUnits="userSpaceOnUse" gradientTransform="translate(0 0)"><stop id="et5x8JQXKg291-fill-0" offset="0%" stop-color="#ffda00"/><stop id="et5x8JQXKg291-fill-1" offset="100%" stop-color="#fa0"/></linearGradient><linearGradient id="et5x8JQXKg293-fill" x1="410.228" y1="434.93" x2="410.228" y2="642.694" spreadMethod="pad" gradientUnits="userSpaceOnUse" gradientTransform="translate(0 0)"><stop id="et5x8JQXKg293-fill-0" offset="0%" stop-color="#ffda00"/><stop id="et5x8JQXKg293-fill-1" offset="100%" stop-color="#fa0"/></linearGradient><linearGradient id="et5x8JQXKg295-fill" x1="177.453" y1="403.378" x2="177.453" y2="626.593" spreadMethod="pad" gradientUnits="userSpaceOnUse" gradientTransform="translate(0 0)"><stop id="et5x8JQXKg295-fill-0" offset="0%" stop-color="#ffda00"/><stop id="et5x8JQXKg295-fill-1" offset="100%" stop-color="#fa0"/></linearGradient><linearGradient id="et5x8JQXKg296-fill" x1="126.242" y1="403.378" x2="126.242" y2="626.591" spreadMethod="pad" gradientUnits="userSpaceOnUse" gradientTransform="translate(0 0)"><stop id="et5x8JQXKg296-fill-0" offset="0%" stop-color="#ffda00"/><stop id="et5x8JQXKg296-fill-1" offset="100%" stop-color="#fa0"/></linearGradient><linearGradient id="et5x8JQXKg297-fill" x1="253.514" y1="403.377" x2="253.514" y2="626.595" spreadMethod="pad" gradientUnits="userSpaceOnUse" gradientTransform="translate(0 0)"><stop id="et5x8JQXKg297-fill-0" offset="0%" stop-color="#ffda00"/><stop id="et5x8JQXKg297-fill-1" offset="100%" stop-color="#fa0"/></linearGradient><linearGradient id="et5x8JQXKg298-fill" x1="109.039" y1="403.568" x2="109.039" y2="626.782" spreadMethod="pad" gradientUnits="userSpaceOnUse" gradientTransform="translate(0 0)"><stop id="et5x8JQXKg298-fill-0" offset="0%" stop-color="#ffda00"/><stop id="et5x8JQXKg298-fill-1" offset="100%" stop-color="#fa0"/></linearGradient><linearGradient id="et5x8JQXKg2100-fill" x1="688.28" y1="231.755" x2="726.148" y2="437.916" spreadMethod="pad" gradientUnits="userSpaceOnUse" gradientTransform="translate(0 0)"><stop id="et5x8JQXKg2100-fill-0" offset="0%" stop-color="#ffda00"/><stop id="et5x8JQXKg2100-fill-1" offset="100%" stop-color="#fa0"/></linearGradient><linearGradient id="et5x8JQXKg2102-fill" x1="626.376" y1="225.199" x2="626.376" y2="92.7217" spreadMethod="pad" gradientUnits="userSpaceOnUse" gradientTransform="translate(0 0)"><stop id="et5x8JQXKg2102-fill-0" offset="0%" stop-color="#ffda00"/><stop id="et5x8JQXKg2102-fill-1" offset="100%" stop-color="#fa0"/></linearGradient><linearGradient id="et5x8JQXKg2104-fill" x1="571.424" y1="225.199" x2="571.424" y2="92.7217" spreadMethod="pad" gradientUnits="userSpaceOnUse" gradientTransform="translate(0 0)"><stop id="et5x8JQXKg2104-fill-0" offset="0%" stop-color="#ffda00"/><stop id="et5x8JQXKg2104-fill-1" offset="100%" stop-color="#fa0"/></linearGradient><linearGradient id="et5x8JQXKg2105-fill" x1="615.737" y1="225.199" x2="615.737" y2="92.7211" spreadMethod="pad" gradientUnits="userSpaceOnUse" gradientTransform="translate(0 0)"><stop id="et5x8JQXKg2105-fill-0" offset="0%" stop-color="#ffda00"/><stop id="et5x8JQXKg2105-fill-1" offset="100%" stop-color="#fa0"/></linearGradient><linearGradient id="et5x8JQXKg2106-fill" x1="505.609" y1="225.199" x2="505.609" y2="92.7228" spreadMethod="pad" gradientUnits="userSpaceOnUse" gradientTransform="translate(0 0)"><stop id="et5x8JQXKg2106-fill-0" offset="0%" stop-color="#ffda00"/><stop id="et5x8JQXKg2106-fill-1" offset="100%" stop-color="#fa0"/></linearGradient></defs><g><g><g><path d="M781.194,228.917l-208.76-115.56c-25.247-14.5956-66.069-14.5491-91.083,0L24.1236,377.852c-25.107047,14.596-34.313,45.322-9.0664,59.872L223.864,559.047c25.247,14.596,66.069,14.596,91.176.047L781.613,287.487c24.967-14.596,24.828-44.021-.419-58.57Z" fill="url(#et5x8JQXKg25-fill)"/><g><path d="M272.21,529.102c-13.111,0-25.293-2.882-34.406-8.135L33.1351,411.497C25.51,407.081,21,401.271,21,395.6c0-5.672,4.2775-11.296,12.0886-15.852L479.25,124.83c9.346-5.346,19.342-9.065,29.71-11.064c6.184-1.208,12.135-1.766,17.901-1.766c16.366,0,32.36,4.555,48.912,13.945L760.775,227.931c7.718,4.463,12.228,10.32,12.228,15.991s-4.278,11.296-12.089,15.804L306.43,520.967c-9.02,5.253-21.155,8.135-34.22,8.135Z" opacity="0.51" fill="#222324"/></g><g opacity="0.44"><path d="M452.557,406.043L239.147,282.861c-5.626-3.254-14.692-3.254-20.225-.047l-19.807,11.528c-5.533,3.208-5.486,8.46.14,11.714L412.664,429.239c5.626,3.254,14.693,3.254,20.226.047l19.806-11.529c5.533-3.207,5.487-8.46-.139-11.714Z" opacity="0.44" fill="#222324"/><path d="M741.381,241.629L527.971,118.446c-5.626-3.254-14.693-3.254-20.225-.046l-19.807,11.528c-5.579,3.254-5.579,8.506.046,11.76l213.41,123.183c5.626,3.254,14.693,3.254,20.272,0l19.807-11.528c5.579-3.207,5.532-8.46-.093-11.714Z" opacity="0.44" fill="#222324"/><path d="M546.569,201.746L457.16,150.149c-6.044-3.487-15.901-3.487-21.899,0l-76.623,44.485c-6.044,3.533-5.951,9.204.093,12.69l89.409,51.597c6.044,3.487,15.854,3.533,21.899,0l76.576-44.485c5.998-3.486,5.998-9.204-.046-12.69Z" opacity="0.44" fill="#222324"/><path d="M680.659,274.168L591.25,222.571c-6.044-3.487-15.901-3.487-21.899,0l-76.576,44.485c-6.045,3.533-5.952,9.204.093,12.69l89.409,51.598c6.044,3.486,15.854,3.532,21.899,0l76.576-44.486c5.998-3.486,5.951-9.204-.093-12.69Z" opacity="0.44" fill="#222324"/><path d="M561.215,336.271L359.568,219.874c-8.834-5.113-23.108-5.113-31.942,0l-67.835,39.419c-8.834,5.113-8.788,13.434.046,18.547L461.484,394.236c8.88,5.114,23.247,5.114,32.035,0l67.835-39.418c8.881-5.16,8.788-13.434-.139-18.547Z" opacity="0.44" fill="#222324"/></g></g><g style="mix-blend-mode:color-burn" opacity="0.4"><path d="M781.095,227.263L572.334,111.703c-25.246-14.596-66.068-14.5495-91.082,0L24.0242,376.198c-25.10701,14.596-34.3129,45.322-9.0664,59.871L223.765,557.393c25.246,14.596,66.069,14.596,91.176.046L781.513,285.832c24.968-14.596,24.828-44.02-.418-58.569Z" fill="#222324"/><path d="M481.066,111.843L24.2567,375.966c-24.921034,14.503-33.75499,44.764-8.6944,59.267L223.904,555.906c2.604,1.487,5.673,2.975,8.555,4.183c25.061,10.32,59.932,9.018,82.296-3.997L780.862,284.903c24.875-14.456,24.689-43.509-.372-58.012L587.956,120.349c-.186-.093-15.715-8.692-15.947-8.785-15.669-8.925-37.01-12.2719-57.049-10.134-.093,0-.186,0-.279.047-12.321,1.348-24.084,4.788-33.615,10.366Z" opacity="0.9738" fill="#222324"/><path d="M480.879,111.936L24.489,375.733c-24.735084,14.363-33.24358,44.253-8.3225,58.616L224.044,554.418c2.51,1.441,5.765,3.021,8.508,4.183c24.875,10.366,59.746,9.111,82.016-3.811L780.211,283.973c24.689-14.363,24.549-43.044-.372-57.408L587.631,120.163c-.419-.232-15.529-8.553-15.901-8.739-15.715-8.832-36.963-12.1786-56.956-9.947-.093,0-.186,0-.279.046-12.321,1.395-24.038,4.881-33.616,10.413Z" opacity="0.9477" fill="#222324"/><path d="M480.694,112.075L24.7216,375.501c-24.595583,14.27-32.73212,43.741-7.997,58.012L224.137,552.977c2.371,1.394,5.812,3.068,8.508,4.183c24.689,10.459,59.513,9.251,81.738-3.672L779.607,283.044c24.549-14.271,24.363-42.58-.372-56.85L587.352,120.024c-.604-.325-15.297-8.46-15.901-8.693-15.808-8.739-36.917-12.039-56.909-9.761-.093,0-.186,0-.279.046-12.275,1.395-23.992,4.928-33.569,10.459Z" opacity="0.9215" fill="#9098a0"/><path d="M480.507,112.214L25.0005,375.221c-24.409668,14.178-32.22075,43.184-7.6251,57.408L224.323,551.443c2.278,1.301,5.904,3.114,8.462,4.183c24.549,10.506,59.327,9.39,81.458-3.486L778.956,282.114c24.363-14.178,24.223-42.068-.372-56.293L586.98,119.838c-.79-.465-15.111-8.321-15.901-8.646-15.901-8.693-36.87-11.9003-56.863-9.576-.093,0-.186,0-.279.046-12.182,1.488-23.805,4.974-33.43,10.552Z" opacity="0.8954" fill="#949ca4"/><path d="M480.368,112.354L25.2325,374.989c-24.270111,14.085-31.66274,42.673-7.2531,56.757L224.415,549.955c2.185,1.255,5.998,3.161,8.416,4.184c24.363,10.598,59.094,9.483,81.226-3.347L778.304,281.184c24.224-14.085,24.038-41.603-.371-55.688L586.701,119.698c-1.023-.557-14.879-8.181-15.902-8.599-15.947-8.6-36.823-11.8072-56.769-9.39-.093,0-.186,0-.279.047-12.182,1.487-23.806,5.02-33.383,10.598Z" opacity="0.8692" fill="#99a1a9"/><path d="M480.182,112.447L25.4657,374.757c-24.08414,13.992-31.15131,42.161-6.8812,56.153L224.555,548.515c2.093,1.208,6.091,3.207,8.416,4.183c24.224,10.645,58.908,9.622,80.947-3.161L777.701,280.255c24.038-13.992,23.898-41.139-.372-55.13l-191-105.612c-1.209-.698-14.692-8.042-15.901-8.553-16.04-8.553-36.777-11.6678-56.723-9.204-.093,0-.186,0-.279.046-12.042,1.534-23.619,5.114-33.244,10.645Z" opacity="0.8431" fill="#9ea5ad"/><path d="M479.996,112.586L25.7441,374.524c-23.94474,13.899-30.63995,41.604-6.5558,55.502L224.694,546.98c1.953,1.116,6.184,3.254,8.369,4.184c24.038,10.738,58.676,9.762,80.668-3.022L777.049,279.325c23.899-13.852,23.713-40.674-.372-54.572L586.003,119.327c-1.395-.791-14.46-7.949-15.901-8.507-16.133-8.46-36.731-11.5281-56.677-9.018-.093,0-.186,0-.279.047-11.995,1.58-23.526,5.159-33.15,10.737Z" opacity="0.8169" fill="#a3aab1"/><path d="M479.81,112.726L25.9767,374.292c-23.75869,13.805-30.12844,41.092-6.1837,54.897l205.041,116.35c1.86,1.069,6.277,3.301,8.322,4.184c23.899,10.784,58.49,9.854,80.389-2.882l462.9-268.4c23.712-13.759,23.573-40.208-.372-54.014L585.678,119.187c-1.627-.93-14.274-7.809-15.901-8.46-16.227-8.367-36.684-11.4353-56.584-8.786-.093,0-.186,0-.279.047-11.949,1.534-23.433,5.16-33.104,10.738Z" opacity="0.7908" fill="#a8aeb5"/><path d="M479.671,112.865L26.2559,374.06c-23.61924,13.712-29.57054,40.58-5.8118,54.293L225.02,544.052c1.767,1.023,6.323,3.347,8.323,4.184c23.712,10.877,58.257,9.994,80.11-2.697L775.887,277.512c23.573-13.666,23.387-39.697-.372-53.41L585.446,119.048c-1.814-1.023-14.042-7.67-15.855-8.414-16.273-8.321-36.638-11.2955-56.537-8.599-.093,0-.186.046-.279.046-11.996,1.534-23.48,5.206-33.104,10.784Z" opacity="0.7646" fill="#adb3b9"/><path d="M479.484,112.958L26.4882,373.827c-23.43328,13.62-29.05912,40.023-5.4864,53.643L225.113,542.564c1.674.977,6.416,3.394,8.276,4.184c23.573,10.924,58.072,10.134,79.831-2.557L775.19,276.582c23.386-13.573,23.247-39.232-.326-52.852L585.074,118.815c-2-1.115-13.856-7.53-15.855-8.367-16.366-8.227-36.591-11.156-56.491-8.413-.093,0-.186.046-.279.046-11.903,1.674-23.294,5.299-32.965,10.877Z" opacity="0.7385" fill="#b1b7bd"/><path d="M479.299,113.098L26.721,373.548c-23.24725,13.527-28.54762,39.512-5.1144,53.038L225.253,541.077c1.534.883,6.509,3.44,8.229,4.183c23.387,11.017,57.839,10.227,79.599-2.37L774.586,275.699c23.2-13.48,23.061-38.768-.326-52.295L584.795,118.676c-2.232-1.255-13.623-7.438-15.855-8.321-16.459-8.135-36.544-11.0632-56.444-8.228-.093,0-.186.047-.279.047-11.856,1.673-23.247,5.346-32.918,10.924Z" opacity="0.7123" fill="#b6bcc1"/><path d="M479.113,113.237L26.9997,373.316c-23.10782,13.434-27.989747,39-4.7425,52.434L225.438,539.59c1.442.836,6.603,3.486,8.23,4.183c23.247,11.11,57.653,10.366,79.32-2.231L774.027,274.723c23.062-13.387,22.922-38.303-.325-51.737L584.469,118.49c-2.418-1.348-13.39-7.298-15.854-8.274-16.553-8.088-36.499-10.9239-56.352-8.042-.093,0-.186.047-.279.047-11.856,1.72-23.154,5.438-32.871,11.016Z" opacity="0.6862" fill="#bbc0c5"/><path d="M478.973,113.376L27.2325,373.083c-22.92185,13.341-27.478323,38.489-4.417,51.784L225.532,538.102c1.348.79,6.695,3.533,8.183,4.183c23.061,11.157,57.42,10.506,79.04-2.045L773.33,273.84c22.876-13.295,22.736-37.838-.325-51.133L584.144,118.35c-2.604-1.487-13.204-7.158-15.855-8.227-16.598-7.996-36.451-10.7847-56.305-7.856-.093,0-.185.046-.278.046-11.764,1.72-23.015,5.439-32.733,11.063Z" opacity="0.66" fill="#c0c4c9"/><path d="M478.787,113.469L27.5111,372.851c-22.78228,13.248-26.966788,37.931-4.045,51.179L225.717,536.661c1.256.697,6.742,3.579,8.137,4.183c22.875,11.25,57.235,10.599,78.762-1.905L772.726,272.91c22.735-13.202,22.596-37.327-.326-50.575L583.818,118.164c-2.789-1.58-12.972-7.019-15.854-8.181-16.692-7.949-36.406-10.6447-56.259-7.67-.093,0-.186.047-.279.047-11.67,1.766-22.922,5.531-32.639,11.109Z" opacity="0.6338" fill="#c5c9ce"/><path d="M478.601,113.609L27.7439,372.619c-22.59638,13.155-26.45542,37.419-3.6731,50.528L225.857,535.127c1.162.651,6.835,3.672,8.137,4.184c22.735,11.295,57.002,10.737,78.482-1.72l459.645-265.61c22.55-13.109,22.411-36.862-.325-50.017L583.539,117.979c-3.022-1.72-12.785-6.926-15.808-8.135-16.784-7.856-36.358-10.552-56.165-7.484-.093,0-.186.046-.279.046-11.763,1.813-22.922,5.625-32.686,11.203Z" opacity="0.6077" fill="#cacdd2"/><path d="M478.415,113.749L27.9763,372.386C5.51942,385.402,2.07882,409.294,24.6287,422.31L225.95,533.686c1.023.604,6.928,3.719,8.09,4.183c22.55,11.389,56.816,10.878,78.204-1.58l459.18-265.192c22.41-13.015,22.271-36.397-.326-49.412L583.121,117.886c-3.208-1.813-12.554-6.787-15.808-8.089-16.878-7.762-36.312-10.4121-56.119-7.298-.093,0-.186.047-.279.047-11.577,1.766-22.736,5.578-32.5,11.203Z" opacity="0.5815" fill="#cfd2d6"/><path d="M478.276,113.888L28.2552,372.153c-22.27088,12.923-25.38601,36.351-2.9756,49.32L226.136,532.245c.93.558,7.021,3.765,8.043,4.183c22.411,11.435,56.584,10.971,77.972-1.441l458.715-264.82c22.224-12.922,22.085-35.932-.326-48.854L582.889,117.699c-3.395-1.952-12.368-6.647-15.809-8.041-16.924-7.717-36.265-10.2732-56.072-7.112-.093,0-.186.046-.279.046-11.577,1.86-22.689,5.671-32.453,11.296Z" opacity="0.5554" fill="#d3d6da"/><path d="M478.09,113.981L28.4878,371.875c-22.08491,12.829-24.87458,35.839-2.6037,48.669L226.276,530.664c.836.465,7.113,3.812,8.043,4.184c22.225,11.528,56.398,11.11,77.692-1.255L770.262,269.191c22.085-12.829,21.945-35.467-.326-48.297L582.563,117.467c-3.626-2.045-12.135-6.508-15.808-7.995-17.017-7.624-36.219-10.1801-55.979-6.926-.093,0-.186.046-.279.046-11.577,1.953-22.643,5.811-32.407,11.389Z" opacity="0.5292" fill="#d8dbde"/><path d="M477.904,114.121L28.7664,371.643C6.82102,384.379,4.4033,406.97,26.4882,419.707L226.415,529.224c.744.418,7.206,3.858,7.997,4.183c22.085,11.575,56.212,11.249,77.413-1.115L769.61,268.308c21.899-12.736,21.76-34.956-.325-47.739L582.237,117.328c-3.812-2.138-11.949-6.415-15.808-7.949-17.11-7.577-36.172-10.0404-55.933-6.74-.093,0-.186.046-.279.046-11.484,1.953-22.503,5.811-32.313,11.436Z" opacity="0.5031" fill="#dddfe2"/><path d="M477.718,114.26L28.9989,371.41c-21.75944,12.643-23.80521,34.77-1.9063,47.414L226.554,527.689c.605.372,7.253,3.905,7.951,4.184c21.899,11.667,55.979,11.342,77.134-.93l457.32-263.611c21.713-12.644,21.62-34.491-.325-47.135L581.865,117.142c-3.998-2.278-11.716-6.276-15.808-7.903-17.156-7.484-36.126-9.9007-55.886-6.507-.093,0-.186.046-.233.046-11.391,1.999-22.41,5.857-32.22,11.482Z" opacity="0.4769" fill="#e2e4e6"/><path d="M477.579,114.399L29.2319,371.178c-21.61991,12.55-23.29371,34.258-1.5343,46.809L226.694,526.249c.512.278,7.346,3.951,7.951,4.183c21.759,11.714,55.793,11.482,76.855-.79L768.356,266.449c21.573-12.551,21.434-34.027-.326-46.577L581.587,116.956c-4.231-2.371-11.531-6.136-15.762-7.856-17.249-7.391-36.079-9.808-55.84-6.322-.093,0-.186.047-.232.047-11.438,2.045-22.364,5.95-32.174,11.574Z" opacity="0.4508" fill="#e7e8ea"/><path d="M477.392,114.492L29.5104,370.945C8.07641,383.403,6.72807,404.693,28.348,417.151L226.88,524.808c.418.232,7.439,3.997,7.904,4.183c21.573,11.807,55.561,11.621,76.576-.604L767.751,265.566c21.387-12.458,21.294-33.562-.326-46.019L581.261,116.863c-4.417-2.51-11.298-5.996-15.762-7.809-17.342-7.345-36.033-9.6689-55.747-6.136-.093,0-.186.046-.232.046-11.391,1.999-22.317,5.904-32.128,11.528Z" opacity="0.4246" fill="#ecedef"/><path d="M477.207,114.631L29.7433,370.712c-21.29449,12.365-22.22438,33.19-.8369,45.555L226.973,523.273c.326.186,7.532,4.044,7.858,4.184c21.434,11.853,55.375,11.714,76.344-.465L767.1,264.589c21.248-12.318,21.109-33.097-.279-45.461L580.983,116.63c-4.603-2.603-11.113-5.903-15.762-7.763-17.436-7.251-35.987-9.5288-55.701-5.95-.093,0-.186.047-.232.047-11.345,2.092-22.224,6.043-32.081,11.667Z" opacity="0.3985" fill="#f0f1f3"/><path d="M477.021,114.771L29.9756,370.48c-21.10849,12.272-21.71292,32.678-.4649,44.95L227.112,521.832c.186.14,7.626,4.091,7.858,4.184c21.248,11.946,55.143,11.853,76.065-.279L766.496,263.753c21.062-12.226,20.969-32.586-.279-44.858L580.657,116.444c-4.835-2.742-10.88-5.764-15.762-7.716-17.482-7.158-35.94-9.3897-55.654-5.764-.093,0-.186.047-.232.047-11.298,2.138-22.132,6.089-31.988,11.76Z" opacity="0.3723" fill="#f5f6f7"/></g></g><g><path d="M400.775,436.143L187.366,312.96c-5.626-3.254-14.646-3.3-20.226-.046l-19.806,11.528c-5.533,3.207-5.487,8.46.139,11.714l213.41,123.182c5.626,3.254,14.692,3.254,20.225.047l19.807-11.528c5.579-3.254,5.486-8.46-.14-11.714Z" fill="url(#et5x8JQXKg241-fill)"/><g style="mix-blend-mode:screen"><path d="M400.915,441.535l-19.806,11.528c-5.533,3.208-14.6,3.208-20.226-.046L147.473,329.834c-1.208-.697-2.092-1.488-2.789-2.324-2.604,3.068-1.72,6.926,2.789,9.483l213.41,123.182c5.626,3.254,14.693,3.254,20.226.047l19.806-11.528c4.417-2.557,5.208-6.322,2.65-9.39-.697.837-1.534,1.58-2.65,2.231Z" fill="url(#et5x8JQXKg243-fill)"/></g><g style="mix-blend-mode:screen"><path d="M187.365,312.96c-5.626-3.254-14.646-3.3-20.225-.046l-19.807,11.528c-5.533,3.207-5.486,8.46.14,11.714l75.6,43.648h80.11L187.365,312.96Z" fill="url(#et5x8JQXKg245-fill)"/></g></g><g><path d="M325.129,483.371l-96.756-55.828c-4.091-2.37-10.647-2.324-14.599,0l-29.245,17.014c-3.998,2.324-4.045,6.089.047,8.46l96.755,55.827c3.998,2.324,10.647,2.324,14.599,0l29.245-17.013c3.999-2.324,3.999-6.136-.046-8.46Z" fill="url(#et5x8JQXKg247-fill)"/><g style="mix-blend-mode:screen"><path d="M325.92,484.905c-.279.186-.372.418-.698.604l-29.245,17.013c-3.998,2.324-10.601,2.324-14.599,0l-96.755-55.827c-.326-.186-.465-.465-.744-.651-3.115,2.324-3.022,5.671.744,7.856l96.755,55.827c3.998,2.324,10.647,2.324,14.599,0l29.245-17.013c3.627-2.092,3.766-5.485.698-7.809Z" fill="url(#et5x8JQXKg249-fill)"/></g><g style="mix-blend-mode:screen"><path d="M228.373,427.497c-4.091-2.371-10.647-2.324-14.599,0L184.529,444.51c-3.999,2.324-4.045,6.09.046,8.46l18.133,10.459h87.921l-62.256-35.932Z" fill="url(#et5x8JQXKg251-fill)"/></g></g><g id="et5x8JQXKg252_to" transform="translate(329.043259,327.532639)"><g transform="translate(-329.043259,-327.532639)"><path d="M455.686,377.108L242.276,253.925c-5.626-3.254-14.693-3.254-20.225-.046l-19.807,11.528c-5.533,3.207-5.486,8.46.139,11.714l213.41,123.183c5.626,3.254,14.693,3.254,20.225.046l19.807-11.528c5.533-3.254,5.533-8.506-.139-11.714Z" fill="url(#et5x8JQXKg253-fill)"/><g style="mix-blend-mode:screen"><path d="M455.825,382.5l-19.806,11.528c-5.533,3.208-14.6,3.208-20.225-.046L202.384,270.799c-1.209-.697-2.093-1.487-2.79-2.324-2.604,3.068-1.72,6.926,2.79,9.483l213.41,123.183c5.625,3.253,14.692,3.253,20.225.046l19.806-11.528c4.371-2.51,5.208-6.322,2.651-9.39-.651.837-1.488,1.581-2.651,2.231Z" fill="url(#et5x8JQXKg255-fill)"/></g><g style="mix-blend-mode:screen"><path d="M242.322,253.925c-5.626-3.254-14.693-3.254-20.225-.046L202.29,265.407c-5.533,3.207-5.486,8.46.139,11.714l82.807,47.786h80.064L242.322,253.925Z" fill="url(#et5x8JQXKg257-fill)"/></g></g></g><g><path d="M202.802,412.762l-96.756-55.874c-3.998-2.324-10.6468-2.324-14.5989,0l-29.245,17.013c-3.9986,2.324-3.9521,6.136.0465,8.46l96.7554,55.828c3.998,2.324,10.647,2.324,14.599,0l29.245-17.014c3.999-2.277,3.952-6.136-.046-8.413Z" fill="url(#et5x8JQXKg259-fill)"/><g style="mix-blend-mode:screen"><path d="M203.546,414.295c-.279.186-.372.419-.698.605l-29.245,17.013c-3.998,2.324-10.6,2.324-14.599,0L62.2489,376.085c-.3255-.185-.465-.464-.744-.65-3.0686,2.324-2.9291,5.717.744,7.855l96.7551,55.828c3.999,2.324,10.647,2.324,14.599,0l29.245-17.013c3.673-2.092,3.766-5.485.698-7.81Z" fill="url(#et5x8JQXKg261-fill)"/></g><g style="mix-blend-mode:screen"><path d="M106.046,356.888c-3.998-2.325-10.6471-2.325-14.5991,0L62.2018,373.901c-3.9985,2.324-3.952,6.136.0465,8.46l25.0141,14.41h87.9216l-69.138-39.883Z" fill="url(#et5x8JQXKg263-fill)"/></g></g><g id="et5x8JQXKg264_to" transform="translate(612.966248,90.72672)"><g transform="translate(-549.218079,-75.655929)"><path d="M674.163,125.629L460.8,2.44626c-5.626-3.25389-14.692-3.253891-20.225-.04649L428.393,9.46536c-9.764,5.67104-9.764,14.92144.047,20.59244L631.714,147.384c6.974,4.044,18.412,3.997,25.386-.047l17.249-10.04c5.487-3.161,5.44-8.414-.186-11.668Z" fill="url(#et5x8JQXKg265-fill)"/><g style="mix-blend-mode:screen"><path d="M674.396,130.835l-16.971,10.134c-6.835,4.091-18.086,4.091-24.921.046L425.324,18.0649c-1.162-.6972-2.046-1.4875-2.696-2.3242-2.558,3.1145-1.674,6.9726,2.696,9.5758L632.504,148.267c6.881,4.091,18.086,4.044,24.921-.047l16.971-10.133c4.277-2.557,5.114-6.368,2.603-9.483-.697.79-1.488,1.581-2.603,2.231Z" fill="url(#et5x8JQXKg267-fill)"/></g><g style="mix-blend-mode:screen"><path d="M460.8,2.44626c-5.626-3.253889-14.693-3.25389-20.226-.04649L426.58,10.5345c-8.788,5.1132-8.741,13.4339.046,18.5007L532.448,90.1153h80.203L460.8,2.44626Z" fill="url(#et5x8JQXKg269-fill)"/></g></g></g><g id="et5x8JQXKg270_to" transform="translate(457.621995,99.935325)"><g transform="translate(-413.664963,-113.737797)"><path d="M507.573,110.522L418.164,58.9245c-6.044-3.4863-15.901-3.4863-21.899,0L319.689,103.41c-6.045,3.533-5.952,9.204.093,12.69l89.409,51.597c6.044,3.487,15.854,3.533,21.899,0l76.576-44.485c5.998-3.486,5.952-9.204-.093-12.69Z" fill="url(#et5x8JQXKg271-fill)"/><g style="mix-blend-mode:screen"><path d="M319.736,116.983l89.409,51.597c6.044,3.487,15.854,3.533,21.899,0l76.576-44.485c4.603-2.65,5.626-6.647,3.162-9.901-.744.976-1.767,1.906-3.162,2.742l-76.576,44.486c-6.045,3.532-15.855,3.486-21.899,0l-89.409-51.598c-1.442-.836-2.465-1.766-3.255-2.789-2.464,3.254-1.395,7.252,3.255,9.948Z" fill="url(#et5x8JQXKg273-fill)"/></g><g style="mix-blend-mode:screen"><path d="M418.164,58.8778c-6.044-3.4863-15.901-3.4863-21.899,0L334.009,95.0424h146.83L418.164,58.8778Z" fill="url(#et5x8JQXKg275-fill)"/></g></g></g><g id="et5x8JQXKg276_to" transform="translate(586.754349,204.985328)"><g transform="translate(-535.995438,-184.324013)"><path d="M629.9,181.131l-89.409-51.597c-6.044-3.487-15.901-3.487-21.899,0l-76.576,44.485c-6.045,3.533-5.952,9.204.093,12.69l89.409,51.598c6.044,3.486,15.854,3.532,21.898,0l76.577-44.486c5.998-3.486,5.951-9.204-.093-12.69Z" fill="url(#et5x8JQXKg277-fill)"/><g style="mix-blend-mode:screen"><path d="M629.993,187.499l-76.577,44.486c-6.044,3.532-15.854,3.486-21.898,0l-89.409-51.598c-1.442-.836-2.465-1.766-3.255-2.789-2.511,3.301-1.395,7.298,3.255,9.948l89.409,51.597c6.044,3.487,15.854,3.533,21.898,0l76.577-44.485c4.603-2.65,5.626-6.647,3.162-9.901-.744,1.022-1.767,1.952-3.162,2.742Z" fill="url(#et5x8JQXKg279-fill)"/></g><g style="mix-blend-mode:screen"><path d="M540.491,129.487c-6.044-3.486-15.901-3.486-21.899,0l-53.189,30.912h128.65l-53.562-30.912Z" fill="url(#et5x8JQXKg281-fill)"/></g></g></g><g id="et5x8JQXKg282_to" transform="translate(410.558594,251.47876)"><g transform="translate(-384.906509,-241.560501)"><path d="M535.564,270.334L333.917,153.938c-8.834-5.113-23.108-5.113-31.942,0l-67.836,39.419c-8.834,5.113-8.787,13.434.047,18.547L435.833,328.3c8.88,5.113,23.247,5.113,32.034,0l67.836-39.418c8.834-5.16,8.741-13.434-.139-18.548Z" fill="url(#et5x8JQXKg283-fill)"/><g style="mix-blend-mode:screen"><path d="M535.749,282.559l-67.835,39.419c-8.834,5.113-23.154,5.113-32.035,0L234.186,205.582c-2.836-1.627-4.65-3.58-5.672-5.671-2.186,4.416-.372,9.389,5.672,12.876L435.833,329.183c8.88,5.113,23.247,5.113,32.034,0l67.836-39.419c5.998-3.486,7.764-8.367,5.579-12.783-.976,2.046-2.789,3.951-5.533,5.578Z" fill="url(#et5x8JQXKg285-fill)"/></g><g style="mix-blend-mode:screen"><path d="M333.916,153.938c-8.834-5.113-23.108-5.113-31.942,0l-67.835,39.419c-8.834,5.113-8.788,13.434.046,18.547l25.433,14.689h200.066L333.916,153.938Z" fill="url(#et5x8JQXKg287-fill)"/></g></g></g><g><g><path id="et5x8JQXKg290" d="M572.182,621.51c-2.524-1.473-6.662-1.473-9.186,0-.07,0-.07.07-.141.07L515.45,594.235c-7.644-4.418-13.885-15.215-13.885-24.05l.21-188.121c0-9.606-6.732-21.315-15.077-26.153l-20.828-12.06c1.473-1.473,1.262-3.296-.912-4.558-2.524-1.472-6.662-1.472-9.186,0-2.525,1.473-2.525,3.857,0,5.329c2.384,1.402,6.171,1.402,8.766.21l22.23,12.832c7.503,4.347,13.534,14.934,13.534,23.488l-.21,188.121c0,9.747,6.943,21.666,15.358,26.574l46.283,26.644c-1.051,1.403-.701,3.085,1.333,4.207c2.524,1.473,6.662,1.473,9.186,0c2.455-1.332,2.455-3.716-.07-5.188Z" opacity="0" fill="url(#et5x8JQXKg290-fill)"/><path id="et5x8JQXKg291" d="M238.304,297.713c-2.525-1.472-6.662-1.472-9.187,0-.07,0-.07.07-.14.07l-47.406-27.345c-7.643-4.417-13.885-15.215-13.885-24.05l.211-56.513c0-9.606-6.733-21.315-15.078-26.153l-20.827-12.06c1.472-1.473,1.262-3.296-.912-4.558-2.525-1.472-6.662-1.472-9.187,0-2.524,1.473-2.524,3.857,0,5.329c2.385,1.402,6.172,1.402,8.766.21l22.23,12.832c7.504,4.347,13.535,14.934,13.535,23.489l-.21,56.513c0,9.746,6.872,21.666,15.357,26.574l46.284,26.644c-1.122,1.402-.701,3.085,1.332,4.207c2.525,1.472,6.662,1.472,9.187,0c2.525-1.262,2.525-3.716-.07-5.189Z" opacity="0" fill="url(#et5x8JQXKg291-fill)"/><g id="et5x8JQXKg292" opacity="0"><path d="M466.361,639.88c-2.525-1.473-6.662-1.473-9.187,0-.07,0-.07.07-.14.07l-43.268-24.961c-7.644-4.417-13.885-15.215-13.885-24.05l.21-118.005c0-9.606-6.732-21.315-15.077-26.153l-20.828-12.06c1.473-1.473,1.263-3.296-.911-4.558-2.525-1.472-6.662-1.472-9.187,0-2.525,1.473-2.525,3.857,0,5.329c2.384,1.403,6.171,1.403,8.766.211l22.23,12.831c7.504,4.347,13.534,14.934,13.534,23.489l-.21,118.005c0,9.746,6.873,21.665,15.358,26.573l42.076,24.331c-1.052,1.402-.701,3.085,1.332,4.207c2.525,1.472,6.662,1.472,9.187,0c2.525-1.403,2.525-3.787,0-5.259Z" fill="url(#et5x8JQXKg293-fill)"/><g><path d="M252.474,471.532c-.28-.14-.561-.281-.841-.421-.281-.14-.491-.28-.702-.491l-12.412,7.643c-10.729,6.24-29.664,5.399-42.216-1.823l-81.347-46.347c-12.553-7.292-14.026-18.23-3.296-24.47l12.412-7.643c-.28-.14-.491-.21-.771-.35-.281-.141-.491-.281-.702-.491l-12.412,7.642c-11.5008,6.732-10.098,18.511,3.296,26.224l81.347,46.346c13.324,7.713,33.661,8.484,45.232,1.823l12.412-7.642Z" fill="url(#et5x8JQXKg295-fill)"/><path d="M130.804,393.423c-2.524-1.473-6.662-1.473-9.186,0-2.174,1.262-2.385,3.085-.912,4.557l1.332.982c2.525,1.262,6.312,1.192,8.766-.211c2.525-1.402,2.595-3.856,0-5.328Z" fill="url(#et5x8JQXKg296-fill)"/><path d="M258.084,467.114c-2.524-1.472-6.662-1.472-9.186,0-2.174,1.263-2.385,3.086-.912,4.558l1.333.982c2.524,1.262,6.311,1.192,8.765-.211c2.525-1.402,2.525-3.856,0-5.329Z" fill="url(#et5x8JQXKg297-fill)"/></g><path d="M52.8934,657.739c2.5246-1.472,6.6621-1.472,9.1866,0c.0702,0,.0702.07.1403.07l43.2687-24.961c7.643-4.417,13.885-15.215,13.885-24.05l-.211-110.923c0-9.606,6.732-21.315,15.077-26.153l20.828-12.06c-1.473-1.473-1.262-3.296.912-4.558c2.524-1.472,6.662-1.472,9.186,0c2.525,1.473,2.525,3.857,0,5.329-2.384,1.402-6.171,1.402-8.765.21L134.17,473.475c-7.503,4.347-13.534,14.934-13.534,23.489l.21,110.993c0,9.746-6.872,21.666-15.357,26.574l-42.0766,24.33c1.0519,1.402.7013,3.085-1.3324,4.207-2.5245,1.472-6.662,1.472-9.1866,0-2.5245-1.402-2.5245-3.856,0-5.329Z" fill="url(#et5x8JQXKg298-fill)"/></g></g><g><path id="et5x8JQXKg2100" d="M771.301,480.422c-2.185-1.273-5.765-1.273-7.949,0-.061,0-.061.06-.122.06l-48.665-28.133c-6.614-3.82-12.015-13.157-12.015-20.797l.182-184.565c0-8.307-5.825-18.432-13.046-22.616l-35.012-20.615c1.274-1.273,1.092-2.85-.789-3.941-2.185-1.273-5.765-1.273-7.949,0-2.185,1.273-2.185,3.335,0,4.608c2.063,1.213,5.34,1.213,7.585.182l36.165,21.282c6.493,3.759,11.711,12.915,11.711,20.312l-.182,184.565c0,8.428,5.947,18.735,13.289,22.98l47.695,27.527c-.91,1.212-.607,2.667,1.153,3.638c2.184,1.273,5.764,1.273,7.949,0c2.245-1.152,2.245-3.214,0-4.487Z" opacity="0" fill="url(#et5x8JQXKg2100-fill)"/><g id="et5x8JQXKg2101" opacity="0"><path d="M670.693,73.5782c-2.184,1.2733-5.764,1.2733-7.949,0-.06,0-.06-.0606-.121-.0606l-37.44,21.5851c-6.614,3.8199-12.014,13.1573-12.014,20.7973l.182,59.601c0,8.307-5.826,18.433-13.047,22.616l-9.526,5.639c1.274,1.273,1.092,2.85-.789,3.941-2.185,1.273-5.765,1.273-7.949,0-2.185-1.273-2.185-3.335,0-4.608c2.063-1.213,5.339-1.213,7.585-.182l10.74-6.306c6.493-3.759,11.711-12.914,11.711-20.311l-.182-59.602c0-8.428,5.947-18.7356,13.289-22.9798l36.408-21.0395c-.91-1.2126-.607-2.6678,1.153-3.6379c2.185-1.2733,5.765-1.2733,7.949,0c2.185,1.2126,2.185,3.2741,0,4.5474Z" fill="url(#et5x8JQXKg2102-fill)"/><g><path d="M506.493,193.327c.243.122.485.243.728.364s.425.243.607.424l10.74-6.608c9.284-5.397,25.668-4.669,36.53,1.576l70.389,40.078c10.861,6.306,12.136,15.764,2.852,21.161l-10.741,6.609c.243.121.425.182.668.303.242.121.424.242.606.424l10.741-6.609c9.951-5.82,8.738-15.946-2.852-22.616l-70.389-40.078c-11.529-6.669-29.127-7.336-39.139-1.576l-10.74,6.548Z" fill="url(#et5x8JQXKg2104-fill)"/><path d="M611.773,260.811c2.184,1.273,5.764,1.273,7.949,0c1.881-1.091,2.063-2.668.789-3.941l-1.153-.849c-2.185-1.091-5.461-1.031-7.585.182-2.185,1.273-2.185,3.335,0,4.608Z" fill="url(#et5x8JQXKg2105-fill)"/><path d="M501.638,197.087c2.185,1.273,5.765,1.273,7.949,0c1.882-1.092,2.064-2.668.789-3.942l-1.153-.848c-2.184-1.092-5.461-1.031-7.585.181-2.184,1.274-2.184,3.335,0,4.609Z" fill="url(#et5x8JQXKg2106-fill)"/></g></g></g></g></g></svg>