<svg id="Layer_1" data-name="Layer 1" xmlns="http://www.w3.org/2000/svg" viewBox="0 0 537.8 173.63"><defs><style>.cls-1{fill:#f05656;}.cls-2{fill:#f7f8f8;}</style></defs><path class="cls-1" d="M187.48,86.87V45.23a11.72,11.72,0,0,1,.1-2.65,2.91,2.91,0,0,1,3-2.55,2.7,2.7,0,0,1,2.84,2.62,19.88,19.88,0,0,1,.1,3v82.28c0,2.36.58,5.54-2.88,5.6-3.71.07-3.12-3.2-3.12-5.69Q187.46,107.36,187.48,86.87Z"/><path class="cls-2" d="M231.12,108.71,218.58,64.85h8.14q.84,3.15,2.86,10.7t3.47,13.13q1.44,5.59,2.74,10.82,1.4-5.34,3.11-10.92c1.13-3.73,2.5-8.09,4.08-13.08s2.71-8.55,3.36-10.65h7.29l7.83,24.5,3,10.27q1.25-5.27,2.64-10.9t3.29-13.1q1.88-7.47,2.72-10.79H281l-12.23,43.88H260L249.77,75.42l-10,33.29Z"/><path class="cls-2" d="M281,108.71l17.63-43.86h7.77l17.8,43.86h-8.67L311.32,98H293.61l-4.16,10.69Zm15.4-17.83h11.75q-3.49-10.29-5.82-17.08-1.94,5.69-5.9,17.08Z"/><path class="cls-2" d="M339.12,108.71v-17l-15.63-26.9h8.71l10.87,20.09,10.79-20.09h8.88l-16,26.87v17Z"/><path class="cls-2" d="M369.6,108.71V64.85h7.65v37.29h20.31v6.57Z"/><path class="cls-2" d="M404.06,108.71l17.63-43.86h7.78l17.77,43.86H438.6L434.35,98H416.63l-4.16,10.69Zm15.41-17.83h11.75q-3.47-10.29-5.81-17.08-1.94,5.69-5.92,17.08Z"/><path class="cls-2" d="M453.76,108.71V64.85h8.1q20.91,30.3,22.27,32.3V64.85h7.29v43.86H483.3Q463.1,79.52,460.86,76.36v32.35Z"/><path class="cls-2" d="M499.38,108.71V64.85h12.24q13.17,0,19.68,5.6t6.5,16.1q0,10.89-6.37,16.54t-18.58,5.66Zm7.66-6.57h6.24q7.94,0,12.2-4t4.25-11.7q0-7.31-4.3-11.2t-13.12-3.86H507Z"/><path class="cls-2" d="M0,83.26C-.1,78,.88,72.09,1.89,66.21c1.13-6.63,1.65-13.36,2.47-20,.87-7.11,1.09-14.37,4.27-21C15.75,10.31,27.48,2,44,.7c6.06-.48,12,.85,18,1.44,4.9.47,9.76,1.35,14.67,1.63,4.46.26,8.87-.87,13.3-1.28C98.5,1.74,107,0,115.59,0c20.13-.07,38.06,14.7,41.54,34.58,1.47,8.4,2.19,16.94,3.14,25.44.82,7.46,2,14.89,2.36,22.4a93.32,93.32,0,0,1-1.8,21.81c-1.23,6.54-1.69,13.23-2.47,19.85-1.53,13.11-3,26.25-4.62,39.35a10.69,10.69,0,0,1-12.18,9.35c-15.63-1.75-31.29-3.39-46.91-5.47-7.37-1-14.56-.38-21.83.5q-17.64,2.1-35.3,4.15c-4.05.46-8.12.83-12.15,1.44C15.14,175,9.21,168.29,8.3,161.78c-.83-5.9-1.4-11.84-2.05-17.75-1.4-11.91-2.81-23.81-4.09-35.71C1.34,100.18-.11,92.13,0,83.26Zm8.63,1.28c-.05,6.77,1.56,15.91,2.55,25.11,1.29,12,2.72,23.93,4.08,35.9.54,4.76,1,9.52,1.63,14.28.42,3.32,2.85,5.36,6,5,8.11-.92,16.21-1.9,24.31-2.84,13.83-1.62,27.64-3.41,41.49-4.79,15.48-1.55,29.36-6.86,41-17.28,17.44-15.68,25.62-35.37,24.12-58.86-.4-6.3-1.3-12.6-2-18.9-1-8.62-1.73-17.29-3.15-25.83-2.87-17.19-19.75-29.53-37-27.47-8.4,1-16.86,1.85-25.28,2.91-7.57,1-15.22,1.4-22.69,3.06C32.08,22,9.63,50,8.63,84.54Zm148.22,32.91c-12.27,26.13-32.32,42.22-60.78,47.7.34.06.65.13,1,.17,14.65,1.69,29.32,3.25,44,5.15a9.54,9.54,0,0,0,10.76-8.14c0-.26.06-.52.08-.78.86-9.6,2.15-19.15,3.25-28.7q.9-7.68,1.77-15.37ZM66.69,5.15a13.6,13.6,0,0,0-4.28-.63c-6-.59-11.9-1.89-18-1.59A38.65,38.65,0,0,0,8.19,34.44c-1,5.2-1.34,10.5-2,15.78-.07.53-.65,1.22.09,1.46s.81-.7,1-1.16C19.51,25.39,39.4,10.43,66.69,5.15Z"/><path class="cls-2" d="M39.44,81.38c0-5.89.06-11.79,0-17.68,0-1.56.52-1.81,1.88-1.74a16,16,0,0,1,15.33,16c.07,6.35,0,12.7,0,19a10.37,10.37,0,0,0,8.66,10.41c6.31,1.07,11.75-3.87,11.79-10.76.07-8.49.19-17,0-25.46A8.78,8.78,0,0,1,85.7,62c4.9,0,8.54,3.88,8.55,9.1V97.32a10.16,10.16,0,0,0,20.06,2.42,12.2,12.2,0,0,0,.21-2.7c.07-6.8-.16-13.61.23-20.4.47-8.17,7-14.2,15.12-14.7,1.33-.08,1.95.13,1.94,1.72-.07,11.61.25,23.21-.12,34.8-.36,11-5.9,19.26-15.93,23.85s-19.7,3.23-28.45-3.56c-1.4-1.06-2-1.08-3.4,0C75,125.61,65.22,127,55.1,122.14S39.74,108.8,39.43,97.5C39.32,92.15,39.44,86.76,39.44,81.38Z"/><path class="cls-2" d="M37.82,73.71c0,3.3-.08,6.6,0,9.89.06,1.6-.5,1.79-1.91,1.57-6-.92-9.88-6.53-9.07-13.41A11,11,0,0,1,36,62.11c1.3-.17,1.84,0,1.8,1.52C37.75,67,37.82,70.35,37.82,73.71Z"/></svg>