<svg width="149" height="50" viewBox="0 0 149 50" fill="none" xmlns="http://www.w3.org/2000/svg">
<g clip-path="url(#clip0_2366_5714)">
<path d="M49.8386 22.2441L48.4628 10.995C48.0586 7.68505 46.3071 4.7257 43.5331 2.66366C40.7846 0.62093 37.3545 -0.295697 33.88 0.0831358L23.8384 1.17804L15.6626 0.291122C8.75157 -0.456144 2.48096 4.20424 1.68208 10.6801L0.675548 18.8524C0.0224923 21.4018 -0.174059 24.0982 0.16198 26.851L2.55546 46.4241C2.68702 47.4996 3.25607 48.4608 4.15799 49.1309C4.92041 49.6984 5.8461 49.9985 6.8035 49.9985C6.96993 49.9985 7.13637 49.9895 7.30438 49.9717L26.2779 47.9022L43.4903 49.7652C43.6219 49.7801 43.7535 49.786 43.8835 49.786C45.5858 49.786 47.0616 48.5856 47.2613 46.9633L49.3187 30.262C49.9765 27.7082 50.1763 25.0044 49.8386 22.2441ZM2.34148 10.7514C3.04367 5.04956 8.22374 0.834859 14.2059 0.834859C14.6624 0.834859 15.122 0.860115 15.5865 0.90914L21.0265 1.49745C12.0739 2.64583 4.87603 8.30307 1.72488 15.7505L2.34148 10.7514ZM6.98737 47.5026C6.55781 47.5487 6.13618 47.4358 5.79538 47.1832C5.44825 46.9262 5.23109 46.5563 5.17878 46.1403L2.7853 26.5658C1.41578 15.3627 9.94831 5.19515 21.8095 3.90118L34.1764 2.55223C34.5853 2.50767 34.9943 2.48538 35.4001 2.48538C37.7428 2.48538 40.0047 3.22225 41.8736 4.60982C44.0927 6.25885 45.4923 8.62693 45.8173 11.2758L47.1931 22.5249C48.5642 33.7294 40.0301 43.897 28.1689 45.191L6.98737 47.5026ZM46.6035 46.8935C46.4307 48.3004 45.0659 49.3106 43.568 49.1502L29.0914 47.5828C37.9838 46.4018 45.1325 40.7668 48.2726 33.358L46.6035 46.8935Z" fill="#F7F7F7"/>
<path d="M6.80482 49.9999C5.84742 49.9999 4.92332 49.6999 4.15931 49.1323C3.25739 48.4623 2.68834 47.5011 2.55678 46.4255L0.161715 26.851C-1.37423 14.2871 8.20445 2.88353 21.5144 1.43208L33.8813 0.0831358C37.3574 -0.295697 40.7859 0.62093 43.5329 2.66366C46.3068 4.7257 48.0583 7.68505 48.4641 10.995L49.8399 22.2441C51.3759 34.808 41.7972 46.2116 28.4872 47.6631L7.30571 49.9732C7.13769 49.991 6.96967 49.9999 6.80482 49.9999ZM35.4109 2.48687C35.0051 2.48687 34.5962 2.50915 34.1872 2.55372L21.8204 3.90266C9.96073 5.19515 1.42662 15.3627 2.79772 26.5688L5.1912 46.1433C5.24192 46.5578 5.46066 46.9277 5.80621 47.1862C6.14542 47.4387 6.56864 47.5516 6.9982 47.5056L28.1797 45.1955C40.0394 43.9015 48.5735 33.7339 47.2039 22.5294L45.8281 11.2802C45.5047 8.6299 44.1035 6.26331 41.8844 4.61427C40.0156 3.22225 37.7537 2.48687 35.4109 2.48687Z" fill="#F7F7F7"/>
<path d="M40.225 17.7207C37.5066 17.7207 35.3033 19.7871 35.3033 22.3365V27.8659C35.3144 28.9341 34.7121 29.928 33.7277 30.4643C32.7418 31.0021 31.5244 31.0021 30.5401 30.4643C29.5542 29.9265 28.9518 28.9341 28.9645 27.8659V20.1586C28.9645 18.7948 27.7931 17.6895 26.3491 17.6895C24.9051 17.6895 23.7337 18.7948 23.7337 20.1586V27.8659C23.7337 29.515 22.3024 30.8506 20.5398 30.8387C18.7914 30.8268 17.3934 29.4674 17.3934 27.8273V22.335C17.3934 19.7857 15.1901 17.7192 12.4717 17.7192H12.1626V27.8645C12.161 31.0363 14.1598 33.905 17.246 35.1588C20.3321 36.4127 23.9113 35.8095 26.3491 33.6272C28.787 35.8095 32.3661 36.4112 35.4523 35.1588C38.5385 33.905 40.5373 31.0377 40.5357 27.8645V17.7192H40.225V17.7207Z" fill="#F7F7F7"/>
<path d="M8.19824 20.8653V21.1921C8.19824 22.9288 9.68822 24.3357 11.5269 24.3357V17.7217C9.68822 17.7217 8.19824 19.1286 8.19824 20.8653Z" fill="#F7F7F7"/>
<path d="M49.8386 22.2441L48.4628 10.995C48.0586 7.68505 46.3071 4.7257 43.5331 2.66366C40.7846 0.62093 37.3545 -0.295697 33.88 0.0831358L23.8384 1.17804L15.6626 0.291122C8.75157 -0.456144 2.48096 4.20424 1.68208 10.6801L0.675548 18.8524C0.0224923 21.4018 -0.174059 24.0982 0.16198 26.851L2.55546 46.4241C2.68702 47.4996 3.25607 48.4608 4.15799 49.1309C4.92041 49.6984 5.8461 49.9985 6.8035 49.9985C6.96993 49.9985 7.13637 49.9895 7.30438 49.9717L26.2779 47.9022L43.4903 49.7652C43.6219 49.7801 43.7535 49.786 43.8835 49.786C45.5858 49.786 47.0616 48.5856 47.2613 46.9633L49.3187 30.262C49.9765 27.7082 50.1763 25.0044 49.8386 22.2441ZM2.34148 10.7514C3.04367 5.04956 8.22374 0.834859 14.2059 0.834859C14.6624 0.834859 15.122 0.860115 15.5865 0.90914L21.0265 1.49745C12.0739 2.64583 4.87603 8.30307 1.72488 15.7505L2.34148 10.7514ZM6.98737 47.5026C6.55781 47.5487 6.13618 47.4358 5.79538 47.1832C5.44825 46.9262 5.23109 46.5563 5.17878 46.1403L2.7853 26.5658C1.41578 15.3627 9.94831 5.19515 21.8095 3.90118L34.1764 2.55223C34.5853 2.50767 34.9943 2.48538 35.4001 2.48538C37.7428 2.48538 40.0047 3.22225 41.8736 4.60982C44.0927 6.25885 45.4923 8.62693 45.8173 11.2758L47.1931 22.5249C48.5642 33.7294 40.0301 43.897 28.1689 45.191L6.98737 47.5026ZM46.6035 46.8935C46.4307 48.3004 45.0659 49.3106 43.568 49.1502L29.0914 47.5828C37.9838 46.4018 45.1325 40.7668 48.2726 33.358L46.6035 46.8935Z" fill="#F7F7F7"/>
<path d="M6.80482 49.9999C5.84742 49.9999 4.92332 49.6999 4.15931 49.1323C3.25739 48.4623 2.68834 47.5011 2.55678 46.4255L0.161715 26.851C-1.37423 14.2871 8.20445 2.88353 21.5144 1.43208L33.8813 0.0831358C37.3574 -0.295697 40.7859 0.62093 43.5329 2.66366C46.3068 4.7257 48.0583 7.68505 48.4641 10.995L49.8399 22.2441C51.3759 34.808 41.7972 46.2116 28.4872 47.6631L7.30571 49.9732C7.13769 49.991 6.96967 49.9999 6.80482 49.9999ZM35.4109 2.48687C35.0051 2.48687 34.5962 2.50915 34.1872 2.55372L21.8204 3.90266C9.96073 5.19515 1.42662 15.3627 2.79772 26.5688L5.1912 46.1433C5.24192 46.5578 5.46066 46.9277 5.80621 47.1862C6.14542 47.4387 6.56864 47.5516 6.9982 47.5056L28.1797 45.1955C40.0394 43.9015 48.5735 33.7339 47.2039 22.5294L45.8281 11.2802C45.5047 8.6299 44.1035 6.26331 41.8844 4.61427C40.0156 3.22225 37.7537 2.48687 35.4109 2.48687Z" fill="#F7F7F7"/>
<path d="M40.225 17.7207C37.5066 17.7207 35.3033 19.7871 35.3033 22.3365V27.8659C35.3144 28.9341 34.7121 29.928 33.7277 30.4643C32.7418 31.0021 31.5244 31.0021 30.5401 30.4643C29.5542 29.9265 28.9518 28.9341 28.9645 27.8659V20.1586C28.9645 18.7948 27.7931 17.6895 26.3491 17.6895C24.9051 17.6895 23.7337 18.7948 23.7337 20.1586V27.8659C23.7337 29.515 22.3024 30.8506 20.5398 30.8387C18.7914 30.8268 17.3934 29.4674 17.3934 27.8273V22.335C17.3934 19.7857 15.1901 17.7192 12.4717 17.7192H12.1626V27.8645C12.161 31.0363 14.1598 33.905 17.246 35.1588C20.3321 36.4127 23.9113 35.8095 26.3491 33.6272C28.787 35.8095 32.3661 36.4112 35.4523 35.1588C38.5385 33.905 40.5373 31.0377 40.5357 27.8645V17.7192H40.225V17.7207Z" fill="#F7F7F7"/>
<path d="M8.19824 20.8653V21.1921C8.19824 22.9288 9.68823 24.3357 11.5269 24.3357V17.7217C9.68823 17.7217 8.19824 19.1286 8.19824 20.8653Z" fill="#F7F7F7"/>
</g>
<path d="M69.6574 33L65.6734 21.72H67.8174L70.8894 30.968H70.2494L73.5614 21.72H75.0974L78.1694 30.968H77.5774L80.7934 21.72H82.8094L78.7934 33H77.0814L74.1054 24.328H74.4574L71.3694 33H69.6574ZM82.2578 33L87.3618 21.72H89.0898L94.2578 33H92.1618L90.7858 29.832L91.6178 30.392H84.8498L85.7138 29.832L84.3378 33H82.2578ZM88.2098 23.928L85.9538 29.272L85.5378 28.776H90.9138L90.5778 29.272L88.2738 23.928H88.2098ZM97.2109 33V27.672L97.6429 28.904L92.7949 21.72H95.1789L98.5069 26.84H98.0589L101.387 21.72H103.691L98.8589 28.904L99.2749 27.672V33H97.2109ZM105.006 33V21.72H107.07V31.256H112.382V33H105.006ZM112.461 33L117.565 21.72H119.293L124.461 33H122.365L120.989 29.832L121.821 30.392H115.053L115.917 29.832L114.541 33H112.461ZM118.413 23.928L116.157 29.272L115.741 28.776H121.117L120.781 29.272L118.477 23.928H118.413ZM125.709 33V21.72H127.261L133.805 30.184H133.389V21.72H135.309V33H133.757L127.229 24.536H127.629V33H125.709ZM137.787 33V21.72H141.883C143.174 21.72 144.262 21.944 145.147 22.392C146.043 22.8293 146.72 23.4693 147.179 24.312C147.638 25.144 147.867 26.1573 147.867 27.352C147.867 28.536 147.638 29.5493 147.179 30.392C146.72 31.2347 146.043 31.88 145.147 32.328C144.262 32.776 143.174 33 141.883 33H137.787ZM139.851 31.288H141.755C143.12 31.288 144.134 30.9627 144.795 30.312C145.456 29.6613 145.787 28.6747 145.787 27.352C145.787 26.0187 145.456 25.032 144.795 24.392C144.134 23.7413 143.12 23.416 141.755 23.416H139.851V31.288Z" fill="white"/>
<rect x="57" y="12" width="2" height="30" rx="1" fill="#FF5353"/>
<defs>
<clipPath id="clip0_2366_5714">
<rect width="50" height="50" fill="white"/>
</clipPath>
</defs>
</svg>
