<svg id="Layer_1" data-name="Layer 1" xmlns="http://www.w3.org/2000/svg" viewBox="0 0 895.69 332.73"><defs><style>.cls-1{fill:#ff5353;}.cls-2{fill:#f7f7f7;}</style></defs><path class="cls-1" d="M329.06,166.44V107a17.14,17.14,0,0,1,.14-3.79,4.16,4.16,0,0,1,4.25-3.64c2.35,0,3.73,1.41,4.06,3.74a32,32,0,0,1,.14,4.27V225.07c0,3.38.83,7.92-4.11,8-5.3.11-4.46-4.56-4.46-8.13Q329,195.69,329.06,166.44Z"/><path class="cls-2" d="M391.39,197.64,373.49,135h11.62q1.2,4.5,4.09,15.29T394.15,169q2.06,8,3.91,15.45,2-7.62,4.44-15.6t5.83-18.68q3.42-10.71,4.8-15.21h10.41l11.19,35,4.3,14.67q1.77-7.53,3.77-15.58t4.69-18.71q2.67-10.68,3.89-15.4h11.28l-17.47,62.67H432.66L418,150.09l-14.29,47.55Z"/><path class="cls-2" d="M463.69,197.64,488.87,135H500l25.42,62.65H513l-6.07-15.27h-25.3l-5.94,15.27Zm22-25.47h16.78q-5-14.7-8.31-24.4-2.78,8.13-8.43,24.4Z"/><path class="cls-2" d="M547.65,197.64V173.42L525.32,135h12.44l15.53,28.7L568.7,135h12.69l-22.81,38.38v24.27Z"/><path class="cls-2" d="M589.18,197.64V135h10.93v53.27h29v9.38Z"/><path class="cls-2" d="M639,197.64,664.18,135h11.1l25.39,62.65H688.32l-6.07-15.27H657L651,197.64Zm22-25.47h16.79q-4.95-14.7-8.31-24.4-2.76,8.13-8.45,24.4Z"/><path class="cls-2" d="M709.39,197.64V135H721q29.85,43.29,31.8,46.13V135h10.42v62.65h-11.6q-28.87-41.7-32.06-46.21v46.21Z"/><path class="cls-2" d="M779.55,197.64V135H797q18.81,0,28.11,8t9.29,23q0,15.54-9.1,23.62t-26.53,8.09Zm10.93-9.38h8.91q11.34,0,17.43-5.68t6.07-16.7q0-10.45-6.14-16T798,144.37h-7.53Z"/><path class="cls-2" d="M61.29,161.29c-.14-7.59,1.26-15.95,2.7-24.36,1.61-9.47,2.36-19.08,3.53-28.63,1.24-10.16,1.55-20.53,6.09-30,10.18-21.2,26.93-33,50.48-34.93,8.65-.69,17.12,1.22,25.67,2.05,7,.68,13.94,1.93,21,2.34,6.37.37,12.67-1.25,19-1.83,12.26-1.08,24.37-3.56,36.68-3.56,28.75-.1,54.36,21,59.33,49.39,2.1,12,3.13,24.2,4.48,36.33,1.17,10.66,2.85,21.27,3.37,32A133.52,133.52,0,0,1,291,191.24c-1.75,9.34-2.42,18.89-3.53,28.35-2.19,18.73-4.25,37.49-6.59,56.2-1.09,8.7-8.61,14.34-17.4,13.36-22.33-2.5-44.69-4.84-67-7.81-10.53-1.41-20.8-.55-31.18.71q-25.2,3-50.42,5.92c-5.79.67-11.6,1.19-17.36,2.07-14.6,2.23-23.07-7.3-24.38-16.61-1.18-8.42-2-16.9-2.93-25.35-2-17-4-34-5.83-51C63.21,185.46,61.13,174,61.29,161.29Zm12.33,1.83c-.07,9.66,2.23,22.72,3.64,35.86,1.84,17.1,3.88,34.18,5.83,51.27.77,6.8,1.49,13.61,2.33,20.4.59,4.75,4.07,7.66,8.57,7.15,11.58-1.32,23.14-2.72,34.72-4.07,19.75-2.31,39.47-4.86,59.25-6.84,22.11-2.21,41.94-9.79,58.5-24.67,24.92-22.4,36.6-50.52,34.46-84.07-.57-9-1.86-18-2.9-27-1.43-12.31-2.47-24.69-4.5-36.89-4.1-24.55-28.21-42.18-52.85-39.24-12,1.43-24.08,2.64-36.1,4.16-10.82,1.38-21.75,2-32.42,4.37C107.11,73.75,75,113.72,73.62,163.12Zm211.69,47c-17.52,37.32-46.15,60.31-86.81,68.13.49.09.94.19,1.39.24,20.93,2.42,41.88,4.64,62.77,7.36A13.64,13.64,0,0,0,278,274.22c.05-.37.09-.74.11-1.11,1.24-13.71,3.07-27.36,4.65-41q1.27-11,2.52-22ZM156.54,49.73c-1.86-.84-4-.71-6.11-.91-8.54-.84-17-2.7-25.65-2.26A55.16,55.16,0,0,0,73,91.56c-1.4,7.43-1.92,15-2.88,22.54-.09.75-.92,1.74.14,2.08s1.15-1,1.47-1.66C89.15,78.63,117.57,57.26,156.54,49.73Z"/><path class="cls-2" d="M117.62,158.61c0-8.42.09-16.84-.06-25.26,0-2.23.75-2.59,2.69-2.48a22.77,22.77,0,0,1,21.89,22.81c.1,9.07,0,18.14,0,27.21a14.81,14.81,0,0,0,12.38,14.86c9,1.53,16.77-5.52,16.84-15.37.09-12.12.26-24.25-.07-36.36-.18-6.52,4.73-13.17,12.4-13.13,7,0,12.2,5.54,12.22,13v37.48a14.51,14.51,0,0,0,28.65,3.46,17.85,17.85,0,0,0,.3-3.86c.09-9.71-.23-19.44.32-29.13.67-11.68,9.94-20.29,21.6-21,1.9-.12,2.78.18,2.77,2.46-.1,16.57.36,33.15-.17,49.7-.51,15.77-8.42,27.51-22.75,34.06S198.49,221.67,186,212c-2-1.52-2.86-1.55-4.86,0-12.69,9.79-26.69,11.73-41.14,4.84s-21.94-19.06-22.38-35.2C117.45,174,117.62,166.29,117.62,158.61Z"/><path class="cls-2" d="M115.31,147.65c0,4.71-.12,9.42,0,14.12.09,2.29-.71,2.56-2.73,2.25-8.64-1.32-14.11-9.33-13-19.16.84-7.13,6.4-12.91,13.11-13.78,1.85-.24,2.63,0,2.57,2.17C115.21,138.05,115.31,142.85,115.31,147.65Z"/></svg>