<svg width="85" height="91" viewBox="0 0 85 91" fill="none" xmlns="http://www.w3.org/2000/svg">
<g clip-path="url(#clip0_1564_3488)">
<path d="M84.7252 40.4842L82.3863 20.0108C81.6991 13.9867 78.7215 8.60068 74.0059 4.84777C69.3334 1.13 63.5022 -0.538257 57.5955 0.151219L40.5249 2.14394L26.6259 0.529755C14.8772 -0.83027 4.21717 7.65163 2.85907 19.4376L1.14797 34.3114C0.0377731 38.9511 -0.296364 43.8586 0.274902 48.8688L4.34382 84.4917C4.56748 86.4492 5.53486 88.1986 7.06811 89.418C8.36424 90.4509 9.93791 90.9971 11.5655 90.9971C11.8484 90.9971 12.1314 90.9809 12.417 90.9484L44.6719 87.182L73.9331 90.5726C74.1568 90.5996 74.3805 90.6104 74.6014 90.6104C77.4955 90.6104 80.0042 88.4257 80.3437 85.4732L83.8414 55.0767C84.9596 50.4289 85.2992 45.5079 84.7252 40.4842ZM3.98005 19.5674C5.17377 9.19011 13.9799 1.51936 24.1495 1.51936C24.9256 1.51936 25.707 1.56532 26.4965 1.65455L35.7446 2.72526C20.5252 4.81532 8.28879 15.1115 2.93183 28.6658L3.98005 19.5674ZM11.8781 86.4547C11.1478 86.5385 10.431 86.333 9.85169 85.8733C9.26156 85.4056 8.89239 84.7323 8.80347 83.9752L4.73455 48.3496C2.40637 27.9601 16.9117 9.45509 37.0757 7.10005L58.0994 4.64498C58.7946 4.56386 59.4898 4.52331 60.1797 4.52331C64.1623 4.52331 68.0076 5.8644 71.1846 8.38978C74.9571 11.391 77.3365 15.7009 77.8889 20.5218L80.2278 40.9952C82.5587 61.3875 68.0507 79.8925 47.8867 82.2475L11.8781 86.4547ZM79.2254 85.3461C78.9317 87.9066 76.6116 89.7452 74.0652 89.4532L49.4549 86.6007C64.5719 84.4511 76.7248 74.1955 82.0629 60.7115L79.2254 85.3461Z" fill="#F7F7F7"/>
<path d="M11.5681 90.9998C9.9405 90.9998 8.36952 90.4536 7.0707 89.4208C5.53744 88.2013 4.57006 86.452 4.34641 84.4944L0.274794 48.8688C-2.33632 26.0025 13.9474 5.24793 36.5744 2.60629L57.5981 0.151219C63.5074 -0.538257 69.336 1.13 74.0058 4.84777C78.7214 8.60068 81.699 13.9867 82.3888 20.0108L84.7278 40.4842C87.3389 63.3505 71.0551 84.105 48.4282 86.7467L12.4196 90.9511C12.1339 90.9836 11.8483 90.9998 11.5681 90.9998ZM60.1984 4.52601C59.5086 4.52601 58.8134 4.56657 58.1181 4.64768L37.0945 7.10276C16.9331 9.45509 2.42512 27.9601 4.756 48.355L8.82491 83.9807C8.91114 84.735 9.28301 85.4083 9.87044 85.8787C10.4471 86.3384 11.1666 86.5439 11.8968 86.4601L47.9054 82.2556C68.0668 79.9006 82.5748 61.3956 80.2466 41.0033L77.9076 20.53C77.3579 15.7063 74.9759 11.3991 71.2033 8.39789C68.0264 5.8644 64.1811 4.52601 60.1984 4.52601Z" fill="#F7F7F7"/>
<path d="M68.3821 32.2511C63.7608 32.2511 60.0152 36.0121 60.0152 40.6519V50.7156C60.0341 52.6596 59.0101 54.4685 57.3367 55.4446C55.6607 56.4233 53.5912 56.4233 51.9178 55.4446C50.2417 54.4658 49.2178 52.6596 49.2393 50.7156V36.6881C49.2393 34.206 47.248 32.1943 44.7931 32.1943C42.3383 32.1943 40.347 34.206 40.347 36.6881V50.7156C40.347 53.7168 37.9137 56.1475 34.9172 56.1259C31.9451 56.1043 29.5684 53.6303 29.5684 50.6453V40.6492C29.5684 36.0094 25.8228 32.2484 21.2015 32.2484H20.676V50.7129C20.6733 56.4855 24.0713 61.7066 29.3178 63.9886C34.5642 66.2707 40.6488 65.1729 44.7931 61.201C48.9375 65.1729 55.022 66.268 60.2685 63.9886C65.515 61.7066 68.9129 56.4882 68.9102 50.7129V32.2484H68.3821V32.2511Z" fill="#F7F7F7"/>
<path d="M13.9368 37.9752V38.57C13.9368 41.7308 16.4697 44.2913 19.5955 44.2913V32.2539C16.4697 32.2539 13.9368 34.8144 13.9368 37.9752Z" fill="#F7F7F7"/>
<path d="M84.7253 40.4842L82.3864 20.0108C81.6992 13.9867 78.7217 8.60068 74.006 4.84777C69.3335 1.13 63.5023 -0.538257 57.5956 0.151219L40.525 2.14394L26.626 0.529755C14.8773 -0.83027 4.2173 7.65164 2.85919 19.4376L1.14809 34.3114C0.0378952 38.9511 -0.296241 43.8586 0.275024 48.8688L4.34395 84.4917C4.5676 86.4493 5.53498 88.1986 7.06824 89.4181C8.36436 90.4509 9.93804 90.9971 11.5656 90.9971C11.8485 90.9971 12.1315 90.9809 12.4171 90.9484L44.6721 87.182L73.9333 90.5726C74.1569 90.5996 74.3806 90.6105 74.6015 90.6105C77.4956 90.6105 80.0043 88.4258 80.3438 85.4732L83.8415 55.0768C84.9598 50.4289 85.2993 45.5079 84.7253 40.4842ZM3.98017 19.5674C5.1739 9.19011 13.98 1.51936 24.1496 1.51936C24.9257 1.51936 25.7071 1.56532 26.4967 1.65455L35.7447 2.72526C20.5253 4.81532 8.28891 15.1115 2.93195 28.6658L3.98017 19.5674ZM11.8782 86.4547C11.1479 86.5385 10.4312 86.333 9.85181 85.8734C9.26168 85.4056 8.89251 84.7323 8.80359 83.9753L4.73467 48.3496C2.40649 27.9601 16.9118 9.45509 37.0759 7.10005L58.0995 4.64498C58.7947 4.56386 59.4899 4.52331 60.1798 4.52331C64.1625 4.52331 68.0077 5.86441 71.1847 8.38978C74.9572 11.391 77.3366 15.7009 77.889 20.5219L80.228 40.9952C82.5588 61.3875 68.0508 79.8925 47.8868 82.2475L11.8782 86.4547ZM79.2256 85.3461C78.9318 87.9066 76.6117 89.7452 74.0653 89.4532L49.4551 86.6007C64.5721 84.4511 76.7249 74.1955 82.063 60.7115L79.2256 85.3461Z" fill="#F7F7F7"/>
<path d="M11.5681 90.9998C9.9405 90.9998 8.36952 90.4536 7.0707 89.4208C5.53744 88.2013 4.57006 86.452 4.34641 84.4944L0.274794 48.8688C-2.33632 26.0025 13.9474 5.24793 36.5744 2.60629L57.5981 0.151219C63.5074 -0.538257 69.336 1.13 74.0058 4.84777C78.7214 8.60068 81.699 13.9867 82.3888 20.0108L84.7278 40.4842C87.3389 63.3505 71.0551 84.105 48.4282 86.7467L12.4196 90.9511C12.1339 90.9836 11.8483 90.9998 11.5681 90.9998ZM60.1984 4.52601C59.5086 4.52601 58.8134 4.56657 58.1181 4.64768L37.0945 7.10276C16.9331 9.45509 2.42512 27.9601 4.756 48.355L8.82491 83.9807C8.91114 84.735 9.28301 85.4083 9.87044 85.8787C10.4471 86.3384 11.1666 86.5439 11.8968 86.4601L47.9054 82.2556C68.0668 79.9006 82.5748 61.3956 80.2466 41.0033L77.9076 20.53C77.3579 15.7063 74.9759 11.3991 71.2033 8.39789C68.0264 5.8644 64.1811 4.52601 60.1984 4.52601Z" fill="#F7F7F7"/>
<path d="M68.3821 32.2511C63.7608 32.2511 60.0152 36.0121 60.0152 40.6519V50.7156C60.0341 52.6596 59.0101 54.4685 57.3367 55.4446C55.6607 56.4233 53.5912 56.4233 51.9178 55.4446C50.2417 54.4658 49.2178 52.6596 49.2393 50.7156V36.6881C49.2393 34.206 47.248 32.1943 44.7931 32.1943C42.3383 32.1943 40.347 34.206 40.347 36.6881V50.7156C40.347 53.7168 37.9137 56.1475 34.9172 56.1259C31.9451 56.1043 29.5684 53.6303 29.5684 50.6453V40.6492C29.5684 36.0094 25.8228 32.2484 21.2015 32.2484H20.676V50.7129C20.6733 56.4855 24.0713 61.7066 29.3178 63.9886C34.5642 66.2707 40.6488 65.1729 44.7931 61.201C48.9375 65.1729 55.022 66.268 60.2685 63.9886C65.515 61.7066 68.9129 56.4882 68.9102 50.7129V32.2484H68.3821V32.2511Z" fill="#F7F7F7"/>
<path d="M13.9368 37.9752V38.57C13.9368 41.7308 16.4697 44.2913 19.5955 44.2913V32.2539C16.4697 32.2539 13.9368 34.8144 13.9368 37.9752Z" fill="#F7F7F7"/>
</g>
<defs>
<clipPath id="clip0_1564_3488">
<rect width="85" height="91" fill="white"/>
</clipPath>
</defs>
</svg>
