<svg width="850" height="236" viewBox="0 0 850 236" fill="none" xmlns="http://www.w3.org/2000/svg">
<g clip-path="url(#clip0_3849_10103)">
<path opacity="0.9" d="M881.875 -5.60498H-5.90283V261.075H881.875V-5.60498Z" fill="url(#paint0_linear_3849_10103)"/>
<g opacity="0.5">
<path opacity="0.5" d="M-184.426 217.515C-102.271 219.327 -58.4374 237.629 -0.106139 237.18C35.4935 236.065 47.4643 229.882 114.467 211.043C164.853 197.025 188.251 192.948 224.058 184.493C322.54 160.563 315.468 129.712 383.468 150.958C443.499 171.195 486.513 201.633 552.842 170.245C602.585 144.633 622.619 114.36 717.235 160.669C753.389 178.682 777.313 192.458 811.88 200.11C844.9 206.359 859.799 201.591 901.549 203.173C952.815 205.881 971.633 216.082 1011.15 217.533" stroke="#303030" stroke-width="35" stroke-linecap="round" stroke-linejoin="round"/>
<path opacity="0.5" d="M-184.426 217.515C-126.408 218.908 -91.6464 227.764 -44.9495 233.445C41.7741 243.08 46.8269 221.51 184.208 190.287C310.256 162.15 292.524 153.117 328.673 143.677C369.833 136.196 402.322 161.412 453.221 178.54C561.596 212.235 570.262 125.741 657.457 140.326C705.636 150.444 739.73 179.944 791.964 197.556C827.741 208.583 843.708 205.544 881.633 204.435C947.089 203.173 965.216 215.84 1011.15 217.515" stroke="#313131" stroke-width="35" stroke-linecap="round" stroke-linejoin="round"/>
<path opacity="0.5" d="M-184.426 217.515C-127.435 219.002 -90.5308 227.876 -44.9495 232.714C42.7126 241.05 50.764 217.439 184.208 187.03C230.692 176.575 255.041 172.445 288.811 157.825C310.35 148.025 313.603 145.116 328.673 141.488C395.374 130.868 451.45 212.453 537.897 182.039C583.277 163.837 601.369 130.03 662.445 143.299C708.912 155.294 742.015 183.608 791.97 200.329C827.617 211.185 843.678 207.851 881.639 206.058C945.743 203.656 966.592 215.893 1011.16 217.504" stroke="#323232" stroke-width="35" stroke-linecap="round" stroke-linejoin="round"/>
<path opacity="0.5" d="M-184.426 217.516C-127.996 219.126 -91.3158 227.805 -44.9495 231.988C42.8661 238.874 53.8453 213.964 179.226 184.83C224.601 174.487 246.896 171.224 278.853 159.3C300.215 150.828 303.055 147.931 318.709 142.096C386.727 121.54 441.445 210.105 527.933 188.039C578.773 172.44 593.147 135.393 652.481 143.329C698.771 151.695 731.679 180.145 782 199.721C817.151 212.412 833.785 211.338 871.669 208.412C944.864 203.072 963.221 215.799 1011.15 217.516" stroke="#333333" stroke-width="35" stroke-linecap="round" stroke-linejoin="round"/>
<path opacity="0.5" d="M-184.426 217.515C-129.406 219.285 -90.9794 227.923 -44.9495 231.251C43.9168 236.561 58.5616 209.161 179.226 181.059C224.436 170.787 246.181 168.191 278.853 156.651C300.027 148.698 303.244 145.748 318.709 140.367C386.727 121.617 441.239 213.114 527.933 190.653C578.697 174.805 592.999 137.234 652.481 145.701C700.624 154.828 734.742 185.939 786.982 204.541C820.463 215.445 836.866 213.657 871.669 210.323C944.35 203.709 963.038 215.852 1011.15 217.515" stroke="#353535" stroke-width="35" stroke-linecap="round" stroke-linejoin="round"/>
<path opacity="0.5" d="M-184.426 217.515C-129.324 219.456 -86.8829 228.796 -39.9676 230.725C46.2425 233.05 68.248 202.37 184.208 176.156C228.367 166.421 250.024 164.232 283.835 152.261C306.083 143.866 308.515 141.205 323.685 137.423C390.841 126.39 445.872 219.28 532.915 191.703C581.27 173.779 596.93 137.057 657.463 149.075C705.654 160.799 740.138 192.606 791.97 209.173C825.338 218.731 841.465 215.545 876.657 211.71C944.74 204.765 962.938 215.916 1011.16 217.527" stroke="#363636" stroke-width="35" stroke-linecap="round" stroke-linejoin="round"/>
<path opacity="0.5" d="M-184.426 217.515C-130.445 219.598 -87.6974 228.826 -39.9676 229.905C47.0689 230.548 72.1852 197.656 184.208 172.392C225.716 163.33 246.335 161.56 278.853 151.406C300.882 144.072 303.214 141.582 318.709 136.963C385.534 122.071 438.411 215.114 522.945 197.219C576.4 182.941 588.655 143.258 647.494 149.659C695.489 157.329 729.79 189.189 781.994 208.878C812.512 219.445 829.647 219.574 861.682 215.474C948.317 204.081 951.404 215.598 1011.13 217.521" stroke="#373737" stroke-width="35" stroke-linecap="round" stroke-linejoin="round"/>
<path opacity="0.5" d="M-184.426 217.515C-128.421 219.875 -85.8853 229.622 -34.9797 229.015C48.2376 226.619 81.671 190.794 189.184 167.56C231.011 158.875 250.426 157.648 283.835 147.246C306.596 139.659 308.686 137.246 323.685 134.296C390.711 126.956 445.66 225.421 532.915 196.865C580.987 178.457 596.606 140.727 657.463 153.902C703.977 166.073 737.068 196.582 786.988 213.621C820.173 223.834 836.719 221.291 871.675 216.07C942.981 205.704 961.875 215.981 1011.16 217.515" stroke="#383838" stroke-width="35" stroke-linecap="round" stroke-linejoin="round"/>
<path opacity="0.5" d="M-184.426 217.515C-130.918 219.952 -85.8499 229.717 -34.9797 228.1C49.7074 223.94 84.4866 186.098 189.184 163.684C227.452 155.872 246.819 154.781 278.853 146.19C301.473 139.7 303.208 137.5 318.709 133.694C386.591 122.26 440.548 225.144 527.933 201.072C578.897 184.115 592.444 144.639 652.481 155.253C698.854 165.707 731.862 196.464 782 214.949C812.582 225.221 829.866 224.796 861.688 219.622C946.215 205.527 949.167 215.669 1011.15 217.515" stroke="#3A3A3A" stroke-width="35" stroke-linecap="round" stroke-linejoin="round"/>
<path opacity="0.5" d="M-184.426 217.516C-128.905 220.306 -83.5773 230.69 -30.0037 226.885C52.3223 219.48 93.4234 178.646 194.202 158.504C231.135 151.495 250.791 150.834 283.865 142.444C306.886 136.154 308.804 133.936 323.714 131.942C390.776 128.909 445.17 231.652 532.944 201.833C580.975 182.794 596.376 144.692 657.493 159.035C705.724 172.54 740.273 205.828 791.999 220.985C825.208 229.475 841.966 225.079 876.687 218.861C942.095 207.562 963.269 216.17 1011.19 217.516" stroke="#3B3B3B" stroke-width="35" stroke-linecap="round" stroke-linejoin="round"/>
<path opacity="0.5" d="M-184.426 217.516C-132.747 220.365 -91.7527 229.616 -39.9676 226.737C46.213 220.377 90.3953 177.23 184.208 156.356C223.633 148.096 242.162 148.686 278.853 141.223C301.963 136.16 303.332 134.231 318.709 131.517C385.357 124.927 437.65 227.044 522.945 207.421C576.153 192.081 588.265 150.987 647.494 159.507C695.507 168.894 729.796 202.299 781.994 220.831C812.783 230.696 830.196 229.634 861.682 223.522C944.108 207.149 947.573 215.852 1011.13 217.516" stroke="#3C3C3C" stroke-width="35" stroke-linecap="round" stroke-linejoin="round"/>
<path opacity="0.5" d="M-184.426 217.515C-120.139 221.368 -67.9822 235.558 -0.106121 219.356C63.6439 202.795 106.929 170.433 179.226 153.276C215.605 145.211 233.78 145.471 268.889 140.385C314.701 133.216 318.963 124.455 348.577 135.01C405.131 158.846 449.615 223.168 517.951 211.12C582.073 195.992 593.566 134.243 682.343 173.743C744.458 203.108 780.005 240.738 851.718 227.557C882.412 221.427 900.77 215.952 936.405 214.648C967.932 214.017 977.689 216.737 1011.13 217.557" stroke="#3D3D3D" stroke-width="35" stroke-linecap="round" stroke-linejoin="round"/>
<path opacity="0.5" d="M-184.426 217.516C-133.851 220.79 -93.1398 230.324 -39.9676 225.215C12.6498 219.12 47.4762 200.813 99.521 177.425C201.586 131.995 217.152 148.922 308.745 130.727C381.91 118.59 430.313 229.546 517.969 213.58C571.684 200.6 582.746 160.533 637.53 163.283C683.241 168.215 716.627 199.119 767.048 221.103C846.045 253.24 859.509 210.483 971.284 215.633C991.354 216.719 991.702 217.061 1011.14 217.504" stroke="#3F3F3F" stroke-width="35" stroke-linecap="round" stroke-linejoin="round"/>
<path opacity="0.5" d="M-184.426 217.515C-136.277 220.873 -96.77 230.059 -44.9495 225.062C6.9949 219.02 45.7171 199.432 94.5331 176.357C203.339 125.529 222.818 144.066 303.763 130.172C353.848 122.083 370.464 151.53 433.282 193.815C457.749 209.539 481.041 221.097 512.969 217.02C567.995 206.654 579.033 165.578 632.53 165.477C678.147 168.168 711.367 198.665 762.049 221.893C843.808 257.122 857.951 213.167 966.285 215.722C988.084 216.477 986.655 217.002 1011.15 217.492" stroke="#404040" stroke-width="35" stroke-linecap="round" stroke-linejoin="round"/>
<path opacity="0.5" d="M-184.426 217.515C-138.385 221.002 -100.447 229.905 -49.9256 225.103C34.0651 215.386 89.2619 167.283 164.274 144.308C218.367 128.892 247.84 135.594 298.787 129.558C315.999 127.369 322.87 126.443 338.631 131.358C394.967 153.371 439.019 225.333 508.005 220.141C563.591 212.548 575.887 170.829 627.566 167.885C674.788 168.203 709.461 200.789 762.066 224.525C843.59 259.057 858.612 214.601 966.303 216.005C987.074 216.512 986.732 217.049 1011.16 217.515" stroke="#414141" stroke-width="35" stroke-linecap="round" stroke-linejoin="round"/>
<path opacity="0.5" d="M-184.426 217.515C-83.4888 225.74 -53.3846 243.115 64.6709 185.03C104.373 165.153 128.214 151.3 164.298 139.942C219.454 123.847 247.875 132.272 303.787 127.641C354.686 123.859 369.673 154.846 433.305 198.984C457.43 214.914 480.722 226.572 512.993 221.87C567.918 210.494 578.98 169.507 632.554 170.327C679.988 173.932 714.531 207.356 767.054 229.227C845.715 259.517 861.251 214.807 971.29 216.359C991.047 216.837 988.408 217.126 1011.15 217.539" stroke="#424242" stroke-width="35" stroke-linecap="round" stroke-linejoin="round"/>
<path opacity="0.5" d="M-184.426 217.516C-127.335 222.507 -78.6721 236.484 -10.0818 214.843C100.336 177.673 128.179 123.257 248.967 125.835C323.762 127.759 319.73 122.885 343.619 134.019C399.76 164.209 443.895 234.991 512.987 224.289C578.962 210.04 588.224 148.438 672.397 183.136C732.535 209.84 773.264 252.52 841.772 239.068C871.876 232.248 891.945 223.303 931.441 218.46C962.295 215.244 976.662 216.985 1011.13 217.516" stroke="#444444" stroke-width="35" stroke-linecap="round" stroke-linejoin="round"/>
<path opacity="0.5" d="M-184.426 217.515C-139.848 221.675 -104.296 230.749 -54.9134 224.519C28.8057 212.028 95.9793 153.872 164.274 131.204C215.091 115.699 246.016 123.422 293.799 125.003C314.606 125.34 318.709 124.573 333.655 129.723C389.967 153.913 433.412 230.731 503.023 228.035C558.173 222.442 573.266 179.986 622.584 175.165C667.699 173.755 701.049 203.314 752.103 227.976C839.853 268.226 855.348 220.436 961.332 216.943C980.363 216.583 983.662 217.138 1011.15 217.533" stroke="#454545" stroke-width="35" stroke-linecap="round" stroke-linejoin="round"/>
<path opacity="0.5" d="M-184.426 217.515C-139.896 221.935 -104.479 231.28 -54.8957 224.2C28.6109 210.264 96.8706 149.86 164.274 126.85C211.32 112.136 240.308 118.272 288.823 122.927C311.655 124.744 313.721 123.399 328.685 127.859C384.631 149.418 428.182 229.652 498.053 230.743C556.166 227.964 571.401 182.033 622.601 177.443C667.693 176.398 701.061 206.123 752.12 230.466C839.481 269.925 855.927 221.793 961.35 217.244C978.876 216.743 981.473 217.12 1011.16 217.504" stroke="#474747" stroke-width="35" stroke-linecap="round" stroke-linejoin="round"/>
<path opacity="0.5" d="M-184.426 217.515C-78.861 228.655 -56.7669 242 64.671 174.569C156.524 122.407 175.543 103.25 278.853 119.634C337.362 128.732 322.28 114.283 408.378 189.697C520.82 285.867 549.667 194.907 612.614 180.764C659.01 173.684 693.352 203.727 747.115 230.118C837.386 272.38 852.875 224.595 956.345 217.728C975.18 216.772 981.378 217.138 1011.14 217.498" stroke="#484848" stroke-width="35" stroke-linecap="round" stroke-linejoin="round"/>
<path opacity="0.5" d="M-184.426 217.515C-139.465 222.53 -104.585 232.33 -54.9134 223.746C26.5449 207.503 103.139 140.556 164.274 118.289C210.948 102.778 240.922 109.941 288.823 119.333C311.478 123.41 313.615 122.207 328.685 128.024C386.178 155.04 430.354 240.455 503.035 235.227C560.109 227.481 574.087 182.227 627.583 181.685C674.682 184.145 709.337 217.209 762.084 238.602C843.879 269.282 861.387 220.613 971.308 217.362C983.155 217.161 983.604 217.232 1011.16 217.515" stroke="#494949" stroke-width="35" stroke-linecap="round" stroke-linejoin="round"/>
<path opacity="0.5" d="M-184.426 217.515C-89.7752 228.666 -62.7287 246.425 69.6234 166.775C132.435 128.331 169.823 96.4533 243.98 107.551C263.677 110.867 270.678 113.062 288.811 117.528C313.367 123.18 316.643 121.935 333.672 130.65C389.194 163.542 432.886 243.481 503.041 237.581C573.603 227.138 581.512 159.642 667.433 193.331C701.634 207.869 721.331 223.286 757.102 238.49C828.632 266.851 849.776 236.472 926.477 222.011C958.511 216.566 978.037 217.226 1011.16 217.498" stroke="#4A4A4A" stroke-width="35" stroke-linecap="round" stroke-linejoin="round"/>
<path opacity="0.5" d="M-184.426 217.515C-140.746 222.932 -107.619 232.602 -59.8777 224.3C32.5716 205.532 108.298 124.708 179.226 105.02C229.4 93.0077 261.623 109.227 308.745 120.921C383.752 141.394 427.414 262.408 517.969 236.59C572.209 217.905 583.832 177.431 642.517 187.821C688.311 198.264 721.969 229.581 772.036 245.729C847.757 267.471 868.724 219.527 981.26 217.409C990.64 217.327 990.905 217.344 1011.15 217.474" stroke="#4C4C4C" stroke-width="35" stroke-linecap="round" stroke-linejoin="round"/>
<path opacity="0.5" d="M-184.426 217.516C-90.3419 229.729 -60.5742 249.181 84.5692 152.114C147.924 109.451 183.358 83.438 258.925 104.029C277.425 109.475 280.223 111.38 298.787 117.151C320.704 123.641 326.406 125.517 343.618 138.296C401.761 185.101 444.556 260.515 517.969 238.679C580.438 216.389 590.307 162.775 677.379 202.217C711.444 218.454 733.155 233.947 767.048 245.688C834.859 266.893 855.466 234.643 936.423 221.203C964.756 217.02 982.317 217.374 1011.15 217.516" stroke="#4D4D4D" stroke-width="35" stroke-linecap="round" stroke-linejoin="round"/>
<path opacity="0.5" d="M-184.426 217.516C-129.406 224.95 -86.4402 239.847 -20.0398 210.725C83.5244 162.699 117.005 114.879 179.226 96.6246C229.748 83.9632 265.112 103.823 298.787 115.929C320.509 123.399 326.241 125.458 343.619 139.04C399.907 186.44 442.118 259.777 512.987 242.071C566.507 225.439 578.791 186.399 632.548 190.228C677.916 196.034 711.338 226.283 762.066 244.892C841.949 271.713 861.823 225.162 966.303 218.159C983.202 217.274 992.033 217.433 1011.16 217.516" stroke="#4E4E4E" stroke-width="35" stroke-linecap="round" stroke-linejoin="round"/>
<path opacity="0.5" d="M-184.426 217.515C-129.43 225.227 -86.5523 240.36 -20.0398 210.058C81.4053 161.265 115.334 114.478 174.238 94.0519C222.535 79.4612 253.867 95.5387 293.799 112.69C315.504 121.54 320.84 122.266 338.631 135.7C394.754 181.72 436.912 259.565 508.005 245.298C562.151 231.026 575.155 190.954 627.566 191.673C674.463 195.107 709.266 227.032 762.066 245.835C841.754 271.754 861.953 225.569 966.303 218.259C982.83 217.338 991.891 217.439 1011.16 217.527" stroke="#4F4F4F" stroke-width="35" stroke-linecap="round" stroke-linejoin="round"/>
<path opacity="0.5" d="M-184.426 217.515C-128.468 225.657 -86.4402 240.779 -20.0398 209.397C87.1133 155.978 118.965 107.209 179.226 88.447C230.87 74.8121 266.28 98.6009 298.787 113.463C320.716 123.086 326.235 125.558 343.619 140.491C401.572 193.626 443.966 269.152 517.969 244.178C570.899 223.256 584.139 184.729 642.517 195.355C689.976 206.27 724.909 238.083 777.018 250.927C855.484 267.447 862.532 216.843 1011.15 217.492" stroke="#515151" stroke-width="35" stroke-linecap="round" stroke-linejoin="round"/>
<path opacity="0.5" d="M-184.426 217.516C-117.524 227.605 -83.4888 239.806 -20.0398 208.736C84.0911 155.005 113.227 110.991 169.262 87.8217C221.283 68.6585 254.611 89.0548 293.811 109.74C315.031 120.484 318.012 120.697 333.666 132.62C389.743 179.502 431.694 262.037 503.035 250.373C558.314 237.758 573.449 194.193 627.583 195.237C674.381 198.854 709.237 230 762.084 247.688C842.881 272.238 862.927 224.784 971.308 218.106C986.915 217.356 995.51 217.451 1011.16 217.516" stroke="#525252" stroke-width="35" stroke-linecap="round" stroke-linejoin="round"/>
<path opacity="0.5" d="M-184.426 217.515C-117.27 227.935 -83.4475 240.16 -20.0398 208.134C87.0188 151.223 113.481 107.834 169.262 84.0338C221.945 64.0269 255.52 86.2758 293.811 108.301C315.061 120.036 317.971 120.325 333.666 132.921C390.097 182.31 431.493 264.91 503.023 252.255C556.927 239.222 574.382 195.744 627.572 196.854C672.58 200.394 705.99 228.714 757.09 246.691C840.089 273.554 860.23 226.731 966.314 218.459C983.851 217.344 993.467 217.439 1011.18 217.515" stroke="#535353" stroke-width="35" stroke-linecap="round" stroke-linejoin="round"/>
<path opacity="0.5" d="M-184.426 217.516C-115.694 228.377 -82.7923 240.095 -20.0398 207.68C128.834 126.785 156.341 41.7781 253.949 83.6209C272.838 92.5653 277.295 97.0552 298.811 109.87C318.378 121.174 322.906 123.328 338.654 137.665C396.047 193.314 438.364 274.61 513.011 250.945C577.481 226.69 586.417 173.561 677.403 211.521C711.875 226.56 733.361 240.13 767.048 249.665C852.143 270.958 860.82 216.672 1011.15 217.516" stroke="#545454" stroke-width="35" stroke-linecap="round" stroke-linejoin="round"/>
<path opacity="0.5" d="M-184.426 217.516C-126.437 226.849 -85.9443 242.024 -20.0398 207.22C91.0032 145.583 113.924 102.489 169.262 77.2902C223.568 55.2478 257.863 81.7152 293.811 105.522C314.618 118.791 317.711 119.363 333.655 133.34C391.85 188.405 433.323 273.996 508.005 253.978C560.764 236.59 574.653 198.358 627.566 199.379C672.498 202.73 705.854 229.876 757.084 246.715C850.053 274.698 855.572 216.436 1011.15 217.516" stroke="#565656" stroke-width="35" stroke-linecap="round" stroke-linejoin="round"/>
<path opacity="0.5" d="M-184.426 217.516C-116.125 228.726 -82.8159 240.632 -20.0398 206.76C93.0574 142.639 114.077 99.8519 169.262 73.8742C223.096 51.3303 256.547 77.7859 293.811 104.094C314.6 118.254 317.646 118.915 333.666 133.559C390.463 189.337 431.198 272.409 503.035 256.869C555.528 242.119 571.23 202.589 622.596 200.565C667.226 201.397 700.565 227.522 752.114 245.163C849.15 275.937 852.627 216.218 1011.16 217.533" stroke="#575757" stroke-width="35" stroke-linecap="round" stroke-linejoin="round"/>
<path opacity="0.5" d="M-184.426 217.515C-123.433 227.687 -83.7603 243.18 -15.0579 203.414C104.792 130.797 115.069 96.76 169.262 70.4814C224.595 46.5982 258.985 76.5643 293.811 102.69C314.724 117.87 317.522 118.419 333.666 133.771C390.522 191.644 431.062 274.916 503.035 258.379C556.614 242.62 572.688 200.925 627.583 201.904C672.397 205.084 705.784 231.068 757.102 246.744C849.587 272.486 857.774 215.84 1011.16 217.521" stroke="#585858" stroke-width="35" stroke-linecap="round" stroke-linejoin="round"/>
<path opacity="0.5" d="M-184.426 217.515C-123.132 227.834 -83.6422 243.304 -15.0579 202.96C106.746 127.924 114.939 94.4945 169.262 67.3427C222.104 43.8371 253.825 69.7027 293.811 101.327C314.282 117.003 317.546 118.024 333.666 133.906C391.354 194.558 432.957 281.135 508.005 258.131C561.065 238.614 575.934 199.408 632.554 203.261C677.574 208.536 710.942 234.1 762.072 247.765C850.508 268.898 861.086 215.551 1011.17 217.492" stroke="#595959" stroke-width="35" stroke-linecap="round" stroke-linejoin="round"/>
<path opacity="0.5" d="M-184.426 217.515C-122.837 227.846 -83.4002 243.204 -15.0579 202.582C101.487 130.107 112.236 96.8604 164.274 67.2247C216.219 40.5213 248.784 62.133 288.823 95.9223C310.829 114.077 312.222 113.268 328.685 128.844C386.85 187.844 427.881 279.489 503.035 260.456C555.977 243.641 572.304 202.836 627.583 203.58C672.315 206.471 705.648 231.109 757.102 245.629C849.74 269.376 857.485 215.043 1011.16 217.515" stroke="#5B5B5B" stroke-width="35" stroke-linecap="round" stroke-linejoin="round"/>
<path opacity="0.5" d="M-184.426 217.515C-122.128 227.923 -83.0697 243.033 -15.0579 202.211C107.891 125.027 114.744 90.8011 169.262 61.9796C223.621 36.3618 255.632 65.9444 293.811 98.7425C314.282 115.823 317.363 116.879 333.666 133.901C391.23 197.65 432.674 284.38 508.005 259.6C560.593 239.145 575.373 201.049 632.554 204.5C677.462 209.309 710.836 233.41 762.072 246.007C850.561 265.353 860.802 214.601 1011.17 217.498" stroke="#5C5C5C" stroke-width="35" stroke-linecap="round" stroke-linejoin="round"/>
<path opacity="0.5" d="M-184.426 217.516C-121.939 227.911 -82.8985 242.962 -15.0579 201.845C107.986 123.853 115.205 88.6595 169.262 59.2952C224.459 32.5564 256.694 64.2807 293.811 97.4505C314.235 115.192 317.322 116.331 333.666 133.895C391.006 198.995 430.738 281.985 503.035 262.055C556.75 243.812 573.154 201.774 632.56 205.137C679.079 209.857 714.018 235.127 767.06 246.184C851.204 261.4 864.456 214.223 1011.16 217.516" stroke="#5E5E5E" stroke-width="35" stroke-linecap="round" stroke-linejoin="round"/>
<path opacity="0.5" d="M-184.426 217.515C-121.509 227.941 -82.6565 242.826 -15.0579 201.479C111.681 120.36 118.351 81.9452 174.238 54.1385C232.392 28.9632 265.832 70.9063 298.787 100.66C388.344 179.608 421.335 291.46 508.005 261.105C559.43 240.012 575.297 202.742 632.554 205.757C679.044 210.258 713.729 234.667 767.054 245.251C851.228 259.671 864.314 213.739 1011.15 217.521" stroke="#5F5F5F" stroke-width="35" stroke-linecap="round" stroke-linejoin="round"/>
<path opacity="0.5" d="M-184.426 217.516C-108.145 229.994 -77.9166 239.823 -15.0579 201.119C-4.65129 194.423 56.897 152.291 79.5932 131.771C141.507 74.116 183.765 15.1691 253.949 59.307C271.693 71.8563 275.199 77.597 298.811 99.6158C389.855 182.658 422.928 297.219 512.987 259.411C574.27 230.33 584.487 186.293 677.379 216.023C713.268 228.023 736.649 239.163 772.03 244.933C853.016 255.883 865.796 213.244 1011.15 217.539" stroke="#606060" stroke-width="35" stroke-linecap="round" stroke-linejoin="round"/>
<path opacity="0.5" d="M-184.426 217.515C-108.245 229.604 -77.8693 239.469 -15.0579 200.777C6.62894 186.8 3.37061 187.744 44.7255 159.3C126.095 101.846 172.645 -1.62834 258.925 60.9353C276.421 75.0363 278.11 79.3374 303.787 103.344C363.942 158.94 386.219 218.194 438.287 254.013C507.521 296.333 544.956 224.253 602.68 208.388C631.408 202.252 655.067 208.388 682.367 217.191C760.98 243.422 782.124 255.252 861.705 233.929C918.018 219.014 949.958 215.409 1011.15 217.515" stroke="#626262" stroke-width="35" stroke-linecap="round" stroke-linejoin="round"/>
<path opacity="0.5" d="M-184.426 217.515C-122.961 226.955 -83.8547 240.974 -20.0398 203.515C101.363 128.667 112.743 83.8509 169.262 50.2209C226.059 20.0129 258.182 56.9351 293.811 92.8661C313.591 112.301 317.198 114.318 333.666 133.523C391.425 204.187 432.143 289.755 508.017 261.11C558.592 239.074 574.577 203.509 632.565 205.969C678.837 209.828 713.605 231.929 767.066 241.062C851.316 253.399 862.756 211.68 1011.16 217.515" stroke="#636363" stroke-width="35" stroke-linecap="round" stroke-linejoin="round"/>
<path opacity="0.5" d="M-184.426 217.515C-121.975 226.826 -83.4593 240.431 -20.0398 203.178C100.117 129.033 113.54 82.0396 169.262 48.2385C226.602 17.1101 258.802 55.6489 293.811 91.8218C313.662 111.805 317.139 113.782 333.666 133.37C391.407 205.061 432.036 290.28 508.005 260.916C558.255 238.614 574.305 203.609 632.554 205.904C678.631 209.539 713.723 230.908 767.054 239.534C851.198 251.181 861.971 210.89 1011.15 217.504" stroke="#646464" stroke-width="35" stroke-linecap="round" stroke-linejoin="round"/>
<path opacity="0.5" d="M-184.426 217.515C-121.408 226.601 -83.1346 239.935 -20.0398 202.836C100.855 128.195 106.404 88.7893 164.274 49.336C220.351 14.644 253.406 47.271 288.823 85.4971C310.014 107.917 311.761 107.823 328.684 127.21C386.266 196.559 425.537 283.743 498.053 264.35C551.42 246.579 566.643 205.987 627.577 205.651C673.46 207.303 708.204 227.852 762.078 237.269C850.372 250.791 858.223 209.987 1011.18 217.515" stroke="#656565" stroke-width="35" stroke-linecap="round" stroke-linejoin="round"/>
<path opacity="0.5" d="M-184.426 217.515C-121.007 226.253 -82.8513 239.304 -20.0398 202.459C-1.90648 191.278 52.0862 153.123 69.6529 137.635C134.583 77.7857 175.047 6.15967 243.98 43.135C262.013 54.2329 269.013 62.7112 288.811 84.5294C308.987 106.294 312.163 107.823 328.673 127.009C385.965 196.848 425.372 283.884 498.041 263.807C549.277 246.307 565.333 208.187 622.59 205.35C667.451 205.084 704.473 225.079 757.09 234.85C849.091 250.119 854.563 208.943 1011.15 217.515" stroke="#676767" stroke-width="35" stroke-linecap="round" stroke-linejoin="round"/>
<path opacity="0.5" d="M-184.426 217.515C-131.744 224.306 -100.536 233.316 -54.9134 218.577C-20.1933 206.028 -0.808553 189.077 39.7376 160.669C125.475 100.241 169.711 -11.6111 253.949 48.445C271.215 62.4221 274.698 68.9298 298.811 94.6361C377.624 176.965 406.991 260.515 473.137 266.126C522.833 266.426 550.847 222.383 597.686 208.146C665.757 191.384 722.01 242.278 811.892 235.611C865.684 230.301 891.579 210.182 1011.16 217.515" stroke="#686868" stroke-width="35" stroke-linecap="round" stroke-linejoin="round"/>
<path opacity="0.5" d="M-184.426 217.515C-131.467 223.87 -100.347 232.613 -54.9134 218.029C-20.2228 205.568 -0.548829 188.576 39.7376 160.321C124.956 100.035 169.858 -13.7529 253.949 47.2C271.103 61.3246 274.993 68.3633 298.811 94.1286C378.598 178.67 409.612 265.453 478.125 265.128C527.555 261.116 553.456 217.745 602.674 206.046C669.694 193.697 722.866 240.171 811.898 233.675C867.307 228.365 889.95 209.279 1011.16 217.515" stroke="#696969" stroke-width="35" stroke-linecap="round" stroke-linejoin="round"/>
<path opacity="0.5" d="M-184.426 217.516C-131.13 223.416 -100.093 231.888 -54.9134 217.48C-20.3467 205.149 -0.678691 188.37 39.7376 159.967C124.673 99.7103 170 -15.9297 253.949 45.9436C271.138 60.3337 274.456 66.8827 298.811 93.6038C378.894 179.638 409.783 265.158 478.143 264.114C527.278 259.624 553.628 216.43 602.691 205.19C669.334 193.39 722.412 238.16 811.915 231.74C867.089 226.566 889.519 208.447 1011.18 217.516" stroke="#6A6A6A" stroke-width="35" stroke-linecap="round" stroke-linejoin="round"/>
<path opacity="0.5" d="M-184.426 217.515C-130.558 223.026 -99.8631 231.168 -54.9134 216.925C-20.5947 204.766 -1.28668 188.493 39.7376 159.613C124.448 99.2676 170.083 -18.0834 253.949 44.6867C271.068 59.242 274.721 66.2866 298.811 93.0667C377.843 179.224 410.096 264.863 478.125 263.075C529.332 257.866 553.244 212.695 607.644 203.485C635.977 200.022 659.99 205.503 687.331 212.335C863.057 257.399 813.922 201.526 1011.13 217.527" stroke="#6C6C6C" stroke-width="35" stroke-linecap="round" stroke-linejoin="round"/>
<path opacity="0.5" d="M-184.426 217.516C-130.18 222.507 -99.6801 230.366 -54.9134 216.288C-22.6134 204.937 -4.21449 190.665 44.7254 155.683C83.6838 126.862 101.292 99.4388 139.365 62.021C221.738 -15.4519 256.104 45.8314 303.763 98.3296C376.473 177.39 411.642 269.135 483.101 261.034C534.733 251.452 555.05 208.27 612.62 201.745C643.568 199.58 668.802 206.589 707.271 216.141C849.64 250.845 823.697 201.09 1011.15 217.51" stroke="#6D6D6D" stroke-width="35" stroke-linecap="round" stroke-linejoin="round"/>
<path opacity="0.5" d="M-184.426 217.516C-127.966 222.011 -96.6756 230.065 -49.9256 213.793C-5.65474 196.683 56.2418 149.742 89.5571 114.478C126.438 74.6117 150.356 44.0851 184.208 29.282C241.725 8.72637 272.478 63.3073 318.709 114.968C365.866 169.625 396.738 233.434 448.228 255.24C479.093 265.807 501.418 255.901 527.915 239.67C572.186 211.403 589.044 192.771 652.464 202.5C699.479 210.648 733.031 225.115 786.964 226.69C860.661 227.38 865.902 203.804 1011.13 217.504" stroke="#6E6E6E" stroke-width="35" stroke-linecap="round" stroke-linejoin="round"/>
<path opacity="0.5" d="M-184.426 217.521C-113.894 222.241 -76.7419 234.071 -10.0818 192.989C52.1335 153.117 69.0626 136.137 94.5331 108.46C125.877 73.8329 153.945 39.1763 189.184 26.6565C241.211 12.5732 268.352 56.7465 323.685 120.997C369.727 176.457 401.448 238.466 453.209 255.252C484.772 262.957 507.834 250.025 532.897 234.012C575.114 206.37 593.07 190.889 657.446 202.152C704.473 211.132 738.178 224.448 791.952 224.814C863.376 223.964 867.962 202.984 1011.14 217.486" stroke="#6F6F6F" stroke-width="35" stroke-linecap="round" stroke-linejoin="round"/>
<path opacity="0.5" d="M-184.426 217.521C-127.647 220.637 -96.5575 228.206 -49.9256 212.3C-4.7221 195.225 55.0258 150.155 89.5571 113.28C125.936 73.5849 150.356 42.3031 184.208 27.5944C240.285 7.80582 270.235 61.1241 303.763 98.8723C393.261 197.839 423.82 295.867 522.951 237.77C567.576 210.312 583.218 190.246 647.499 199.243C693.541 206.595 727.612 220.613 782 222.761C862.13 224.531 856.594 201.001 1011.15 217.451" stroke="#717171" stroke-width="35" stroke-linecap="round" stroke-linejoin="round"/>
<path opacity="0.5" d="M-184.426 217.527C-129.678 219.846 -99.4263 226.731 -54.9134 213.238C-6.28045 196.812 54.4237 149.618 84.5692 118C121.444 78.3994 145.096 46.3388 179.226 28.863C235.94 4.33084 266.552 55.9027 298.787 93.3677C393.367 200.6 424.705 289.938 517.969 238.26C565.091 210.53 579.488 188.222 647.494 198.022C693.866 205.556 727.181 218.967 781.994 220.902C863.388 222.418 854.952 199.762 1011.15 217.486" stroke="#727272" stroke-width="35" stroke-linecap="round" stroke-linejoin="round"/>
<path opacity="0.5" d="M-184.426 217.521C-127.329 219.244 -96.3686 226.271 -49.9256 210.754C-4.0374 193.786 54.1404 149.435 84.5692 117.41C121.91 77.1662 145.173 45.5304 179.226 28.2316C237.717 3.1979 268.405 59.242 303.775 99.539C392.429 198.494 423.288 291.46 522.951 232.46C567.812 204.73 583.071 185.797 652.475 197.503C697.661 205.804 732.576 218.4 786.976 219.209C865.182 219.108 857.809 199.113 1011.15 217.468" stroke="#737373" stroke-width="35" stroke-linecap="round" stroke-linejoin="round"/>
<path opacity="0.5" d="M-184.426 217.515C-126.673 218.566 -96.0204 225.109 -49.9256 209.875C-5.52488 193.65 52.0567 150.155 79.5932 122.048C118.239 81.2667 140.055 50.1501 174.238 30.3792C233.408 0.784833 264.663 54.7285 298.787 94.8131C393.444 203.06 424.77 281.306 512.987 234.873C561.472 207.562 573.514 185.773 637.536 193.662C684.114 200.388 719.077 214.902 777.018 217.392C863.464 219.716 848.294 196.895 1011.15 217.462" stroke="#757575" stroke-width="35" stroke-linecap="round" stroke-linejoin="round"/>
<path opacity="0.5" d="M-184.426 217.504C-126.178 217.875 -95.7134 223.994 -49.9256 209.002C-5.06446 192.806 51.3956 150.32 79.5932 121.452C117.92 80.9246 140.02 49.5602 174.238 29.9899C232.995 1.07985 263.896 54.5928 298.787 95.763C391.402 202.016 424.516 278.728 512.987 231.557C561.939 203.751 573.195 183.236 637.536 192.063C682.656 199.143 716.113 212.63 772.036 215.61C863.683 219.079 842.557 194.96 1011.15 217.451" stroke="#767676" stroke-width="35" stroke-linecap="round" stroke-linejoin="round"/>
<path opacity="0.5" d="M-184.426 217.492C-127.252 217.167 -98.2811 222.371 -54.9134 209.739C-7.69121 194.482 50.0852 149.424 69.6352 130.909C132.972 68.2632 175.1 -10.1006 243.98 35.6126C261.381 48.7755 266.758 57.0355 288.811 84.7065C312.257 113.363 312.611 110.82 338.631 142.816C374.673 187.927 398.467 219.687 433.264 236.779C463.433 249.328 485.309 243.163 512.951 228.236C561.555 200.4 572.752 180.664 637.5 190.476C682.839 198.187 715.73 211.338 772.001 214.046C864.609 217.126 841.984 193.668 1011.12 217.456" stroke="#777777" stroke-width="35" stroke-linecap="round" stroke-linejoin="round"/>
<path opacity="0.5" d="M-184.426 217.486C-124.165 216.43 -94.8221 221.616 -49.9256 207.249C-5.1235 191.473 48.7452 150.202 69.6529 130.343C133.196 67.2599 175.13 -10.6201 243.98 35.9899C261.387 49.3888 266.646 57.6311 288.811 85.6089C308.243 109.48 312.222 112.005 333.672 137.529C368.782 180.204 392.7 213.639 428.317 232.66C457.831 246.289 479.495 242.165 508.005 227.64C559.589 199.467 569.105 177.531 637.53 188.871C682.32 197.066 715.665 210.034 772.03 212.471C867.283 215.185 840.337 192.127 1011.15 217.438" stroke="#797979" stroke-width="35" stroke-linecap="round" stroke-linejoin="round"/>
<path opacity="0.5" d="M-184.426 217.474C-123.451 215.704 -94.4856 220.424 -49.9256 206.382C-4.60995 190.623 48.1373 150.309 69.6529 129.8C133.084 66.7232 175.059 -10.8972 243.98 36.7453C261.481 50.4746 266.735 58.8703 288.811 86.8953C308.125 110.725 311.177 112.23 333.672 138.686C386.738 202.276 427.102 262.987 503.041 226.714C554.832 199.88 564.17 176.564 627.589 185.549C672.545 192.924 704.497 206.789 762.09 210.666C844.688 214.978 856.818 194.075 971.314 211.22C984.837 213.291 988.839 213.987 1011.17 217.415" stroke="#7A7A7A" stroke-width="35" stroke-linecap="round" stroke-linejoin="round"/>
<path opacity="0.5" d="M-184.426 217.462C-120.417 215.008 -90.6547 219.48 -44.9495 203.804C-1.21585 187.455 48.4678 150.374 74.6112 124.343C110.524 87.3203 131.355 57.3129 164.274 34.8516C222.641 -0.684124 254.54 44.9288 288.823 88.6537C307.712 112.065 310.327 113.156 333.684 140.22C369.921 183.077 393.621 213.102 428.329 229.192C458.434 240.992 480.309 235.044 508.017 220.401C559.749 191.39 568.225 172.729 632.565 184.7C677.202 193.786 709.921 207.185 767.066 209.863C803.498 211.043 825.634 207.615 856.735 204.807C917.062 199.904 951.675 208.011 1011.16 217.415" stroke="#7B7B7B" stroke-width="35" stroke-linecap="round" stroke-linejoin="round"/>
<path opacity="0.5" d="M-184.426 217.451C-117.329 214.135 -87.3197 218.583 -39.9676 201.125C76.7953 154.474 105.996 69.6201 169.262 31.8601C228.55 1.00903 260.755 55.5427 293.811 96.6185C314.358 121.281 301.555 104.566 353.594 164.828C373.971 188.039 399.264 217.114 433.282 229.215C464.153 237.994 486.466 228.92 512.969 213.846C563.733 183.756 572.251 168.652 642.494 185.343C686.57 196.275 717.872 207.485 772.013 208.943C808.876 209.421 830.627 205.662 861.682 203.285C919.529 199.485 954.037 208.075 1011.13 217.445" stroke="#7C7C7C" stroke-width="35" stroke-linecap="round" stroke-linejoin="round"/>
<path opacity="0.5" d="M-184.426 217.439C-117.4 213.379 -89.5686 217.043 -44.9495 202.099C68.738 160.787 103.157 75.0776 164.274 34.8101C222.582 0.755263 254.634 48.1441 288.823 92.1699C308.178 116.36 303.834 109.374 348.606 160.268C369.361 183.573 394.648 212.595 428.294 225.687C458.988 235.469 481.177 227.634 507.981 212.937C560.516 182.694 568.119 166.551 632.53 181.366C677.338 192.352 709.573 205.68 767.031 207.739C805.334 208.565 829.152 204.5 861.682 202.164C920.119 198.624 953.517 207.662 1011.13 217.409" stroke="#7E7E7E" stroke-width="35" stroke-linecap="round" stroke-linejoin="round"/>
<path opacity="0.5" d="M-184.426 217.427C-115.871 212.512 -89.0433 215.828 -44.9495 201.273C68.8796 160.48 102.809 74.5525 164.274 34.7747C221.974 1.77009 253.82 48.5925 288.811 93.9104C305.664 115.05 302.624 110.33 348.595 161.43C369.254 184.062 394.459 212.046 428.282 223.917C459.089 232.608 481.354 224.041 507.97 209.167C560.705 178.398 568.119 163.418 632.518 179.667C677.214 191.544 709.396 204.895 767.019 206.642C876.279 208.412 827.516 185.278 1011.12 217.368" stroke="#7F7F7F" stroke-width="35" stroke-linecap="round" stroke-linejoin="round"/>
<path opacity="0.5" d="M-184.426 217.421C-114.838 211.728 -86.0447 215.032 -39.9676 198.753C79.1327 153.259 108.694 61.2835 174.238 29.8247C233.118 6.48425 264.881 67.3251 298.787 108.324C402.634 229.009 435.69 249.57 517.969 199.544C567.924 168.51 575.993 160.929 647.494 182.635C766.671 219.215 791.273 202.86 871.663 199.638C925.066 198.24 956.84 207.615 1011.15 217.386" stroke="#808080" stroke-width="35" stroke-linecap="round" stroke-linejoin="round"/>
<path opacity="0.5" d="M-184.426 217.415C-114.254 211.037 -88.4235 213.775 -44.9495 199.839C73.9501 158.492 104.225 68.0096 169.262 32.7512C228.154 5.45188 260.879 63.2542 293.811 104.784C312.788 127.794 350.725 166.911 358.57 174.823C420.561 235.457 455.411 234.23 517.969 195.88C566.749 165.519 575.397 158.575 642.517 180.074C691.387 196.004 721.42 205.999 777.018 205.444C815.534 204.565 836.725 200.288 871.669 198.954C925.384 197.633 956.994 207.432 1011.15 217.403" stroke="#818181" stroke-width="35" stroke-linecap="round" stroke-linejoin="round"/>
<path opacity="0.5" d="M-184.426 217.409C-114.006 210.365 -88.1756 212.819 -44.9495 199.16C73.9678 158.45 104.102 67.5905 169.262 33.2938C228.243 6.92076 261.21 66.0329 293.811 107.274C308.125 124.643 324.541 141.842 348.606 166.421C417.545 235.28 453.274 230.448 508.017 198.281C561.573 165.831 568.662 154.692 632.565 175.602C679.245 191.331 709.845 204.317 767.066 205.001C805.641 204.901 830.415 200.205 866.699 198.399C923.366 196.311 954.822 206.742 1011.16 217.368" stroke="#838383" stroke-width="35" stroke-linecap="round" stroke-linejoin="round"/>
<path opacity="0.5" d="M-184.426 217.409C-85.2183 206.612 -15.0165 216.613 84.5692 111.209C117.625 75.7031 144.429 41.9846 179.226 29.9545C237.374 14.9213 269.12 81.3376 303.775 121.587C397.688 225.846 432.833 240.767 512.999 191.609C567.895 157.353 571.047 151.695 652.487 181.579C751.843 217.663 785.43 201.58 866.693 197.668C923.69 195.668 954.397 206.406 1011.16 217.35" stroke="#848484" stroke-width="35" stroke-linecap="round" stroke-linejoin="round"/>
<path opacity="0.5" d="M-184.426 217.403C-107.962 208.371 -81.0863 210.866 -34.9797 194.393C79.5342 150.238 109.485 59.1831 174.238 32.3381C230.799 13.7236 263.199 73.29 293.799 112.254C307.718 129.198 316.466 138.007 333.655 155.324C385.05 206.595 423.105 237.281 493.065 199.851C555.534 164.593 559.507 148.149 617.614 167.56C662.239 183.319 693.571 200.96 752.114 203.898C788.281 205.078 813.114 200.842 851.747 197.863C919.128 193.237 948.104 204.943 1011.16 217.392" stroke="#858585" stroke-width="35" stroke-linecap="round" stroke-linejoin="round"/>
<path opacity="0.5" d="M-184.426 217.403C-86.2395 205.013 -15.8193 214.323 79.5932 116.206C115.789 78.0807 137.499 50.4333 169.262 35.2113C225.516 12.8208 258.861 68.8413 288.811 108.613C312.086 138.32 364.886 195.561 408.378 211.108C439.208 220.212 461.414 213.385 488.065 199.526C552.89 163.79 556.29 144.019 617.584 166.238C661.33 182.888 691.369 200.104 747.103 203.662C825.799 207.173 856.239 183.702 961.315 206.488C982.854 211.261 990.775 213.303 1011.13 217.386" stroke="#868686" stroke-width="35" stroke-linecap="round" stroke-linejoin="round"/>
<path opacity="0.5" d="M-184.426 217.415C-94.2495 205.468 -57.8117 210.182 4.8699 175.018C120.759 107.168 160.32 -34.0429 253.967 65.791C283.558 100.235 281.639 110.041 333.655 160.279C387.151 211.114 424.363 232.967 493.065 194.045C536.834 168.174 552.353 152.267 582.728 155.023C611.428 159.666 632.382 172.923 672.397 188.104C742.487 213.503 779.332 202.854 851.735 197.101C919.098 192.381 946.77 204.299 1011.15 217.397" stroke="#888888" stroke-width="35" stroke-linecap="round" stroke-linejoin="round"/>
<path opacity="0.5" d="M-184.426 217.421C-93.7655 204.83 -57.1211 209.309 4.86992 175.012C120.234 108.342 159.729 -33.4587 253.967 68.4225C285.582 105.646 283.109 116.012 338.648 167.478C396.006 219.108 432.06 228.177 498.059 188.299C540.866 161.749 554.926 149.713 582.746 153.034C611.498 158.533 633.097 172.835 672.415 188.281C739.707 213.492 776.18 203.509 846.771 197.243C918.089 191.467 943.848 203.515 1011.16 217.409" stroke="#898989" stroke-width="35" stroke-linecap="round" stroke-linejoin="round"/>
<path opacity="0.5" d="M-184.426 217.433C-107.33 206.223 -83.5537 207.993 -39.9676 194.606C77.7397 155.565 107.631 59.9324 174.238 36.7572C232.127 21.6827 264.687 88.1875 298.787 129.859C308.881 141.559 317.764 151.099 338.631 169.944C399.624 223.221 436.091 223.734 498.041 185.502C559.046 146.987 564.825 138.302 627.566 168.003C737.682 220.861 753.625 203.816 856.717 196.211C920.562 192.175 946.983 204.004 1011.15 217.421" stroke="#8A8A8A" stroke-width="35" stroke-linecap="round" stroke-linejoin="round"/>
<path opacity="0.5" d="M-184.426 217.439C-91.4634 203.326 -55.5568 207.491 4.8699 175.006C119.461 110.419 161.175 -38.043 258.925 79.6502C286.373 114.914 294.224 134.786 343.618 176.611C403.059 224.991 439.244 220.442 502.994 179.484C541.462 154.521 557.889 142.839 587.681 150.285C617.165 159.406 639.472 175.513 677.35 190.594C743.868 215.557 783.676 202.052 851.706 196.293C919.411 191.19 946.068 203.627 1011.12 217.409" stroke="#8C8C8C" stroke-width="35" stroke-linecap="round" stroke-linejoin="round"/>
<path opacity="0.5" d="M-184.426 217.45C-90.454 202.754 -54.8131 206.83 4.86992 175.218C119.461 111.51 160.556 -36.9929 258.925 82.5116C286.078 117.652 295.322 139.352 343.619 179.059C408.095 229.799 443.623 216.058 512.987 170.799C551.107 146.202 564.341 141.264 592.674 150.792C621.988 162.055 641.313 176.552 677.362 191.272C743.13 216.506 781.327 202.441 851.718 196.275C919.299 190.995 944.793 203.285 1011.13 217.433" stroke="#8D8D8D" stroke-width="35" stroke-linecap="round" stroke-linejoin="round"/>
<path opacity="0.5" d="M-184.426 217.462C-46.6318 195.491 -10.07 211.716 104.479 92.2644C123.911 72.3814 150.745 43.554 184.167 39.4889C240.243 37.8782 268.789 106.749 308.715 149.996C402.758 246.325 447.767 211.22 517.969 165.926C571.873 132.013 579.682 142.226 647.494 178.21C737.216 224.69 775.312 201.81 861.699 195.686C921.855 192.146 949.143 204.229 1011.15 217.462" stroke="#8E8E8E" stroke-width="35" stroke-linecap="round" stroke-linejoin="round"/>
<path opacity="0.5" d="M-184.426 217.48C-70.3138 198.73 -10.4832 209.279 79.5932 118.897C112.324 85.4026 136.891 56.3215 169.262 44.3091C226.915 27.7891 260.643 93.0608 293.811 135.818C318.898 166.469 363.682 210.4 413.372 211.68C445.306 210.648 469.271 195.945 493.059 180.599C555.133 139.889 563.403 132.573 617.608 162.132C661.477 186.605 691.894 206.465 747.126 207.639C817.033 207.474 857.509 182.003 956.356 204.689C982.919 210.966 982.411 211.297 1011.15 217.468" stroke="#909090" stroke-width="35" stroke-linecap="round" stroke-linejoin="round"/>
<path opacity="0.5" d="M-184.426 217.492C-92.2013 202.004 -56.9263 205.816 -0.106139 178.882C85.5727 135.812 111.096 66.7233 169.262 45.973C239.364 26.9337 267.479 123.776 333.655 178.865C392.836 225.917 430.46 220.023 493.065 179.024C535.022 151.087 553.61 137.529 582.728 145.488C611.858 155.636 634.265 174.581 672.397 192.151C738.668 220.879 777.75 204.76 846.753 197.261C917.51 190.228 939.781 202.187 1011.15 217.492" stroke="#919191" stroke-width="35" stroke-linecap="round" stroke-linejoin="round"/>
<path opacity="0.5" d="M-184.426 217.51C-90.3124 201.355 -53.2134 205.468 4.86992 176.77C116.432 118.507 155.828 -26.4378 253.967 88.0989C284.697 126.49 292.701 149.848 338.648 185.449C403.461 232.737 441.032 212.4 508.005 167.413C544.679 143.223 560.333 136.396 587.693 146.586C617.147 159.341 635.8 175.909 672.38 193.125C738.455 222.33 777.372 205.261 846.736 197.438C917.611 190.116 939.829 202.24 1011.13 217.498" stroke="#929292" stroke-width="35" stroke-linecap="round" stroke-linejoin="round"/>
<path opacity="0.5" d="M-184.426 217.515C-62.0794 196.447 -8.52349 208.424 79.5932 121.44C111.698 89.1669 136.697 60.3808 169.262 49.6369C226.271 35.7188 259.722 101.02 293.811 144.934C379.785 249.629 441.563 211.22 493.065 176.729C556.532 133.848 565.894 131.6 617.614 163.058C659.695 189.195 691.705 210.848 747.132 210.742C814.625 208.931 857.16 181.921 956.362 204.813C984.105 211.397 981.154 211.173 1011.16 217.515" stroke="#939393" stroke-width="35" stroke-linecap="round" stroke-linejoin="round"/>
<path opacity="0.5" d="M-184.426 217.515C-56.336 195.685 -6.67592 208.742 84.5692 117.805C154.606 47.3417 190.27 19.1102 253.979 94.111C285.193 133.34 293.923 157.442 338.631 190.57C430.985 254.508 480.846 170.138 547.861 145.022C608.659 127.027 644.152 218.536 757.084 211.692C810.552 207.273 857.077 188.47 926.459 198.995C957.277 204.193 967.406 208.524 1011.15 217.563" stroke="#959595" stroke-width="35" stroke-linecap="round" stroke-linejoin="round"/>
<path opacity="0.5" d="M-184.426 217.515C-98.9422 203.096 -74.9652 205.066 -30.0037 192.222C83.5952 157.318 110.105 61.5254 179.226 52.3922C235.179 50.0853 266.204 119.918 303.775 162.516C416.789 281.696 482.092 163.82 552.872 143.854C593.153 136.296 622.141 177.242 682.391 202.347C769.079 235.469 822.664 181.832 931.488 199.987C961.958 205.55 968.675 208.925 1011.18 217.51" stroke="#969696" stroke-width="35" stroke-linecap="round" stroke-linejoin="round"/>
<path opacity="0.5" d="M-184.426 217.516C-29.9034 192.033 -5.67834 209.645 99.4973 105.716C165.248 41.4831 201.025 33.5063 258.872 106.401C286.875 143.37 300.452 170.51 343.619 198.895C434.61 254.072 487.812 161.619 552.843 144.161C610.778 134.131 648.379 225.51 762.066 213.704C814.501 207.214 860.749 188.511 931.441 200.199C961.58 205.651 971.544 209.763 1011.13 217.516" stroke="#979797" stroke-width="35" stroke-linecap="round" stroke-linejoin="round"/>
<path opacity="0.5" d="M-184.426 217.516C-89.7752 202.063 -69.5228 204.488 -25.0159 191.609C85.4664 157.041 114.768 58.3336 184.208 57.012C239.612 61.142 268.618 131.629 308.757 173.513C397.924 260.108 454.455 199.473 517.981 160.05C572.764 127.629 581.14 146.314 647.505 187.839C733.686 239.871 771.623 207.385 861.711 197.969C922.734 192.435 948.482 205.562 1011.16 217.516" stroke="#989898" stroke-width="35" stroke-linecap="round" stroke-linejoin="round"/>
<path opacity="0.5" d="M-184.426 217.515C-73.9086 199.715 -38.1377 204.329 19.8098 173.82C93.0456 132.803 128.799 55.2183 189.184 60.1802C257.544 72.2221 273.346 167.678 353.577 209.114C421.612 240.484 465.594 191.603 522.945 158.203C557.435 139.358 571.348 141.588 602.632 160.563C634.555 180.823 653.556 197.143 687.32 209.84C748.325 230.49 785.034 207.704 856.694 199.019C921.624 191.939 945.141 205.356 1011.12 217.527" stroke="#9A9A9A" stroke-width="35" stroke-linecap="round" stroke-linejoin="round"/>
<path opacity="0.5" d="M-184.426 217.516C-72.4801 199.816 -37.5533 204.536 19.8098 174.953C92.9098 134.792 128.722 57.8202 189.184 63.2246C257.544 75.6618 273.706 171.006 353.577 211.273C421.382 241.694 465.228 192.983 522.945 160.038C557.317 141.659 571.348 143.99 602.632 163.088C634.82 183.602 653.638 199.739 687.32 212.135C748.384 232.23 784.538 208.654 856.694 199.574C921.624 192.252 945.389 205.851 1011.12 217.516" stroke="#9B9B9B" stroke-width="35" stroke-linecap="round" stroke-linejoin="round"/>
<path opacity="0.5" d="M-184.426 217.515C-74.6995 200.529 -40.2981 204.742 14.8279 178.575C91.0328 140.084 124.029 65.4784 184.238 65.7557C253.141 72.3873 271.138 168.504 348.595 210.984C415.343 243.818 456.444 201.001 517.969 164.663C554.442 144.243 568.638 145.825 597.656 162.569C628.428 181.419 648.054 198.989 682.343 212.648C744.323 234.95 781.687 210.795 851.718 200.795C920.409 191.845 944.344 206.14 1011.13 217.515" stroke="#9C9C9C" stroke-width="35" stroke-linecap="round" stroke-linejoin="round"/>
<path opacity="0.5" d="M-184.426 217.515C-85.3481 202.488 -68.7318 205.332 -25.0159 194.222C84.6164 163.961 114.756 67.9622 184.208 68.7823C239.21 74.4168 268.665 143.577 308.757 184.139C395.982 265.978 454.443 203.279 517.981 166.439C573.39 136.042 582.539 157.412 647.505 197.644C731.697 247.7 770.448 212.347 856.729 200.712C921.66 192.848 946.841 207.013 1011.16 217.515" stroke="#9D9D9D" stroke-width="35" stroke-linecap="round" stroke-linejoin="round"/>
<path opacity="0.5" d="M-184.426 217.515C-80.9211 202.341 -67.8464 205.409 -25.0159 194.895C85.4251 165.43 114.402 70.4343 184.208 71.7795C239.175 77.7857 268.529 146.397 308.757 186.771C395.445 267.37 454.065 204.583 517.981 168.221C573.467 138.396 582.64 160.191 647.505 200.187C731.614 249.906 770.59 213.285 856.729 201.285C921.66 193.137 945.56 207.261 1011.16 217.515" stroke="#9F9F9F" stroke-width="35" stroke-linecap="round" stroke-linejoin="round"/>
<path opacity="0.5" d="M-184.426 217.516C-79.6284 202.636 -67.3683 205.651 -25.0159 195.603C87.013 166.693 117.955 67.626 189.184 75.7621C243.419 86.8128 270.796 154.403 313.733 193.874C400.964 267.978 457.271 202.842 522.963 168.504C577.073 142.226 587.616 168.504 652.487 206.14C736.071 252.213 775.554 210.961 866.693 200.659C924.617 195.119 950.513 208.506 1011.16 217.527" stroke="#A0A0A0" stroke-width="35" stroke-linecap="round" stroke-linejoin="round"/>
<path opacity="0.5" d="M-184.426 217.515C-78.4301 202.907 -67.3329 206.034 -25.0159 196.323C86.8654 168.368 118.02 71.0244 189.184 79.4496C243.372 90.6596 270.778 157.271 313.733 196.27C400.805 269.329 457.33 205.356 522.963 172.08C577.203 146.58 587.392 172.552 652.487 209.379C734.536 253.358 773.742 213.315 861.711 201.709C922.616 194.688 948.482 208.636 1011.16 217.462" stroke="#A1A1A1" stroke-width="35" stroke-linecap="round" stroke-linejoin="round"/>
<path opacity="0.5" d="M-184.426 217.515C-76.252 203.125 -62.6461 206.146 -20.0398 195.845C88.4001 167.401 122.388 69.16 194.202 84.1755C248.082 100.2 271.433 163.613 318.75 202.807C406.064 270.031 460.8 203.987 527.974 173.454C581.146 151.5 594.209 182.304 657.493 215.279C737.771 254.42 777.142 212.27 866.723 201.709C924.239 195.98 950.212 209.379 1011.19 217.498" stroke="#A3A3A3" stroke-width="35" stroke-linecap="round" stroke-linejoin="round"/>
<path opacity="0.5" d="M-184.426 217.515C-66.2763 202.37 -36.8568 206.235 14.8279 185.225C91.2393 151.955 127.282 78.9834 189.184 86.8127C258.288 101.48 273.889 190.883 353.576 226.094C420.573 252.154 465.322 206.665 522.945 179.337C557.323 164.244 571.637 167.478 602.632 185.744C633.386 204.583 653.809 220.442 687.32 229.758C749.222 244.384 784.072 214.701 856.694 203.55C920.503 194.795 946.215 209.45 1011.15 217.515" stroke="#A4A4A4" stroke-width="35" stroke-linecap="round" stroke-linejoin="round"/>
<path opacity="0.5" d="M-184.426 217.515C-72.9464 203.763 -66.3707 207.019 -25.0159 198.5C87.0484 173.254 118.127 81.2077 189.184 90.5297C243.236 102.135 270.642 165.861 313.733 203.515C400.138 273.3 455.146 214.046 522.963 182.983C575.598 160.693 586.051 182.9 647.511 216.678C733.302 261.417 772.39 215.975 861.717 203.45C921.872 196.087 948.104 210.182 1011.16 217.545" stroke="#A6A6A6" stroke-width="35" stroke-linecap="round" stroke-linejoin="round"/>
<path opacity="0.5" d="M-184.426 217.516C-63.3839 203.356 -38.8579 206.553 9.85186 189.266C88.1699 159.283 123.185 90.7363 184.208 93.9754C253.271 103.286 272.059 190.966 348.595 228.082C414.906 256.786 457.932 217.799 517.969 189.703C553.692 174.015 568.384 175.749 597.656 191.402C629.573 209.427 648.532 224.684 682.343 234.154C744.789 249.063 783.635 217.445 851.718 205.421C917.9 194.86 944.191 210.241 1011.13 217.516" stroke="#A7A7A7" stroke-width="35" stroke-linecap="round" stroke-linejoin="round"/>
<path opacity="0.5" d="M-184.426 217.515C-65.4322 204.205 -38.8283 206.895 9.85186 190.169C88.3116 161.07 123.262 94.7365 184.208 98.3473C252.09 107.787 273.718 194.098 348.595 230.147C415.296 258.898 459.567 220.749 517.969 194.682C553.574 179.761 568.278 181.266 597.656 196.452C629.449 213.804 648.627 228.625 682.343 237.221C744.913 250.626 783.759 218.105 851.718 205.904C917.168 195.331 944.002 210.748 1011.13 217.515" stroke="#A8A8A8" stroke-width="35" stroke-linecap="round" stroke-linejoin="round"/>
<path opacity="0.5" d="M-184.426 217.516C-58.8211 204.14 -34.4072 206.96 14.8279 189.29C92.0835 159.583 127.447 94.6304 189.184 103.433C273.771 122.089 302.813 273.819 433.264 236.968C467.966 226.012 489.512 211.008 522.933 197.668C557.334 184.971 571.59 187.768 602.621 204.123C665.922 238.75 692.514 255.618 767.013 231.823C819.27 214.471 857.579 194.854 936.387 206.512C970.405 211.881 976.255 214.276 1011.11 217.516" stroke="#A9A9A9" stroke-width="35" stroke-linecap="round" stroke-linejoin="round"/>
<path opacity="0.5" d="M-184.426 217.515C-1.95962 199.007 -0.45441 211.126 104.479 137.128C127.736 121.115 152.38 104.831 184.167 107.103C238.39 115.05 267.986 173.242 308.715 208.913C394.43 278.639 453.924 230.466 517.969 204.636C577.091 182.216 585.721 204.087 647.494 232.212C734.205 269.17 772.922 218.235 861.699 205.32C920.013 198.028 946.699 212.046 1011.15 217.515" stroke="#ABABAB" stroke-width="35" stroke-linecap="round" stroke-linejoin="round"/>
<path opacity="0.5" d="M-184.426 217.515C-54.152 204.972 -36.2665 207.232 9.85186 192.877C120.682 155.76 155.367 46.8873 263.913 164.486C290.417 194.051 307.305 216.919 348.595 236.354C391.821 254.75 424.28 248.679 468.155 230.725C534.072 202.895 550.948 190.015 597.674 211.598C629.874 227.327 651.389 242.107 687.343 247.145C772.449 255.582 807.949 188.983 936.44 207.438C968.504 212.329 977.17 214.902 1011.16 217.515" stroke="#ACACAC" stroke-width="35" stroke-linecap="round" stroke-linejoin="round"/>
<path opacity="0.5" d="M-184.426 217.516C-62.2093 206.365 -34.0058 207.757 14.8279 191.98C88.2998 166.61 121.721 114.956 179.226 115.87C247.698 121.682 270.861 199.108 343.619 236.118C409.139 266.745 450.459 240.467 512.987 216.985C553.539 202.459 567.841 204.801 592.674 214.89C625.494 229.316 646.024 244.042 682.343 249.57C745.167 256.609 785.105 220.424 851.718 207.763C914.394 197.202 942.03 212.713 1011.13 217.527" stroke="#ADADAD" stroke-width="35" stroke-linecap="round" stroke-linejoin="round"/>
<path opacity="0.5" d="M-184.426 217.515C-2.29017 201.81 1.2692 209.309 104.479 146.179C129.064 131.517 152.941 118.384 184.167 121.292C238.213 130.001 267.626 182.906 308.715 216.394C397.045 283.46 457.607 240.071 522.951 219.48C580.131 202.712 589.9 223.132 647.499 244.484C735.085 274.35 773.264 219.48 861.699 206.53C918.248 199.515 944.928 213.368 1011.15 217.515" stroke="#AEAEAE" stroke-width="35" stroke-linecap="round" stroke-linejoin="round"/>
<path opacity="0.5" d="M-184.426 217.515C-63.9683 207.733 -50.6752 207.904 -15.0579 200.925C48.8102 187.384 71.3411 167.194 114.467 143.76C221.224 88.0517 249.711 178.481 318.703 226.047C405.533 282.268 458.268 243.157 527.927 224.1C584.003 210.028 596.074 232.761 652.475 250.243C736.147 273.483 776.587 219.344 861.699 206.884C917.451 200.028 944.137 213.787 1011.15 217.504" stroke="#B0B0B0" stroke-width="35" stroke-linecap="round" stroke-linejoin="round"/>
<path opacity="0.5" d="M-184.426 217.515C-48.8336 207.167 -43.4916 206.795 -15.0579 201.344C49.247 188.057 72.2088 168.74 114.467 147.187C221 95.1436 249.894 182.157 318.703 228.395C405.421 283.265 456.869 248.219 527.927 230.165C584.971 216.813 596.511 238.691 652.475 254.284C736.295 274.934 776.989 219.604 861.699 207.22C916.873 200.494 943.459 214.206 1011.15 217.504" stroke="#B1B1B1" stroke-width="35" stroke-linecap="round" stroke-linejoin="round"/>
<path opacity="0.5" d="M-184.426 217.515C-58.0714 208.506 -42.612 207.314 -10.0818 200.765C54.5477 186.853 75.6738 168.274 119.443 148.344C222.741 103.999 251.777 189.408 323.679 233.811C410.491 284.38 460.795 250.821 532.915 235.174C588.241 224.318 602.355 247.564 657.463 259.423C709.408 268.828 744.37 249.853 791.97 228.873C888.268 187.195 918.667 213.657 1011.16 217.515" stroke="#B2B2B2" stroke-width="35" stroke-linecap="round" stroke-linejoin="round"/>
<path opacity="0.5" d="M-184.426 217.516C-65.9575 209.598 -44.8492 207.887 -10.0818 200.996C95.9498 178.688 129.979 124.49 199.148 145.235C276.079 172.652 312.446 278.038 443.246 261.577C478.385 256.385 501.459 247.222 537.897 240.543C591.069 232.047 608.582 255.96 662.445 263.966C744.996 273.318 786.699 212.636 876.657 206.465C924.623 204.359 946.794 215.203 1011.16 217.516" stroke="#B3B3B3" stroke-width="35" stroke-linecap="round" stroke-linejoin="round"/>
<path opacity="0.5" d="M-184.426 217.516C-71.2346 210.436 -44.0169 208.182 -5.09398 200.134C62.1092 185.455 80.5907 169.419 124.431 153.902C224.022 121.222 253.837 199.762 328.667 241.11C417.799 287.985 469.236 257.311 542.873 246.19C593.938 239.835 614.45 263.683 667.421 267.961C716.178 270.126 747.109 250.479 796.946 227.841C885.659 188.682 917.717 214.66 1011.15 217.51" stroke="#B5B5B5" stroke-width="35" stroke-linecap="round" stroke-linejoin="round"/>
<path opacity="0.5" d="M-184.426 217.515C-75.7443 211.214 -31.3731 209.202 34.7616 190.375C106.469 169.094 145.698 134.402 209.112 159.925C270.731 187.738 286.716 235.139 373.504 261.842C444.485 281.648 493.862 256.839 552.842 251.594C613.051 248.49 642.157 288.823 722.217 262.308C785.465 239.658 818.432 204.618 896.567 206.99C940.673 209.185 951.906 216.029 1011.15 217.515" stroke="#B6B6B6" stroke-width="35" stroke-linecap="round" stroke-linejoin="round"/>
<path opacity="0.5" d="M-184.426 217.516C-78.4596 211.81 -36.9336 209.497 29.7796 192.34C103.269 172.87 139.619 143.624 199.148 161.66C263.181 184.015 276.899 229.032 363.54 260.692C435.973 285.354 484.683 265.736 547.861 258.526C612.401 252.862 638.858 291.661 717.235 265.943C781.351 243.098 814.796 206.211 891.585 207.196C935.384 208.66 949.279 216.318 1011.15 217.533" stroke="#B7B7B7" stroke-width="35" stroke-linecap="round" stroke-linejoin="round"/>
<path opacity="0.5" d="M-184.426 217.515C-78.8433 212.312 -47.3992 208.612 -10.0818 201.633C102.325 179.749 134.04 147.353 199.148 167.106C269.846 191.614 316.731 276.02 443.246 276.256C481.265 275.607 516.056 268.444 547.861 264.975C599.982 260.456 620.158 280.71 672.409 277.99C752.51 270.981 792.79 210.176 881.639 207.468C927.327 207.179 943.99 216.471 1011.16 217.498" stroke="#B8B8B8" stroke-width="35" stroke-linecap="round" stroke-linejoin="round"/>
<path opacity="0.5" d="M-184.426 217.516C-90.6429 213.268 -56.1235 209.881 -15.0579 202.547C105.129 180.204 137.753 151.441 204.13 174.31C268.258 199.007 323.862 277.89 448.228 279.713C478.562 279.648 508.046 275.837 537.897 272.126C599.286 264.898 610.666 282.292 662.445 281.566C746.265 277.578 788.458 212.536 876.657 207.851C922.699 206.601 941.54 216.701 1011.16 217.498" stroke="#BABABA" stroke-width="35" stroke-linecap="round" stroke-linejoin="round"/>
<path opacity="0.5" d="M-184.426 217.516C-63.7499 212.359 -42.2992 208.972 49.7015 189.39C118.469 174.345 156.872 158.085 219.111 186.015C275.996 213.515 293.958 246.195 383.498 272.869C442.342 289.236 486.029 283.224 547.89 276.917C615.524 271.046 638.864 300.735 712.282 273.33C777.213 247.299 812.181 207.975 886.639 208.017C932.545 209.061 943.04 217.032 1011.19 217.545" stroke="#BBBBBB" stroke-width="35" stroke-linecap="round" stroke-linejoin="round"/>
<path opacity="0.5" d="M-184.426 217.516C-108.404 214.566 -73.2534 212.288 -25.0159 204.164C113.251 179.974 150.515 159.324 224.081 193.65C272.484 217.616 344.858 284.911 468.179 287.395C506.842 287.714 528.387 284.445 552.866 282.327C605.129 278.651 626.899 294.552 677.415 285.731C758.749 268.769 797.371 205.922 891.621 208.382C938.17 210.536 943.795 217.262 1011.18 217.516" stroke="#BDBDBD" stroke-width="35" stroke-linecap="round" stroke-linejoin="round"/>
<path opacity="0.5" d="M-184.426 217.515C-52.4933 212.866 -47.2221 207.379 29.7796 194.057C109.467 180.758 154.747 169.442 219.082 196.665C276.929 222.731 289.36 246.667 383.468 276.687C444.06 295.089 488.827 293.797 552.842 288.203C619.656 283.218 643.952 307.372 717.235 274.633C783.116 243.623 816.289 206.453 891.585 208.671C939.067 211.031 942.668 217.521 1011.15 217.521" stroke="#BEBEBE" stroke-width="35" stroke-linecap="round" stroke-linejoin="round"/>
<path opacity="0.5" d="M-184.426 217.516C-122.719 215.574 -86.9478 214.217 -34.9797 205.716C-17.6964 202.801 64.7241 186.139 124.431 184.239C218.285 182.806 251.34 225.233 328.667 257.812C393.007 284.569 447.448 301.036 527.927 296.162C576.064 292.622 564.896 291.389 617.596 295.177C736.832 302.481 773.128 215.822 871.657 208.955C917.799 207.078 933.713 217.704 1011.14 217.468" stroke="#BFBFBF" stroke-width="35" stroke-linecap="round" stroke-linejoin="round"/>
<path opacity="0.5" d="M-184.426 217.515C-0.336356 212.459 -24.3725 193.52 104.479 188.009C209.838 184.676 247.746 225.179 313.703 253.429C487.18 325.568 512.951 293.437 612.62 298.764C628.038 299.472 637.051 299.637 652.475 298.109C739.134 286.964 784.397 217.722 866.681 209.55C913.36 206.394 930.561 217.981 1011.15 217.515" stroke="#C0C0C0" stroke-width="35" stroke-linecap="round" stroke-linejoin="round"/>
<path opacity="0.5" d="M-184.426 217.515C-121.326 215.922 -90.6547 215.155 -34.9797 205.55C180.649 167.336 207.253 211.061 308.745 253.34C481.767 323.143 513.642 303.726 582.728 301.885C626.574 301.484 655.226 308.995 712.253 281.483C765.26 254.662 800.021 222.395 851.735 211.733C901.655 203.314 922.657 218.223 1011.15 217.515" stroke="#C2C2C2" stroke-width="35" stroke-linecap="round" stroke-linejoin="round"/>
<path opacity="0.5" d="M-184.426 217.515C-122.447 216.141 -93.3051 215.781 -34.9797 205.444C-2.88635 199.621 85.1064 179.124 184.208 205.444C253.111 224.837 362.053 288.286 473.137 306.21C510 311.697 525.347 310.865 557.813 307.939C617.289 302.729 634.95 311.567 682.361 295.826C765.826 265.541 800.476 204.341 896.567 210.005C945.926 213.722 942.75 218.223 1011.15 217.515" stroke="#C3C3C3" stroke-width="35" stroke-linecap="round" stroke-linejoin="round"/>
<path opacity="0.5" d="M-184.426 217.516C-93.7714 215.628 -84.6693 214.666 -10.0818 200.671C190.902 163.979 305.681 282.132 483.101 311.255C521.859 317.072 533.989 314.582 572.77 311.255C620.418 307.591 645.552 314.5 697.319 291.643C748.756 267.524 782.478 235.186 831.82 217.427C887.979 199.249 912.788 218.743 1011.16 217.539" stroke="#C4C4C4" stroke-width="35" stroke-linecap="round" stroke-linejoin="round"/>
<path opacity="0.5" d="M-184.426 217.516C-122.063 216.477 -97.3072 216.878 -34.9797 205.238C8.75985 196.883 65.4265 182.322 179.226 213.987C254.782 235.705 404.494 299.797 483.101 314.877C518.057 321.078 532.319 319.863 567.788 316.228C620.122 310.989 642.966 316.995 692.337 295.578C744.104 271.678 777.384 239.115 826.838 219.433C885.458 198.146 906.478 219.073 1011.16 217.516" stroke="#C5C5C5" stroke-width="35" stroke-linecap="round" stroke-linejoin="round"/>
<path opacity="0.5" d="M-184.426 217.515C-121.337 216.684 -98.3106 217.285 -34.9797 205.184C13.7772 195.744 57.4223 183.048 179.226 218.324C365.217 273.365 425.437 309.833 503.023 320.895C536.297 324.895 552.388 320.659 587.71 317.603C633.162 314.193 658.585 316.11 712.259 286.658C765.384 256.373 800.8 223.168 851.741 212.512C900.87 204.223 911.908 219.038 1011.15 217.515" stroke="#C7C7C7" stroke-width="35" stroke-linecap="round" stroke-linejoin="round"/>
<path opacity="0.5" d="M-184.426 217.516C-37.8957 216.076 -49.8429 203.161 19.8098 195.839C70.7567 191.709 132.01 208.317 179.22 222.483C365.547 279.336 347.373 274.238 348.589 274.651C386.52 287.79 413.478 299.531 453.204 311.762C517.001 330.754 534.662 326.223 582.722 320.884C626.35 316.476 653.556 319.232 707.271 290.398C776.859 251.458 812.878 208.66 886.609 210.495C937.645 212.855 930.142 218.819 1011.16 217.516" stroke="#C8C8C8" stroke-width="35" stroke-linecap="round" stroke-linejoin="round"/>
<path opacity="0.5" d="M-184.426 217.515C-140.108 217.132 -118.368 217.934 -79.8231 212.925C-39.0527 207.208 -17.1652 200.175 14.8279 196.334C76.205 190.393 143.243 216.33 229.028 241.9C308.037 264.981 312.647 263.264 353.577 277.129C503.354 329.291 483.727 337.899 627.56 319.019C702.98 307.738 739.5 266.539 801.916 231.976C869.42 196.311 897.069 215.391 971.284 217.923C984.696 218.176 983.68 217.999 1011.14 217.539" stroke="#C9C9C9" stroke-width="35" stroke-linecap="round" stroke-linejoin="round"/>
<path opacity="0.5" d="M-180.294 200.406C-130.02 200.724 -113.085 207.893 -55.7458 201.214C6.07987 193.337 22.4719 184.08 73.7847 203.592C109.497 217.899 132.635 232.295 168.436 244.561C219.601 260.833 245.892 253.494 292.984 245.464C431.062 223.899 478.532 305.785 581.919 301.083C614.621 299.39 616.297 300.192 636.721 298.641C732.747 289.466 776.841 222.879 855.909 204.27C886.692 198.175 908.916 201.208 950.56 201.786C979.318 201.951 981.29 200.636 1015.32 200.406" stroke="#E4E4E4" stroke-width="35" stroke-linecap="round" stroke-linejoin="round"/>
<path opacity="0.5" d="M-180.294 200.405C-129.737 200.718 -113.085 208.075 -55.7458 201.928C6.56388 194.588 22.4306 185.461 73.7847 204.73C109.898 218.967 132.559 232.891 168.436 244.773C219.589 260.45 245.892 252.874 292.984 244.425C392.853 227.905 451.102 265.459 507.196 285.908C544.384 298.817 560.044 299.201 591.883 298.139C614.969 297.549 622.324 298.139 641.703 296.658C733.267 287.548 778.293 223.02 855.867 204.73C886.632 198.606 908.851 201.444 950.518 201.851C979.613 201.904 980.947 200.6 1015.28 200.388" stroke="#E5E5E5" stroke-width="35" stroke-linecap="round" stroke-linejoin="round"/>
<path opacity="0.5" d="M-180.294 200.405C-129.005 200.706 -113.085 208.134 -55.7458 202.73C10.2531 195.792 23.2274 186.629 78.7548 207.81C115.145 222.277 138.025 235.587 173.406 245.936C226.442 260.155 255.992 249.541 297.954 242.396C400.527 226.56 453.581 262.119 512.137 283.029C550.912 296.227 564.004 295.224 596.824 295.177C619.845 295.325 627.855 295.932 646.643 294.457C736.141 285.224 782.407 219.816 860.849 204.187C891.774 199.072 913.833 201.981 955.5 201.928C982.399 201.662 982.139 200.606 1015.28 200.417" stroke="#E7E7E7" stroke-width="35" stroke-linecap="round" stroke-linejoin="round"/>
<path opacity="0.5" d="M-180.294 200.406C-104.355 200.836 -133.662 212.017 -5.94998 197.851C67.7816 190.482 97.874 222.849 168.406 244.113C238.118 263.512 264.586 241.93 332.805 237.292C457.548 230.212 489.576 289.956 581.902 292.003C625.683 292.705 639.79 295.502 671.571 289.265C739.701 273.825 781.469 227.605 845.927 208.081C876.722 199.821 897.872 201.344 940.578 201.916C977.246 202.24 976.78 200.606 1015.3 200.406" stroke="#E8E8E8" stroke-width="35" stroke-linecap="round" stroke-linejoin="round"/>
<path opacity="0.5" d="M-180.294 200.405C-105.447 200.812 -131.053 212.022 -5.94998 199.225C69.092 192.34 95.625 222.89 168.406 243.747C237.121 261.883 263.223 241.593 332.805 235.652C461.054 225.846 489.458 284.38 581.902 288.752C625.535 290.522 639.867 293.667 671.571 288.026C739.518 273.866 781.256 227.911 845.927 208.494C876.692 200.293 898.078 201.621 940.578 202.004C978.309 202.199 975.706 200.6 1015.3 200.405" stroke="#EAEAEA" stroke-width="35" stroke-linecap="round" stroke-linejoin="round"/>
<path opacity="0.5" d="M-180.294 200.405C-127.494 200.677 -113.097 208.329 -55.7458 205.167C7.08333 201.025 21.2913 192.34 73.7847 209.45C111.722 222.377 136.218 235.369 173.424 244.655C228.792 257.217 258.908 245.363 302.948 237.788C410.379 220.991 442.319 241.853 512.166 268.904C552.305 284.026 562.989 284.026 596.853 286.51C663.053 291.82 680.673 295.36 776.192 240.891C851.157 198.482 858.24 201.113 1015.31 200.429" stroke="#EBEBEB" stroke-width="35" stroke-linecap="round" stroke-linejoin="round"/>
<path opacity="0.5" d="M-180.294 200.406C-125.682 200.665 -111.545 208.925 -50.7816 205.716C15.3295 201.586 24.9393 193.916 83.725 213.928C119.773 226.625 140.474 236.455 173.394 244.195C228.615 255.966 258.707 244.355 302.919 236.484C410.94 218.814 438.151 234.767 512.137 264.167C552.984 280.05 562.789 280.244 596.824 283.584C618.163 285.832 624.874 286.929 641.685 287.442C733.639 288.032 778.352 222.271 860.873 205.816C892.022 200.535 914.258 202.653 955.524 202.063C983.137 201.473 981.419 200.541 1015.3 200.406" stroke="#ECECEC" stroke-width="35" stroke-linecap="round" stroke-linejoin="round"/>
<path opacity="0.5" d="M-180.294 200.405C-126.455 200.647 -110.866 208.884 -50.7816 206.636C11.7879 203.686 23.3868 196.193 78.7431 213.309C115.494 225.109 138.361 235.729 173.394 243.399C228.219 254.32 257.969 243.399 302.919 235.245C418.454 215.71 432.709 227.628 522.101 262.851C561.88 278.079 568.042 276.421 611.77 282.457C692.839 293.301 720.186 270.657 791.108 232.619C864.574 194.11 885.676 204.83 970.44 201.574C991.177 200.635 994.223 200.453 1015.3 200.394" stroke="#EDEDED" stroke-width="35" stroke-linecap="round" stroke-linejoin="round"/>
<path opacity="0.5" d="M-180.294 200.406C-125.469 200.63 -113.682 208.317 -55.7458 207.668C6.07396 206.323 20.0694 198.004 73.7847 212.937C109.904 223.451 133.119 233.682 168.436 241.617C222.741 252.75 251.47 244.048 297.96 234.985C423.89 211.698 432.231 221.651 527.112 259.765C563.208 273.819 570.74 273.188 616.781 280.581C735.262 298.475 770.354 219.297 870.843 204.89C902.635 201.084 925.384 203.12 965.494 201.81C986.744 200.966 988.019 200.524 1015.31 200.435" stroke="#EFEFEF" stroke-width="35" stroke-linecap="round" stroke-linejoin="round"/>
<path opacity="0.5" d="M-180.294 200.405C-122.353 200.6 -112.283 208.86 -50.7639 208.483C11.8056 207.48 22.1945 200.051 78.7608 215.468C115.877 225.988 138.461 235.204 173.412 241.841C225.309 250.691 254.073 242.431 297.96 233.794C422.09 210.412 425.761 212.111 527.112 254.68C555.829 266.48 562.251 268.285 621.763 278.828C696.923 291.071 729.784 263.925 796.119 230.012C864.857 195.792 891.615 204.795 970.47 201.562C991.761 200.565 993.969 200.494 1015.33 200.382" stroke="#F0F0F0" stroke-width="35" stroke-linecap="round" stroke-linejoin="round"/>
<path opacity="0.5" d="M-180.294 200.406C-102.437 200.671 -129.619 212.394 4.0257 207.775C74.6347 205.91 110.004 231.097 178.37 241.829C232.434 249.269 257.94 240.62 362.69 219.911C437.419 205.952 466.331 223.451 532.065 251.771C552.258 260.243 564.305 265.542 626.716 277.3C736.59 295.938 772.16 215.574 880.777 204.329C896.384 202.984 999.854 200.476 1015.28 200.417" stroke="#F1F1F1" stroke-width="35" stroke-linecap="round" stroke-linejoin="round"/>
<path opacity="0.5" d="M-180.294 200.406C-121.426 200.6 -112.855 208.778 -50.7639 210.335C10.625 211.256 20.7365 203.946 78.7431 217.628C117.814 227.209 141.903 235.752 178.37 240.968C232.168 247.676 259.947 238.531 317.853 227.628C366.385 218.088 394.447 205.379 442.401 213.179C495.385 223.463 526.162 249.759 576.908 263.028C633.038 276.704 660.479 286.776 711.409 270.374C761.718 252.703 794.195 224.702 845.909 210.571C881.987 201.751 899.247 203.592 990.374 200.671C1001 200.429 1003.18 200.447 1015.28 200.406" stroke="#F2F2F2" stroke-width="35" stroke-linecap="round" stroke-linejoin="round"/>
<path opacity="0.5" d="M-180.294 200.405C-120.676 200.571 -109.42 209.368 -45.7937 211.421C19.1368 212.89 22.4896 205.668 88.701 220.943C190.424 244.962 207.506 251.499 327.817 224.318C375.027 212.99 405.521 198.83 457.341 211.049C516.711 226.891 536.309 255.039 636.679 274.645C739.683 292.05 771.747 213.043 890.729 203.922C890.829 203.922 983.875 200.5 1015.28 200.382" stroke="#F4F4F4" stroke-width="35" stroke-linecap="round" stroke-linejoin="round"/>
<path opacity="0.5" d="M-180.294 200.405C-120.222 200.553 -108.995 209.303 -45.7937 212.436C15.1701 214.86 20.825 208.07 83.725 220.737C154.204 235.41 190.736 247.647 263.057 236C376.981 216.459 392.216 193.461 452.359 204.471C485.757 211.739 508.229 225.073 542.028 241.31C732.275 330.4 742.02 217.923 885.759 204.441C892.771 203.881 978.433 200.476 1015.28 200.382" stroke="#F5F5F5" stroke-width="35" stroke-linecap="round" stroke-linejoin="round"/>
<path opacity="0.5" d="M-180.294 200.406C-117.695 200.612 -106.51 209.981 -40.8177 213.734C18.6764 216.53 22.0764 210.241 88.701 222.584C173.412 238.661 208.828 250.072 322.841 223.02C369.779 210.742 400.503 190.641 452.359 199.037C487.64 206.099 510.59 220.814 547.01 238.891C738.638 331.096 735.244 215.061 895.717 203.863C896.897 203.792 983.603 200.476 1015.28 200.406" stroke="#F6F6F6" stroke-width="35" stroke-linecap="round" stroke-linejoin="round"/>
<path opacity="0.5" d="M-180.294 200.406C-102.626 200.624 -102.608 215.421 13.9837 216.288C126.91 217.71 198.505 269.825 362.69 208.182C480.893 164.321 486.058 220.837 626.716 265.512C731.018 296.192 765.626 218.271 880.777 205.267C905.462 202.836 981.903 200.47 1015.28 200.406" stroke="#F7F7F7" stroke-width="35" stroke-linecap="round" stroke-linejoin="round"/>
<path opacity="0.5" d="M-180.294 200.405C-115.547 200.559 -100.56 211.102 -35.8358 216.335C20.5299 220.306 20.2406 214.211 98.6649 225.711C179.444 237.735 221.944 244.461 317.853 221.97C365.282 209.432 395.486 183.62 447.377 187.656C482.729 191.904 507.586 207.238 542.028 226.596C733.993 332.66 731.413 218.495 890.729 204.494C903.562 203.515 977.766 200.464 1015.28 200.405" stroke="#F9F9F9" stroke-width="35" stroke-linecap="round" stroke-linejoin="round"/>
<path opacity="0.5" d="M-180.294 200.406C-114.272 200.529 -99.8514 211.214 -35.8358 217.516C27.324 223.062 -0.283342 214.064 128.562 229.959C156.984 233.333 179.374 235.528 208.25 235.516C254.079 234.926 304.465 225.427 327.805 218.041C373.646 201.987 405.214 175.956 457.341 183.49C491.489 189.939 516.452 206.76 547.01 224.554C729.117 328.589 733.149 222.637 880.777 205.556C911.212 202.435 980.864 200.5 1015.28 200.429" stroke="#FAFAFA" stroke-width="35" stroke-linecap="round" stroke-linejoin="round"/>
<path opacity="0.5" d="M-180.294 200.405C-98.2458 200.594 -83.0462 219.032 9.00175 221.539C106.167 223.545 149.777 236.466 223.214 233.847C321.53 229.221 353.122 204.872 387.6 189.667C488.691 147.465 513.376 220.294 636.697 262.066C730.764 290.841 766.051 217.586 885.795 205.108C909.547 202.919 976.06 200.464 1015.31 200.388" stroke="#FBFBFB" stroke-width="35" stroke-linecap="round" stroke-linejoin="round"/>
<path opacity="0.5" d="M-180.294 200.406C-110.801 200.512 -100.448 211.238 -35.8357 219.905C16.4747 226.318 -9.34409 219.386 133.539 229.97C164.15 232.1 187.602 233.469 218.226 232.708C255.567 231.416 305.799 225.522 337.786 211.657C382.648 190.771 412.705 165.271 462.335 173.053C495.278 179.868 517.567 196.234 552.004 218.07C689.799 303.62 716.833 259.606 811.048 221.764C830.013 214.536 848.082 208.784 890.735 204.73C907.092 203.356 966.769 200.482 1015.28 200.406" stroke="#FCFCFC" stroke-width="35" stroke-linecap="round" stroke-linejoin="round"/>
<path opacity="0.5" d="M-180.294 200.406C-91.2097 200.577 -76.8483 222.348 13.9837 225.25C147.558 228.513 186.008 235.316 253.099 229.262C329.033 221.592 339.28 209.32 382.618 185.726C474.111 137.594 497.805 186.358 601.806 241.688C645.038 264.373 673.554 273.737 721.367 259.73C815.705 229.268 787.064 200.671 1015.28 200.406" stroke="#FEFEFE" stroke-width="35" stroke-linecap="round" stroke-linejoin="round"/>
<path opacity="0.5" d="M-180.294 200.405C-123.097 200.405 -141.531 200.5 -55.7458 218.566C-40.4871 221.657 -31.2847 223.227 -15.8962 225.014C19.2077 228.554 198.115 230.484 213.256 230.195C361.492 226.442 350.755 186.977 422.485 164.557C502.22 143.588 538.77 219.274 641.673 257.736C686.847 272.875 718.285 262.621 761.228 243.269C819.211 216.719 837.575 200.405 1015.29 200.405" stroke="white" stroke-width="35" stroke-linecap="round" stroke-linejoin="round"/>
</g>
<path opacity="0.9" d="M881.875 -15.0449H-5.90283V251.635H881.875V-15.0449Z" fill="url(#paint1_linear_3849_10103)"/>
</g>
<defs>
<linearGradient id="paint0_linear_3849_10103" x1="-5.90283" y1="127.735" x2="1390.24" y2="127.735" gradientUnits="userSpaceOnUse">
<stop offset="0.01" stop-color="#222324"/>
<stop offset="0.43" stop-color="#222324"/>
<stop offset="0.87" stop-color="#222324" stop-opacity="0.68"/>
<stop offset="0.95" stop-color="#222324" stop-opacity="0.6"/>
<stop offset="0.97" stop-color="#BCBCBC"/>
<stop offset="1" stop-color="white"/>
</linearGradient>
<linearGradient id="paint1_linear_3849_10103" x1="-5.90283" y1="118.295" x2="1390.24" y2="118.295" gradientUnits="userSpaceOnUse">
<stop offset="0.01" stop-color="#222324"/>
<stop offset="0.62" stop-color="#222324"/>
<stop offset="0.9" stop-color="#222324" stop-opacity="0.68"/>
<stop offset="0.95" stop-color="#222324" stop-opacity="0.6"/>
<stop offset="0.97" stop-color="#BCBCBC"/>
<stop offset="1" stop-color="white"/>
</linearGradient>
<clipPath id="clip0_3849_10103">
<rect width="850" height="236" fill="white"/>
</clipPath>
</defs>
</svg>
