<svg id="ewZBpGbL4za1" xmlns="http://www.w3.org/2000/svg" xmlns:xlink="http://www.w3.org/1999/xlink" viewBox="0 0 692 401" shape-rendering="geometricPrecision" text-rendering="geometricPrecision"><style><![CDATA[#ewZBpGbL4za2_ts {animation: ewZBpGbL4za2_ts__ts 3000ms linear infinite alternate forwards}@keyframes ewZBpGbL4za2_ts__ts { 0% {transform: translate(346.380957px,200.80036px) scale(1,1);animation-timing-function: cubic-bezier(0.42,0,1,1)} 20% {transform: translate(346.380957px,200.80036px) scale(1.842453,1.842453);animation-timing-function: cubic-bezier(0.42,0,1,1)} 40% {transform: translate(346.380957px,200.80036px) scale(2.678689,2.678689);animation-timing-function: cubic-bezier(0.42,0,1,1)} 60% {transform: translate(346.380957px,200.80036px) scale(3.346671,3.346671)} 100% {transform: translate(346.380957px,200.80036px) scale(3.346671,3.346671)}}]]></style><defs><linearGradient id="ewZBpGbL4za50-stroke" x1="205.061" y1="56.9988" x2="17.9365" y2="56.9988" spreadMethod="pad" gradientUnits="userSpaceOnUse" gradientTransform="translate(0 0)"><stop id="ewZBpGbL4za50-stroke-0" offset="0%" stop-color="#ff457e"/><stop id="ewZBpGbL4za50-stroke-1" offset="100%" stop-color="#8721ff"/></linearGradient><linearGradient id="ewZBpGbL4za51-stroke" x1="205.064" y1="58.4993" x2="20.9394" y2="58.4993" spreadMethod="pad" gradientUnits="userSpaceOnUse" gradientTransform="translate(0 0)"><stop id="ewZBpGbL4za51-stroke-0" offset="0%" stop-color="#ff457e"/><stop id="ewZBpGbL4za51-stroke-1" offset="100%" stop-color="#8721ff"/></linearGradient><linearGradient id="ewZBpGbL4za52-stroke" x1="203.062" y1="59.0006" x2="24.9392" y2="59.0006" spreadMethod="pad" gradientUnits="userSpaceOnUse" gradientTransform="translate(0 0)"><stop id="ewZBpGbL4za52-stroke-0" offset="0%" stop-color="#ff457e"/><stop id="ewZBpGbL4za52-stroke-1" offset="100%" stop-color="#8721ff"/></linearGradient><linearGradient id="ewZBpGbL4za53-stroke" x1="203.063" y1="59.4989" x2="27.9361" y2="59.4989" spreadMethod="pad" gradientUnits="userSpaceOnUse" gradientTransform="translate(0 0)"><stop id="ewZBpGbL4za53-stroke-0" offset="0%" stop-color="#ff457e"/><stop id="ewZBpGbL4za53-stroke-1" offset="100%" stop-color="#8721ff"/></linearGradient><linearGradient id="ewZBpGbL4za54-stroke" x1="201.06" y1="60.9991" x2="31.94" y2="60.9991" spreadMethod="pad" gradientUnits="userSpaceOnUse" gradientTransform="translate(0 0)"><stop id="ewZBpGbL4za54-stroke-0" offset="0%" stop-color="#ff457e"/><stop id="ewZBpGbL4za54-stroke-1" offset="100%" stop-color="#8721ff"/></linearGradient><linearGradient id="ewZBpGbL4za55-stroke" x1="201.061" y1="61.5013" x2="34.9377" y2="61.5013" spreadMethod="pad" gradientUnits="userSpaceOnUse" gradientTransform="translate(0 0)"><stop id="ewZBpGbL4za55-stroke-0" offset="0%" stop-color="#ff457e"/><stop id="ewZBpGbL4za55-stroke-1" offset="100%" stop-color="#8721ff"/></linearGradient><linearGradient id="ewZBpGbL4za56-stroke" x1="200.059" y1="62.4999" x2="37.9365" y2="62.4999" spreadMethod="pad" gradientUnits="userSpaceOnUse" gradientTransform="translate(0 0)"><stop id="ewZBpGbL4za56-stroke-0" offset="0%" stop-color="#ff457e"/><stop id="ewZBpGbL4za56-stroke-1" offset="100%" stop-color="#8721ff"/></linearGradient><linearGradient id="ewZBpGbL4za57-stroke" x1="199.063" y1="63.5003" x2="41.9401" y2="63.5003" spreadMethod="pad" gradientUnits="userSpaceOnUse" gradientTransform="translate(0 0)"><stop id="ewZBpGbL4za57-stroke-0" offset="0%" stop-color="#ff457e"/><stop id="ewZBpGbL4za57-stroke-1" offset="100%" stop-color="#8721ff"/></linearGradient><linearGradient id="ewZBpGbL4za58-stroke" x1="198.061" y1="64.0015" x2="44.9376" y2="64.0015" spreadMethod="pad" gradientUnits="userSpaceOnUse" gradientTransform="translate(0 0)"><stop id="ewZBpGbL4za58-stroke-0" offset="0%" stop-color="#ff457e"/><stop id="ewZBpGbL4za58-stroke-1" offset="100%" stop-color="#8721ff"/></linearGradient><linearGradient id="ewZBpGbL4za59-stroke" x1="197.06" y1="64.9999" x2="47.9359" y2="64.9999" spreadMethod="pad" gradientUnits="userSpaceOnUse" gradientTransform="translate(0 0)"><stop id="ewZBpGbL4za59-stroke-0" offset="0%" stop-color="#ff457e"/><stop id="ewZBpGbL4za59-stroke-1" offset="100%" stop-color="#8721ff"/></linearGradient><linearGradient id="ewZBpGbL4za60-stroke" x1="196.061" y1="66.0016" x2="51.9399" y2="66.0016" spreadMethod="pad" gradientUnits="userSpaceOnUse" gradientTransform="translate(0 0)"><stop id="ewZBpGbL4za60-stroke-0" offset="0%" stop-color="#ff457e"/><stop id="ewZBpGbL4za60-stroke-1" offset="100%" stop-color="#8721ff"/></linearGradient><linearGradient id="ewZBpGbL4za61-stroke" x1="195.062" y1="66.9997" x2="55.9381" y2="66.9997" spreadMethod="pad" gradientUnits="userSpaceOnUse" gradientTransform="translate(0 0)"><stop id="ewZBpGbL4za61-stroke-0" offset="0%" stop-color="#ff457e"/><stop id="ewZBpGbL4za61-stroke-1" offset="100%" stop-color="#8721ff"/></linearGradient><linearGradient id="ewZBpGbL4za62-stroke" x1="194.063" y1="68.0013" x2="57.9404" y2="68.0013" spreadMethod="pad" gradientUnits="userSpaceOnUse" gradientTransform="translate(0 0)"><stop id="ewZBpGbL4za62-stroke-0" offset="0%" stop-color="#ff457e"/><stop id="ewZBpGbL4za62-stroke-1" offset="100%" stop-color="#8721ff"/></linearGradient><linearGradient id="ewZBpGbL4za63-stroke" x1="193.064" y1="68.5013" x2="61.9392" y2="68.5013" spreadMethod="pad" gradientUnits="userSpaceOnUse" gradientTransform="translate(0 0)"><stop id="ewZBpGbL4za63-stroke-0" offset="0%" stop-color="#ff457e"/><stop id="ewZBpGbL4za63-stroke-1" offset="100%" stop-color="#8721ff"/></linearGradient><linearGradient id="ewZBpGbL4za64-stroke" x1="193.058" y1="69.4993" x2="64.9372" y2="69.4993" spreadMethod="pad" gradientUnits="userSpaceOnUse" gradientTransform="translate(0 0)"><stop id="ewZBpGbL4za64-stroke-0" offset="0%" stop-color="#ff457e"/><stop id="ewZBpGbL4za64-stroke-1" offset="100%" stop-color="#8721ff"/></linearGradient><linearGradient id="ewZBpGbL4za65-stroke" x1="191.062" y1="70.4991" x2="67.9409" y2="70.4991" spreadMethod="pad" gradientUnits="userSpaceOnUse" gradientTransform="translate(0 0)"><stop id="ewZBpGbL4za65-stroke-0" offset="0%" stop-color="#ff457e"/><stop id="ewZBpGbL4za65-stroke-1" offset="100%" stop-color="#8721ff"/></linearGradient><linearGradient id="ewZBpGbL4za66-stroke" x1="191.059" y1="70.999" x2="71.9389" y2="70.999" spreadMethod="pad" gradientUnits="userSpaceOnUse" gradientTransform="translate(0 0)"><stop id="ewZBpGbL4za66-stroke-0" offset="0%" stop-color="#ff457e"/><stop id="ewZBpGbL4za66-stroke-1" offset="100%" stop-color="#8721ff"/></linearGradient><linearGradient id="ewZBpGbL4za67-stroke" x1="190.062" y1="72.4984" x2="73.9366" y2="72.4984" spreadMethod="pad" gradientUnits="userSpaceOnUse" gradientTransform="translate(0 0)"><stop id="ewZBpGbL4za67-stroke-0" offset="0%" stop-color="#ff457e"/><stop id="ewZBpGbL4za67-stroke-1" offset="100%" stop-color="#8721ff"/></linearGradient><linearGradient id="ewZBpGbL4za68-stroke" x1="189.061" y1="72.9986" x2="77.9402" y2="72.9986" spreadMethod="pad" gradientUnits="userSpaceOnUse" gradientTransform="translate(0 0)"><stop id="ewZBpGbL4za68-stroke-0" offset="0%" stop-color="#ff457e"/><stop id="ewZBpGbL4za68-stroke-1" offset="100%" stop-color="#8721ff"/></linearGradient><linearGradient id="ewZBpGbL4za69-stroke" x1="188.063" y1="73.5001" x2="79.9382" y2="73.5001" spreadMethod="pad" gradientUnits="userSpaceOnUse" gradientTransform="translate(0 0)"><stop id="ewZBpGbL4za69-stroke-0" offset="0%" stop-color="#ff457e"/><stop id="ewZBpGbL4za69-stroke-1" offset="100%" stop-color="#8721ff"/></linearGradient><linearGradient id="ewZBpGbL4za70-stroke" x1="187.058" y1="74.9978" x2="83.9373" y2="74.9978" spreadMethod="pad" gradientUnits="userSpaceOnUse" gradientTransform="translate(0 0)"><stop id="ewZBpGbL4za70-stroke-0" offset="0%" stop-color="#ff457e"/><stop id="ewZBpGbL4za70-stroke-1" offset="100%" stop-color="#8721ff"/></linearGradient><linearGradient id="ewZBpGbL4za71-stroke" x1="186.065" y1="75.5006" x2="85.9394" y2="75.5006" spreadMethod="pad" gradientUnits="userSpaceOnUse" gradientTransform="translate(0 0)"><stop id="ewZBpGbL4za71-stroke-0" offset="0%" stop-color="#ff457e"/><stop id="ewZBpGbL4za71-stroke-1" offset="100%" stop-color="#8721ff"/></linearGradient><linearGradient id="ewZBpGbL4za72-stroke" x1="185.06" y1="75.9957" x2="88.9386" y2="75.9957" spreadMethod="pad" gradientUnits="userSpaceOnUse" gradientTransform="translate(0 0)"><stop id="ewZBpGbL4za72-stroke-0" offset="0%" stop-color="#ff457e"/><stop id="ewZBpGbL4za72-stroke-1" offset="100%" stop-color="#8721ff"/></linearGradient><linearGradient id="ewZBpGbL4za73-stroke" x1="185.062" y1="77.4993" x2="91.9369" y2="77.4993" spreadMethod="pad" gradientUnits="userSpaceOnUse" gradientTransform="translate(0 0)"><stop id="ewZBpGbL4za73-stroke-0" offset="0%" stop-color="#ff457e"/><stop id="ewZBpGbL4za73-stroke-1" offset="100%" stop-color="#8721ff"/></linearGradient><linearGradient id="ewZBpGbL4za74-stroke" x1="183.063" y1="78.0013" x2="93.9393" y2="78.0013" spreadMethod="pad" gradientUnits="userSpaceOnUse" gradientTransform="translate(0 0)"><stop id="ewZBpGbL4za74-stroke-0" offset="0%" stop-color="#ff457e"/><stop id="ewZBpGbL4za74-stroke-1" offset="100%" stop-color="#8721ff"/></linearGradient><linearGradient id="ewZBpGbL4za75-stroke" x1="183.06" y1="78.4994" x2="96.9373" y2="78.4994" spreadMethod="pad" gradientUnits="userSpaceOnUse" gradientTransform="translate(0 0)"><stop id="ewZBpGbL4za75-stroke-0" offset="0%" stop-color="#ff457e"/><stop id="ewZBpGbL4za75-stroke-1" offset="100%" stop-color="#8721ff"/></linearGradient><linearGradient id="ewZBpGbL4za76-stroke" x1="181.055" y1="79.9989" x2="99.9384" y2="79.9989" spreadMethod="pad" gradientUnits="userSpaceOnUse" gradientTransform="translate(0 0)"><stop id="ewZBpGbL4za76-stroke-0" offset="0%" stop-color="#ff457e"/><stop id="ewZBpGbL4za76-stroke-1" offset="100%" stop-color="#8721ff"/></linearGradient><linearGradient id="ewZBpGbL4za77-stroke" x1="181.062" y1="80.5014" x2="101.939" y2="80.5014" spreadMethod="pad" gradientUnits="userSpaceOnUse" gradientTransform="translate(0 0)"><stop id="ewZBpGbL4za77-stroke-0" offset="0%" stop-color="#ff457e"/><stop id="ewZBpGbL4za77-stroke-1" offset="100%" stop-color="#8721ff"/></linearGradient><linearGradient id="ewZBpGbL4za78-stroke" x1="180.058" y1="81.4986" x2="103.939" y2="81.4986" spreadMethod="pad" gradientUnits="userSpaceOnUse" gradientTransform="translate(0 0)"><stop id="ewZBpGbL4za78-stroke-0" offset="0%" stop-color="#ff457e"/><stop id="ewZBpGbL4za78-stroke-1" offset="100%" stop-color="#8721ff"/></linearGradient><linearGradient id="ewZBpGbL4za79-stroke" x1="179.064" y1="82.0029" x2="105.939" y2="82.0029" spreadMethod="pad" gradientUnits="userSpaceOnUse" gradientTransform="translate(0 0)"><stop id="ewZBpGbL4za79-stroke-0" offset="0%" stop-color="#ff457e"/><stop id="ewZBpGbL4za79-stroke-1" offset="100%" stop-color="#8721ff"/></linearGradient><linearGradient id="ewZBpGbL4za80-stroke" x1="179.061" y1="82.5027" x2="108.938" y2="82.5027" spreadMethod="pad" gradientUnits="userSpaceOnUse" gradientTransform="translate(0 0)"><stop id="ewZBpGbL4za80-stroke-0" offset="0%" stop-color="#ff457e"/><stop id="ewZBpGbL4za80-stroke-1" offset="100%" stop-color="#8721ff"/></linearGradient><linearGradient id="ewZBpGbL4za81-stroke" x1="177.061" y1="84.0001" x2="110.938" y2="84.0001" spreadMethod="pad" gradientUnits="userSpaceOnUse" gradientTransform="translate(0 0)"><stop id="ewZBpGbL4za81-stroke-0" offset="0%" stop-color="#ff457e"/><stop id="ewZBpGbL4za81-stroke-1" offset="100%" stop-color="#8721ff"/></linearGradient></defs><g id="ewZBpGbL4za2_ts" transform="translate(346.380957,200.80036) scale(1,1)"><g transform="translate(-104.500167,-61.000015)"><path d="M6.29428,36.9715C31.3274,82.717,111.468,121,147.441,121c35.974,0,29.572-49.6532,52.252-74.621c26.671-29.3605-16.307-28.4873-52.252-33.749C67.9768,0.995177,-21.9056,-14.5474,6.29428,36.9715Z" opacity="0.3" fill="none" stroke="#4694ff" stroke-width="0.35" stroke-linecap="round" stroke-miterlimit="10" stroke-dasharray="2,2"/><path d="M147.096,13.4363C68.7713,2.20695,-19.3533,-13.5274,8.13641,37.3555C32.5449,82.5818,111.263,120.951,146.884,121c35.69.053,29.912-48.8621,52.051-73.7565c26.038-29.1963-16.252-28.7595-51.839-33.8072Z" opacity="0.3" fill="none" stroke="#4696fe" stroke-width="0.35" stroke-linecap="round" stroke-miterlimit="10" stroke-dasharray="2,2"/><path d="M147.449,13.2443C69.8876,2.41651,-16.913,-13.5052,10.0052,36.7451C33.9029,81.4513,111.583,119.903,147.034,120c35.575.106,30.403-48.0699,52.109-72.8905c25.522-29.0273-16.292-29.0317-51.694-33.8652Z" opacity="0.3" fill="none" stroke="#4698fe" stroke-width="0.35" stroke-linecap="round" stroke-miterlimit="10" stroke-dasharray="2,2"/><path d="M148.123,13.8965C71.6616,3.72833,-13.3694,-12.4286,12.8531,36.7913C36.1253,80.6313,112.394,118.859,147.497,119c35.29.157,30.69-46.9422,51.913-71.4535c24.829-28.6733-16.254-28.9931-51.287-33.65Z" opacity="0.3" fill="none" stroke="#469afd" stroke-width="0.35" stroke-linecap="round" stroke-miterlimit="10" stroke-dasharray="2,2"/><path d="M148.483,14.6872C72.7709,4.97352,-10.928,-11.4292,14.7225,37.1653C37.4835,80.4954,112.716,118.811,147.648,118.999c35.184.211,31.168-46.1746,51.978-70.6034c24.292-28.5228-16.301-29.2373-51.143-33.7084Z" opacity="0.3" fill="none" stroke="#469cfc" stroke-width="0.35" stroke-linecap="round" stroke-miterlimit="10" stroke-dasharray="2,2"/><path d="M148.139,14.5713C73.5659,5.22749,-8.37995,-11.5621,16.568,36.8292C38.7018,80.0221,112.516,118.76,147.099,118.999c34.894.265,31.483-45.8033,51.774-70.3618c23.641-28.6198-16.25-29.7479-50.734-34.0659Z" opacity="0.3" fill="none" stroke="#469ffc" stroke-width="0.35" stroke-linecap="round" stroke-miterlimit="10" stroke-dasharray="2,2"/><path d="M147.8,16.2732C74.362,7.46195,-5.83256,-9.42341,18.4141,37.9197C39.922,80.2252,112.318,118.717,146.551,118.998c34.608.316,31.8-44.6309,51.567-68.897c22.993-28.2154-16.197-29.7337-50.318-33.8278Z" opacity="0.3" fill="none" stroke="#45a1fb" stroke-width="0.35" stroke-linecap="round" stroke-miterlimit="10" stroke-dasharray="1.99,1.99"/><path d="M148.157,16.0671C75.4692,7.70793,-3.3882,-9.4188,20.2838,37.2988C41.2779,79.0905,112.634,117.668,146.692,117.998c34.497.368,32.283-43.8598,51.635-68.0418c22.464-28.0631-16.23-29.986-50.17-33.8891Z" opacity="0.3" fill="none" stroke="#45a3fa" stroke-width="0.35" stroke-linecap="round" stroke-miterlimit="10" stroke-dasharray="1.99,1.99"/><path d="M148.514,16.8614C76.5805,8.95434,-0.942467,-8.41042,22.1532,37.6745C42.637,78.9537,112.953,117.624,146.837,117.997c34.389.422,32.771-43.0847,51.702-67.188c21.928-27.9075-16.275-30.2357-50.025-33.9476Z" opacity="0.3" fill="none" stroke="#45a5fa" stroke-width="0.35" stroke-linecap="round" stroke-miterlimit="10" stroke-dasharray="1.99,1.99"/><path d="M148.161,17.5878C77.3525,10.1939,1.67728,-7.28491,23.9722,37.7926C43.9275,78.1455,112.742,116.578,146.281,116.996c34.106.47,33.084-41.916,51.504-65.7176c21.273-27.4941-16.233-30.207-49.624-33.6906Z" opacity="0.3" fill="none" stroke="#45a7f9" stroke-width="0.35" stroke-linecap="round" stroke-miterlimit="10" stroke-dasharray="1.99,1.99"/><path d="M147.817,17.4774C78.1487,10.4607,4.23149,-7.41522,25.8178,37.4504C45.1587,77.6514,112.547,116.525,145.734,116.995c33.812.528,33.394-41.5198,51.292-65.454c20.626-27.5965-16.175-30.7399-49.209-34.0636Z" opacity="0.3" fill="none" stroke="#45a9f8" stroke-width="0.35" stroke-linecap="round" stroke-miterlimit="10" stroke-dasharray="1.99,1.99"/><path d="M148.17,18.2795C79.2584,11.7079,6.69169,-6.40129,27.6833,37.8315C46.5164,77.5117,112.85,116.479,145.868,116.994c33.705.581,33.888-40.7403,51.363-64.5942c20.098-27.4343-16.21-30.9884-49.061-34.1203Z" opacity="0.3" fill="none" stroke="#45abf8" stroke-width="0.35" stroke-linecap="round" stroke-miterlimit="10" stroke-dasharray="1.99,1.99"/><path d="M148.518,18.9971C80.3679,12.9286,9.15059,-5.24199,29.5501,37.9524C47.8734,76.7481,113.15,115.435,145.996,115.993c33.604.628,34.392-39.585,51.442-63.1353C217,25.8372,181.191,21.9049,148.518,18.9971Z" opacity="0.3" fill="none" stroke="#45adf7" stroke-width="0.35" stroke-linecap="round" stroke-miterlimit="10" stroke-dasharray="1.99,1.99"/><path d="M148.174,18.8896C81.1663,13.2058,11.7022,-5.36925,31.3987,37.6011C49.1083,76.2392,112.958,115.379,145.451,115.991c33.308.687,34.697-39.1706,51.225-62.8659c18.916-27.1075-16.197-31.4926-48.502-34.2355Z" opacity="0.3" fill="none" stroke="#45aff7" stroke-width="0.35" stroke-linecap="round" stroke-miterlimit="10" stroke-dasharray="1.99,1.99"/><path d="M148.52,19.7002C82.2714,14.4543,14.1684,-4.34904,33.2644,37.9882C50.4612,76.1058,113.249,115.333,145.574,115.99c33.209.74,35.202-38.3822,51.308-61.9998c18.377-26.9475-16.235-31.7485-48.362-34.29Z" opacity="0.3" fill="none" stroke="#45b2f6" stroke-width="0.35" stroke-linecap="round" stroke-miterlimit="10" stroke-dasharray="1.99,1.99"/><path d="M148.483,20.428C83.7689,15.6668,17.8107,-3.17711,36.0961,38.1242C52.582,75.3582,113.584,114.29,145.361,114.988c32.716.786,35.297-37.2296,50.785-60.5423c17.627-26.5247-16.087-31.696-47.663-34.0177Z" opacity="0.3" fill="none" stroke="#45b4f5" stroke-width="0.35" stroke-linecap="round" stroke-miterlimit="10" stroke-dasharray="1.99,1.99"/><path d="M148.83,20.3233C84.8803,15.9504,20.2749,-3.29603,37.9641,37.7668C53.9317,74.8357,113.875,114.237,145.485,114.986c32.611.846,35.803-36.8,50.863-60.2607c17.092-26.6126-16.121-32.2551-47.518-34.402Z" opacity="0.3" fill="none" stroke="#45b6f5" stroke-width="0.35" stroke-linecap="round" stroke-miterlimit="10" stroke-dasharray="1.99,1.99"/><path d="M149.167,21.1376C85.9843,17.1996,22.7423,-2.26554,39.8322,38.1597C55.2839,74.7042,114.161,114.186,145.603,114.984c32.512.899,36.318-36.0067,50.948-59.3877c16.551-26.446-16.164-32.514-47.384-34.4587Z" opacity="0.3" fill="none" stroke="#45b8f4" stroke-width="0.35" stroke-linecap="round" stroke-miterlimit="10" stroke-dasharray="1.99,1.99"/><path d="M148.825,21.8784C86.7926,18.4062,25.2936,-1.08193,41.6851,38.3092C56.5219,73.9704,113.978,113.143,145.059,113.982c32.21.943,36.613-34.8622,50.719-57.9317c15.913-26.0177-16.1-32.4424-46.953-34.1719Z" opacity="0.3" fill="none" stroke="#44baf3" stroke-width="0.35" stroke-linecap="round" stroke-miterlimit="10" stroke-dasharray="1.99,1.99"/><path d="M149.481,21.7749C88.6038,18.6992,28.8484,-1.19343,44.5378,37.9476C58.7655,73.4392,114.795,113.083,145.515,113.979c31.91,1.006,36.9-34.4105,50.488-57.6347c15.276-26.1058-16.039-33.025-46.522-34.5694Z" opacity="0.3" fill="none" stroke="#44bcf3" stroke-width="0.35" stroke-linecap="round" stroke-miterlimit="10" stroke-dasharray="1.99,1.99"/><path d="M149.136,22.5233C89.4186,19.9016,31.3987,-0.001543,46.3931,38.1093C60.0137,72.7202,114.619,112.041,144.975,112.977c31.603,1.048,37.182-33.2699,50.248-56.1836c14.646-25.6753-15.971-32.9505-46.087-34.2701Z" opacity="0.3" fill="none" stroke="#44bef2" stroke-width="0.35" stroke-linecap="round" stroke-miterlimit="10" stroke-dasharray="1.99,1.99"/><path d="M149.468,23.3513C90.5263,21.1487,33.8691,1.04521,48.2648,38.512c13.0959,34.0842,66.6322,73.478,96.8212,74.462c31.499,1.101,37.703-32.4719,50.336-55.3025c14.1-25.5008-16.016-33.2013-45.954-34.3202Z" opacity="0.3" fill="none" stroke="#44c0f1" stroke-width="0.35" stroke-linecap="round" stroke-miterlimit="10" stroke-dasharray="1.99,1.99"/><path d="M149.121,23.2569C91.3427,21.4506,36.4202,0.941164,50.1226,38.1487C62.6079,72.0528,114.728,111.932,144.547,112.97c31.194,1.166,37.981-32.0006,50.089-54.9876c13.476-25.5882-15.945-33.8025-45.515-34.7255Z" opacity="0.3" fill="none" stroke="#44c2f1" stroke-width="0.35" stroke-linecap="round" stroke-miterlimit="10" stroke-dasharray="1.99,1.99"/><path d="M149.453,24.0881C92.4453,22.7011,38.8953,1.99664,51.9959,38.5508C63.9539,71.9244,115.002,111.88,144.651,112.967c31.092,1.219,38.514-31.1962,50.176-54.1049c12.938-25.4046-15.982-34.0583-45.374-34.774Z" opacity="0.3" fill="none" stroke="#44c5f0" stroke-width="0.35" stroke-linecap="round" stroke-miterlimit="10" stroke-dasharray="1.99,1.99"/><path d="M149.104,24.851C93.2633,23.8893,41.4474,3.21178,53.8565,38.7395C65.2054,71.2333,114.832,110.84,144.112,111.963c30.783,1.259,38.784-30.0674,49.926-52.6553c12.311-24.9616-15.914-33.9583-44.934-34.4567Z" opacity="0.3" fill="none" stroke="#44c7ef" stroke-width="0.35" stroke-linecap="round" stroke-miterlimit="10" stroke-dasharray="1.99,1.99"/><path d="M149.432,25.3156C94.4304,23.0192,43.9264,3.80507,55.7297,38.8348C66.5477,70.9402,115.096,110.787,144.21,111.959c30.681,1.317,39.322-29.3875,50.017-51.9957C206,35.0807,178.246,26.5186,149.432,25.3156Z" opacity="0.3" fill="none" stroke="#44c9ef" stroke-width="0.35" stroke-linecap="round" stroke-miterlimit="10" stroke-dasharray="1.99,1.99"/><path d="M149.749,25.1503C95.5176,23.2621,46.4085,3.86606,57.6068,38.2449C67.8904,69.8177,115.353,109.734,144.3,110.955c30.579,1.37,39.869-28.5784,50.113-51.1097c11.228-24.705-16.019-33.6982-44.664-34.695Z" opacity="0.3" fill="none" stroke="#44cbee" stroke-width="0.35" stroke-linecap="round" stroke-miterlimit="10" stroke-dasharray="1.99,1.99"/><path d="M149.4,25.9901C96.3245,24.5101,48.9643,4.92799,59.4729,38.6555c9.676,31.0398,55.7161,71.0295,84.2911,72.2945c30.264,1.423,40.132-27.7681,49.848-50.2224c10.612-24.5183-15.938-33.9514-44.212-34.7375Z" opacity="0.3" fill="none" stroke="#44cded" stroke-width="0.35" stroke-linecap="round" stroke-miterlimit="10" stroke-dasharray="2,2"/><path d="M149.713,26.8295C97.4108,25.7623,51.4529,5.99397,61.3526,39.0656C70.4858,69.5767,115.44,109.632,143.848,110.945c30.164,1.476,40.687-26.9582,49.944-49.3353c10.068-24.3316-15.972-34.2048-44.079-34.7802Z" opacity="0.3" fill="none" stroke="#44cfed" stroke-width="0.35" stroke-linecap="round" stroke-miterlimit="10" stroke-dasharray="2,2"/><path d="M150.363,27.0878C99.2272,28.1322,55.003,6.58346,64.2252,38.8389c8.5226,29.83,52.0618,69.7461,80.0838,71.1011c29.844,1.52,40.938-26.0153,49.673-48.202c9.458-24.0266-15.883-35.2183-43.619-34.6502Z" opacity="0.3" fill="none" stroke="#43d1ec" stroke-width="0.35" stroke-linecap="round" stroke-miterlimit="10" stroke-dasharray="2,2"/><path d="M150.019,27.0128C100.06,28.4665,57.5599,6.5103,66.0983,38.4659c7.9151,29.6226,50.0377,70.0531,77.6797,71.4671c29.516,1.591,41.185-25.4867,49.389-47.8406c8.853-24.1037-15.8-35.8705-43.148-35.0796Z" opacity="0.3" fill="none" stroke="#43d3eb" stroke-width="0.35" stroke-linecap="round" stroke-miterlimit="10" stroke-dasharray="2,2"/><path d="M150.323,27.8782C101.16,29.7205,60.0551,7.60466,67.9846,38.8964c7.368,29.0827,48.3944,69.5676,75.8664,71.0306c29.413,1.643,41.751-24.6608,49.488-46.9356c8.304-23.9095-15.849-36.1293-43.016-35.1132Z" opacity="0.3" fill="none" stroke="#43d5eb" stroke-width="0.35" stroke-linecap="round" stroke-miterlimit="10" stroke-dasharray="2,2"/><path d="M150.621,27.7467C102.263,29.9728,62.5601,7.7074,69.8718,38.3295C76.6891,66.8713,116.614,107.409,143.918,108.92c29.315,1.696,42.317-23.838,49.584-46.0283c7.767-23.7142-15.889-36.3906-42.881-35.145Z" opacity="0.3" fill="none" stroke="#43d7ea" stroke-width="0.35" stroke-linecap="round" stroke-miterlimit="10" stroke-dasharray="2.01,2.01"/><path d="M150.272,28.6189C103.099,31.2285,65.112,8.81489,71.7574,38.766c6.2073,27.9994,44.7166,68.592,71.6326,70.146c28.979,1.749,42.556-23.0093,49.285-45.1139c7.162-23.5176-15.807-36.6496-42.403-35.1792Z" opacity="0.3" fill="none" stroke="#43dae9" stroke-width="0.35" stroke-linecap="round" stroke-miterlimit="10" stroke-dasharray="2.01,2.01"/><path d="M150.561,29.4963C104.191,32.48,67.6241,9.93005,73.6519,39.211c5.6474,27.4537,43.0491,68.091,69.7941,69.693c28.879,1.801,43.129-22.1832,49.384-44.199c6.621-23.3224-15.85-36.908-42.269-35.2087Z" opacity="0.3" fill="none" stroke="#43dce9" stroke-width="0.35" stroke-linecap="round" stroke-miterlimit="10" stroke-dasharray="2.01,2.01"/><path d="M150.217,29.3789c-45.178,3.3574-80.0326-19.3282-74.6719,9.278C80.5862,65.5601,116.572,106.25,142.918,107.896c28.535,1.853,43.348-21.3533,49.068-43.2844c6.034-23.1179-15.753-37.1651-41.769-35.2327Z" opacity="0.3" fill="none" stroke="#43dee8" stroke-width="0.35" stroke-linecap="round" stroke-miterlimit="10" stroke-dasharray="2.02,2.02"/><path d="M150.499,30.2668c-44.361,3.7214-77.7938-19.0874-73.0502,8.8449C81.9259,65.4656,116.8,106.193,142.966,107.887c28.428,1.904,43.932-20.5209,49.165-42.3641c5.489-22.9147-15.801-37.421-41.632-35.2561Z" opacity="0.3" fill="none" stroke="#43e0e8" stroke-width="0.35" stroke-linecap="round" stroke-miterlimit="10" stroke-dasharray="1.98,1.98"/><path d="M150.777,31.0986c-43.545,4.0305-75.5416-18.6163-71.4195,8.3048c3.9042,25.4891,37.6595,65.7556,63.6505,67.4746c28.326,1.933,44.522-19.4518,49.258-40.9365c4.95-22.4335-15.839-37.2195-41.489-34.8429Z" opacity="0.3" fill="none" stroke="#43e2e7" stroke-width="0.35" stroke-linecap="round" stroke-miterlimit="10" stroke-dasharray="1.99,1.99"/><path d="M150.8,31.0577c-41.961,4.4384-71.9704-18.5986-68.5319,7.9741c3.2676,25.2517,35.3139,66.0512,60.6679,67.8342c27.713,2.008,44.31-18.8586,48.472-40.5174c4.322-22.5043-15.601-37.9371-40.608-35.2909Z" opacity="0.3" fill="none" stroke="#43e4e6" stroke-width="0.35" stroke-linecap="round" stroke-miterlimit="10" stroke-dasharray="1.99,1.99"/><path d="M151.071,31.964c-41.131,4.7865-69.7017-18.3541-66.8789,7.5361c2.6905,24.698,33.6139,65.5239,58.7829,67.3539c27.596,2.059,44.886-18.0239,48.551-39.5896c3.789-22.2959-15.643-38.1864-40.455-35.3004Z" opacity="0.3" fill="none" stroke="#43e6e6" stroke-width="0.35" stroke-linecap="round" stroke-miterlimit="10" stroke-dasharray="2,2"/><path d="M151.348,32.876c-40.302,5.1288-67.426-18.1069-65.223,7.0977c2.1095,24.141,31.903,64.9873,56.883,66.8683c27.483,2.109,45.47-17.193,48.627-38.6576c3.255-22.0843-15.676-38.442-40.287-35.3084Z" opacity="0.3" fill="none" stroke="#43e8e5" stroke-width="0.35" stroke-linecap="round" stroke-miterlimit="10" stroke-dasharray="2,2"/><path d="M150.997,32.793c-39.081,5.4655-64.4966-17.8582-62.9283,6.6639c1.5097,23.5827,29.8863,64.4481,54.4373,66.3711c27.096,2.16,45.609-16.3611,48.232-37.7224c2.682-21.875-15.571-38.6928-39.741-35.3126Z" opacity="0.3" fill="none" stroke="#42eae4" stroke-width="0.35" stroke-linecap="round" stroke-miterlimit="10" stroke-dasharray="2.01,2.01"/><path d="M151.26,32.779c-38.236,5.8717-62.1833-17.8372-61.2327,6.307.9212,23.3225,28.1567,64.731,52.5097,66.725c26.971,2.239,46.179-15.7318,48.286-37.2643c2.152-21.9412-15.607-39.4453-39.563-35.7677Z" opacity="0.3" fill="none" stroke="#42ede4" stroke-width="0.35" stroke-linecap="round" stroke-miterlimit="10" stroke-dasharray="2.02,2.02"/><path d="M151.515,33.6494c-37.376,6.1209-59.8502-17.3602-59.5112,5.7925.3243,22.461,26.4142,63.3461,50.5592,65.3561c26.832,2.259,46.741-14.6985,48.333-35.846c1.607-21.4495-15.649-39.1906-39.381-35.3026Z" opacity="0.3" fill="none" stroke="#42efe3" stroke-width="0.35" stroke-linecap="round" stroke-miterlimit="10" stroke-dasharray="1.98,1.98"/><path d="M151.769,34.5872c-36.508,6.4396-57.486-17.1068-57.7667,5.3554-.2759,21.8938,24.6517,62.7834,48.5857,64.8374c26.686,2.309,47.299-13.8669,48.363-34.9039c1.074-21.2293-15.678-39.4334-39.182-35.2889Z" opacity="0.3" fill="none" stroke="#42f1e2" stroke-width="0.35" stroke-linecap="round" stroke-miterlimit="10" stroke-dasharray="1.99,1.99"/><path d="M151.432,34.5958c-35.251,6.8385-54.5472-17.0828-55.4068,4.9851-.9035,21.6123,22.6318,63.0501,46.0938,65.1771c26.255,2.389,47.378-13.2164,47.866-34.413.576-21.2982-15.54-40.2123-38.553-35.7492Z" opacity="0.3" fill="none" stroke="#42f3e2" stroke-width="0.35" stroke-linecap="round" stroke-miterlimit="10" stroke-dasharray="2,2"/><path d="M98.0694,39.2188C96.5923,60.5396,118.921,102.537,142.144,104.734C168.229,107.205,190,92.1852,190,70.8241s-15.569-41.0081-38.318-36.2105c-34.366,7.2412-52.1158-17.0602-53.6126,4.6052Z" opacity="0.3" fill="none" stroke="#42f5e1" stroke-width="0.35" stroke-linecap="round" stroke-miterlimit="10" stroke-dasharray="2.01,2.01"/><path d="M22.8396,34.2667C-5.9701,53.4787,101.75,104,137.66,104s40.203-17.6143,61.538-43.5083c27.284-33.1145-48.889-63.15276-78.565-45.0265-35.851,21.9086-79.6834,6.7217-97.7934,18.8015Z" opacity="0.3" fill="none" stroke="url(#ewZBpGbL4za50-stroke)" stroke-width="0.25" stroke-linecap="round" stroke-miterlimit="10" stroke-dasharray="2,2"/><path d="M25.5288,35.9425C-1.80188,55.1149,102.022,104.871,137.767,104.999c35.854.146,40.803-17.3667,61.593-43.1078c26.597-32.7382-47.893-62.196415-77.574-44.6486-35.7052,21.203-79.1061,6.6703-96.2572,18.6999Z" opacity="0.3" fill="none" stroke="url(#ewZBpGbL4za51-stroke)" stroke-width="0.25" stroke-linecap="round" stroke-miterlimit="10" stroke-dasharray="2,2"/><path d="M29.1462,36.6399C3.7377,55.7617,101.992,104.745,136.995,104.997c35.219.286,40.667-17.1625,60.657-42.698c25.369-32.4039-46.17-61.26763-75.341-44.2557-35.0279,20.4328-77.2526,6.6211-93.1648,18.5966Z" opacity="0.3" fill="none" stroke="url(#ewZBpGbL4za52-stroke)" stroke-width="0.25" stroke-linecap="round" stroke-miterlimit="10" stroke-dasharray="2,2"/><path d="M31.832,37.329c-23.8997,19.0687,70.422,67.283,105.269,67.663c35.169.433,41.247-16.9322,60.732-42.291c24.627-32.0461-45.201-60.32257-74.372-43.8669C88.5597,38.5252,46.7835,25.3933,31.832,37.329Z" opacity="0.3" fill="none" stroke="url(#ewZBpGbL4za53-stroke)" stroke-width="0.25" stroke-linecap="round" stroke-miterlimit="10" stroke-dasharray="2,2"/><path d="M35.4539,39.0144C13.4763,58.0261,102.244,105.483,136.34,105.986c34.518.578,41.118-16.6988,59.764-41.8816C219.561,32.424,152.653,4.72524,123.987,20.625C89.8026,39.5794,49.204,27.1226,35.4539,39.0144Z" opacity="0.3" fill="none" stroke="url(#ewZBpGbL4za54-stroke)" stroke-width="0.25" stroke-linecap="round" stroke-miterlimit="10" stroke-dasharray="2,2"/><path d="M38.1386,39.7025C17.6993,58.6473,102.489,105.347,136.434,105.978c34.479.72,41.713-16.4683,59.851-41.4734c22.711-31.3171-42.473-58.4277-71.15-43.0892-34.0635,18.2209-74.2064,6.4312-86.9964,18.2871Z" opacity="0.3" fill="none" stroke="url(#ewZBpGbL4za55-stroke)" stroke-width="0.25" stroke-linecap="round" stroke-miterlimit="10" stroke-dasharray="2,2"/><path d="M40.8046,41.1376C22.0439,59.7911,102.311,105.223,135.904,105.969c34.237.855,42.073-16.0443,59.592-40.5971c21.823-30.5918-41.242-56.82016-69.754-42.2159-33.7462,17.2878-73.1823,6.2877-84.9374,17.9816Z" opacity="0.3" fill="none" stroke="url(#ewZBpGbL4za56-stroke)" stroke-width="0.25" stroke-linecap="round" stroke-miterlimit="10" stroke-dasharray="2,2"/><path d="M44.4562,42.0775C27.4969,60.8605,102.742,106.075,135.774,106.958c33.781,1.006,42.175-15.9942,58.957-40.6514C215.542,35.7311,154.99,9.78526,126.81,23.9961C93.6003,40.7447,55.1155,30.2719,44.4562,42.0775Z" opacity="0.3" fill="none" stroke="url(#ewZBpGbL4za57-stroke)" stroke-width="0.25" stroke-linecap="round" stroke-miterlimit="10" stroke-dasharray="2,2"/><path d="M47.1278,42.7645C31.8691,61.444,102.566,105.938,135.245,106.945c33.533,1.151,42.534-15.7542,58.696-40.2409c19.922-30.1925-38.497-55.5618-66.523-41.9174-32.8857,16.0185-70.6524,6.1868-80.2902,17.9778Z" opacity="0.3" fill="none" stroke="url(#ewZBpGbL4za58-stroke)" stroke-width="0.25" stroke-linecap="round" stroke-miterlimit="10" stroke-dasharray="2,2"/><path d="M49.8055,44.2033C36.2532,62.539,102.393,105.755,134.714,106.937c33.29,1.217,42.897-15.3269,58.432-39.3617c19.045-29.4679-37.246-53.9649-65.117-41.0362-32.5578,15.1046-69.6105,6.0087-78.2235,17.6642Z" opacity="0.3" fill="none" stroke="url(#ewZBpGbL4za59-stroke)" stroke-width="0.25" stroke-linecap="round" stroke-miterlimit="10" stroke-dasharray="2,2"/><path d="M53.4812,45.1442C41.7232,63.5537,102.86,106.598,134.607,107.921c32.824,1.372,42.973-15.2641,57.772-39.4131c18.035-29.434-35.747-53.6492-63.272-41.1335-32.003,14.5538-68.0839,5.96-75.6258,17.7698Z" opacity="0.3" fill="none" stroke="url(#ewZBpGbL4za60-stroke)" stroke-width="0.25" stroke-linecap="round" stroke-miterlimit="10" stroke-dasharray="2,2"/><path d="M57.1714,46.583c-9.9773,18.0225,46.1826,59.885,77.3476,61.323c32.344,1.49,43.026-14.8331,57.089-38.529c17.033-28.6983-34.238-52.05-61.415-40.2456C98.754,42.7877,63.6451,34.8876,57.1714,46.583Z" opacity="0.3" fill="none" stroke="url(#ewZBpGbL4za61-stroke)" stroke-width="0.25" stroke-linecap="round" stroke-miterlimit="10" stroke-dasharray="2,2"/><path d="M58.8944,47.5231C50.5511,65.5713,102.531,107.303,133.559,108.886c32.322,1.649,43.701-14.7631,57.228-38.5833c16.277-28.6531-33.22-51.7149-60.432-40.3383-31.324,13.1007-65.9659,5.675-71.4606,17.5587Z" opacity="0.3" fill="none" stroke="url(#ewZBpGbL4za62-stroke)" stroke-width="0.25" stroke-linecap="round" stroke-miterlimit="10" stroke-dasharray="2,2"/><path d="M62.6266,48.2103C56.0258,66.038,103.07,107.155,133.498,108.866c31.826,1.79,43.732-14.5127,56.516-38.1683c15.277-28.258-31.703-50.741-58.558-39.9359-30.741,12.37-64.4077,5.5061-68.8294,17.4485Z" opacity="0.3" fill="none" stroke="url(#ewZBpGbL4za63-stroke)" stroke-width="0.25" stroke-linecap="round" stroke-miterlimit="10" stroke-dasharray="2,2"/><path d="M65.3976,49.6532C60.4205,67.0168,103.244,107.031,133.537,108.846c31.809,1.906,44.428-14.078,56.66-37.2773c14.501-27.5119-30.665-49.1446-57.566-39.0397-30.621,11.5017-63.8311,5.2526-67.2334,17.1242Z" opacity="0.3" fill="none" stroke="url(#ewZBpGbL4za64-stroke)" stroke-width="0.25" stroke-linecap="round" stroke-miterlimit="10" stroke-dasharray="2,2"/><path d="M68.2014,50.5927C64.901,67.9038,102.843,107.852,132.518,109.821c31.287,2.07,44.425-13.9946,55.9-37.3229c13.512-27.4644-29.128-48.7928-55.644-39.1373-30.014,10.9285-62.2609,5.1185-64.5726,17.2319Z" opacity="0.3" fill="none" stroke="url(#ewZBpGbL4za65-stroke)" stroke-width="0.25" stroke-linecap="round" stroke-miterlimit="10" stroke-dasharray="2,2"/><path d="M72.0618,51.2827c-1.693,17.0266,31.7142,56.4203,60.9932,58.5123c31.001,2.215,44.752-13.7332,55.565-36.9021c12.624-27.0524-27.822-47.8084-54.157-38.7293-29.628,10.2063-61.1856,4.905-62.4012,17.1191Z" opacity="0.3" fill="none" stroke="url(#ewZBpGbL4za66-stroke)" stroke-width="0.25" stroke-linecap="round" stroke-miterlimit="10" stroke-dasharray="2,2"/><path d="M74.0004,52.9793C73.8763,69.7104,103.016,108.55,132.132,110.768c30.962,2.355,45.447-13.4701,55.669-36.4765c11.835-26.6458-26.718-46.8182-53.093-38.325-29.473,9.4965-60.6183,4.691-60.7076,17.0128Z" opacity="0.3" fill="none" stroke="url(#ewZBpGbL4za67-stroke)" stroke-width="0.25" stroke-linecap="round" stroke-miterlimit="10" stroke-dasharray="2,2"/><path d="M78.027,53.6725c1.4013,16.4404,25.795,54.7265,54.22,57.0665c30.363,2.498,45.325-13.2033,54.771-36.0519c10.842-26.2265-25.131-45.8249-51.064-37.9125-28.789,8.7832-58.9842,4.4729-57.927,16.8979Z" opacity="0.3" fill="none" stroke="url(#ewZBpGbL4za68-stroke)" stroke-width="0.25" stroke-linecap="round" stroke-miterlimit="10" stroke-dasharray="2,2"/><path d="M80.1209,54.3696c2.9137,16.1526,23.0271,53.8774,51.2571,56.3384c30.291,2.642,45.989-12.9306,54.819-35.6191c10.044-25.8135-23.988-44.8275-49.924-37.5049-28.601,8.0741-58.4117,4.2634-56.1521,16.7856Z" opacity="0.3" fill="none" stroke="url(#ewZBpGbL4za69-stroke)" stroke-width="0.25" stroke-linecap="round" stroke-miterlimit="10" stroke-dasharray="2,2"/><path d="M84.2796,56.0698c4.3293,15.8856,19.8294,53.0232,47.3144,55.6062c29.635,2.784,45.772-12.662,53.814-35.1882c9.06-25.3897-22.382-43.8225-47.829-37.0897-27.862,7.3696-56.7375,4.0625-53.2994,16.6717Z" opacity="0.3" fill="none" stroke="url(#ewZBpGbL4za70-stroke)" stroke-width="0.25" stroke-linecap="round" stroke-miterlimit="10" stroke-dasharray="2,2"/><path d="M86.5105,56.7738c5.7987,15.6345,17.0115,52.1652,44.2685,54.8682c29.531,2.927,46.409-12.3833,53.805-34.7535c8.254-24.9635-21.192-42.814-46.63-36.6708-27.633,6.6742-56.1376,3.8878-51.4435,16.5561Z" opacity="0.3" fill="none" stroke="url(#ewZBpGbL4za71-stroke)" stroke-width="0.25" stroke-linecap="round" stroke-miterlimit="10" stroke-dasharray="2,2"/><path d="M89.8054,57.4766c7.1904,15.4139,14.0026,51.3054,40.7406,54.1284c29.106,3.073,46.556-12.1084,53.226-34.313c7.367-24.5369-19.779-41.7964-44.925-36.2508-27.122,5.9709-54.9698,3.722-49.0416,16.4354Z" opacity="0.3" fill="none" stroke="url(#ewZBpGbL4za72-stroke)" stroke-width="0.25" stroke-linecap="round" stroke-miterlimit="10" stroke-dasharray="2,2"/><path d="M93.1738,59.1894C101.82,74.4059,104.3,109.629,130.78,112.568c28.971,3.214,47.171-11.828,53.164-33.8708C190.5,54.5959,165.388,37.93,140.281,42.8694c-26.861,5.2896-54.3399,3.595-47.1072,16.32Z" opacity="0.3" fill="none" stroke="url(#ewZBpGbL4za73-stroke)" stroke-width="0.25" stroke-linecap="round" stroke-miterlimit="10" stroke-dasharray="2,2"/><path d="M95.589,59.9051c10.002,15.0438,8.12,49.5659,34.039,52.6229c28.503,3.358,47.249-11.55,52.495-33.4246c5.674-23.6677-17.115-39.7304-41.894-35.3966-26.301,4.605-53.0945,3.4811-44.64,16.1983Z" opacity="0.3" fill="none" stroke="url(#ewZBpGbL4za74-stroke)" stroke-width="0.25" stroke-linecap="round" stroke-miterlimit="10" stroke-dasharray="2,2"/><path d="M99.0798,60.628c11.4662,14.8902,5.2022,48.688,30.8352,51.858c28.333,3.502,47.831-11.266,52.372-32.9723c4.862-23.2261-15.855-38.6884-40.569-34.9593C115.705,48.48,89.3114,47.9386,99.0798,60.628Z" opacity="0.3" fill="none" stroke="url(#ewZBpGbL4za75-stroke)" stroke-width="0.25" stroke-linecap="round" stroke-miterlimit="10" stroke-dasharray="2,2"/><path d="M102.567,62.3546c12.638,14.7607,2.202,47.8044,26.92,51.0874c27.467,3.649,47.236-10.981,50.971-32.5122c3.953-22.7864-14.229-37.6343-38.265-34.5174-25.101,3.2521-50.449,3.3044-39.626,15.9422Z" opacity="0.3" fill="none" stroke="url(#ewZBpGbL4za76-stroke)" stroke-width="0.25" stroke-linecap="round" stroke-miterlimit="10" stroke-dasharray="2,2"/><path d="M105.193,63.092c14.27,14.6376-.718,46.945,23.994,50.294c27.592,3.833,48.361-10.696,51.414-32.0415c3.195-22.3371-13.125-36.5615-37.36-34.0603-25.085,2.5883-50.2982,3.2408-38.048,15.8078Z" opacity="0.3" fill="none" stroke="url(#ewZBpGbL4za77-stroke)" stroke-width="0.25" stroke-linecap="round" stroke-miterlimit="10" stroke-dasharray="2,2"/><path d="M107.84,64.0844c15.758,14.7503-3.673,46.7266,20.699,50.2466c27.37,4.027,48.888-10.569,51.2-32.0467c2.392-22.2179-11.828-36.0165-35.949-34.1089-24.752,1.9562-49.4946,3.2294-35.95,15.909Z" opacity="0.3" fill="none" stroke="url(#ewZBpGbL4za78-stroke)" stroke-width="0.25" stroke-linecap="round" stroke-miterlimit="10" stroke-dasharray="2,2"/><path d="M110.53,64.8563c17.257,14.6469-6.644,45.7947,17.376,49.4297c27.133,4.157,49.403-10.283,50.955-31.5617c1.592-21.7615-10.519-34.9099-34.509-33.6399-24.405,1.3008-48.642,3.1904-33.822,15.7719Z" opacity="0.3" fill="none" stroke="url(#ewZBpGbL4za79-stroke)" stroke-width="0.25" stroke-linecap="round" stroke-miterlimit="10" stroke-dasharray="2,2"/><path d="M114.266,65.643c18.766,14.5509-9.621,44.844,14.022,48.595c26.867,4.289,49.881-9.994,50.669-31.0604.792-21.3026-9.2-33.7898-33.036-33.1545-24.04.6441-47.7422,3.1459-31.655,15.6199Z" opacity="0.3" fill="none" stroke="url(#ewZBpGbL4za80-stroke)" stroke-width="0.25" stroke-linecap="round" stroke-miterlimit="10" stroke-dasharray="2,2"/><path d="M116.949,67.4612c19.958,14.4485-12.404,43.8698,10.487,47.7278C153.611,119.607,177,105.486,177,84.6466C177,63.8076,169.251,52,145.955,52c-23.297,0-46.0755,3.1036-29.006,15.4612Z" opacity="0.3" fill="none" stroke="url(#ewZBpGbL4za81-stroke)" stroke-width="0.25" stroke-linecap="round" stroke-miterlimit="10" stroke-dasharray="2,2"/><path d="M37.2927,38.4602C8.58007,57.5436,104.38,115,140.169,115s28.438-17.9261,49.702-43.6425c27.196-32.8973-20.125-84.6589-49.702-66.65391C104.439,26.4613,55.3418,26.4613,37.2927,38.4602Z" opacity="0.3" fill="none" stroke="#ee4851" stroke-width="0.35" stroke-linecap="round" stroke-miterlimit="10" stroke-dasharray="1.99,1.99"/><path d="M38.3188,38.7835C9.69864,56.9455,104.241,115,139.676,115s28.924-17.938,49.526-43.5617c26.345-32.5845-20.12-83.3442-49.531-65.87649C104.295,26.6681,56.4145,27.2965,38.3188,38.7835Z" opacity="0.3" fill="none" stroke="#ee4c50" stroke-width="0.35" stroke-linecap="round" stroke-miterlimit="10" stroke-dasharray="2,2"/><path d="M40.3456,39.7992C11.8154,56.8829,105.117,115,140.201,115c35.09,0,29.342-17.8345,49.365-43.0848c25.415-32.0418-20.146-81.33334-49.365-64.5071-35.079,20.2046-81.6932,21.5184-99.8554,32.3911Z" opacity="0.3" fill="none" stroke="#ef504f" stroke-width="0.35" stroke-linecap="round" stroke-miterlimit="10" stroke-dasharray="2,2"/><path d="M41.3683,39.4465C12.9457,55.7535,104.979,115,139.714,115s29.798-18.0287,49.198-43.3853c24.52-32.049-20.154-80.76705-49.198-64.30994C104.965,26.9977,59.5957,28.9886,41.3683,39.4465Z" opacity="0.3" fill="none" stroke="#ef544e" stroke-width="0.35" stroke-linecap="round" stroke-miterlimit="10" stroke-dasharray="2,2"/><path d="M43.3891,40.4611C15.0831,55.6977,105.839,115,140.225,115c34.385,0,30.255-17.8937,49.032-42.9081c23.623-31.473-20.164-78.73939-49.037-62.9503-34.421,18.832-78.5327,21.4672-96.8309,31.3195Z" opacity="0.3" fill="none" stroke="#ef584c" stroke-width="0.35" stroke-linecap="round" stroke-miterlimit="10" stroke-dasharray="2,2"/><path d="M45.3746,40.7874C17.3708,55.1016,106.268,115,140.081,115c33.817,0,30.523-17.9225,48.558-42.8241c22.583-31.182-20.044-77.43852-48.558-62.1662-33.872,18.1379-76.4448,21.4428-94.7064,30.7777Z" opacity="0.3" fill="none" stroke="#f05c4b" stroke-width="0.35" stroke-linecap="round" stroke-miterlimit="10" stroke-dasharray="2,2"/><path d="M46.4261,41.1148C18.3775,54.5076,106.542,115,140.228,115s31.182-17.9525,48.708-42.7381c21.837-30.8916-20.179-76.13206-48.708-61.3867-33.755,17.4547-75.3306,21.4197-93.8019,30.2396Z" opacity="0.3" fill="none" stroke="#f0604a" stroke-width="0.35" stroke-linecap="round" stroke-miterlimit="10" stroke-dasharray="2,2"/><path d="M48.4049,41.1358C20.6846,53.4898,106.968,114,140.085,114c33.113,0,31.443-17.8136,48.226-42.2548c20.801-30.3076-20.058-74.11538-48.231-60.029C106.879,28.318,66.8424,32.9158,48.4049,41.1358Z" opacity="0.3" fill="none" stroke="#f06449" stroke-width="0.35" stroke-linecap="round" stroke-miterlimit="10" stroke-dasharray="2,2"/><path d="M49.4168,41.4625C21.8521,52.9075,106.815,114,139.578,114s31.91-17.834,48.062-42.171c19.915-30.0069-20.053-72.805008-48.062-59.2464-32.862,15.9177-71.6219,21.1798-90.1612,28.8799Z" opacity="0.3" fill="none" stroke="#f16848" stroke-width="0.35" stroke-linecap="round" stroke-miterlimit="10" stroke-dasharray="2,2"/><path d="M51.4266,41.7874C24.0271,52.3245,107.658,114,140.071,114s32.378-17.8608,47.898-42.0914C206.991,42.205,167.91,0.416864,140.066,13.4509C107.544,28.6786,70.0732,34.6175,51.4266,41.7874Z" opacity="0.3" fill="none" stroke="#f16c47" stroke-width="0.35" stroke-linecap="round" stroke-miterlimit="10" stroke-dasharray="2,2"/><path d="M53.3967,42.113C26.3597,51.7423,108.08,114,139.917,114s32.628-17.8836,47.407-42.0075c18.012-29.4035-19.918-70.1771-47.407-57.6744-31.96,14.5387-67.8847,21.158-86.5203,27.7949Z" opacity="0.3" fill="none" stroke="#f27046" stroke-width="0.35" stroke-linecap="round" stroke-miterlimit="10" stroke-dasharray="2,2"/><path d="M54.438,42.436C27.4029,51.1662,108.33,114,140.037,114c31.708,0,33.333-17.902,47.574-41.9275c17.249-29.0974-20.053-68.85569-47.574-56.8871C108.201,29.0316,73.3268,36.3347,54.438,42.436Z" opacity="0.3" fill="none" stroke="#f27445" stroke-width="0.35" stroke-linecap="round" stroke-miterlimit="10" stroke-dasharray="2.01,2.01"/><path d="M56.4024,42.7561C29.7524,50.5923,108.746,114,139.881,114c31.134,0,33.579-17.9228,47.076-41.8524c16.242-28.7847-19.914-67.5274-47.081-56.0942-31.268,13.1564-64.5948,21.1522-83.4736,26.7027Z" opacity="0.3" fill="none" stroke="#f27843" stroke-width="0.35" stroke-linecap="round" stroke-miterlimit="10" stroke-dasharray="2.01,2.01"/><path d="M58.4041,43.5089C31.9549,50.3153,109.575,113,140.353,113c30.782,0,34.059-17.5773,46.911-40.9296c15.365-27.9-19.904-64.85627-46.911-54.1898C109.437,30.092,77.4205,38.6174,58.4041,43.5089Z" opacity="0.3" fill="none" stroke="#f37c42" stroke-width="0.35" stroke-linecap="round" stroke-miterlimit="10" stroke-dasharray="2.01,2.01"/><path d="M59.4018,43.8325C33.1693,49.7746,109.395,113,139.819,113c30.425,0,34.542-17.5907,46.751-40.8487c14.478-27.5858-19.9-63.53073-46.751-53.4004-30.562,11.5309-61.2582,20.745-80.4172,25.0816Z" opacity="0.3" fill="none" stroke="#f38041" stroke-width="0.35" stroke-linecap="round" stroke-miterlimit="10" stroke-dasharray="2.01,2.01"/><path d="M61.3602,44.1617C35.5386,49.244,109.804,113,139.655,113c29.846,0,34.77-17.6043,46.238-40.7676c13.493-27.2659-19.748-62.199-46.243-52.6117-29.978,10.8512-59.1362,20.7665-78.2898,24.541Z" opacity="0.3" fill="none" stroke="#f38440" stroke-width="0.35" stroke-linecap="round" stroke-miterlimit="10" stroke-dasharray="2.02,2.02"/><path d="M63.3557,44.4838C37.7619,48.72,110.621,113,140.113,113c29.491,0,35.258-17.6158,46.069-40.687c12.623-26.9434-19.733-60.8638-46.069-51.8213-29.62,10.1652-57.4524,20.7952-76.7573,23.9921Z" opacity="0.3" fill="none" stroke="#f4883f" stroke-width="0.35" stroke-linecap="round" stroke-miterlimit="10" stroke-dasharray="1.99,1.99"/><path d="M65.3502,44.8054C39.9906,48.1998,111.432,113,140.567,113c29.134,0,35.753-17.6224,45.899-40.609c11.749-26.6183-19.722-59.5152-45.904-51.0294-29.258,9.4883-55.7608,20.8409-75.2118,23.4438Z" opacity="0.3" fill="none" stroke="#f48c3e" stroke-width="0.35" stroke-linecap="round" stroke-miterlimit="10" stroke-dasharray="1.99,1.99"/><path d="M66.3454,45.1255C41.221,47.6914,111.24,113,140.011,113s36.248-17.6311,45.728-40.5352c10.887-26.29-19.7-58.1618-45.728-50.2302-28.895,8.8045-54.0636,20.8936-73.6656,22.8909Z" opacity="0.3" fill="none" stroke="#f4903d" stroke-width="0.35" stroke-linecap="round" stroke-miterlimit="10" stroke-dasharray="1.99,1.99"/><path d="M68.2982,45.4487C43.6103,47.1904,111.649,113,139.832,113c28.184,0,36.454-17.6382,45.19-40.453c9.942-25.9666-19.526-56.8048-45.19-49.4401C111.536,31.232,87.8976,44.065,68.2982,45.4487Z" opacity="0.3" fill="none" stroke="#f5943c" stroke-width="0.35" stroke-linecap="round" stroke-miterlimit="10" stroke-dasharray="1.99,1.99"/><path d="M70.2174,45.7665C45.9991,49.0027,112.402,113,140.24,113s36.978-17.644,45.038-40.3818c9.086-25.6281-19.518-55.4324-45.038-48.6363-27.941,7.4389-50.4604,19.169-70.0226,21.7846Z" opacity="0.3" fill="none" stroke="#f5983a" stroke-width="0.35" stroke-linecap="round" stroke-miterlimit="10" stroke-dasharray="2,2"/><path d="M71.2906,45.8388C47.0122,48.1422,112.605,112,140.294,112c27.688,0,37.781-17.4469,45.216-39.8567c8.302-25.0033-19.644-53.4441-45.216-47.2944-27.783,6.686-49.0524,19.0997-69.0034,20.9899Z" opacity="0.3" fill="none" stroke="#f59c39" stroke-width="0.35" stroke-linecap="round" stroke-miterlimit="10" stroke-dasharray="2,2"/><path d="M73.2754,46.9166C49.3468,48.2891,113.03,112,140.112,112s37.964-17.2501,44.645-39.3193c7.379-24.3872-19.452-51.4672-44.645-45.9597-27.161,5.9389-46.8387,19.054-66.8366,20.1956Z" opacity="0.3" fill="none" stroke="#f6a038" stroke-width="0.35" stroke-linecap="round" stroke-miterlimit="10" stroke-dasharray="2.01,2.01"/><path d="M75.2441,46.489C51.7159,45.0481,113.451,112,139.922,112c26.472,0,38.138-17.4496,44.064-39.6991c6.478-24.3268-19.252-50.6735-44.064-45.688-26.54,5.3392-44.6887,21.1004-64.6779,19.8761Z" opacity="0.3" fill="none" stroke="#f6a437" stroke-width="0.35" stroke-linecap="round" stroke-miterlimit="10" stroke-dasharray="2.01,2.01"/><path d="M76.2935,47.5805C52.7926,45.3947,113.612,112,139.937,112c26.324,0,38.984-17.2492,44.247-39.1589c5.692-23.7013-19.386-48.6903-44.247-44.3452-26.379,4.6124-43.3555,20.9724-63.6435,19.0846Z" opacity="0.3" fill="none" stroke="#f7a836" stroke-width="0.35" stroke-linecap="round" stroke-miterlimit="10" stroke-dasharray="2.02,2.02"/><path d="M78.3013,47.1385C55.0266,44.1605,114.387,112,140.334,112c25.942,0,39.498-17.4543,44.039-39.5445c4.858-23.6414-19.349-47.8561-44.039-44.0603-25.992,3.9913-41.6329,21.3568-62.0327,18.7433Z" opacity="0.3" fill="none" stroke="#f7ac35" stroke-width="0.35" stroke-linecap="round" stroke-miterlimit="10" stroke-dasharray="1.99,1.99"/><path d="M79.311,48.2487C56.2611,44.5543,114.162,112,139.718,112c25.557,0,40.017-17.2434,43.826-38.9914c4.031-23.0162-19.31-45.865-43.826-42.7166-25.585,3.2848-39.9028,21.246-60.407,17.9567Z" opacity="0.3" fill="none" stroke="#f7b034" stroke-width="0.35" stroke-linecap="round" stroke-miterlimit="10" stroke-dasharray="1.99,1.99"/><path d="M81.278,48.3775C58.6515,43.987,114.572,111,139.502,111c24.929,0,40.158-17.0301,43.194-38.4246c3.178-22.3885-19.091-43.8788-43.194-41.3762-24.944,2.5942-37.822,21.1328-58.224,17.1783Z" opacity="0.3" fill="none" stroke="#f8b433" stroke-width="0.35" stroke-linecap="round" stroke-miterlimit="10" stroke-dasharray="2,2"/><path d="M83.2952,48.7289C60.8837,43.6026,115.341,111,139.869,111s40.659-17.0263,42.951-38.3311c2.371-22.039-19.044-42.4391-42.956-40.5468-24.533,1.9404-36.103,21.2873-56.5688,16.6068Z" opacity="0.3" fill="none" stroke="#f8b831" stroke-width="0.35" stroke-linecap="round" stroke-miterlimit="10" stroke-dasharray="2.01,2.01"/><path d="M84.3693,49.0943C61.9491,43.2383,115.457,111,139.806,111s41.559-17.0204,43.108-38.2279c1.589-21.6894-19.169-40.9829-43.108-39.7127-24.354,1.2921-34.718,21.4484-55.4367,16.0349Z" opacity="0.3" fill="none" stroke="#f8bc30" stroke-width="0.35" stroke-linecap="round" stroke-miterlimit="10" stroke-dasharray="2.02,2.02"/><path d="M86.3976,49.4693C64.1775,42.8818,116.208,111,140.139,111s42.06-17.0153,42.838-38.1209c.789-21.3383-19.115-39.5034-42.838-38.8626-23.935.6407-32.995,21.6015-53.7414,15.4528Z" opacity="0.3" fill="none" stroke="#f9c02f" stroke-width="0.35" stroke-linecap="round" stroke-miterlimit="10" stroke-dasharray="1.98,1.98"/><path d="M87.4849,49.8721C65.2406,42.5525,116.292,111,140.023,111s42.977-17.013,42.977-38-19.241-38-42.977-38-31.572,21.7696-52.5381,14.8721Z" opacity="0.3" fill="none" stroke="#f9c42e" stroke-width="0.35" stroke-linecap="round" stroke-miterlimit="10" stroke-dasharray="1.99,1.99"/><path d="M48.2226,88.0238C63.4601,49.9025,112.241,18,134.138,18s18,41.3777,31.805,62.1841c16.235,24.4669-9.926,23.7399-31.805,28.1239-48.3695,9.696-103.0805,22.648-85.9154-20.2842Z" opacity="0.3" fill="none" stroke="#4694ff" stroke-width="0.35" stroke-linecap="round" stroke-miterlimit="10" stroke-dasharray="2,2"/><path d="M134.294,107.486c-47.993,9.342-101.9909,22.432-85.1467-19.8994C64.1035,49.9613,112.338,18.0404,134.164,18c21.869-.044,18.328,40.65,31.894,61.3604c15.955,24.2896-9.958,23.9256-31.764,28.1256Z" opacity="0.3" fill="none" stroke="#4696fe" stroke-width="0.35" stroke-linecap="round" stroke-miterlimit="10" stroke-dasharray="2,2"/><path d="M134.739,107.661c-47.2282,8.993-100.0821,22.216-83.6913-19.5171C65.5993,51.015,112.899,19.0808,134.486,19.0001c21.662-.0879,18.513,39.9224,31.73,60.5361c15.54,24.1078-9.92,24.1108-31.477,28.1248Z" opacity="0.3" fill="none" stroke="#4698fe" stroke-width="0.35" stroke-linecap="round" stroke-miterlimit="10" stroke-dasharray="2,2"/><path d="M134.904,106.888c-46.8753,8.503-99.0048,22.013-82.9287-19.1445C66.2426,51.0841,113,19.1176,134.521,19.0003c21.635-.1318,18.815,39.2531,31.826,59.7496c15.221,23.9771-9.965,24.2441-31.443,28.1381Z" opacity="0.3" fill="none" stroke="#469afd" stroke-width="0.35" stroke-linecap="round" stroke-miterlimit="10" stroke-dasharray="2,2"/><path d="M135.058,106.171c-46.5033,8.025-97.9122,21.575-82.1574-18.5684C66.8807,51.8082,113.09,20.1563,134.545,20.0006c21.61-.1738,19.144,38.1445,31.926,58.3247c14.92,23.5627-10.012,24.1527-31.413,27.8457Z" opacity="0.3" fill="none" stroke="#469cfc" stroke-width="0.35" stroke-linecap="round" stroke-miterlimit="10" stroke-dasharray="2,2"/><path d="M134.806,106.267c-45.3587,7.719-95.2021,21.589-80.0275-18.3867C68.2413,52.1991,113.138,20.1983,134.174,20.001c21.224-.2193,19.149,37.8374,31.491,58.1248c14.38,23.6422-9.884,24.5742-30.859,28.1412Z" opacity="0.3" fill="none" stroke="#469ffc" stroke-width="0.35" stroke-linecap="round" stroke-miterlimit="10" stroke-dasharray="2,2"/><path d="M134.962,105.454c-44.9863,7.33-94.1107,21.376-79.258-18.0066c13.1749-35.1923,57.522-67.2124,78.492-67.446c21.2-.2628,19.48,37.1268,31.588,57.3128c14.085,23.4708-9.921,24.7338-30.822,28.1398Z" opacity="0.3" fill="none" stroke="#45a1fb" stroke-width="0.35" stroke-linecap="round" stroke-miterlimit="10" stroke-dasharray="1.99,1.99"/><path d="M135.112,105.551c-44.6124,7.016-93.0116,21.39-78.4828-17.8197C69.5145,52.6562,113.31,20.2783,134.213,20.0019c21.173-.3095,19.814,36.8107,31.691,57.1063c13.788,23.5528-9.961,25.1668-30.792,28.4428Z" opacity="0.3" fill="none" stroke="#45a3fa" stroke-width="0.35" stroke-linecap="round" stroke-miterlimit="10" stroke-dasharray="1.99,1.99"/><path d="M134.867,104.827c-43.4681,6.553-90.3135,20.946-76.3573-17.2509C70.8876,53.3627,113.378,21.312,133.853,21.0025c20.781-.3495,19.803,35.7098,31.243,55.6873c13.25,23.1306-9.835,25.0602-30.229,28.1372Z" opacity="0.3" fill="none" stroke="#45a5fa" stroke-width="0.35" stroke-linecap="round" stroke-miterlimit="10" stroke-dasharray="1.99,1.99"/><path d="M134.708,104.908c-43.4861,6.24-89.9605,20.993-76.2686-17.054C70.6946,53.7946,112.956,21.3561,133.553,21.0033c20.945-.397,20.318,35.3788,31.63,55.4681c13.065,23.2061-9.969,25.4956-30.475,28.4366Z" opacity="0.3" fill="none" stroke="#45a7f9" stroke-width="0.35" stroke-linecap="round" stroke-miterlimit="10" stroke-dasharray="1.99,1.99"/><path d="M135.158,104.088c-42.7243,5.858-88.0547,20.782-74.8167-16.675c11.861-33.5623,53.1877-66.0162,73.5397-66.4089c20.736-.4404,20.479,34.6634,31.455,54.6452c12.649,23.0392-9.919,25.6637-30.178,28.4387Z" opacity="0.3" fill="none" stroke="#45a9f8" stroke-width="0.35" stroke-linecap="round" stroke-miterlimit="10" stroke-dasharray="1.99,1.99"/><path d="M135.612,103.353c-41.963,5.415-86.1517,20.339-73.3691-16.1123C73.7111,54.5413,114.104,22.4291,134.21,22.005c20.525-.4785,20.636,33.573,31.277,53.2303c12.238,22.608-9.871,25.5367-29.875,28.1177Z" opacity="0.3" fill="none" stroke="#45abf8" stroke-width="0.35" stroke-linecap="round" stroke-miterlimit="10" stroke-dasharray="1.99,1.99"/><path d="M134.757,103.446c-41.5834,5.095-85.038,20.352-72.5909-15.9155C73.3465,54.9568,113.176,22.4746,133.218,22.0061c20.504-.5271,20.985,33.2362,31.388,53.0096c11.937,22.687-9.913,25.9883-29.849,28.4303Z" opacity="0.3" fill="none" stroke="#45adf7" stroke-width="0.35" stroke-linecap="round" stroke-miterlimit="10" stroke-dasharray="1.99,1.99"/><path d="M135.209,102.62c-40.8203,4.719-83.1375,20.139-71.1385-15.5341C74.8591,55.0089,113.756,22.5153,133.55,22.0073c20.292-.5702,21.138,32.5192,31.207,52.1908c11.523,22.5043-9.867,26.1449-29.548,28.4219Z" opacity="0.3" fill="none" stroke="#45aff7" stroke-width="0.35" stroke-linecap="round" stroke-miterlimit="10" stroke-dasharray="1.99,1.99"/><path d="M135.663,102.708c-40.057,4.397-81.2356,20.156-69.6892-15.3267C76.3719,55.4351,114.336,22.5587,133.882,22.0087c20.08-.6202,21.285,32.1676,31.024,51.9614c11.111,22.5846-9.817,26.6079-29.243,28.7379Z" opacity="0.3" fill="none" stroke="#45b2f6" stroke-width="0.35" stroke-linecap="round" stroke-miterlimit="10" stroke-dasharray="1.99,1.99"/><path d="M135.115,101.963c-39.291,3.975-79.3371,19.709-68.2352-14.7754C76.8891,56.099,113.926,23.593,133.219,23.01c19.864-.6559,21.431,31.0849,30.834,50.5499c10.702,22.1468-9.767,26.4651-28.938,28.4031Z" opacity="0.3" fill="none" stroke="#45b4f5" stroke-width="0.35" stroke-linecap="round" stroke-miterlimit="10" stroke-dasharray="1.99,1.99"/><path d="M135.258,102.05c-38.9092,3.652-78.2172,19.721-67.4545-14.564c9.7152-30.9507,46.1875-63.8486,65.4195-64.4743c19.841-.7067,21.783,30.7262,30.946,50.3148c10.4,22.2202-9.808,26.9315-28.911,28.7235Z" opacity="0.3" fill="none" stroke="#45b6f5" stroke-width="0.35" stroke-linecap="round" stroke-miterlimit="10" stroke-dasharray="1.99,1.99"/><path d="M135.394,101.219C96.8685,104.5,58.3063,120.721,68.7269,87.0336c9.4218-30.4538,45.3221-63.355,64.4951-64.0201c19.824-.7497,22.145,30.0054,31.065,49.4896c10.092,22.0383-9.856,27.0949-28.893,28.7159Z" opacity="0.3" fill="none" stroke="#45b8f4" stroke-width="0.35" stroke-linecap="round" stroke-miterlimit="10" stroke-dasharray="1.99,1.99"/><path d="M135.532,100.461c-38.144,2.882-75.9601,19.057-65.8809-13.6376c9.1232-29.5988,44.4539-62.1122,63.5649-62.8082c19.807-.7831,22.514,28.9354,31.188,48.0831c9.785,21.5946-9.9,26.9271-28.872,28.3627Z" opacity="0.3" fill="none" stroke="#44baf3" stroke-width="0.35" stroke-linecap="round" stroke-miterlimit="10" stroke-dasharray="1.99,1.99"/><path d="M135.985,100.547C98.6112,103.1,61.9259,119.611,71.558,87.1235c8.7347-29.458,43.133-62.3626,61.992-63.1061c19.591-.8351,22.654,28.5608,30.996,47.8369c9.378,21.6677-9.846,27.4107-28.561,28.6927Z" opacity="0.3" fill="none" stroke="#44bcf3" stroke-width="0.35" stroke-linecap="round" stroke-miterlimit="10" stroke-dasharray="1.99,1.99"/><path d="M135.438,99.705c-36.6008,2.194-72.1613,18.847-62.9712-13.0414c8.348-28.9601,41.8152-61.8615,60.4212-62.6439c19.37-.8775,22.789,27.8377,30.797,47.0104c8.977,21.4833-9.788,27.5708-28.247,28.6749Z" opacity="0.3" fill="none" stroke="#44bef2" stroke-width="0.35" stroke-linecap="round" stroke-miterlimit="10" stroke-dasharray="1.99,1.99"/><path d="M135.568,99.7855C99.356,101.647,64.547,118.642,73.3914,86.9692c8.0459-28.8134,40.9376-62.1156,59.4846-62.9469c19.353-.931,23.164,27.4502,30.926,46.7502c8.663,21.5575-9.84,28.0672-28.234,29.013Z" opacity="0.3" fill="none" stroke="#44c0f1" stroke-width="0.35" stroke-linecap="round" stroke-miterlimit="10" stroke-dasharray="1.99,1.99"/><path d="M136.021,99.015c-35.437,1.49-69.1233,18.405-60.7191-12.282c7.6576-27.9621,39.6251-60.8524,57.9141-61.7083c19.132-.9616,23.295,26.3923,30.721,45.3506c8.265,21.1037-9.78,27.8784-27.916,28.6397Z" opacity="0.3" fill="none" stroke="#44c2f1" stroke-width="0.35" stroke-linecap="round" stroke-miterlimit="10" stroke-dasharray="1.99,1.99"/><path d="M135.478,99.167c-34.667,1.141-67.2309,18.18-59.2643-11.9015c7.2718-27.4637,38.3143-60.3438,56.3443-61.238c18.907-1.0033,23.42,25.6715,30.513,44.5235c7.867,20.9059-9.719,28.0271-27.593,28.616Z" opacity="0.3" fill="none" stroke="#44c5f0" stroke-width="0.35" stroke-linecap="round" stroke-miterlimit="10" stroke-dasharray="1.99,1.99"/><path d="M135.602,98.3151c-34.275.798-66.0791,17.9559-58.4625-11.5245c6.9659-26.9629,37.4265-59.8278,55.3985-60.7601c18.894-1.0447,23.805,24.9498,30.644,43.6929c7.557,20.7128-9.768,28.1782-27.58,28.5917Z" opacity="0.3" fill="none" stroke="#44c7ef" stroke-width="0.35" stroke-linecap="round" stroke-miterlimit="10" stroke-dasharray="1.99,1.99"/><path d="M136.06,97.9296c-33.463,1.9056-64.1887,17.8494-57.0077-11.218C85.6339,60.0709,115.17,27.0068,132.883,26.034c18.666-1.093,23.923,24.3854,30.43,43.1454c7.163,20.6473-9.723,27.752-27.253,28.7502Z" opacity="0.3" fill="none" stroke="#44c9ef" stroke-width="0.35" stroke-linecap="round" stroke-miterlimit="10" stroke-dasharray="1.99,1.99"/><path d="M136.18,98.003c-33.077,1.5837-63.0301,17.851-56.2-10.9826C86.2523,60.54,115.201,27.0619,132.857,26.038c18.651-1.149,24.317,23.9687,30.565,42.866c6.848,20.7203-9.77,28.263-27.242,29.099Z" opacity="0.3" fill="none" stroke="#44cbee" stroke-width="0.35" stroke-linecap="round" stroke-miterlimit="10" stroke-dasharray="1.99,1.99"/><path d="M136.297,97.1496c-32.691,1.2387-61.8625,17.6284-55.3898-10.6004c5.9599-25.9789,34.3178-59.4487,51.9178-60.5073c18.642-1.1909,24.72,23.2407,30.704,42.0339c6.536,20.5207-9.817,28.4159-27.232,29.0738Z" opacity="0.3" fill="none" stroke="#44cded" stroke-width="0.35" stroke-linecap="round" stroke-miterlimit="10" stroke-dasharray="2,2"/><path d="M136.092,97.2212c-31.535.903-59.2454,17.6298-53.2765-10.3536c5.5068-25.8171,32.6115-59.7098,49.7405-60.8209c18.187-1.2487,24.531,22.8106,30.113,41.7451c6.07,20.5883-9.631,28.9425-26.577,29.4294Z" opacity="0.3" fill="none" stroke="#44cfed" stroke-width="0.35" stroke-linecap="round" stroke-miterlimit="10" stroke-dasharray="2,2"/><path d="M135.863,96.8699c-31.527-.8802-58.7935,17.2791-53.1076-9.9026C88.01,61.8296,114.854,28.1925,132.13,27.0508c18.4-1.2815,25.24,21.9227,30.626,40.6195c5.831,20.2471-9.793,29.6783-26.893,29.1996Z" opacity="0.3" fill="none" stroke="#43d1ec" stroke-width="0.35" stroke-linecap="round" stroke-miterlimit="10" stroke-dasharray="2,2"/><path d="M136.32,96.0681c-30.744-1.1923-56.8985,16.8169-51.6441-9.3941c4.8708-24.2972,30.7921-57.4593,47.8021-58.6191c18.164-1.3047,25.345,20.9048,30.394,39.2401c5.448,19.7704-9.723,29.4219-26.552,28.7731Z" opacity="0.3" fill="none" stroke="#43d3eb" stroke-width="0.35" stroke-linecap="round" stroke-miterlimit="10" stroke-dasharray="2,2"/><path d="M136.775,96.1238C106.816,94.5955,81.768,112.942,86.6,86.9837c4.4898-24.1255,29.49-57.7098,46.231-58.9229c17.924-1.3633,25.442,20.457,30.157,38.935c5.06,19.834-9.658,29.9709-26.213,29.128Z" opacity="0.3" fill="none" stroke="#43d5eb" stroke-width="0.35" stroke-linecap="round" stroke-miterlimit="10" stroke-dasharray="2,2"/><path d="M135.88,95.2441c-29.553-1.8423-53.8155,16.5839-49.3472-8.7582c4.1661-23.6208,28.5642-57.1694,45.2502-58.4195c17.915-1.4037,25.861,19.7278,30.302,38.0922c4.746,19.6255-9.71,30.1163-26.205,29.0855Z" opacity="0.3" fill="none" stroke="#43d7ea" stroke-width="0.35" stroke-linecap="round" stroke-miterlimit="10" stroke-dasharray="2.01,2.01"/><path d="M136.337,95.2958c-28.764-2.1848-51.9273,16.5802-47.8752-8.4952c3.785-23.4414,27.2662-57.426,43.6782-58.7273c17.671-1.4639,25.949,19.264,30.052,37.7702c4.367,19.6891-9.638,30.6833-25.855,29.4523Z" opacity="0.3" fill="none" stroke="#43dae9" stroke-width="0.35" stroke-linecap="round" stroke-miterlimit="10" stroke-dasharray="2.01,2.01"/><path d="M136.434,94.409c-28.358-2.4923-50.7218,16.344-47.0353-8.1147c3.4537-22.9318,26.3273-56.8762,42.6843-58.2145c17.661-1.5042,26.376,18.5298,30.201,36.9196c4.049,19.481-9.693,30.829-25.85,29.4096Z" opacity="0.3" fill="none" stroke="#43dce9" stroke-width="0.35" stroke-linecap="round" stroke-miterlimit="10" stroke-dasharray="2.01,2.01"/><path d="M136.532,94.5176c-27.949-2.7978-49.5111,16.1064-46.1948-7.7317c3.1187-22.4193,25.3808-56.3278,41.6798-57.6991c17.653-1.5442,26.817,17.7943,30.356,36.0702c3.733,19.2649-9.746,30.9709-25.841,29.3606Z" opacity="0.3" fill="none" stroke="#43dee8" stroke-width="0.35" stroke-linecap="round" stroke-miterlimit="10" stroke-dasharray="2.02,2.02"/><path d="M136.986,93.6215c-27.152-3.0936-47.6147,15.8675-44.7113-7.3529C95.015,64.3599,116.36,30.5018,132.376,29.0943c17.399-1.5835,26.889,17.0591,30.092,35.218c3.359,19.0495-9.671,31.109-25.482,29.3092Z" opacity="0.3" fill="none" stroke="#43e0e8" stroke-width="0.35" stroke-linecap="round" stroke-miterlimit="10" stroke-dasharray="1.98,1.98"/><path d="M136.444,93.7197c-26.356-3.3837-45.7226,15.6283-43.2276-6.972C95.5795,65.3495,116.01,31.5456,131.742,30.1023c17.144-1.6224,26.947,16.33,29.814,34.3665c2.996,18.8331-9.587,31.246-25.112,29.2509Z" opacity="0.3" fill="none" stroke="#43e2e7" stroke-width="0.35" stroke-linecap="round" stroke-miterlimit="10" stroke-dasharray="1.99,1.99"/><path d="M136.531,92.8164c-25.94-3.6712-44.4909,15.3846-42.3653-6.5958c2.02-20.8872,21.8303-54.6346,37.5033-56.1097c17.132-1.6608,27.392,15.599,29.965,33.5143c2.672,18.6147-9.644,31.3801-25.103,29.1912Z" opacity="0.3" fill="none" stroke="#43e4e6" stroke-width="0.35" stroke-linecap="round" stroke-miterlimit="10" stroke-dasharray="1.99,1.99"/><path d="M136.988,92.8427c-25.136-4.0087-42.5956,15.3713-40.8706-6.3115c1.6442-20.6846,20.5416-54.8764,35.9236-56.4091c16.864-1.7244,27.429,15.0952,29.67,33.1564c2.315,18.6729-9.56,31.9812-24.723,29.5642Z" opacity="0.3" fill="none" stroke="#43e6e6" stroke-width="0.35" stroke-linecap="round" stroke-miterlimit="10" stroke-dasharray="2,2"/><path d="M137.072,91.9264c-24.714-4.2848-41.3462,15.1276-39.9954-5.9297c1.2936-20.1685,19.5634-54.293,34.8814-55.8645c16.852-1.7624,27.882,14.3636,29.818,32.296c1.996,18.4502-9.613,32.1161-24.704,29.4982Z" opacity="0.3" fill="none" stroke="#43e8e5" stroke-width="0.35" stroke-linecap="round" stroke-miterlimit="10" stroke-dasharray="2,2"/><path d="M136.532,91.9444c-23.904-4.6246-39.4493,15.1106-38.49-5.6387.9234-19.9546,18.28-54.5334,33.297-56.1603c16.573-1.8276,27.896,13.8441,29.501,31.9191c1.64,18.5096-9.524,32.7401-24.308,29.8799Z" opacity="0.3" fill="none" stroke="#42eae4" stroke-width="0.35" stroke-linecap="round" stroke-miterlimit="10" stroke-dasharray="2.01,2.01"/><path d="M136.605,91.0788c-23.472-4.8178-38.1718,14.6352-37.5882-5.175.5655-19.1364,17.2842-53.1125,32.2342-54.7488c16.556-1.8367,28.347,12.9082,29.641,30.5759c1.32,18.0031-9.581,32.3654-24.287,29.3479Z" opacity="0.3" fill="none" stroke="#42ede4" stroke-width="0.35" stroke-linecap="round" stroke-miterlimit="10" stroke-dasharray="2.02,2.02"/><path d="M136.671,91.0848c-23.03-5.1545-36.8776,14.6192-36.669-4.878.2-18.9145,16.276-53.344,31.153-55.0364c16.533-1.9025,28.8,12.3774,29.781,30.1858.99,18.0628-9.642,33.0026-24.265,29.7286Z" opacity="0.3" fill="none" stroke="#42efe3" stroke-width="0.35" stroke-linecap="round" stroke-miterlimit="10" stroke-dasharray="1.98,1.98"/><path d="M137.138,90.2079c-22.206-5.3234-34.966,14.1421-35.137-4.4271-.167-18.0989,14.995-51.9007,29.552-53.5992c16.232-1.9082,28.77,11.4636,29.417,28.8541.653,17.5496-9.536,32.5983-23.832,29.1722Z" opacity="0.3" fill="none" stroke="#42f1e2" stroke-width="0.35" stroke-linecap="round" stroke-miterlimit="10" stroke-dasharray="1.99,1.99"/><path d="M137.203,90.2008c-21.751-5.6531-33.657,14.1222-34.187-4.121-.558-17.8662,13.964-52.1213,28.44-53.8801c16.2-1.9746,29.233,10.9259,29.535,28.4484.355,17.6066-9.589,33.2422-23.788,29.5527Z" opacity="0.3" fill="none" stroke="#42f3e2" stroke-width="0.35" stroke-linecap="round" stroke-miterlimit="10" stroke-dasharray="2,2"/><path d="M104.043,86.3791c-.915-17.6252,12.919-52.3429,27.307-54.1594C147.512,30.1775,161,42.5936,161,60.2521s-9.646,33.9-23.74,29.934c-21.292-5.9861-32.29,14.1029-33.217-3.807Z" opacity="0.3" fill="none" stroke="#42f5e1" stroke-width="0.35" stroke-linecap="round" stroke-miterlimit="10" stroke-dasharray="2.01,2.01"/></g></g></svg>