<svg width="521" height="757" viewBox="0 0 521 757" fill="none" xmlns="http://www.w3.org/2000/svg">
<path d="M503.208 348.073C503.208 348.918 502.523 349.601 501.68 349.601C500.837 349.601 500.151 348.916 500.151 348.073C500.151 347.231 500.837 346.546 501.68 346.546C502.523 346.546 503.208 347.231 503.208 348.073Z" fill="#FF457E"/>
<path d="M499.939 318.974C499.939 319.863 499.218 320.587 498.326 320.587C497.436 320.587 496.712 319.866 496.712 318.974C496.712 318.082 497.433 317.361 498.326 317.361C499.218 317.364 499.939 318.085 499.939 318.974Z" fill="#FF457E"/>
<path d="M496.084 285.771C496.084 286.683 495.344 287.425 494.429 287.425C493.516 287.425 492.773 286.686 492.773 285.771C492.773 284.856 493.513 284.117 494.429 284.117C495.341 284.12 496.084 284.859 496.084 285.771Z" fill="#FF457E"/>
<path d="M471.691 219.835C471.691 220.303 471.311 220.68 470.846 220.68C470.38 220.68 470 220.303 470 219.835C470 219.368 470.38 218.99 470.846 218.99C471.311 218.99 471.691 219.368 471.691 219.835Z" fill="#FF457E"/>
<path d="M406.257 123.399C406.257 123.665 406.042 123.879 405.776 123.879C405.51 123.879 405.295 123.665 405.295 123.399C405.295 123.132 405.51 122.918 405.776 122.918C406.042 122.918 406.257 123.132 406.257 123.399Z" fill="#FF457E"/>
<path d="M380.872 97.731C380.872 98.16 380.523 98.5089 380.094 98.5089C379.665 98.5089 379.315 98.16 379.315 97.731C379.315 97.302 379.665 96.9531 380.094 96.9531C380.523 96.9531 380.872 97.302 380.872 97.731Z" fill="#FF457E"/>
<path d="M281.968 37.8091C283.098 37.8091 284.014 36.8939 284.014 35.7649C284.014 34.6359 283.098 33.7207 281.968 33.7207C280.839 33.7207 279.923 34.6359 279.923 35.7649C279.923 36.8939 280.839 37.8091 281.968 37.8091Z" fill="#FF457E"/>
<path d="M238.81 22.2536C239.863 22.2536 240.716 21.4009 240.716 20.349C240.716 19.2971 239.863 18.4443 238.81 18.4443C237.758 18.4443 236.904 19.2971 236.904 20.349C236.904 21.4009 237.758 22.2536 238.81 22.2536Z" fill="#FF457E"/>
<path d="M211.602 13.281C211.602 13.772 211.204 14.1674 210.715 14.1674C210.224 14.1674 209.828 13.7694 209.828 13.281C209.828 12.7899 210.226 12.3945 210.715 12.3945C211.206 12.3945 211.602 12.7925 211.602 13.281Z" fill="#FF457E"/>
<path d="M173.952 9.39894C174.144 9.39894 174.301 9.24274 174.301 9.05005C174.301 8.85737 174.144 8.70117 173.952 8.70117C173.759 8.70117 173.603 8.85737 173.603 9.05005C173.603 9.24274 173.759 9.39894 173.952 9.39894Z" fill="#FF457E"/>
<path d="M135.536 6.18414C135.914 6.18414 136.221 5.87753 136.221 5.4993C136.221 5.12107 135.914 4.81445 135.536 4.81445C135.157 4.81445 134.851 5.12107 134.851 5.4993C134.851 5.87753 135.157 6.18414 135.536 6.18414Z" fill="#FF457E"/>
<path d="M23.2313 26.7914C23.2313 27.5822 22.59 28.2206 21.8012 28.2206C21.0125 28.2206 20.3711 27.5796 20.3711 26.7914C20.3711 26.0006 21.0125 25.3623 21.8012 25.3623C22.59 25.3623 23.2313 26.0006 23.2313 26.7914Z" fill="#FF457E"/>
<path d="M40.5217 718.953C40.5217 719.369 40.1855 719.705 39.7691 719.705C39.3528 719.705 39.0166 719.369 39.0166 718.953C39.0166 718.537 39.3528 718.201 39.7691 718.201C40.1855 718.201 40.5217 718.537 40.5217 718.953Z" fill="#FF457E"/>
<path d="M143.149 721.358C143.864 721.358 144.443 720.779 144.443 720.066C144.443 719.352 143.864 718.773 143.149 718.773C142.435 718.773 141.856 719.352 141.856 720.066C141.856 720.779 142.435 721.358 143.149 721.358Z" fill="#FF457E"/>
<path d="M193.515 728.716C193.736 727.355 192.811 726.073 191.449 725.852C190.087 725.631 188.804 726.556 188.583 727.917C188.362 729.278 189.287 730.56 190.648 730.781C192.01 731.002 193.294 730.077 193.515 728.716Z" fill="#FF457E"/>
<path d="M112.603 738.37C112.603 739.251 111.886 739.967 111.004 739.967C110.123 739.967 109.406 739.251 109.406 738.37C109.406 737.488 110.123 736.772 111.004 736.772C111.886 736.772 112.603 737.486 112.603 738.37Z" fill="#FF457E"/>
<path d="M284.629 704.167C285.488 704.167 286.184 703.471 286.184 702.614C286.184 701.756 285.488 701.061 284.629 701.061C283.771 701.061 283.075 701.756 283.075 702.614C283.075 703.471 283.771 704.167 284.629 704.167Z" fill="#FF457E"/>
<path d="M364.43 657.677C365.289 657.677 365.984 656.981 365.984 656.123C365.984 655.266 365.289 654.57 364.43 654.57C363.572 654.57 362.876 655.266 362.876 656.123C362.876 656.981 363.572 657.677 364.43 657.677Z" fill="#FF457E"/>
<path d="M398.76 623.595C399.121 623.595 399.414 623.302 399.414 622.941C399.414 622.58 399.121 622.287 398.76 622.287C398.398 622.287 398.105 622.58 398.105 622.941C398.105 623.302 398.398 623.595 398.76 623.595Z" fill="#FF457E"/>
<path d="M408.475 614.188C409.004 614.188 409.432 613.76 409.432 613.232C409.432 612.703 409.004 612.275 408.475 612.275C407.947 612.275 407.519 612.703 407.519 613.232C407.519 613.76 407.947 614.188 408.475 614.188Z" fill="#FF457E"/>
<path d="M440.087 575.673C441.156 575.231 441.664 574.006 441.221 572.938C440.778 571.87 439.553 571.363 438.484 571.805C437.415 572.248 436.908 573.472 437.35 574.54C437.793 575.609 439.019 576.116 440.087 575.673Z" fill="#FF457E"/>
<path d="M486.088 477.396C486.392 477.396 486.639 477.149 486.639 476.845C486.639 476.541 486.392 476.295 486.088 476.295C485.784 476.295 485.537 476.541 485.537 476.845C485.537 477.149 485.784 477.396 486.088 477.396Z" fill="#FF457E"/>
<path d="M157.89 503.401C157.89 504.096 157.326 504.66 156.631 504.66C155.935 504.66 155.371 504.096 155.371 503.401C155.371 502.706 155.935 502.143 156.631 502.143C157.326 502.143 157.89 502.706 157.89 503.401Z" fill="#FF457E"/>
<path d="M52.5576 543.5C52.5576 544.025 52.1309 544.451 51.6059 544.451C51.081 544.451 50.6543 544.025 50.6543 543.5C50.6543 542.975 51.081 542.549 51.6059 542.549C52.1309 542.549 52.5576 542.975 52.5576 543.5Z" fill="#FF457E"/>
<path d="M59.4542 448.099C59.4542 448.711 58.9577 449.208 58.3448 449.208C57.7319 449.208 57.2354 448.711 57.2354 448.099C57.2354 447.486 57.7319 446.99 58.3448 446.99C58.9551 446.99 59.4542 447.486 59.4542 448.099Z" fill="#FF457E"/>
<path d="M444.293 340.179C444.293 340.972 443.649 341.616 442.855 341.616C442.061 341.616 441.417 340.972 441.417 340.179C441.417 339.386 442.061 338.742 442.855 338.742C443.649 338.745 444.293 339.386 444.293 340.179Z" fill="#FF457E"/>
<path d="M126.511 434.144C126.511 435.041 125.782 435.77 124.884 435.77C123.987 435.77 123.258 435.041 123.258 434.144C123.258 433.247 123.987 432.519 124.884 432.519C125.782 432.519 126.511 433.245 126.511 434.144Z" fill="#FF457E"/>
<path d="M233.783 416.119C234.616 416.119 235.291 415.444 235.291 414.612C235.291 413.78 234.616 413.105 233.783 413.105C232.95 413.105 232.275 413.78 232.275 414.612C232.275 415.444 232.95 416.119 233.783 416.119Z" fill="#FF457E"/>
<path d="M181.516 372.523C182.195 372.523 182.745 371.974 182.745 371.296C182.745 370.618 182.195 370.068 181.516 370.068C180.838 370.068 180.288 370.618 180.288 371.296C180.288 371.974 180.838 372.523 181.516 372.523Z" fill="#FF457E"/>
<path d="M239.413 383.342C239.413 384.164 238.746 384.831 237.923 384.831C237.101 384.831 236.434 384.164 236.434 383.342C236.434 382.52 237.101 381.854 237.923 381.854C238.746 381.851 239.413 382.52 239.413 383.342Z" fill="#FF457E"/>
<path d="M73.7318 321.719C74.5519 320.9 74.5519 319.571 73.7318 318.752C72.9118 317.932 71.5822 317.932 70.7622 318.752C69.9421 319.571 69.9421 320.9 70.7622 321.719C71.5822 322.539 72.9118 322.539 73.7318 321.719Z" fill="#FF457E"/>
<path d="M180.921 284.797C180.921 284.996 180.761 285.156 180.562 285.156C180.363 285.156 180.202 284.996 180.202 284.797C180.202 284.598 180.363 284.438 180.562 284.438C180.761 284.438 180.921 284.6 180.921 284.797Z" fill="#FF457E"/>
<path d="M147.295 262.328C147.295 262.902 146.829 263.365 146.258 263.365C145.684 263.365 145.221 262.899 145.221 262.328C145.221 261.755 145.686 261.292 146.258 261.292C146.829 261.292 147.295 261.757 147.295 262.328Z" fill="#FF457E"/>
<path d="M192.828 267.053C193.826 266.64 194.299 265.497 193.886 264.5C193.473 263.503 192.329 263.03 191.332 263.443C190.334 263.856 189.86 264.999 190.274 265.996C190.687 266.992 191.83 267.466 192.828 267.053Z" fill="#FF457E"/>
<path d="M22.0752 92.6762C22.0752 93.4851 21.4183 94.1415 20.6089 94.1415C19.7994 94.1415 19.1426 93.4851 19.1426 92.6762C19.1426 91.8673 19.7994 91.2109 20.6089 91.2109C21.4183 91.2109 22.0752 91.8673 22.0752 92.6762Z" fill="#FF457E"/>
<path d="M9.30295 82.2221C9.30295 83.2015 8.50904 83.9949 7.52892 83.9949C6.54881 83.9949 5.75488 83.2015 5.75488 82.2221C5.75488 81.2426 6.54881 80.4492 7.52892 80.4492C8.50904 80.4492 9.30295 81.2426 9.30295 82.2221Z" fill="#FF457E"/>
<path d="M132.212 211.909C133.197 211.909 133.994 211.112 133.994 210.128C133.994 209.145 133.197 208.348 132.212 208.348C131.228 208.348 130.431 209.145 130.431 210.128C130.431 211.112 131.228 211.909 132.212 211.909Z" fill="#FF457E"/>
<path d="M333.38 628.019C333.921 628.019 334.36 627.581 334.36 627.04C334.36 626.499 333.921 626.061 333.38 626.061C332.838 626.061 332.399 626.499 332.399 627.04C332.399 627.581 332.838 628.019 333.38 628.019Z" fill="#FF457E"/>
<path d="M399.944 514.372C400.445 514.372 400.852 513.966 400.852 513.465C400.852 512.964 400.445 512.558 399.944 512.558C399.443 512.558 399.036 512.964 399.036 513.465C399.036 513.966 399.443 514.372 399.944 514.372Z" fill="#FF457E"/>
<path d="M424.267 510.954C424.528 509.849 423.843 508.741 422.737 508.48C421.63 508.218 420.521 508.903 420.26 510.009C419.999 511.114 420.684 512.222 421.79 512.483C422.897 512.745 424.006 512.06 424.267 510.954Z" fill="#FF457E"/>
<path d="M348.632 470.438C348.632 471.221 347.999 471.854 347.215 471.854C346.431 471.854 345.798 471.221 345.798 470.438C345.798 469.655 346.431 469.021 347.215 469.021C347.999 469.021 348.632 469.655 348.632 470.438Z" fill="#FF457E"/>
<path d="M219.312 427.263C219.559 426.217 218.911 425.169 217.864 424.922C216.818 424.675 215.769 425.323 215.522 426.369C215.275 427.415 215.923 428.463 216.969 428.71C218.016 428.957 219.065 428.309 219.312 427.263Z" fill="#FF457E"/>
<path d="M321.941 441.886C322.851 441.886 323.589 441.149 323.589 440.24C323.589 439.331 322.851 438.594 321.941 438.594C321.032 438.594 320.294 439.331 320.294 440.24C320.294 441.149 321.032 441.886 321.941 441.886Z" fill="#FF457E"/>
<path d="M438.875 405.133C438.875 405.792 438.339 406.327 437.682 406.327C437.025 406.327 436.49 405.792 436.49 405.133C436.49 404.474 437.025 403.941 437.682 403.941C438.339 403.941 438.875 404.474 438.875 405.133Z" fill="#FF457E"/>
<path d="M207.384 397.53C207.654 397.53 207.873 397.311 207.873 397.041C207.873 396.771 207.654 396.553 207.384 396.553C207.114 396.553 206.896 396.771 206.896 397.041C206.896 397.311 207.114 397.53 207.384 397.53Z" fill="#FF457E"/>
<path d="M380.216 340.485C381.231 340.485 382.054 339.663 382.054 338.648C382.054 337.633 381.231 336.811 380.216 336.811C379.2 336.811 378.377 337.633 378.377 338.648C378.377 339.663 379.2 340.485 380.216 340.485Z" fill="#FF457E"/>
<path d="M295.152 333.7C295.152 334.118 294.813 334.457 294.394 334.457C293.975 334.457 293.637 334.118 293.637 333.7C293.637 333.281 293.975 332.942 294.394 332.942C294.813 332.942 295.152 333.281 295.152 333.7Z" fill="#FF457E"/>
<path d="M413.529 227.802C414.35 227.802 415.016 227.137 415.016 226.316C415.016 225.495 414.35 224.83 413.529 224.83C412.708 224.83 412.042 225.495 412.042 226.316C412.042 227.137 412.708 227.802 413.529 227.802Z" fill="#FF457E"/>
<path d="M355.932 273.818C356.712 273.818 357.344 273.186 357.344 272.407C357.344 271.628 356.712 270.996 355.932 270.996C355.153 270.996 354.521 271.628 354.521 272.407C354.521 273.186 355.153 273.818 355.932 273.818Z" fill="#FF457E"/>
<path d="M290.081 273.072C290.081 273.519 289.719 273.88 289.271 273.88C288.824 273.88 288.462 273.519 288.462 273.072C288.462 272.625 288.824 272.263 289.271 272.263C289.719 272.263 290.081 272.625 290.081 273.072Z" fill="#FF457E"/>
<path d="M279.108 290.606C280.05 290.606 280.813 289.844 280.813 288.903C280.813 287.963 280.05 287.2 279.108 287.2C278.167 287.2 277.404 287.963 277.404 288.903C277.404 289.844 278.167 290.606 279.108 290.606Z" fill="#FF457E"/>
<path d="M347.422 184.102C348.793 184.102 349.905 182.991 349.905 181.621C349.905 180.25 348.793 179.14 347.422 179.14C346.051 179.14 344.939 180.25 344.939 181.621C344.939 182.991 346.051 184.102 347.422 184.102Z" fill="#FF457E"/>
<path d="M251.039 167.383C251.039 167.843 250.667 168.215 250.207 168.215C249.746 168.215 249.374 167.843 249.374 167.383C249.374 166.923 249.746 166.551 250.207 166.551C250.667 166.551 251.039 166.926 251.039 167.383Z" fill="#FF457E"/>
<path d="M237.355 175.07C237.355 175.532 236.98 175.907 236.517 175.907C236.054 175.907 235.679 175.532 235.679 175.07C235.679 174.607 236.054 174.232 236.517 174.232C236.98 174.23 237.355 174.605 237.355 175.07Z" fill="#FF457E"/>
<path d="M197.798 19.2192C197.798 19.5836 197.5 19.8808 197.136 19.8808C196.771 19.8808 196.474 19.5836 196.474 19.2192C196.474 18.8548 196.771 18.5576 197.136 18.5576C197.5 18.5576 197.798 18.8522 197.798 19.2192Z" fill="#FF457E"/>
<path d="M177.544 8.65475C177.544 9.13802 177.154 9.52825 176.67 9.52825C176.186 9.52825 175.796 9.13802 175.796 8.65475C175.796 8.17148 176.186 7.78125 176.67 7.78125C177.154 7.78125 177.544 8.17148 177.544 8.65475Z" fill="#FF457E"/>
<path d="M166.14 118.191C166.663 118.191 167.086 117.767 167.086 117.245C167.086 116.722 166.663 116.299 166.14 116.299C165.617 116.299 165.193 116.722 165.193 117.245C165.193 117.767 165.617 118.191 166.14 118.191Z" fill="#FF457E"/>
<path d="M139.201 77.3957C139.933 77.3957 140.527 76.8021 140.527 76.0699C140.527 75.3377 139.933 74.7441 139.201 74.7441C138.468 74.7441 137.874 75.3377 137.874 76.0699C137.874 76.8021 138.468 77.3957 139.201 77.3957Z" fill="#FF457E"/>
<path d="M128.305 115.614C128.466 115.614 128.597 115.484 128.597 115.322C128.597 115.161 128.466 115.03 128.305 115.03C128.144 115.03 128.013 115.161 128.013 115.322C128.013 115.484 128.144 115.614 128.305 115.614Z" fill="#FF457E"/>
<path d="M97.2233 61.6698C98.1988 61.6698 98.9896 60.8796 98.9896 59.9047C98.9896 58.9299 98.1988 58.1396 97.2233 58.1396C96.2478 58.1396 95.457 58.9299 95.457 59.9047C95.457 60.8796 96.2478 61.6698 97.2233 61.6698Z" fill="#FF457E"/>
<path d="M58.9939 130.244C60.2736 130.244 61.311 129.208 61.311 127.929C61.311 126.65 60.2736 125.613 58.9939 125.613C57.7142 125.613 56.6768 126.65 56.6768 127.929C56.6768 129.208 57.7142 130.244 58.9939 130.244Z" fill="#FF457E"/>
<path d="M47.7426 579.008C47.7426 579.636 47.2331 580.145 46.6047 580.145C45.9763 580.145 45.4668 579.636 45.4668 579.008C45.4668 578.38 45.9763 577.871 46.6047 577.871C47.2331 577.871 47.7426 578.38 47.7426 579.008Z" fill="#FF457E"/>
<path d="M214.341 640.194C215.1 640.194 215.716 639.578 215.716 638.819C215.716 638.06 215.1 637.444 214.341 637.444C213.581 637.444 212.965 638.06 212.965 638.819C212.965 639.578 213.581 640.194 214.341 640.194Z" fill="#FF457E"/>
<path d="M91.4598 676.351C92.1668 676.351 92.7399 675.779 92.7399 675.072C92.7399 674.366 92.1668 673.793 91.4598 673.793C90.7528 673.793 90.1797 674.366 90.1797 675.072C90.1797 675.779 90.7528 676.351 91.4598 676.351Z" fill="#FF457E"/>
<path d="M281.053 600.825C281.686 600.825 282.198 600.312 282.198 599.68C282.198 599.048 281.686 598.535 281.053 598.535C280.42 598.535 279.907 599.048 279.907 599.68C279.907 600.312 280.42 600.825 281.053 600.825Z" fill="#FF457E"/>
<path d="M250.939 567.453C250.939 568.309 250.246 569.001 249.39 569.001C248.534 569.001 247.841 568.309 247.841 567.453C247.841 566.598 248.534 565.905 249.39 565.905C250.246 565.905 250.939 566.598 250.939 567.453Z" fill="#FF457E"/>
<path d="M297.754 583.275C297.754 583.996 297.169 584.58 296.448 584.58C295.726 584.58 295.142 583.996 295.142 583.275C295.142 582.554 295.726 581.97 296.448 581.97C297.169 581.97 297.754 582.554 297.754 583.275Z" fill="#FF457E"/>
<path d="M25.9571 704.97C26.5455 704.97 27.0225 704.494 27.0225 703.906C27.0225 703.318 26.5455 702.841 25.9571 702.841C25.3686 702.841 24.8916 703.318 24.8916 703.906C24.8916 704.494 25.3686 704.97 25.9571 704.97Z" fill="#FF457E"/>
<path d="M8.81694 756.532C8.81694 756.791 8.60749 757 8.3489 757C8.09031 757 7.88086 756.791 7.88086 756.532C7.88086 756.274 8.09031 756.064 8.3489 756.064C8.60749 756.064 8.81694 756.274 8.81694 756.532Z" fill="#FF457E"/>
<path d="M-0.849381 717.054C0.0304139 717.054 0.743637 716.341 0.743637 715.462C0.743637 714.583 0.0304139 713.87 -0.849381 713.87C-1.72918 713.87 -2.44238 714.583 -2.44238 715.462C-2.44238 716.341 -1.72918 717.054 -0.849381 717.054Z" fill="#FF457E"/>
<path d="M31.4189 583.158C32.373 583.158 33.1464 582.385 33.1464 581.431C33.1464 580.478 32.373 579.705 31.4189 579.705C30.4648 579.705 29.6914 580.478 29.6914 581.431C29.6914 582.385 30.4648 583.158 31.4189 583.158Z" fill="#FF457E"/>
<path d="M328.305 7.88454C328.305 8.22825 328.026 8.50736 327.682 8.50736C327.338 8.50736 327.059 8.22825 327.059 7.88454C327.059 7.54082 327.338 7.26172 327.682 7.26172C328.026 7.26172 328.305 7.54082 328.305 7.88454Z" fill="#FF457E"/>
<path d="M322.632 24.5793C322.632 25.1995 322.127 25.7034 321.507 25.7034C320.886 25.7034 320.382 25.1995 320.382 24.5793C320.382 23.959 320.886 23.4551 321.507 23.4551C322.127 23.4551 322.632 23.959 322.632 24.5793Z" fill="#FF457E"/>
<path d="M340.591 74.1102C340.591 74.4978 340.276 74.8131 339.888 74.8131C339.5 74.8131 339.185 74.4978 339.185 74.1102C339.185 73.7225 339.5 73.4072 339.888 73.4072C340.276 73.4072 340.591 73.7225 340.591 74.1102Z" fill="#FF457E"/>
<path d="M360.572 58.0386C361.795 58.0386 362.786 57.0482 362.786 55.8264C362.786 54.6047 361.795 53.6143 360.572 53.6143C359.35 53.6143 358.358 54.6047 358.358 55.8264C358.358 57.0482 359.35 58.0386 360.572 58.0386Z" fill="#FF457E"/>
<path d="M350.432 39.3199C350.432 40.2425 349.685 40.9893 348.761 40.9893C347.838 40.9893 347.091 40.2425 347.091 39.3199C347.091 38.3973 347.838 37.6504 348.761 37.6504C349.682 37.6504 350.432 38.3973 350.432 39.3199Z" fill="#FF457E"/>
<path d="M361.458 2.84275C362.244 2.84275 362.881 2.20638 362.881 1.42137C362.881 0.63637 362.244 0 361.458 0C360.673 0 360.036 0.63637 360.036 1.42137C360.036 2.20638 360.673 2.84275 361.458 2.84275Z" fill="#FF457E"/>
<path d="M326.41 4.69604C326.41 5.67291 325.616 6.46629 324.639 6.46629C323.661 6.46629 322.867 5.67291 322.867 4.69604C322.867 3.71917 323.661 2.92578 324.639 2.92578C325.616 2.92578 326.41 3.71658 326.41 4.69604Z" fill="#FF457E"/>
<path d="M471.014 291.533C471.27 290.45 470.598 289.364 469.514 289.108C468.43 288.852 467.344 289.523 467.088 290.607C466.832 291.69 467.503 292.776 468.587 293.032C469.671 293.287 470.758 292.616 471.014 291.533Z" fill="#FF457E"/>
<path d="M499.019 413.565C499.753 413.565 500.348 412.97 500.348 412.237C500.348 411.503 499.753 410.908 499.019 410.908C498.285 410.908 497.689 411.503 497.689 412.237C497.689 412.97 498.285 413.565 499.019 413.565Z" fill="#FF457E"/>
<path d="M511.907 334.416C512.403 334.416 512.805 334.014 512.805 333.519C512.805 333.024 512.403 332.622 511.907 332.622C511.412 332.622 511.01 333.024 511.01 333.519C511.01 334.014 511.412 334.416 511.907 334.416Z" fill="#FF457E"/>
<path d="M507.77 329.278C507.77 329.611 507.498 329.882 507.165 329.882C506.831 329.882 506.56 329.611 506.56 329.278C506.56 328.944 506.831 328.673 507.165 328.673C507.498 328.673 507.77 328.944 507.77 329.278Z" fill="#FF457E"/>
<path d="M521 327.242C521 327.72 520.612 328.107 520.134 328.107C519.655 328.107 519.268 327.72 519.268 327.242C519.268 326.764 519.655 326.376 520.134 326.376C520.612 326.376 521 326.764 521 327.242Z" fill="#FF457E"/>
<path d="M517.093 317.682C517.093 318.005 516.831 318.266 516.508 318.266C516.185 318.266 515.924 318.005 515.924 317.682C515.924 317.359 516.185 317.098 516.508 317.098C516.831 317.098 517.093 317.359 517.093 317.682Z" fill="#FF457E"/>
<path d="M88.1953 192.169C88.1953 193.156 87.3937 193.958 86.4058 193.958C85.4179 193.958 84.6162 193.156 84.6162 192.169C84.6162 191.182 85.4179 190.381 86.4058 190.381C87.3937 190.381 88.1953 191.182 88.1953 192.169Z" fill="#FF457E"/>
<path d="M103.762 139.754C104.671 139.754 105.409 139.017 105.409 138.108C105.409 137.199 104.671 136.462 103.762 136.462C102.852 136.462 102.114 137.199 102.114 138.108C102.114 139.017 102.852 139.754 103.762 139.754Z" fill="#FF457E"/>
<path d="M25.1085 246.249C26.5853 246.249 27.7825 245.052 27.7825 243.576C27.7825 242.101 26.5853 240.904 25.1085 240.904C23.6317 240.904 22.4346 242.101 22.4346 243.576C22.4346 245.052 23.6317 246.249 25.1085 246.249Z" fill="#FF457E"/>
<path d="M444.05 161.613C444.05 162.272 443.514 162.807 442.855 162.807C442.195 162.807 441.66 162.272 441.66 161.613C441.66 160.954 442.195 160.419 442.855 160.419C443.514 160.419 444.05 160.954 444.05 161.613Z" fill="#FF457E"/>
<path d="M280.466 230.304C280.977 230.304 281.392 229.889 281.392 229.378C281.392 228.867 280.977 228.453 280.466 228.453C279.955 228.453 279.54 228.867 279.54 229.378C279.54 229.889 279.955 230.304 280.466 230.304Z" fill="#FF457E"/>
<path d="M247.15 234.451C247.15 234.976 246.724 235.402 246.199 235.402C245.674 235.402 245.247 234.976 245.247 234.451C245.247 233.926 245.674 233.5 246.199 233.5C246.724 233.497 247.15 233.924 247.15 234.451Z" fill="#FF457E"/>
<path d="M199.435 625.732C199.435 626.003 199.215 626.225 198.941 626.225C198.667 626.225 198.447 626.006 198.447 625.732C198.447 625.461 198.667 625.238 198.941 625.238C199.215 625.238 199.435 625.461 199.435 625.732Z" fill="#FF457E"/>
<path d="M185.159 611.878C185.159 612.563 184.603 613.119 183.918 613.119C183.233 613.119 182.677 612.563 182.677 611.878C182.677 611.193 183.233 610.638 183.918 610.638C184.603 610.64 185.159 611.196 185.159 611.878Z" fill="#FF457E"/>
<path d="M310.754 116.411C311.542 116.411 312.181 115.772 312.181 114.984C312.181 114.196 311.542 113.558 310.754 113.558C309.965 113.558 309.326 114.196 309.326 114.984C309.326 115.772 309.965 116.411 310.754 116.411Z" fill="#FF457E"/>
<path d="M417.175 107.349C417.884 107.533 418.31 108.256 418.127 108.967C417.943 109.675 417.219 110.102 416.508 109.918C415.799 109.735 415.373 109.011 415.556 108.3C415.742 107.592 416.467 107.166 417.175 107.349Z" fill="#FF457E"/>
<path d="M442.643 115.62C443.638 115.878 444.236 116.891 443.977 117.886C443.718 118.881 442.705 119.478 441.709 119.22C440.713 118.961 440.116 117.948 440.375 116.953C440.633 115.961 441.647 115.364 442.643 115.62Z" fill="#FF457E"/>
<path d="M424.09 97.051C424.783 97.2293 425.199 97.9374 425.021 98.63C424.843 99.3226 424.134 99.7413 423.441 99.5604C422.748 99.3821 422.332 98.674 422.51 97.9814C422.688 97.2888 423.394 96.8727 424.09 97.051Z" fill="#FF457E"/>
<path d="M448.463 100.248C448.714 100.313 448.864 100.569 448.8 100.82C448.735 101.07 448.479 101.22 448.228 101.156C447.977 101.091 447.827 100.835 447.892 100.584C447.959 100.334 448.215 100.184 448.463 100.248Z" fill="#FF457E"/>
<path d="M225.425 158.933C226.095 158.933 226.638 158.39 226.638 157.721C226.638 157.051 226.095 156.509 225.425 156.509C224.755 156.509 224.212 157.051 224.212 157.721C224.212 158.39 224.755 158.933 225.425 158.933Z" fill="#FF457E"/>
<path d="M23.5162 608.007C23.5162 608.498 23.118 608.893 22.6292 608.893C22.1379 608.893 21.7422 608.495 21.7422 608.007C21.7422 607.516 22.1405 607.12 22.6292 607.12C23.118 607.118 23.5162 607.516 23.5162 608.007Z" fill="#FF457E"/>
<path d="M9.5741 615.689C9.5741 616.041 9.28962 616.325 8.93792 616.325C8.58621 616.325 8.30176 616.041 8.30176 615.689C8.30176 615.338 8.58621 615.054 8.93792 615.054C9.28962 615.051 9.5741 615.338 9.5741 615.689Z" fill="#FF457E"/>
<path d="M503.208 348.073C503.208 348.918 502.523 349.601 501.68 349.601C500.837 349.601 500.151 348.916 500.151 348.073C500.151 347.231 500.837 346.546 501.68 346.546C502.523 346.546 503.208 347.231 503.208 348.073Z" fill="#F5F5F5" fill-opacity="0.12"/>
<path d="M499.939 318.974C499.939 319.863 499.218 320.587 498.326 320.587C497.436 320.587 496.712 319.866 496.712 318.974C496.712 318.082 497.433 317.361 498.326 317.361C499.218 317.364 499.939 318.085 499.939 318.974Z" fill="#F5F5F5" fill-opacity="0.12"/>
<path d="M496.084 285.771C496.084 286.683 495.344 287.425 494.429 287.425C493.516 287.425 492.773 286.686 492.773 285.771C492.773 284.856 493.513 284.117 494.429 284.117C495.341 284.12 496.084 284.859 496.084 285.771Z" fill="#F5F5F5" fill-opacity="0.12"/>
<path d="M471.691 219.834C471.691 220.302 471.311 220.679 470.846 220.679C470.38 220.679 470 220.302 470 219.834C470 219.367 470.38 218.989 470.846 218.989C471.311 218.989 471.691 219.367 471.691 219.834Z" fill="#F5F5F5" fill-opacity="0.12"/>
<path d="M406.257 123.399C406.257 123.665 406.042 123.879 405.776 123.879C405.51 123.879 405.295 123.665 405.295 123.399C405.295 123.132 405.51 122.918 405.776 122.918C406.042 122.918 406.257 123.132 406.257 123.399Z" fill="#F5F5F5" fill-opacity="0.12"/>
<path d="M380.872 97.731C380.872 98.16 380.523 98.5089 380.094 98.5089C379.665 98.5089 379.315 98.16 379.315 97.731C379.315 97.302 379.665 96.9531 380.094 96.9531C380.523 96.9531 380.872 97.302 380.872 97.731Z" fill="#F5F5F5" fill-opacity="0.12"/>
<path d="M281.968 37.8081C283.098 37.8081 284.014 36.8929 284.014 35.7639C284.014 34.6349 283.098 33.7197 281.968 33.7197C280.839 33.7197 279.923 34.6349 279.923 35.7639C279.923 36.8929 280.839 37.8081 281.968 37.8081Z" fill="#F5F5F5" fill-opacity="0.12"/>
<path d="M238.81 22.2536C239.863 22.2536 240.716 21.4009 240.716 20.349C240.716 19.2971 239.863 18.4443 238.81 18.4443C237.758 18.4443 236.904 19.2971 236.904 20.349C236.904 21.4009 237.758 22.2536 238.81 22.2536Z" fill="#F5F5F5" fill-opacity="0.12"/>
<path d="M211.602 13.281C211.602 13.772 211.204 14.1674 210.715 14.1674C210.224 14.1674 209.828 13.7694 209.828 13.281C209.828 12.7899 210.226 12.3945 210.715 12.3945C211.206 12.3945 211.602 12.7925 211.602 13.281Z" fill="#F5F5F5" fill-opacity="0.12"/>
<path d="M173.952 9.39894C174.144 9.39894 174.301 9.24274 174.301 9.05005C174.301 8.85737 174.144 8.70117 173.952 8.70117C173.759 8.70117 173.603 8.85737 173.603 9.05005C173.603 9.24274 173.759 9.39894 173.952 9.39894Z" fill="#F5F5F5" fill-opacity="0.12"/>
<path d="M135.536 6.18414C135.914 6.18414 136.221 5.87753 136.221 5.4993C136.221 5.12107 135.914 4.81445 135.536 4.81445C135.157 4.81445 134.851 5.12107 134.851 5.4993C134.851 5.87753 135.157 6.18414 135.536 6.18414Z" fill="#F5F5F5" fill-opacity="0.12"/>
<path d="M23.2313 26.7914C23.2313 27.5822 22.59 28.2206 21.8012 28.2206C21.0125 28.2206 20.3711 27.5796 20.3711 26.7914C20.3711 26.0006 21.0125 25.3623 21.8012 25.3623C22.59 25.3623 23.2313 26.0006 23.2313 26.7914Z" fill="#F5F5F5" fill-opacity="0.12"/>
<path d="M40.5217 718.953C40.5217 719.369 40.1855 719.705 39.7691 719.705C39.3528 719.705 39.0166 719.369 39.0166 718.953C39.0166 718.537 39.3528 718.201 39.7691 718.201C40.1855 718.201 40.5217 718.537 40.5217 718.953Z" fill="#F5F5F5" fill-opacity="0.12"/>
<path d="M143.149 721.357C143.864 721.357 144.443 720.778 144.443 720.065C144.443 719.351 143.864 718.772 143.149 718.772C142.435 718.772 141.856 719.351 141.856 720.065C141.856 720.778 142.435 721.357 143.149 721.357Z" fill="#F5F5F5" fill-opacity="0.12"/>
<path d="M193.515 728.716C193.736 727.355 192.811 726.073 191.449 725.852C190.087 725.631 188.804 726.556 188.583 727.917C188.362 729.278 189.287 730.56 190.648 730.781C192.01 731.002 193.294 730.077 193.515 728.716Z" fill="#F5F5F5" fill-opacity="0.12"/>
<path d="M112.603 738.37C112.603 739.251 111.886 739.967 111.004 739.967C110.123 739.967 109.406 739.251 109.406 738.37C109.406 737.488 110.123 736.772 111.004 736.772C111.886 736.772 112.603 737.486 112.603 738.37Z" fill="#F5F5F5" fill-opacity="0.12"/>
<path d="M284.629 704.166C285.488 704.166 286.184 703.471 286.184 702.613C286.184 701.755 285.488 701.06 284.629 701.06C283.771 701.06 283.075 701.755 283.075 702.613C283.075 703.471 283.771 704.166 284.629 704.166Z" fill="#F5F5F5" fill-opacity="0.12"/>
<path d="M364.43 657.677C365.289 657.677 365.984 656.981 365.984 656.123C365.984 655.266 365.289 654.57 364.43 654.57C363.572 654.57 362.876 655.266 362.876 656.123C362.876 656.981 363.572 657.677 364.43 657.677Z" fill="#F5F5F5" fill-opacity="0.12"/>
<path d="M398.76 623.595C399.121 623.595 399.414 623.302 399.414 622.941C399.414 622.58 399.121 622.287 398.76 622.287C398.398 622.287 398.105 622.58 398.105 622.941C398.105 623.302 398.398 623.595 398.76 623.595Z" fill="#F5F5F5" fill-opacity="0.12"/>
<path d="M408.475 614.188C409.004 614.188 409.432 613.76 409.432 613.232C409.432 612.703 409.004 612.275 408.475 612.275C407.947 612.275 407.519 612.703 407.519 613.232C407.519 613.76 407.947 614.188 408.475 614.188Z" fill="#F5F5F5" fill-opacity="0.12"/>
<path d="M440.087 575.673C441.156 575.231 441.664 574.006 441.221 572.938C440.778 571.87 439.553 571.363 438.484 571.805C437.415 572.248 436.908 573.472 437.35 574.54C437.793 575.609 439.019 576.116 440.087 575.673Z" fill="#F5F5F5" fill-opacity="0.12"/>
<path d="M486.088 477.395C486.392 477.395 486.639 477.148 486.639 476.844C486.639 476.54 486.392 476.294 486.088 476.294C485.784 476.294 485.537 476.54 485.537 476.844C485.537 477.148 485.784 477.395 486.088 477.395Z" fill="#F5F5F5" fill-opacity="0.12"/>
<path d="M157.89 503.401C157.89 504.096 157.326 504.66 156.631 504.66C155.935 504.66 155.371 504.096 155.371 503.401C155.371 502.706 155.935 502.143 156.631 502.143C157.326 502.143 157.89 502.706 157.89 503.401Z" fill="#F5F5F5" fill-opacity="0.12"/>
<path d="M52.5576 543.5C52.5576 544.025 52.1309 544.451 51.6059 544.451C51.081 544.451 50.6543 544.025 50.6543 543.5C50.6543 542.975 51.081 542.549 51.6059 542.549C52.1309 542.549 52.5576 542.975 52.5576 543.5Z" fill="#F5F5F5" fill-opacity="0.12"/>
<path d="M59.4542 448.1C59.4542 448.712 58.9577 449.209 58.3448 449.209C57.7319 449.209 57.2354 448.712 57.2354 448.1C57.2354 447.487 57.7319 446.991 58.3448 446.991C58.9551 446.991 59.4542 447.487 59.4542 448.1Z" fill="#F5F5F5" fill-opacity="0.12"/>
<path d="M444.293 340.178C444.293 340.971 443.649 341.615 442.855 341.615C442.061 341.615 441.417 340.971 441.417 340.178C441.417 339.385 442.061 338.741 442.855 338.741C443.649 338.744 444.293 339.385 444.293 340.178Z" fill="#F5F5F5" fill-opacity="0.12"/>
<path d="M126.511 434.144C126.511 435.041 125.782 435.77 124.884 435.77C123.987 435.77 123.258 435.041 123.258 434.144C123.258 433.247 123.987 432.519 124.884 432.519C125.782 432.519 126.511 433.245 126.511 434.144Z" fill="#F5F5F5" fill-opacity="0.12"/>
<path d="M233.783 416.119C234.616 416.119 235.291 415.444 235.291 414.612C235.291 413.78 234.616 413.105 233.783 413.105C232.95 413.105 232.275 413.78 232.275 414.612C232.275 415.444 232.95 416.119 233.783 416.119Z" fill="#F5F5F5" fill-opacity="0.12"/>
<path d="M181.516 372.523C182.195 372.523 182.745 371.974 182.745 371.296C182.745 370.618 182.195 370.068 181.516 370.068C180.838 370.068 180.288 370.618 180.288 371.296C180.288 371.974 180.838 372.523 181.516 372.523Z" fill="#F5F5F5" fill-opacity="0.12"/>
<path d="M239.413 383.342C239.413 384.164 238.746 384.831 237.923 384.831C237.101 384.831 236.434 384.164 236.434 383.342C236.434 382.52 237.101 381.854 237.923 381.854C238.746 381.851 239.413 382.52 239.413 383.342Z" fill="#F5F5F5" fill-opacity="0.12"/>
<path d="M73.7318 321.72C74.5519 320.901 74.5519 319.572 73.7318 318.753C72.9118 317.933 71.5822 317.933 70.7622 318.753C69.9421 319.572 69.9421 320.901 70.7622 321.72C71.5822 322.54 72.9118 322.54 73.7318 321.72Z" fill="#F5F5F5" fill-opacity="0.12"/>
<path d="M180.921 284.797C180.921 284.996 180.761 285.156 180.562 285.156C180.363 285.156 180.202 284.996 180.202 284.797C180.202 284.598 180.363 284.438 180.562 284.438C180.761 284.438 180.921 284.6 180.921 284.797Z" fill="#F5F5F5" fill-opacity="0.12"/>
<path d="M147.295 262.328C147.295 262.902 146.829 263.365 146.258 263.365C145.684 263.365 145.221 262.899 145.221 262.328C145.221 261.755 145.686 261.292 146.258 261.292C146.829 261.292 147.295 261.757 147.295 262.328Z" fill="#F5F5F5" fill-opacity="0.12"/>
<path d="M192.828 267.053C193.826 266.64 194.299 265.497 193.886 264.5C193.473 263.503 192.329 263.03 191.332 263.443C190.334 263.856 189.86 264.999 190.274 265.996C190.687 266.992 191.83 267.466 192.828 267.053Z" fill="#F5F5F5" fill-opacity="0.12"/>
<path d="M22.0752 92.6762C22.0752 93.4851 21.4183 94.1415 20.6089 94.1415C19.7994 94.1415 19.1426 93.4851 19.1426 92.6762C19.1426 91.8673 19.7994 91.2109 20.6089 91.2109C21.4183 91.2109 22.0752 91.8673 22.0752 92.6762Z" fill="#F5F5F5" fill-opacity="0.12"/>
<path d="M9.30295 82.223C9.30295 83.2025 8.50904 83.9959 7.52892 83.9959C6.54881 83.9959 5.75488 83.2025 5.75488 82.223C5.75488 81.2436 6.54881 80.4502 7.52892 80.4502C8.50904 80.4502 9.30295 81.2436 9.30295 82.223Z" fill="#F5F5F5" fill-opacity="0.12"/>
<path d="M132.212 211.909C133.197 211.909 133.994 211.112 133.994 210.128C133.994 209.145 133.197 208.348 132.212 208.348C131.228 208.348 130.431 209.145 130.431 210.128C130.431 211.112 131.228 211.909 132.212 211.909Z" fill="#F5F5F5" fill-opacity="0.12"/>
<path d="M333.38 628.019C333.921 628.019 334.36 627.581 334.36 627.04C334.36 626.499 333.921 626.061 333.38 626.061C332.838 626.061 332.399 626.499 332.399 627.04C332.399 627.581 332.838 628.019 333.38 628.019Z" fill="#F5F5F5" fill-opacity="0.12"/>
<path d="M399.944 514.372C400.445 514.372 400.852 513.966 400.852 513.465C400.852 512.964 400.445 512.558 399.944 512.558C399.443 512.558 399.036 512.964 399.036 513.465C399.036 513.966 399.443 514.372 399.944 514.372Z" fill="#F5F5F5" fill-opacity="0.12"/>
<path d="M424.267 510.954C424.528 509.849 423.843 508.741 422.737 508.48C421.63 508.218 420.521 508.903 420.26 510.009C419.999 511.114 420.684 512.222 421.79 512.483C422.897 512.745 424.006 512.06 424.267 510.954Z" fill="#F5F5F5" fill-opacity="0.12"/>
<path d="M348.632 470.439C348.632 471.222 347.999 471.855 347.215 471.855C346.431 471.855 345.798 471.222 345.798 470.439C345.798 469.656 346.431 469.022 347.215 469.022C347.999 469.022 348.632 469.656 348.632 470.439Z" fill="#F5F5F5" fill-opacity="0.12"/>
<path d="M219.312 427.263C219.559 426.217 218.911 425.169 217.864 424.922C216.818 424.675 215.769 425.323 215.522 426.369C215.275 427.415 215.923 428.463 216.969 428.71C218.016 428.957 219.065 428.309 219.312 427.263Z" fill="#F5F5F5" fill-opacity="0.12"/>
<path d="M321.941 441.887C322.851 441.887 323.589 441.15 323.589 440.241C323.589 439.332 322.851 438.595 321.941 438.595C321.032 438.595 320.294 439.332 320.294 440.241C320.294 441.15 321.032 441.887 321.941 441.887Z" fill="#F5F5F5" fill-opacity="0.12"/>
<path d="M438.875 405.133C438.875 405.792 438.339 406.327 437.682 406.327C437.025 406.327 436.49 405.792 436.49 405.133C436.49 404.474 437.025 403.941 437.682 403.941C438.339 403.941 438.875 404.474 438.875 405.133Z" fill="#F5F5F5" fill-opacity="0.12"/>
<path d="M207.384 397.53C207.654 397.53 207.873 397.311 207.873 397.041C207.873 396.771 207.654 396.553 207.384 396.553C207.114 396.553 206.896 396.771 206.896 397.041C206.896 397.311 207.114 397.53 207.384 397.53Z" fill="#F5F5F5" fill-opacity="0.12"/>
<path d="M380.216 340.486C381.231 340.486 382.054 339.664 382.054 338.649C382.054 337.634 381.231 336.812 380.216 336.812C379.2 336.812 378.377 337.634 378.377 338.649C378.377 339.664 379.2 340.486 380.216 340.486Z" fill="#F5F5F5" fill-opacity="0.12"/>
<path d="M295.152 333.7C295.152 334.118 294.813 334.457 294.394 334.457C293.975 334.457 293.637 334.118 293.637 333.7C293.637 333.281 293.975 332.942 294.394 332.942C294.813 332.942 295.152 333.281 295.152 333.7Z" fill="#F5F5F5" fill-opacity="0.12"/>
<path d="M413.529 227.802C414.35 227.802 415.016 227.137 415.016 226.316C415.016 225.495 414.35 224.83 413.529 224.83C412.708 224.83 412.042 225.495 412.042 226.316C412.042 227.137 412.708 227.802 413.529 227.802Z" fill="#F5F5F5" fill-opacity="0.12"/>
<path d="M355.932 273.818C356.712 273.818 357.344 273.186 357.344 272.407C357.344 271.628 356.712 270.996 355.932 270.996C355.153 270.996 354.521 271.628 354.521 272.407C354.521 273.186 355.153 273.818 355.932 273.818Z" fill="#F5F5F5" fill-opacity="0.12"/>
<path d="M290.081 273.072C290.081 273.519 289.719 273.88 289.271 273.88C288.824 273.88 288.462 273.519 288.462 273.072C288.462 272.625 288.824 272.263 289.271 272.263C289.719 272.263 290.081 272.625 290.081 273.072Z" fill="#F5F5F5" fill-opacity="0.12"/>
<path d="M279.108 290.606C280.05 290.606 280.813 289.844 280.813 288.903C280.813 287.963 280.05 287.2 279.108 287.2C278.167 287.2 277.404 287.963 277.404 288.903C277.404 289.844 278.167 290.606 279.108 290.606Z" fill="#F5F5F5" fill-opacity="0.12"/>
<path d="M347.422 184.102C348.793 184.102 349.905 182.991 349.905 181.621C349.905 180.25 348.793 179.14 347.422 179.14C346.051 179.14 344.939 180.25 344.939 181.621C344.939 182.991 346.051 184.102 347.422 184.102Z" fill="#F5F5F5" fill-opacity="0.12"/>
<path d="M251.039 167.384C251.039 167.844 250.667 168.216 250.207 168.216C249.746 168.216 249.374 167.844 249.374 167.384C249.374 166.924 249.746 166.552 250.207 166.552C250.667 166.552 251.039 166.926 251.039 167.384Z" fill="#F5F5F5" fill-opacity="0.12"/>
<path d="M237.355 175.069C237.355 175.531 236.98 175.906 236.517 175.906C236.054 175.906 235.679 175.531 235.679 175.069C235.679 174.606 236.054 174.231 236.517 174.231C236.98 174.229 237.355 174.604 237.355 175.069Z" fill="#F5F5F5" fill-opacity="0.12"/>
<path d="M197.798 19.2192C197.798 19.5836 197.5 19.8808 197.136 19.8808C196.771 19.8808 196.474 19.5836 196.474 19.2192C196.474 18.8548 196.771 18.5576 197.136 18.5576C197.5 18.5576 197.798 18.8522 197.798 19.2192Z" fill="#F5F5F5" fill-opacity="0.12"/>
<path d="M177.544 8.65475C177.544 9.13802 177.154 9.52825 176.67 9.52825C176.186 9.52825 175.796 9.13802 175.796 8.65475C175.796 8.17148 176.186 7.78125 176.67 7.78125C177.154 7.78125 177.544 8.17148 177.544 8.65475Z" fill="#F5F5F5" fill-opacity="0.12"/>
<path d="M166.14 118.192C166.663 118.192 167.086 117.768 167.086 117.246C167.086 116.723 166.663 116.3 166.14 116.3C165.617 116.3 165.193 116.723 165.193 117.246C165.193 117.768 165.617 118.192 166.14 118.192Z" fill="#F5F5F5" fill-opacity="0.12"/>
<path d="M139.201 77.3947C139.933 77.3947 140.527 76.8011 140.527 76.0689C140.527 75.3367 139.933 74.7432 139.201 74.7432C138.468 74.7432 137.874 75.3367 137.874 76.0689C137.874 76.8011 138.468 77.3947 139.201 77.3947Z" fill="#F5F5F5" fill-opacity="0.12"/>
<path d="M128.305 115.614C128.466 115.614 128.597 115.484 128.597 115.322C128.597 115.161 128.466 115.03 128.305 115.03C128.144 115.03 128.013 115.161 128.013 115.322C128.013 115.484 128.144 115.614 128.305 115.614Z" fill="#F5F5F5" fill-opacity="0.12"/>
<path d="M97.2233 61.6698C98.1988 61.6698 98.9896 60.8796 98.9896 59.9047C98.9896 58.9299 98.1988 58.1396 97.2233 58.1396C96.2478 58.1396 95.457 58.9299 95.457 59.9047C95.457 60.8796 96.2478 61.6698 97.2233 61.6698Z" fill="#F5F5F5" fill-opacity="0.12"/>
<path d="M58.9939 130.244C60.2736 130.244 61.311 129.208 61.311 127.929C61.311 126.65 60.2736 125.613 58.9939 125.613C57.7142 125.613 56.6768 126.65 56.6768 127.929C56.6768 129.208 57.7142 130.244 58.9939 130.244Z" fill="#F5F5F5" fill-opacity="0.12"/>
<path d="M47.7426 579.008C47.7426 579.636 47.2331 580.145 46.6047 580.145C45.9763 580.145 45.4668 579.636 45.4668 579.008C45.4668 578.38 45.9763 577.871 46.6047 577.871C47.2331 577.871 47.7426 578.38 47.7426 579.008Z" fill="#F5F5F5" fill-opacity="0.12"/>
<path d="M214.341 640.194C215.1 640.194 215.716 639.578 215.716 638.819C215.716 638.06 215.1 637.444 214.341 637.444C213.581 637.444 212.965 638.06 212.965 638.819C212.965 639.578 213.581 640.194 214.341 640.194Z" fill="#F5F5F5" fill-opacity="0.12"/>
<path d="M91.4598 676.351C92.1668 676.351 92.7399 675.779 92.7399 675.072C92.7399 674.366 92.1668 673.793 91.4598 673.793C90.7528 673.793 90.1797 674.366 90.1797 675.072C90.1797 675.779 90.7528 676.351 91.4598 676.351Z" fill="#F5F5F5" fill-opacity="0.12"/>
<path d="M281.053 600.825C281.686 600.825 282.198 600.312 282.198 599.68C282.198 599.048 281.686 598.535 281.053 598.535C280.42 598.535 279.907 599.048 279.907 599.68C279.907 600.312 280.42 600.825 281.053 600.825Z" fill="#F5F5F5" fill-opacity="0.12"/>
<path d="M250.939 567.453C250.939 568.309 250.246 569.001 249.39 569.001C248.534 569.001 247.841 568.309 247.841 567.453C247.841 566.598 248.534 565.905 249.39 565.905C250.246 565.905 250.939 566.598 250.939 567.453Z" fill="#F5F5F5" fill-opacity="0.12"/>
<path d="M297.754 583.275C297.754 583.996 297.169 584.58 296.448 584.58C295.726 584.58 295.142 583.996 295.142 583.275C295.142 582.554 295.726 581.97 296.448 581.97C297.169 581.97 297.754 582.554 297.754 583.275Z" fill="#F5F5F5" fill-opacity="0.12"/>
<path d="M25.9571 704.97C26.5455 704.97 27.0225 704.494 27.0225 703.906C27.0225 703.318 26.5455 702.841 25.9571 702.841C25.3686 702.841 24.8916 703.318 24.8916 703.906C24.8916 704.494 25.3686 704.97 25.9571 704.97Z" fill="#F5F5F5" fill-opacity="0.12"/>
<path d="M8.81694 756.532C8.81694 756.791 8.60749 757 8.3489 757C8.09031 757 7.88086 756.791 7.88086 756.532C7.88086 756.274 8.09031 756.064 8.3489 756.064C8.60749 756.064 8.81694 756.274 8.81694 756.532Z" fill="#F5F5F5" fill-opacity="0.12"/>
<path d="M-0.849381 717.054C0.0304139 717.054 0.743637 716.341 0.743637 715.462C0.743637 714.583 0.0304139 713.87 -0.849381 713.87C-1.72918 713.87 -2.44238 714.583 -2.44238 715.462C-2.44238 716.341 -1.72918 717.054 -0.849381 717.054Z" fill="#F5F5F5" fill-opacity="0.12"/>
<path d="M31.4189 583.159C32.373 583.159 33.1464 582.386 33.1464 581.432C33.1464 580.479 32.373 579.706 31.4189 579.706C30.4648 579.706 29.6914 580.479 29.6914 581.432C29.6914 582.386 30.4648 583.159 31.4189 583.159Z" fill="#F5F5F5" fill-opacity="0.12"/>
<path d="M328.305 7.88454C328.305 8.22825 328.026 8.50736 327.682 8.50736C327.338 8.50736 327.059 8.22825 327.059 7.88454C327.059 7.54082 327.338 7.26172 327.682 7.26172C328.026 7.26172 328.305 7.54082 328.305 7.88454Z" fill="#F5F5F5" fill-opacity="0.12"/>
<path d="M322.632 24.5793C322.632 25.1995 322.127 25.7034 321.507 25.7034C320.886 25.7034 320.382 25.1995 320.382 24.5793C320.382 23.959 320.886 23.4551 321.507 23.4551C322.127 23.4551 322.632 23.959 322.632 24.5793Z" fill="#F5F5F5" fill-opacity="0.12"/>
<path d="M340.591 74.1102C340.591 74.4978 340.276 74.8131 339.888 74.8131C339.5 74.8131 339.185 74.4978 339.185 74.1102C339.185 73.7225 339.5 73.4072 339.888 73.4072C340.276 73.4072 340.591 73.7225 340.591 74.1102Z" fill="#F5F5F5" fill-opacity="0.12"/>
<path d="M360.572 58.0386C361.795 58.0386 362.786 57.0482 362.786 55.8264C362.786 54.6047 361.795 53.6143 360.572 53.6143C359.35 53.6143 358.358 54.6047 358.358 55.8264C358.358 57.0482 359.35 58.0386 360.572 58.0386Z" fill="#F5F5F5" fill-opacity="0.12"/>
<path d="M350.432 39.3199C350.432 40.2425 349.685 40.9893 348.761 40.9893C347.838 40.9893 347.091 40.2425 347.091 39.3199C347.091 38.3973 347.838 37.6504 348.761 37.6504C349.682 37.6504 350.432 38.3973 350.432 39.3199Z" fill="#F5F5F5" fill-opacity="0.12"/>
<path d="M361.458 2.84275C362.244 2.84275 362.881 2.20638 362.881 1.42137C362.881 0.63637 362.244 0 361.458 0C360.673 0 360.036 0.63637 360.036 1.42137C360.036 2.20638 360.673 2.84275 361.458 2.84275Z" fill="#F5F5F5" fill-opacity="0.12"/>
<path d="M326.41 4.69604C326.41 5.67291 325.616 6.46629 324.639 6.46629C323.661 6.46629 322.867 5.67291 322.867 4.69604C322.867 3.71917 323.661 2.92578 324.639 2.92578C325.616 2.92578 326.41 3.71658 326.41 4.69604Z" fill="#F5F5F5" fill-opacity="0.12"/>
<path d="M471.014 291.533C471.27 290.45 470.598 289.364 469.514 289.108C468.43 288.852 467.344 289.523 467.088 290.607C466.832 291.69 467.503 292.776 468.587 293.032C469.671 293.287 470.758 292.616 471.014 291.533Z" fill="#F5F5F5" fill-opacity="0.12"/>
<path d="M499.019 413.565C499.753 413.565 500.348 412.97 500.348 412.237C500.348 411.503 499.753 410.908 499.019 410.908C498.285 410.908 497.689 411.503 497.689 412.237C497.689 412.97 498.285 413.565 499.019 413.565Z" fill="#F5F5F5" fill-opacity="0.12"/>
<path d="M511.907 334.416C512.403 334.416 512.805 334.014 512.805 333.519C512.805 333.024 512.403 332.622 511.907 332.622C511.412 332.622 511.01 333.024 511.01 333.519C511.01 334.014 511.412 334.416 511.907 334.416Z" fill="#F5F5F5" fill-opacity="0.12"/>
<path d="M507.77 329.278C507.77 329.611 507.498 329.882 507.165 329.882C506.831 329.882 506.56 329.611 506.56 329.278C506.56 328.944 506.831 328.673 507.165 328.673C507.498 328.673 507.77 328.944 507.77 329.278Z" fill="#F5F5F5" fill-opacity="0.12"/>
<path d="M521 327.242C521 327.72 520.612 328.107 520.134 328.107C519.655 328.107 519.268 327.72 519.268 327.242C519.268 326.764 519.655 326.376 520.134 326.376C520.612 326.376 521 326.764 521 327.242Z" fill="#F5F5F5" fill-opacity="0.12"/>
<path d="M517.093 317.682C517.093 318.005 516.831 318.266 516.508 318.266C516.185 318.266 515.924 318.005 515.924 317.682C515.924 317.359 516.185 317.098 516.508 317.098C516.831 317.098 517.093 317.359 517.093 317.682Z" fill="#F5F5F5" fill-opacity="0.12"/>
<path d="M88.1953 192.169C88.1953 193.156 87.3937 193.958 86.4058 193.958C85.4179 193.958 84.6162 193.156 84.6162 192.169C84.6162 191.182 85.4179 190.381 86.4058 190.381C87.3937 190.381 88.1953 191.182 88.1953 192.169Z" fill="#F5F5F5" fill-opacity="0.12"/>
<path d="M103.762 139.754C104.671 139.754 105.409 139.017 105.409 138.108C105.409 137.199 104.671 136.462 103.762 136.462C102.852 136.462 102.114 137.199 102.114 138.108C102.114 139.017 102.852 139.754 103.762 139.754Z" fill="#F5F5F5" fill-opacity="0.12"/>
<path d="M25.1085 246.249C26.5853 246.249 27.7825 245.052 27.7825 243.576C27.7825 242.101 26.5853 240.904 25.1085 240.904C23.6317 240.904 22.4346 242.101 22.4346 243.576C22.4346 245.052 23.6317 246.249 25.1085 246.249Z" fill="#F5F5F5" fill-opacity="0.12"/>
<path d="M444.05 161.613C444.05 162.272 443.514 162.807 442.855 162.807C442.195 162.807 441.66 162.272 441.66 161.613C441.66 160.954 442.195 160.419 442.855 160.419C443.514 160.419 444.05 160.954 444.05 161.613Z" fill="#F5F5F5" fill-opacity="0.12"/>
<path d="M280.466 230.304C280.977 230.304 281.392 229.889 281.392 229.378C281.392 228.867 280.977 228.453 280.466 228.453C279.955 228.453 279.54 228.867 279.54 229.378C279.54 229.889 279.955 230.304 280.466 230.304Z" fill="#F5F5F5" fill-opacity="0.12"/>
<path d="M247.15 234.452C247.15 234.977 246.724 235.403 246.199 235.403C245.674 235.403 245.247 234.977 245.247 234.452C245.247 233.927 245.674 233.501 246.199 233.501C246.724 233.498 247.15 233.925 247.15 234.452Z" fill="#F5F5F5" fill-opacity="0.12"/>
<path d="M199.435 625.732C199.435 626.003 199.215 626.225 198.941 626.225C198.667 626.225 198.447 626.006 198.447 625.732C198.447 625.461 198.667 625.238 198.941 625.238C199.215 625.238 199.435 625.461 199.435 625.732Z" fill="#F5F5F5" fill-opacity="0.12"/>
<path d="M185.159 611.878C185.159 612.563 184.603 613.119 183.918 613.119C183.233 613.119 182.677 612.563 182.677 611.878C182.677 611.193 183.233 610.638 183.918 610.638C184.603 610.64 185.159 611.196 185.159 611.878Z" fill="#F5F5F5" fill-opacity="0.12"/>
<path d="M310.754 116.411C311.542 116.411 312.181 115.772 312.181 114.984C312.181 114.196 311.542 113.558 310.754 113.558C309.965 113.558 309.326 114.196 309.326 114.984C309.326 115.772 309.965 116.411 310.754 116.411Z" fill="#F5F5F5" fill-opacity="0.12"/>
<path d="M417.175 107.35C417.884 107.534 418.31 108.257 418.127 108.968C417.943 109.676 417.219 110.102 416.508 109.919C415.799 109.736 415.373 109.012 415.556 108.301C415.742 107.593 416.467 107.167 417.175 107.35Z" fill="#F5F5F5" fill-opacity="0.12"/>
<path d="M442.643 115.62C443.638 115.878 444.236 116.891 443.977 117.886C443.718 118.881 442.705 119.478 441.709 119.22C440.713 118.961 440.116 117.948 440.375 116.953C440.633 115.961 441.647 115.364 442.643 115.62Z" fill="#F5F5F5" fill-opacity="0.12"/>
<path d="M424.09 97.051C424.783 97.2293 425.199 97.9374 425.021 98.63C424.843 99.3226 424.134 99.7413 423.441 99.5604C422.748 99.3821 422.332 98.674 422.51 97.9814C422.688 97.2888 423.394 96.8727 424.09 97.051Z" fill="#F5F5F5" fill-opacity="0.12"/>
<path d="M448.463 100.248C448.714 100.313 448.864 100.569 448.8 100.82C448.735 101.07 448.479 101.22 448.228 101.156C447.977 101.091 447.827 100.835 447.892 100.584C447.959 100.334 448.215 100.184 448.463 100.248Z" fill="#F5F5F5" fill-opacity="0.12"/>
<path d="M225.425 158.933C226.095 158.933 226.638 158.39 226.638 157.721C226.638 157.051 226.095 156.509 225.425 156.509C224.755 156.509 224.212 157.051 224.212 157.721C224.212 158.39 224.755 158.933 225.425 158.933Z" fill="#F5F5F5" fill-opacity="0.12"/>
<path d="M23.5162 608.007C23.5162 608.498 23.118 608.893 22.6292 608.893C22.1379 608.893 21.7422 608.495 21.7422 608.007C21.7422 607.516 22.1405 607.12 22.6292 607.12C23.118 607.118 23.5162 607.516 23.5162 608.007Z" fill="#F5F5F5" fill-opacity="0.12"/>
<path d="M9.5741 615.689C9.5741 616.041 9.28962 616.325 8.93792 616.325C8.58621 616.325 8.30176 616.041 8.30176 615.689C8.30176 615.338 8.58621 615.054 8.93792 615.054C9.28962 615.051 9.5741 615.338 9.5741 615.689Z" fill="#F5F5F5" fill-opacity="0.12"/>
<path d="M284.629 702.613L364.43 656.124L281.053 599.68L284.629 702.613Z" stroke="#F5F5F5" stroke-opacity="0.12" stroke-miterlimit="10" stroke-linecap="round" stroke-linejoin="round"/>
<path d="M422.257 510.426L439.263 573.739L408.476 613.232L422.257 510.426Z" stroke="#F5F5F5" stroke-opacity="0.12" stroke-miterlimit="10" stroke-linecap="round" stroke-linejoin="round"/>
<path d="M499.019 412.237L486.088 476.845L437.683 405.133L499.019 412.237Z" stroke="#F5F5F5" stroke-opacity="0.12" stroke-miterlimit="10" stroke-linecap="round" stroke-linejoin="round"/>
<path d="M238.81 20.3486L281.968 35.7641L310.754 114.984L238.81 20.3486Z" stroke="#F5F5F5" stroke-opacity="0.12" stroke-miterlimit="10" stroke-linecap="round" stroke-linejoin="round"/>
<path d="M21.8018 26.7912L135.536 5.49902L97.2239 59.904L21.8018 26.7912Z" stroke="#F5F5F5" stroke-opacity="0.12" stroke-miterlimit="10" stroke-linecap="round" stroke-linejoin="round"/>
<path d="M380.094 97.7314L442.855 161.613L347.422 181.621L380.094 97.7314Z" stroke="#F5F5F5" stroke-opacity="0.12" stroke-miterlimit="10" stroke-linecap="round" stroke-linejoin="round"/>
<path d="M470.846 219.835L494.428 285.771L469.033 291.022L470.846 219.835Z" stroke="#F5F5F5" stroke-opacity="0.12" stroke-miterlimit="10" stroke-linecap="round" stroke-linejoin="round"/>
<path d="M296.448 583.274L439.263 573.738L408.476 613.232L296.448 583.274Z" stroke="#F5F5F5" stroke-opacity="0.12" stroke-miterlimit="10" stroke-linecap="round" stroke-linejoin="round"/>
<path d="M249.393 567.453L296.448 583.274L281.054 599.68L249.393 567.453Z" stroke="#F5F5F5" stroke-opacity="0.12" stroke-miterlimit="10" stroke-linecap="round" stroke-linejoin="round"/>
<path d="M360.572 55.8263L339.889 74.1104L348.759 39.3203L360.572 55.8263Z" stroke="#F5F5F5" stroke-opacity="0.12" stroke-miterlimit="10" stroke-linecap="round" stroke-linejoin="round"/>
<path d="M324.639 4.69523L361.459 1.4209L321.507 24.5789L324.639 4.69523Z" stroke="#F5F5F5" stroke-opacity="0.12" stroke-miterlimit="10" stroke-linecap="round" stroke-linejoin="round"/>
<path d="M348.759 39.32L324.639 4.69531L321.507 24.579L348.759 39.32Z" stroke="#F5F5F5" stroke-opacity="0.12" stroke-miterlimit="10" stroke-linecap="round" stroke-linejoin="round"/>
<path d="M442.177 117.421L416.844 108.634L448.347 100.7L442.177 117.421Z" stroke="#F5F5F5" stroke-opacity="0.12" stroke-miterlimit="10" stroke-linecap="round" stroke-linejoin="round"/>
<path d="M423.764 98.3076L416.844 108.635L442.177 117.421L423.764 98.3076Z" stroke="#F5F5F5" stroke-opacity="0.12" stroke-miterlimit="10" stroke-linecap="round" stroke-linejoin="round"/>
<path d="M7.52946 82.2227L-5.55078 110.353L20.6097 92.6762L7.52946 82.2227Z" stroke="#F5F5F5" stroke-opacity="0.12" stroke-miterlimit="10" stroke-linecap="round" stroke-linejoin="round"/>
<path d="M516.508 317.682L520.133 327.241L511.907 333.518L516.508 317.682Z" stroke="#F5F5F5" stroke-opacity="0.12" stroke-miterlimit="10" stroke-linecap="round" stroke-linejoin="round"/>
<path d="M507.165 329.278L511.908 333.519L520.134 327.241L507.165 329.278Z" stroke="#F5F5F5" stroke-opacity="0.12" stroke-miterlimit="10" stroke-linecap="round" stroke-linejoin="round"/>
<path d="M355.932 272.407L380.215 338.648L294.395 333.699L355.932 272.407Z" stroke="#F5F5F5" stroke-opacity="0.12" stroke-miterlimit="10" stroke-linecap="round" stroke-linejoin="round"/>
<path d="M422.257 510.426L499.019 412.237L486.088 476.845L422.257 510.426Z" stroke="#F5F5F5" stroke-opacity="0.12" stroke-miterlimit="10" stroke-linecap="round" stroke-linejoin="round"/>
<path d="M156.631 503.402L124.884 434.145L58.3428 448.1L156.631 503.402Z" stroke="#F5F5F5" stroke-opacity="0.12" stroke-miterlimit="10" stroke-linecap="round" stroke-linejoin="round"/>
<path d="M181.516 371.296L156.63 503.401L124.884 434.144L181.516 371.296Z" stroke="#F5F5F5" stroke-opacity="0.12" stroke-miterlimit="10" stroke-linecap="round" stroke-linejoin="round"/>
<path d="M347.215 470.438L321.942 440.24L217.416 426.773L347.215 470.438Z" stroke="#F5F5F5" stroke-opacity="0.12" stroke-miterlimit="10" stroke-linecap="round" stroke-linejoin="round"/>
<path d="M296.448 583.274L321.942 440.24L347.215 470.438L296.448 583.274Z" stroke="#F5F5F5" stroke-opacity="0.12" stroke-miterlimit="10" stroke-linecap="round" stroke-linejoin="round"/>
<path d="M437.683 405.132L380.215 338.648L321.941 440.24L437.683 405.132Z" stroke="#F5F5F5" stroke-opacity="0.12" stroke-miterlimit="10" stroke-linecap="round" stroke-linejoin="round"/>
<path d="M46.6016 579.008L31.4189 581.432L51.6057 543.499L46.6016 579.008Z" stroke="#F5F5F5" stroke-opacity="0.12" stroke-miterlimit="10" stroke-linecap="round" stroke-linejoin="round"/>
<path d="M39.7695 718.954L-0.849609 715.462L25.9574 703.905L39.7695 718.954Z" stroke="#F5F5F5" stroke-opacity="0.12" stroke-miterlimit="10" stroke-linecap="round" stroke-linejoin="round"/>
<path d="M22.6288 608.006L8.93824 615.689L-2.15332 598.341L22.6288 608.006Z" stroke="#F5F5F5" stroke-opacity="0.12" stroke-miterlimit="10" stroke-linecap="round" stroke-linejoin="round"/>
<path d="M249.392 567.453L198.94 625.732L214.34 638.819L249.392 567.453Z" stroke="#F5F5F5" stroke-opacity="0.12" stroke-miterlimit="10" stroke-linecap="round" stroke-linejoin="round"/>
<path d="M181.516 371.296L72.2503 320.235L-32.6787 381.789L181.516 371.296Z" stroke="#F5F5F5" stroke-opacity="0.12" stroke-miterlimit="10" stroke-linecap="round" stroke-linejoin="round"/>
<path d="M486.088 476.845L439.263 573.739L437.683 405.133L486.088 476.845Z" stroke="#F5F5F5" stroke-opacity="0.12" stroke-miterlimit="10" stroke-linecap="round" stroke-linejoin="round"/>
<path d="M237.923 383.342L233.782 414.612L207.384 397.041L237.923 383.342Z" stroke="#F5F5F5" stroke-opacity="0.12" stroke-miterlimit="10" stroke-linecap="round" stroke-linejoin="round"/>
<path d="M280.466 229.379L289.272 273.072L246.198 234.452L280.466 229.379Z" stroke="#F5F5F5" stroke-opacity="0.12" stroke-miterlimit="10" stroke-linecap="round" stroke-linejoin="round"/>
<path d="M225.425 157.721L236.516 175.069L250.207 167.383L225.425 157.721Z" stroke="#F5F5F5" stroke-opacity="0.12" stroke-miterlimit="10" stroke-linecap="round" stroke-linejoin="round"/>
<path d="M281.969 35.7646L310.754 114.984L250.207 167.384L281.969 35.7646Z" stroke="#F5F5F5" stroke-opacity="0.12" stroke-miterlimit="10" stroke-linecap="round" stroke-linejoin="round"/>
<path d="M58.9941 127.929L86.4063 192.17L103.761 138.108L58.9941 127.929Z" stroke="#F5F5F5" stroke-opacity="0.12" stroke-miterlimit="10" stroke-linecap="round" stroke-linejoin="round"/>
<path d="M176.67 8.65527L210.715 13.2812L197.136 19.22L176.67 8.65527Z" stroke="#F5F5F5" stroke-opacity="0.12" stroke-miterlimit="10" stroke-linecap="round" stroke-linejoin="round"/>
<path d="M146.258 262.328L192.067 265.248L180.564 284.796L146.258 262.328Z" stroke="#F5F5F5" stroke-opacity="0.12" stroke-miterlimit="10" stroke-linecap="round" stroke-linejoin="round"/>
<path d="M-35.0918 254.904L-4.68243 275.532L25.1089 243.577L-35.0918 254.904Z" stroke="#F5F5F5" stroke-opacity="0.12" stroke-miterlimit="10" stroke-linecap="round" stroke-linejoin="round"/>
<path d="M217.416 426.774L233.783 414.612L237.923 383.342L217.416 426.774Z" stroke="#F5F5F5" stroke-opacity="0.12" stroke-miterlimit="10" stroke-linecap="round" stroke-linejoin="round"/>
<path d="M-47.0059 280.964L25.1088 243.577L-35.0919 254.904L-47.0059 280.964Z" stroke="#F5F5F5" stroke-opacity="0.12" stroke-miterlimit="10" stroke-linecap="round" stroke-linejoin="round"/>
<path d="M-15.4297 190.472L-4.68206 275.532L25.1093 243.577L-15.4297 190.472Z" stroke="#F5F5F5" stroke-opacity="0.12" stroke-miterlimit="10" stroke-linecap="round" stroke-linejoin="round"/>
<path d="M103.761 138.108L-15.4297 190.472L58.9943 127.929L103.761 138.108Z" stroke="#F5F5F5" stroke-opacity="0.12" stroke-miterlimit="10" stroke-linecap="round" stroke-linejoin="round"/>
<path d="M139.201 76.0693L128.306 115.323L166.14 117.245L139.201 76.0693Z" stroke="#F5F5F5" stroke-opacity="0.12" stroke-miterlimit="10" stroke-linecap="round" stroke-linejoin="round"/>
<path d="M399.944 513.464L321.941 440.24L347.215 470.438L399.944 513.464Z" stroke="#F5F5F5" stroke-opacity="0.12" stroke-miterlimit="10" stroke-linecap="round" stroke-linejoin="round"/>
<path d="M439.263 573.739L422.257 510.426L399.944 513.465L439.263 573.739Z" stroke="#F5F5F5" stroke-opacity="0.12" stroke-miterlimit="10" stroke-linecap="round" stroke-linejoin="round"/>
<path d="M124.884 434.144L72.25 320.235L181.516 371.296L124.884 434.144Z" stroke="#F5F5F5" stroke-opacity="0.12" stroke-miterlimit="10" stroke-linecap="round" stroke-linejoin="round"/>
<path d="M207.384 397.041L124.884 434.144L181.516 371.296L207.384 397.041Z" stroke="#F5F5F5" stroke-opacity="0.12" stroke-miterlimit="10" stroke-linecap="round" stroke-linejoin="round"/>
<path d="M501.68 348.073L499.019 412.237L437.683 405.132L501.68 348.073Z" stroke="#F5F5F5" stroke-opacity="0.12" stroke-miterlimit="10" stroke-linecap="round" stroke-linejoin="round"/>
<path d="M470.846 219.835L380.094 97.7314L442.855 161.613L470.846 219.835Z" stroke="#F5F5F5" stroke-opacity="0.12" stroke-miterlimit="10" stroke-linecap="round" stroke-linejoin="round"/>
<path d="M284.63 702.614L408.476 613.232L364.43 656.124L284.63 702.614Z" stroke="#F5F5F5" stroke-opacity="0.12" stroke-miterlimit="10" stroke-linecap="round" stroke-linejoin="round"/>
<path d="M-108.637 462.06L-32.6792 381.789L72.2499 320.235L-108.637 462.06Z" stroke="#F5F5F5" stroke-opacity="0.12" stroke-miterlimit="10" stroke-linecap="round" stroke-linejoin="round"/>
<path d="M72.2501 320.236L-35.0918 254.904L25.1089 243.577L72.2501 320.236Z" stroke="#F5F5F5" stroke-opacity="0.12" stroke-miterlimit="10" stroke-linecap="round" stroke-linejoin="round"/>
<path d="M132.213 210.128L103.762 138.108L25.1094 243.577L132.213 210.128Z" stroke="#F5F5F5" stroke-opacity="0.12" stroke-miterlimit="10" stroke-linecap="round" stroke-linejoin="round"/>
<path d="M225.425 157.721L86.4062 192.17L103.761 138.108L225.425 157.721Z" stroke="#F5F5F5" stroke-opacity="0.12" stroke-miterlimit="10" stroke-linecap="round" stroke-linejoin="round"/>
<path d="M25.1094 243.577L86.4066 192.17L72.2506 320.236L25.1094 243.577Z" stroke="#F5F5F5" stroke-opacity="0.12" stroke-miterlimit="10" stroke-linecap="round" stroke-linejoin="round"/>
<path d="M25.1094 243.577L-90.7432 153.989L-15.4296 190.472L25.1094 243.577Z" stroke="#F5F5F5" stroke-opacity="0.12" stroke-miterlimit="10" stroke-linecap="round" stroke-linejoin="round"/>
<path d="M176.67 8.65447L135.536 5.49902L21.8018 26.7912L176.67 8.65447Z" stroke="#F5F5F5" stroke-opacity="0.12" stroke-miterlimit="10" stroke-linecap="round" stroke-linejoin="round"/>
<path d="M310.754 114.984L442.855 161.613L380.094 97.7314L310.754 114.984Z" stroke="#F5F5F5" stroke-opacity="0.12" stroke-miterlimit="10" stroke-linecap="round" stroke-linejoin="round"/>
<path d="M279.108 288.903L280.466 229.379L289.272 273.072L279.108 288.903Z" stroke="#F5F5F5" stroke-opacity="0.12" stroke-miterlimit="10" stroke-linecap="round" stroke-linejoin="round"/>
<path d="M347.422 181.62L280.466 229.378L279.108 288.903L347.422 181.62Z" stroke="#F5F5F5" stroke-opacity="0.12" stroke-miterlimit="10" stroke-linecap="round" stroke-linejoin="round"/>
<path d="M355.932 272.407L289.008 272.836L380.215 338.648L355.932 272.407Z" stroke="#F5F5F5" stroke-opacity="0.12" stroke-miterlimit="10" stroke-linecap="round" stroke-linejoin="round"/>
<path d="M284.63 702.613L191.033 728.309L143.149 720.065L284.63 702.613Z" stroke="#F5F5F5" stroke-opacity="0.12" stroke-miterlimit="10" stroke-linecap="round" stroke-linejoin="round"/>
<path d="M39.7696 718.954L-39.542 687.304L-0.849477 715.462L39.7696 718.954Z" stroke="#F5F5F5" stroke-opacity="0.12" stroke-miterlimit="10" stroke-linecap="round" stroke-linejoin="round"/>
<path d="M-26.6436 554.92L31.4185 581.432L46.6012 579.008L-26.6436 554.92Z" stroke="#F5F5F5" stroke-opacity="0.12" stroke-miterlimit="10" stroke-linecap="round" stroke-linejoin="round"/>
<path d="M51.6055 543.5L124.884 434.145L156.63 503.402L51.6055 543.5Z" stroke="#F5F5F5" stroke-opacity="0.12" stroke-miterlimit="10" stroke-linecap="round" stroke-linejoin="round"/>
<path d="M214.34 638.819L191.032 728.309L285.922 702.613L214.34 638.819Z" stroke="#F5F5F5" stroke-opacity="0.12" stroke-miterlimit="10" stroke-linecap="round" stroke-linejoin="round"/>
<path d="M91.4592 675.072L183.918 611.878L46.6016 579.008L91.4592 675.072Z" stroke="#F5F5F5" stroke-opacity="0.12" stroke-miterlimit="10" stroke-linecap="round" stroke-linejoin="round"/>
<path d="M-39.542 687.303L91.4596 675.072L8.93872 615.689L-39.542 687.303Z" stroke="#F5F5F5" stroke-opacity="0.12" stroke-miterlimit="10" stroke-linecap="round" stroke-linejoin="round"/>
<path d="M111.005 738.369L191.033 728.308L143.15 720.064L111.005 738.369Z" stroke="#F5F5F5" stroke-opacity="0.12" stroke-miterlimit="10" stroke-linecap="round" stroke-linejoin="round"/>
<path d="M413.529 226.316L442.855 161.612L470.847 219.834L413.529 226.316Z" stroke="#F5F5F5" stroke-opacity="0.12" stroke-miterlimit="10" stroke-linecap="round" stroke-linejoin="round"/>
<path d="M442.855 340.179L469.034 291.022L413.529 226.316L442.855 340.179Z" stroke="#F5F5F5" stroke-opacity="0.12" stroke-miterlimit="10" stroke-linecap="round" stroke-linejoin="round"/>
<path d="M437.683 405.133L442.855 340.179L486.088 476.845L437.683 405.133Z" stroke="#F5F5F5" stroke-opacity="0.12" stroke-miterlimit="10" stroke-linecap="round" stroke-linejoin="round"/>
<path d="M333.38 627.04L408.476 613.232L284.63 702.614L333.38 627.04Z" stroke="#F5F5F5" stroke-opacity="0.12" stroke-miterlimit="10" stroke-linecap="round" stroke-linejoin="round"/>
<path d="M217.415 426.774L124.884 434.145L233.783 414.612L217.415 426.774Z" stroke="#F5F5F5" stroke-opacity="0.12" stroke-miterlimit="10" stroke-linecap="round" stroke-linejoin="round"/>
<path d="M132.213 210.128L146.258 262.328L180.564 284.797L132.213 210.128Z" stroke="#F5F5F5" stroke-opacity="0.12" stroke-miterlimit="10" stroke-linecap="round" stroke-linejoin="round"/>
<path d="M192.067 265.249L246.199 234.452L280.466 229.379L192.067 265.249Z" stroke="#F5F5F5" stroke-opacity="0.12" stroke-miterlimit="10" stroke-linecap="round" stroke-linejoin="round"/>
<path d="M294.394 333.7L279.108 288.903L237.923 383.342L294.394 333.7Z" stroke="#F5F5F5" stroke-opacity="0.12" stroke-miterlimit="10" stroke-linecap="round" stroke-linejoin="round"/>
<path d="M180.564 284.797L279.109 288.903L294.395 333.7L180.564 284.797Z" stroke="#F5F5F5" stroke-opacity="0.12" stroke-miterlimit="10" stroke-linecap="round" stroke-linejoin="round"/>
<path d="M250.207 167.384L347.422 181.621L413.529 226.316L250.207 167.384Z" stroke="#F5F5F5" stroke-opacity="0.12" stroke-miterlimit="10" stroke-linecap="round" stroke-linejoin="round"/>
<path d="M250.207 167.384L413.529 226.316" stroke="#F5F5F5" stroke-opacity="0.12" stroke-width="2" stroke-miterlimit="10" stroke-linecap="round" stroke-linejoin="round"/>
<path d="M72.25 320.236L279.108 288.903" stroke="#F5F5F5" stroke-opacity="0.12" stroke-width="2" stroke-miterlimit="10" stroke-linecap="round" stroke-linejoin="round"/>
<path d="M21.8018 26.792L86.4065 192.17" stroke="#F5F5F5" stroke-opacity="0.12" stroke-width="2" stroke-miterlimit="10" stroke-linecap="round" stroke-linejoin="round"/>
<path d="M-32.6787 381.788L31.4192 581.432" stroke="#F5F5F5" stroke-opacity="0.12" stroke-width="3" stroke-miterlimit="10" stroke-linecap="round" stroke-linejoin="round"/>
<path d="M181.516 371.296L233.997 414.612" stroke="#F5F5F5" stroke-opacity="0.12" stroke-width="3" stroke-miterlimit="10" stroke-linecap="round" stroke-linejoin="round"/>
<path d="M347.215 470.439L380.099 337.812" stroke="#F5F5F5" stroke-opacity="0.12" stroke-width="3" stroke-miterlimit="10" stroke-linecap="round" stroke-linejoin="round"/>
</svg>
