<svg width="801" height="570" viewBox="0 0 801 570" fill="none" xmlns="http://www.w3.org/2000/svg">
<path d="M781.194 228.917L572.434 113.357C547.187 98.7613 506.365 98.8078 481.351 113.357L24.1238 377.852C-0.983202 392.448 -10.1891 423.174 15.0574 437.723L223.864 559.047C249.111 573.643 289.933 573.643 315.04 559.094L781.613 287.487C806.58 272.891 806.441 243.466 781.194 228.917Z" fill="url(#paint0_linear_2895_5448)"/>
<path opacity="0.51" d="M272.21 529.102C259.099 529.102 246.917 526.22 237.804 520.967L33.1351 411.497C25.51 407.081 21 401.271 21 395.6C21 389.928 25.2775 384.304 33.0886 379.748L479.25 124.83C488.596 119.484 498.592 115.765 508.96 113.766C515.144 112.558 521.095 112 526.861 112C543.227 112 559.221 116.555 575.773 125.945L760.775 227.931C768.493 232.394 773.003 238.251 773.003 243.922C773.003 249.593 768.725 255.218 760.914 259.726L306.43 520.967C297.41 526.22 285.275 529.102 272.21 529.102Z" fill="#222324"/>
<g opacity="0.44">
<path opacity="0.44" d="M452.557 406.043L239.147 282.86C233.521 279.606 224.455 279.606 218.922 282.814L199.115 294.342C193.582 297.549 193.629 302.802 199.255 306.056L412.664 429.239C418.29 432.493 427.357 432.493 432.89 429.285L452.696 417.757C458.229 414.55 458.183 409.297 452.557 406.043Z" fill="#222324"/>
<path opacity="0.44" d="M741.38 241.629L527.97 118.446C522.344 115.192 513.278 115.192 507.745 118.4L487.938 129.928C482.359 133.182 482.359 138.434 487.985 141.688L701.395 264.871C707.021 268.125 716.087 268.125 721.666 264.871L741.473 253.343C747.053 250.136 747.006 244.883 741.38 241.629Z" fill="#222324"/>
<path opacity="0.44" d="M546.568 201.746L457.159 150.148C451.115 146.662 441.258 146.662 435.26 150.148L358.637 194.634C352.593 198.167 352.686 203.838 358.73 207.324L448.139 258.921C454.184 262.408 463.994 262.454 470.038 258.921L546.615 214.436C552.613 210.95 552.613 205.232 546.568 201.746Z" fill="#222324"/>
<path opacity="0.44" d="M680.66 274.168L591.251 222.571C585.206 219.084 575.349 219.084 569.352 222.571L492.775 267.056C486.731 270.589 486.824 276.26 492.868 279.746L582.277 331.344C588.321 334.83 598.132 334.876 604.176 331.344L680.753 286.858C686.75 283.372 686.704 277.654 680.66 274.168Z" fill="#222324"/>
<path opacity="0.44" d="M561.215 336.271L359.568 219.874C350.734 214.761 336.46 214.761 327.626 219.874L259.791 259.293C250.957 264.406 251.003 272.727 259.837 277.84L461.484 394.236C470.365 399.35 484.731 399.35 493.519 394.236L561.354 354.818C570.235 349.658 570.142 341.384 561.215 336.271Z" fill="#222324"/>
</g>
<path d="M400.775 436.143L187.366 312.96C181.74 309.706 172.72 309.659 167.14 312.913L147.334 324.441C141.801 327.649 141.847 332.902 147.473 336.155L360.883 459.338C366.509 462.592 375.575 462.592 381.108 459.385L400.915 447.857C406.494 444.603 406.401 439.397 400.775 436.143Z" fill="url(#paint1_linear_2895_5448)"/>
<path d="M325.129 483.371L228.373 427.543C224.282 425.173 217.726 425.219 213.774 427.543L184.529 444.557C180.531 446.881 180.484 450.646 184.576 453.017L281.331 508.844C285.329 511.168 291.978 511.168 295.93 508.844L325.175 491.831C329.174 489.507 329.174 485.695 325.129 483.371Z" fill="url(#paint2_linear_2895_5448)"/>
<path d="M455.686 377.108L242.276 253.925C236.65 250.671 227.583 250.671 222.051 253.879L202.244 265.407C196.711 268.614 196.758 273.867 202.383 277.121L415.793 400.304C421.419 403.558 430.486 403.558 436.018 400.35L455.825 388.822C461.358 385.568 461.358 380.316 455.686 377.108Z" fill="url(#paint3_linear_2895_5448)"/>
<path d="M202.802 412.762L106.047 356.888C102.048 354.563 95.3994 354.563 91.4474 356.888L62.2023 373.901C58.2038 376.225 58.2503 380.037 62.2488 382.361L159.004 438.188C163.002 440.513 169.651 440.513 173.603 438.188L202.848 421.175C206.847 418.898 206.8 415.039 202.802 412.762Z" fill="url(#paint4_linear_2895_5448)"/>
<path d="M674.163 125.629L460.8 2.44626C455.174 -0.80763 446.108 -0.807631 440.575 2.39977L428.393 9.46536C418.629 15.1364 418.629 24.3868 428.44 30.0578L631.714 147.384C638.688 151.428 650.126 151.381 657.1 147.337L674.349 137.297C679.836 134.136 679.789 128.883 674.163 125.629Z" fill="url(#paint5_linear_2895_5448)"/>
<path d="M507.574 110.522L418.165 58.9243C412.12 55.438 402.263 55.438 396.266 58.9243L319.689 103.41C313.645 106.942 313.738 112.613 319.782 116.1L409.191 167.697C415.235 171.183 425.046 171.23 431.09 167.697L507.667 123.212C513.664 119.726 513.618 114.008 507.574 110.522Z" fill="url(#paint6_linear_2895_5448)"/>
<path d="M629.9 181.131L540.491 129.534C534.446 126.047 524.59 126.047 518.592 129.534L442.015 174.019C435.971 177.552 436.064 183.223 442.108 186.709L531.517 238.306C537.562 241.793 547.372 241.839 553.416 238.306L629.993 193.821C635.99 190.335 635.944 184.617 629.9 181.131Z" fill="url(#paint7_linear_2895_5448)"/>
<path d="M535.564 270.334L333.917 153.938C325.083 148.825 310.809 148.825 301.975 153.938L234.139 193.356C225.305 198.47 225.352 206.79 234.186 211.904L435.833 328.3C444.713 333.413 459.08 333.413 467.867 328.3L535.703 288.881C544.537 283.722 544.444 275.447 535.564 270.334Z" fill="url(#paint8_linear_2895_5448)"/>
<g style="mix-blend-mode:screen">
<path d="M203.546 414.295C203.267 414.481 203.174 414.714 202.848 414.9L173.603 431.913C169.605 434.237 163.003 434.237 159.004 431.913L62.2489 376.085C61.9234 375.899 61.7839 375.621 61.5049 375.435C58.4363 377.759 58.5758 381.152 62.2489 383.29L159.004 439.118C163.003 441.442 169.651 441.442 173.603 439.118L202.848 422.105C206.521 420.013 206.614 416.619 203.546 414.295Z" fill="url(#paint9_linear_2895_5448)"/>
</g>
<g style="mix-blend-mode:screen">
<path d="M325.92 484.905C325.641 485.091 325.548 485.323 325.223 485.509L295.978 502.522C291.979 504.846 285.377 504.846 281.378 502.522L184.623 446.695C184.298 446.509 184.158 446.23 183.879 446.044C180.764 448.368 180.857 451.715 184.623 453.9L281.378 509.727C285.377 512.051 292.026 512.051 295.978 509.727L325.223 492.714C328.849 490.622 328.989 487.229 325.92 484.905Z" fill="url(#paint10_linear_2895_5448)"/>
</g>
<g style="mix-blend-mode:screen">
<path d="M319.736 116.983L409.145 168.58C415.189 172.066 424.999 172.113 431.044 168.58L507.62 124.095C512.223 121.445 513.246 117.448 510.782 114.194C510.038 115.17 509.015 116.1 507.62 116.936L431.044 161.422C424.999 164.954 415.189 164.908 409.145 161.422L319.736 109.824C318.295 108.987 317.272 108.058 316.481 107.035C314.017 110.289 315.086 114.287 319.736 116.983Z" fill="url(#paint11_linear_2895_5448)"/>
</g>
<g style="mix-blend-mode:screen">
<path d="M400.915 441.535L381.108 453.063C375.575 456.271 366.509 456.271 360.883 453.017L147.473 329.834C146.264 329.137 145.381 328.346 144.683 327.51C142.08 330.578 142.963 334.436 147.473 336.993L360.883 460.175C366.509 463.429 375.575 463.429 381.108 460.222L400.915 448.694C405.332 446.137 406.122 442.372 403.565 439.304C402.867 440.141 402.031 440.884 400.915 441.535Z" fill="url(#paint12_linear_2895_5448)"/>
</g>
<g style="mix-blend-mode:screen">
<path d="M629.993 187.499L553.417 231.985C547.373 235.517 537.562 235.471 531.518 231.985L442.109 180.387C440.668 179.55 439.645 178.621 438.854 177.598C436.344 180.899 437.46 184.896 442.109 187.546L531.518 239.143C537.562 242.629 547.373 242.676 553.417 239.143L629.993 194.658C634.596 192.008 635.619 188.011 633.155 184.757C632.411 185.779 631.388 186.709 629.993 187.499Z" fill="url(#paint13_linear_2895_5448)"/>
</g>
<g style="mix-blend-mode:screen">
<path d="M674.395 130.835L657.425 140.969C650.59 145.06 639.338 145.06 632.504 141.015L425.324 18.0649C424.162 17.3677 423.278 16.5774 422.627 15.7407C420.07 18.8552 420.953 22.7133 425.324 25.3165L632.504 148.267C639.385 152.358 650.59 152.311 657.425 148.22L674.395 138.087C678.673 135.53 679.51 131.719 676.999 128.604C676.301 129.394 675.511 130.185 674.395 130.835Z" fill="url(#paint14_linear_2895_5448)"/>
</g>
<g style="mix-blend-mode:screen">
<path d="M455.825 382.5L436.018 394.028C430.485 397.236 421.419 397.236 415.793 393.982L202.383 270.799C201.174 270.102 200.291 269.311 199.593 268.475C196.99 271.543 197.873 275.401 202.383 277.957L415.793 401.14C421.419 404.394 430.485 404.394 436.018 401.187L455.825 389.659C460.195 387.149 461.032 383.337 458.475 380.269C457.824 381.106 456.987 381.849 455.825 382.5Z" fill="url(#paint15_linear_2895_5448)"/>
</g>
<g style="mix-blend-mode:screen">
<path d="M535.75 282.559L467.914 321.978C459.08 327.091 444.76 327.091 435.88 321.978L234.186 205.582C231.35 203.955 229.537 202.002 228.514 199.911C226.329 204.327 228.142 209.3 234.186 212.787L435.833 329.183C444.714 334.296 459.08 334.296 467.868 329.183L535.703 289.764C541.701 286.278 543.468 281.397 541.283 276.981C540.306 279.027 538.493 280.932 535.75 282.559Z" fill="url(#paint16_linear_2895_5448)"/>
</g>
<g style="mix-blend-mode:screen">
<path d="M187.366 312.96C181.74 309.706 172.72 309.659 167.14 312.913L147.334 324.441C141.801 327.649 141.847 332.902 147.473 336.155L223.073 379.804H303.183L187.366 312.96Z" fill="url(#paint17_linear_2895_5448)"/>
<path d="M228.373 427.497C224.282 425.126 217.726 425.173 213.774 427.497L184.529 444.51C180.531 446.834 180.484 450.6 184.576 452.97L202.708 463.429H290.63L228.373 427.497Z" fill="url(#paint18_linear_2895_5448)"/>
<path d="M242.322 253.925C236.696 250.671 227.629 250.671 222.097 253.879L202.29 265.407C196.757 268.614 196.804 273.867 202.429 277.121L285.236 324.906H365.3L242.322 253.925Z" fill="url(#paint19_linear_2895_5448)"/>
<path d="M106.047 356.888C102.048 354.563 95.3994 354.563 91.4474 356.888L62.2023 373.901C58.2038 376.225 58.2503 380.037 62.2488 382.361L87.2629 396.771H175.184L106.047 356.888Z" fill="url(#paint20_linear_2895_5448)"/>
<path d="M460.8 2.44626C455.174 -0.807629 446.108 -0.80763 440.575 2.39977L426.58 10.5345C417.793 15.6477 417.839 23.9684 426.627 29.0352L532.448 90.1153H612.651L460.8 2.44626Z" fill="url(#paint21_linear_2895_5448)"/>
<path d="M418.165 58.8779C412.121 55.3916 402.264 55.3916 396.266 58.8779L334.01 95.0425H480.839L418.165 58.8779Z" fill="url(#paint22_linear_2895_5448)"/>
<path d="M540.492 129.487C534.448 126.001 524.591 126.001 518.593 129.487L465.403 160.399H594.054L540.492 129.487Z" fill="url(#paint23_linear_2895_5448)"/>
<path d="M333.917 153.938C325.083 148.825 310.809 148.825 301.975 153.938L234.139 193.356C225.305 198.47 225.352 206.79 234.186 211.904L259.618 226.593H459.684L333.917 153.938Z" fill="url(#paint24_linear_2895_5448)"/>
</g>
<g style="mix-blend-mode:color-burn" opacity="0.4">
<path d="M781.095 227.263L572.334 111.703C547.088 97.107 506.266 97.1535 481.252 111.703L24.0242 376.198C-1.08281 390.794 -10.2887 421.52 14.9578 436.069L223.765 557.393C249.011 571.989 289.834 571.989 314.941 557.439L781.513 285.832C806.481 271.236 806.341 241.812 781.095 227.263Z" fill="#222324"/>
<path opacity="0.9738" d="M481.065 111.843L24.2567 375.965C-0.664334 390.468 -9.49829 420.73 15.5623 435.233L223.904 555.905C226.508 557.393 229.577 558.88 232.459 560.089C257.52 570.408 292.391 569.107 314.755 556.091L780.862 284.903C805.737 270.446 805.551 241.394 780.49 226.891L587.956 120.349C587.77 120.256 572.241 111.657 572.009 111.564C556.34 102.639 534.999 99.2919 514.96 101.43C514.867 101.43 514.774 101.43 514.681 101.477C502.36 102.825 490.597 106.264 481.065 111.843Z" fill="#222324"/>
<path opacity="0.9477" d="M480.879 111.936L24.4888 375.733C-0.246328 390.097 -8.75483 419.986 16.1662 434.349L224.043 554.418C226.554 555.859 229.809 557.439 232.552 558.601C257.426 568.967 292.297 567.712 314.568 554.79L780.211 283.973C804.9 269.61 804.76 240.929 779.839 226.565L587.631 120.163C587.212 119.931 572.101 111.61 571.729 111.424C556.014 102.592 534.766 99.2455 514.774 101.477C514.681 101.477 514.588 101.477 514.495 101.523C502.174 102.918 490.457 106.404 480.879 111.936Z" fill="#222324"/>
<path opacity="0.9215" d="M480.694 112.075L24.7219 375.501C0.126262 389.771 -8.01028 419.242 16.7248 433.513L224.137 552.977C226.508 554.372 229.949 556.045 232.645 557.161C257.334 567.62 292.158 566.411 314.383 553.488L779.607 283.044C804.156 268.773 803.97 240.464 779.235 226.194L587.352 120.024C586.748 119.699 572.056 111.564 571.451 111.332C555.643 102.592 534.534 99.2921 514.542 101.57C514.449 101.57 514.356 101.57 514.263 101.616C501.988 103.011 490.272 106.544 480.694 112.075Z" fill="#9098A0"/>
<path opacity="0.8954" d="M480.507 112.215L25.0002 375.222C0.590588 389.399 -7.2205 418.405 17.3751 432.63L224.322 551.443C226.601 552.744 230.227 554.557 232.784 555.627C257.333 566.132 292.111 565.016 314.243 552.14L778.956 282.114C803.319 267.936 803.179 240.046 778.584 225.822L586.98 119.838C586.189 119.373 571.869 111.517 571.079 111.192C555.177 102.499 534.208 99.2919 514.216 101.616C514.123 101.616 514.03 101.616 513.937 101.663C501.755 103.15 490.132 106.636 480.507 112.215Z" fill="#949CA4"/>
<path opacity="0.8692" d="M480.368 112.354L25.2328 374.989C0.962633 389.074 -6.43 417.662 17.9796 431.746L224.415 549.955C226.601 551.211 230.413 553.116 232.831 554.139C257.194 564.737 291.925 563.622 314.057 550.792L778.305 281.184C802.528 267.1 802.342 239.581 777.933 225.496L586.701 119.698C585.678 119.141 571.822 111.517 570.8 111.099C554.852 102.499 533.976 99.292 514.03 101.709C513.937 101.709 513.844 101.709 513.751 101.756C501.569 103.243 489.946 106.776 480.368 112.354Z" fill="#99A1A9"/>
<path opacity="0.8431" d="M480.183 112.447L25.466 374.757C1.38181 388.749 -5.68536 416.918 18.5848 430.91L224.556 548.515C226.648 549.723 230.646 551.722 232.971 552.698C257.195 563.343 291.88 562.321 313.918 549.537L777.701 280.255C801.739 266.263 801.599 239.117 777.329 225.125L586.33 119.513C585.121 118.816 571.637 111.471 570.428 110.96C554.388 102.407 533.651 99.2924 513.705 101.756C513.612 101.756 513.519 101.756 513.426 101.803C501.384 103.337 489.807 106.916 480.183 112.447Z" fill="#9EA5AD"/>
<path opacity="0.8169" d="M479.996 112.586L25.7443 374.524C1.79961 388.423 -4.8956 416.127 19.1886 430.026L224.694 546.98C226.647 548.096 230.878 550.234 233.063 551.164C257.101 561.902 291.74 560.925 313.731 548.142L777.05 279.325C800.948 265.472 800.762 238.651 776.678 224.752L586.003 119.326C584.609 118.536 571.544 111.378 570.102 110.82C553.969 102.36 533.372 99.2918 513.426 101.802C513.333 101.802 513.24 101.802 513.147 101.848C501.151 103.429 489.62 107.008 479.996 112.586Z" fill="#A3AAB1"/>
<path opacity="0.7908" d="M479.81 112.726L25.9772 374.292C2.2185 388.098 -4.15125 415.384 19.7934 429.189L224.834 545.539C226.694 546.608 231.111 548.84 233.157 549.723C257.055 560.507 291.647 559.577 313.546 546.841L776.446 278.441C800.158 264.682 800.018 238.233 776.074 224.427L585.678 119.187C584.051 118.257 571.405 111.378 569.777 110.727C553.551 102.36 533.093 99.2917 513.193 101.941C513.1 101.941 513.007 101.941 512.914 101.988C500.965 103.522 489.481 107.148 479.81 112.726Z" fill="#A8AEB5"/>
<path opacity="0.7646" d="M479.671 112.865L26.2561 374.06C2.6369 387.772 -3.3144 414.64 20.4443 428.353L225.02 544.052C226.787 545.075 231.343 547.399 233.343 548.236C257.055 559.113 291.6 558.23 313.453 545.539L775.887 277.512C799.46 263.846 799.274 237.815 775.516 224.102L585.446 119.048C583.633 118.025 571.404 111.378 569.591 110.634C553.318 102.313 532.954 99.3385 513.054 102.035C512.961 102.035 512.868 102.081 512.775 102.081C500.779 103.615 489.295 107.287 479.671 112.865Z" fill="#ADB3B9"/>
<path opacity="0.7385" d="M479.485 112.958L26.4884 373.827C3.05517 387.447 -2.57067 413.85 21.0021 427.47L225.113 542.565C226.787 543.541 231.529 545.958 233.389 546.748C256.962 557.672 291.461 556.882 313.22 544.192L775.19 276.583C798.577 263.009 798.437 237.35 774.865 223.73L585.074 118.815C583.075 117.7 571.218 111.285 569.219 110.448C552.853 102.221 532.628 99.2922 512.728 102.035C512.635 102.035 512.542 102.081 512.449 102.081C500.547 103.755 489.156 107.38 479.485 112.958Z" fill="#B1B7BD"/>
<path opacity="0.7123" d="M479.299 113.098L26.7208 373.548C3.47351 387.075 -1.82687 413.06 21.6064 426.586L225.252 541.077C226.787 541.96 231.762 544.517 233.482 545.26C256.869 556.277 291.321 555.487 313.081 542.89L774.585 275.699C797.786 262.219 797.647 236.931 774.26 223.404L584.795 118.676C582.563 117.421 571.172 111.238 568.94 110.355C552.481 102.22 532.395 99.2918 512.496 102.127C512.403 102.127 512.31 102.174 512.217 102.174C500.361 103.847 488.969 107.52 479.299 113.098Z" fill="#B6BCC1"/>
<path opacity="0.6862" d="M479.113 113.237L26.9999 373.316C3.89213 386.75 -0.989803 412.316 22.2575 425.75L225.439 539.59C226.88 540.426 232.041 543.076 233.668 543.773C256.915 554.883 291.321 554.139 312.988 541.542L774.028 274.723C797.089 261.336 796.95 236.42 773.702 222.986L584.469 118.49C582.052 117.142 571.079 111.192 568.615 110.216C552.063 102.128 532.117 99.2922 512.263 102.174C512.17 102.174 512.077 102.221 511.984 102.221C500.128 103.941 488.83 107.659 479.113 113.237Z" fill="#BBC0C5"/>
<path opacity="0.66" d="M478.973 113.376L27.2325 373.083C4.31065 386.424 -0.245823 411.572 22.8155 424.866L225.532 538.102C226.88 538.892 232.227 541.634 233.715 542.285C256.776 553.441 291.135 552.791 312.755 540.24L773.33 273.839C796.206 260.545 796.066 236.001 773.005 222.707L584.144 118.35C581.54 116.863 570.94 111.191 568.289 110.122C551.691 102.127 531.838 99.338 511.984 102.267C511.891 102.267 511.798 102.313 511.706 102.313C499.942 104.033 488.691 107.752 478.973 113.376Z" fill="#C0C4C9"/>
<path opacity="0.6338" d="M478.788 113.47L27.5116 372.851C4.7293 386.099 0.5448 410.782 23.4666 424.03L225.718 536.661C226.973 537.358 232.46 540.24 233.854 540.845C256.73 552.094 291.089 551.443 312.616 538.939L772.726 272.91C795.462 259.709 795.322 235.583 772.401 222.335L583.819 118.164C581.029 116.584 570.847 111.145 567.964 109.983C551.273 102.034 531.559 99.3384 511.706 102.313C511.613 102.313 511.52 102.36 511.427 102.36C499.757 104.126 488.505 107.891 478.788 113.47Z" fill="#C5C9CE"/>
<path opacity="0.6077" d="M478.601 113.609L27.7436 372.618C5.14728 385.773 1.28823 410.038 24.0706 423.147L225.857 535.127C227.019 535.778 232.692 538.799 233.993 539.311C256.729 550.606 290.996 550.048 312.476 537.591L772.121 271.98C794.671 258.872 794.531 235.118 771.796 221.963L583.539 117.979C580.517 116.259 570.753 111.052 567.731 109.844C550.947 101.988 531.372 99.2919 511.566 102.36C511.473 102.36 511.38 102.406 511.287 102.406C499.524 104.219 488.365 108.031 478.601 113.609Z" fill="#CACDD2"/>
<path opacity="0.5815" d="M478.415 113.749L27.976 372.386C5.51918 385.402 2.07858 409.294 24.6284 422.31L225.95 533.686C226.973 534.29 232.877 537.405 234.04 537.869C256.59 549.258 290.856 548.747 312.244 536.289L771.424 271.097C793.834 258.082 793.695 234.7 771.098 221.685L583.121 117.886C579.913 116.073 570.567 111.099 567.313 109.797C550.435 102.035 531 99.3849 511.194 102.499C511.101 102.499 511.008 102.546 510.915 102.546C499.338 104.312 488.179 108.124 478.415 113.749Z" fill="#CFD2D6"/>
<path opacity="0.5554" d="M478.276 113.888L28.2555 372.154C5.98457 385.076 2.86944 408.504 25.2798 421.473L226.136 532.245C227.066 532.803 233.157 536.01 234.18 536.428C256.59 547.864 290.764 547.399 312.151 534.987L770.866 270.167C793.091 257.245 792.951 234.235 770.541 221.313L582.889 117.7C579.495 115.747 570.521 111.052 567.081 109.658C550.157 101.941 530.815 99.3849 511.008 102.546C510.915 102.546 510.822 102.592 510.729 102.592C499.152 104.452 488.04 108.263 478.276 113.888Z" fill="#D3D6DA"/>
<path opacity="0.5292" d="M478.09 113.981L28.4878 371.875C6.40289 384.705 3.61322 407.714 25.8841 420.544L226.276 530.665C227.112 531.13 233.389 534.476 234.319 534.848C256.544 546.376 290.717 545.958 312.011 533.593L770.262 269.192C792.347 256.362 792.207 233.724 769.936 220.895L582.563 117.467C578.937 115.422 570.428 110.96 566.755 109.472C549.738 101.849 530.536 99.2921 510.776 102.546C510.683 102.546 510.59 102.592 510.497 102.592C498.92 104.545 487.854 108.403 478.09 113.981Z" fill="#D8DBDE"/>
<path opacity="0.5031" d="M477.904 114.121L28.7667 371.643C6.82126 384.379 4.40354 406.97 26.4884 419.707L226.415 529.224C227.159 529.642 233.622 533.082 234.412 533.407C256.497 544.982 290.624 544.656 311.825 532.292L769.611 268.308C791.51 255.572 791.37 233.352 769.285 220.569L582.238 117.328C578.425 115.19 570.289 110.913 566.43 109.379C549.32 101.802 530.257 99.3386 510.497 102.639C510.404 102.639 510.311 102.685 510.218 102.685C498.733 104.638 487.714 108.496 477.904 114.121Z" fill="#DDDFE2"/>
<path opacity="0.4769" d="M477.718 114.259L28.9991 371.41C7.2397 384.053 5.19394 406.18 27.0929 418.823L226.554 527.689C227.159 528.061 233.808 531.594 234.505 531.873C256.404 543.54 290.484 543.215 311.639 530.943L768.96 267.332C790.673 254.688 790.58 232.84 768.634 220.197L581.866 117.141C577.867 114.864 570.149 110.866 566.058 109.239C548.901 101.755 529.931 99.3381 510.171 102.731C510.078 102.731 509.985 102.778 509.939 102.778C498.547 104.777 487.528 108.635 477.718 114.259Z" fill="#E2E4E6"/>
<path opacity="0.4508" d="M477.578 114.399L29.2315 371.178C7.6115 383.728 5.9377 405.436 27.6971 417.987L226.694 526.249C227.205 526.528 234.04 530.2 234.644 530.432C256.404 542.146 290.438 541.914 311.5 529.642L768.355 266.449C789.929 253.898 789.789 232.423 768.03 219.872L581.586 116.956C577.355 114.585 570.056 110.82 565.825 109.1C548.575 101.709 529.745 99.2921 509.985 102.778C509.892 102.778 509.799 102.825 509.752 102.825C498.315 104.87 487.389 108.775 477.578 114.399Z" fill="#E7E8EA"/>
<path opacity="0.4246" d="M477.392 114.492L29.5106 370.945C8.07665 383.403 6.72831 404.693 28.3483 417.15L226.88 524.808C227.298 525.04 234.319 528.805 234.784 528.991C256.357 540.798 290.345 540.612 311.36 528.387L767.751 265.566C789.138 253.108 789.045 232.004 767.425 219.546L581.261 116.863C576.844 114.353 569.963 110.867 565.5 109.054C548.157 101.709 529.466 99.385 509.753 102.918C509.66 102.918 509.567 102.964 509.52 102.964C498.129 104.963 487.203 108.868 477.392 114.492Z" fill="#ECEDEF"/>
<path opacity="0.3985" d="M477.207 114.632L29.7435 370.712C8.44905 383.077 7.51916 403.902 28.9066 416.267L226.973 523.273C227.299 523.459 234.505 527.317 234.831 527.457C256.265 539.31 290.206 539.171 311.175 526.992L767.1 264.589C788.348 252.271 788.209 231.493 766.821 219.128L580.983 116.63C576.38 114.027 569.871 110.727 565.221 108.868C547.786 101.616 529.234 99.3383 509.521 102.918C509.428 102.918 509.335 102.964 509.288 102.964C497.944 105.056 487.064 109.007 477.207 114.632Z" fill="#F0F1F3"/>
<path opacity="0.3723" d="M477.021 114.771L29.9761 370.48C8.8676 382.752 8.26317 403.158 29.5112 415.43L227.113 521.832C227.299 521.972 234.738 525.923 234.971 526.016C256.219 537.962 290.113 537.869 311.036 525.737L766.496 263.753C787.558 251.527 787.465 231.167 766.217 218.895L580.657 116.444C575.822 113.702 569.778 110.68 564.896 108.728C547.414 101.569 528.956 99.3382 509.242 102.964C509.149 102.964 509.056 103.01 509.009 103.01C497.711 105.149 486.878 109.1 477.021 114.771Z" fill="#F5F6F7"/>
</g>
<defs>
<linearGradient id="paint0_linear_2895_5448" x1="261.382" y1="584.253" x2="596.132" y2="-15.5759" gradientUnits="userSpaceOnUse">
<stop stop-color="#53637A"/>
<stop offset="1" stop-color="#323A47"/>
</linearGradient>
<linearGradient id="paint1_linear_2895_5448" x1="195.046" y1="-146.223" x2="293.053" y2="513.834" gradientUnits="userSpaceOnUse">
<stop stop-color="#2300A1"/>
<stop offset="0.0841" stop-color="#39009B"/>
<stop offset="0.2594" stop-color="#71008B"/>
<stop offset="0.5089" stop-color="#CB0171"/>
<stop offset="0.586" stop-color="#E80169"/>
<stop offset="1" stop-color="#FFAA00"/>
</linearGradient>
<linearGradient id="paint2_linear_2895_5448" x1="164.261" y1="-141.653" x2="262.267" y2="518.404" gradientUnits="userSpaceOnUse">
<stop stop-color="#2300A1"/>
<stop offset="0.0841" stop-color="#39009B"/>
<stop offset="0.2594" stop-color="#71008B"/>
<stop offset="0.5089" stop-color="#CB0171"/>
<stop offset="0.586" stop-color="#E80169"/>
<stop offset="1" stop-color="#FFAA00"/>
</linearGradient>
<linearGradient id="paint3_linear_2895_5448" x1="257.371" y1="-155.477" x2="355.377" y2="504.58" gradientUnits="userSpaceOnUse">
<stop stop-color="#2300A1"/>
<stop offset="0.0841" stop-color="#39009B"/>
<stop offset="0.2594" stop-color="#71008B"/>
<stop offset="0.5089" stop-color="#CB0171"/>
<stop offset="0.586" stop-color="#E80169"/>
<stop offset="1" stop-color="#FFAA00"/>
</linearGradient>
<linearGradient id="paint4_linear_2895_5448" x1="54.8399" y1="-125.405" x2="152.846" y2="534.653" gradientUnits="userSpaceOnUse">
<stop stop-color="#2300A1"/>
<stop offset="0.0841" stop-color="#39009B"/>
<stop offset="0.2594" stop-color="#71008B"/>
<stop offset="0.5089" stop-color="#CB0171"/>
<stop offset="0.586" stop-color="#E80169"/>
<stop offset="1" stop-color="#FFAA00"/>
</linearGradient>
<linearGradient id="paint5_linear_2895_5448" x1="506.682" y1="-214.132" x2="604.246" y2="442.953" gradientUnits="userSpaceOnUse">
<stop stop-color="#2300A1"/>
<stop offset="0.0841" stop-color="#39009B"/>
<stop offset="0.2594" stop-color="#71008B"/>
<stop offset="0.5089" stop-color="#CB0171"/>
<stop offset="0.586" stop-color="#E80169"/>
<stop offset="1" stop-color="#FFAA00"/>
</linearGradient>
<linearGradient id="paint6_linear_2895_5448" x1="367.103" y1="-200.056" x2="465.109" y2="460.001" gradientUnits="userSpaceOnUse">
<stop stop-color="#2300A1"/>
<stop offset="0.0841" stop-color="#39009B"/>
<stop offset="0.2594" stop-color="#71008B"/>
<stop offset="0.5089" stop-color="#CB0171"/>
<stop offset="0.586" stop-color="#E80169"/>
<stop offset="1" stop-color="#FFAA00"/>
</linearGradient>
<linearGradient id="paint7_linear_2895_5448" x1="476.536" y1="-216.304" x2="574.542" y2="443.752" gradientUnits="userSpaceOnUse">
<stop stop-color="#2300A1"/>
<stop offset="0.0841" stop-color="#39009B"/>
<stop offset="0.2594" stop-color="#71008B"/>
<stop offset="0.5089" stop-color="#CB0171"/>
<stop offset="0.586" stop-color="#E80169"/>
<stop offset="1" stop-color="#FFAA00"/>
</linearGradient>
<linearGradient id="paint8_linear_2895_5448" x1="321.533" y1="-185.602" x2="419.539" y2="474.453" gradientUnits="userSpaceOnUse">
<stop stop-color="#2300A1"/>
<stop offset="0.0841" stop-color="#39009B"/>
<stop offset="0.2594" stop-color="#71008B"/>
<stop offset="0.5089" stop-color="#CB0171"/>
<stop offset="0.586" stop-color="#E80169"/>
<stop offset="1" stop-color="#FFAA00"/>
</linearGradient>
<linearGradient id="paint9_linear_2895_5448" x1="111.196" y1="333.57" x2="151.38" y2="456.109" gradientUnits="userSpaceOnUse">
<stop/>
<stop offset="0.3676" stop-color="#2E3847"/>
<stop offset="0.8006" stop-color="#627696"/>
<stop offset="1" stop-color="#768FB5"/>
</linearGradient>
<linearGradient id="paint10_linear_2895_5448" x1="181.622" y1="478.743" x2="328.076" y2="478.743" gradientUnits="userSpaceOnUse">
<stop/>
<stop offset="0.3676" stop-color="#2E3847"/>
<stop offset="0.8006" stop-color="#627696"/>
<stop offset="1" stop-color="#768FB5"/>
</linearGradient>
<linearGradient id="paint11_linear_2895_5448" x1="346.245" y1="45.7096" x2="461.917" y2="163.369" gradientUnits="userSpaceOnUse">
<stop/>
<stop offset="0.3676" stop-color="#2E3847"/>
<stop offset="0.8006" stop-color="#627696"/>
<stop offset="1" stop-color="#768FB5"/>
</linearGradient>
<linearGradient id="paint12_linear_2895_5448" x1="226.031" y1="293.641" x2="312.284" y2="461.284" gradientUnits="userSpaceOnUse">
<stop/>
<stop offset="0.3676" stop-color="#2E3847"/>
<stop offset="0.8006" stop-color="#627696"/>
<stop offset="1" stop-color="#768FB5"/>
</linearGradient>
<linearGradient id="paint13_linear_2895_5448" x1="477.588" y1="86.6975" x2="572.663" y2="246.501" gradientUnits="userSpaceOnUse">
<stop/>
<stop offset="0.3676" stop-color="#2E3847"/>
<stop offset="0.8006" stop-color="#627696"/>
<stop offset="1" stop-color="#768FB5"/>
</linearGradient>
<linearGradient id="paint14_linear_2895_5448" x1="485.269" y1="-8.18093" x2="620.551" y2="168.016" gradientUnits="userSpaceOnUse">
<stop/>
<stop offset="0.3676" stop-color="#2E3847"/>
<stop offset="0.8006" stop-color="#627696"/>
<stop offset="1" stop-color="#768FB5"/>
</linearGradient>
<linearGradient id="paint15_linear_2895_5448" x1="283.981" y1="244.681" x2="394.738" y2="449.578" gradientUnits="userSpaceOnUse">
<stop/>
<stop offset="0.3676" stop-color="#2E3847"/>
<stop offset="0.8006" stop-color="#627696"/>
<stop offset="1" stop-color="#768FB5"/>
</linearGradient>
<linearGradient id="paint16_linear_2895_5448" x1="319.99" y1="151.506" x2="453.298" y2="337.786" gradientUnits="userSpaceOnUse">
<stop/>
<stop offset="0.3676" stop-color="#2E3847"/>
<stop offset="0.8006" stop-color="#627696"/>
<stop offset="1" stop-color="#768FB5"/>
</linearGradient>
<linearGradient id="paint17_linear_2895_5448" x1="188.959" y1="124.77" x2="236.862" y2="447.396" gradientUnits="userSpaceOnUse">
<stop stop-color="white"/>
<stop offset="1"/>
</linearGradient>
<linearGradient id="paint18_linear_2895_5448" x1="199.248" y1="208.252" x2="248.857" y2="542.36" gradientUnits="userSpaceOnUse">
<stop stop-color="white"/>
<stop offset="1"/>
</linearGradient>
<linearGradient id="paint19_linear_2895_5448" x1="246.457" y1="60.828" x2="297.19" y2="402.504" gradientUnits="userSpaceOnUse">
<stop stop-color="white"/>
<stop offset="1"/>
</linearGradient>
<linearGradient id="paint20_linear_2895_5448" x1="72.5334" y1="86.99" x2="127.258" y2="455.552" gradientUnits="userSpaceOnUse">
<stop stop-color="white"/>
<stop offset="1"/>
</linearGradient>
<linearGradient id="paint21_linear_2895_5448" x1="472.718" y1="-238.24" x2="534.807" y2="179.92" gradientUnits="userSpaceOnUse">
<stop stop-color="white"/>
<stop offset="1"/>
</linearGradient>
<linearGradient id="paint22_linear_2895_5448" x1="375.518" y1="-119.605" x2="417.569" y2="163.599" gradientUnits="userSpaceOnUse">
<stop stop-color="white"/>
<stop offset="1"/>
</linearGradient>
<linearGradient id="paint23_linear_2895_5448" x1="504.605" y1="-8.61378" x2="541.091" y2="237.112" gradientUnits="userSpaceOnUse">
<stop stop-color="white"/>
<stop offset="1"/>
</linearGradient>
<linearGradient id="paint24_linear_2895_5448" x1="307.79" y1="-26.4227" x2="355.124" y2="292.367" gradientUnits="userSpaceOnUse">
<stop stop-color="white"/>
<stop offset="1"/>
</linearGradient>
</defs>
</svg>
