<svg id="ff5c72a5-dbcb-44dc-84d7-d78b5fa284ce" data-name="Layer 1" xmlns="http://www.w3.org/2000/svg" viewBox="0 0 83.55 133.35"><defs><style>.f07dbd38-fb13-45fb-8b85-380050629058{fill:none;stroke:#f05657;stroke-miterlimit:10;stroke-width:3px;}</style></defs><path class="f07dbd38-fb13-45fb-8b85-380050629058" d="M15.73,126.5a15.22,15.22,0,0,1-5.64-2.61,12.11,12.11,0,0,1-4.58-9.2c0-.7,0-1.41,0-2.11q0-46.5,0-93a12.26,12.26,0,0,1,5-10.41A10.69,10.69,0,0,1,17,6.87q24.48,0,49,0c6,0,11.15,5.31,11.45,11.66,0,.31,0,.62,0,.93q0,47.2,0,94.41c0,4.3-1.54,7.88-5.09,10.33a30.24,30.24,0,0,1-5.15,2.3ZM11.52,66.55q0,23.67,0,47.32c0,4.14,2.41,6.59,6.48,6.59q23.43,0,46.86,0c4,0,6.49-2.45,6.49-6.47q0-47.31,0-94.63c0-4-2.47-6.47-6.48-6.48q-23.43,0-46.86,0a7.5,7.5,0,0,0-2,.19c-2.95.78-4.53,3-4.54,6.39Z"/><path class="f07dbd38-fb13-45fb-8b85-380050629058" d="M41.27,116.51a6,6,0,1,1,6.19-5.82A6,6,0,0,1,41.27,116.51Z"/><path class="f07dbd38-fb13-45fb-8b85-380050629058" d="M46.47,22.81c-1.9,0-3.81,0-5.72,0a3,3,0,1,1-.07-6c3.85,0,7.7,0,11.55,0a3,3,0,1,1,0,6C50.28,22.84,48.38,22.81,46.47,22.81Z"/><path class="f07dbd38-fb13-45fb-8b85-380050629058" d="M33.48,19.79a3,3,0,0,1-6,0,3.1,3.1,0,0,1,3-3A3.05,3.05,0,0,1,33.48,19.79Z"/></svg>