<svg width="241" height="44" viewBox="0 0 241 44" fill="none" xmlns="http://www.w3.org/2000/svg">
<path d="M41.9087 23.2939C35.4752 23.2939 30.2607 27.9287 30.2607 33.6462C30.2607 39.3642 35.4752 44 41.9087 44C48.3411 44 53.5556 39.3642 53.5556 33.6462C53.5556 27.9287 48.3411 23.2939 41.9087 23.2939ZM11.6474 23.2943C5.215 23.2948 0 27.9287 0 33.6467C0 39.3641 5.215 43.9995 11.6474 43.9995C18.0804 43.9995 23.2954 39.3641 23.2954 33.6467C23.2954 27.9287 18.0804 23.2943 11.6469 23.2943H11.6474ZM38.4252 10.3528C38.4252 16.0703 33.2108 20.7066 26.7783 20.7066C20.3448 20.7066 15.1304 16.0703 15.1304 10.3528C15.1304 4.63536 20.3448 0 26.7783 0C33.2108 0 38.4246 4.63536 38.4246 10.3528H38.4252Z" fill="#FF5353" fill-opacity="0.8"/>
<path d="M85.7155 31.777C80.0681 31.777 75.4904 27.0352 75.4904 21.1849C75.4904 15.3352 80.0681 10.5927 85.7162 10.5927C91.3636 10.5927 95.9406 15.3352 95.9406 21.1849C95.9406 27.0352 91.3629 31.777 85.7155 31.777ZM95.9734 33.1204C95.9734 34.0906 97.6136 36.8153 99.6232 36.8153H100.925C101.429 36.8153 101.842 36.3967 101.842 35.8858V6.89852H101.837C101.824 6.66162 101.723 6.4386 101.553 6.27512C101.384 6.11165 101.159 6.0201 100.925 6.01923H96.8919C96.4039 6.01923 96.0055 6.4107 95.9781 6.89852H95.9734V9.25413C93.5032 6.16985 89.607 4.88959 85.7001 4.88959C76.8199 4.88959 69.6221 12.1851 69.6221 21.1856C69.6221 30.186 76.8199 37.4815 85.7001 37.4815C89.607 37.4815 93.8647 35.9455 95.9734 33.117V33.1217V33.1204ZM111.478 28.9695C114.17 30.859 117.108 31.777 119.932 31.777C122.623 31.777 125.404 30.3631 125.404 27.903C125.404 24.6192 119.343 24.1077 115.536 22.7962C111.727 21.4848 108.447 18.7729 108.447 14.3819C108.447 7.66382 114.354 4.88892 119.867 4.88892C123.36 4.88892 126.964 6.05587 129.301 7.72895C130.106 8.34635 129.616 9.0567 129.616 9.0567L127.385 12.2848C127.135 12.6485 126.615 12.9389 126.067 12.5691C124.564 11.5623 122.89 10.5921 119.867 10.5921C116.124 10.5921 114.478 12.1668 114.478 14.118C114.478 16.4587 117.11 17.1942 120.195 17.992C125.57 19.4595 131.435 21.2256 131.435 27.9037C131.435 33.8232 125.971 37.4815 119.932 37.4815C115.357 37.4815 111.46 36.1592 108.193 33.7296C107.513 33.0389 107.988 32.3978 107.988 32.3978L110.207 29.186C110.659 28.5848 111.228 28.7952 111.478 28.9695ZM161.679 33.121C161.679 34.0906 163.319 36.8153 165.328 36.8153H166.63C167.135 36.8153 167.548 36.3967 167.548 35.8858V6.89852H167.542C167.529 6.66174 167.428 6.4389 167.258 6.27549C167.089 6.11208 166.864 6.02042 166.63 6.01923H162.597C162.108 6.01923 161.711 6.4107 161.684 6.89852H161.679V9.25413C159.208 6.16985 155.312 4.88959 151.406 4.88959C142.526 4.88959 135.327 12.1851 135.327 21.1849C135.327 30.1847 142.526 37.4808 151.406 37.4808C155.312 37.4808 159.57 35.9448 161.679 33.1163L161.679 33.121ZM151.421 31.7777C145.773 31.7777 141.196 27.0352 141.196 21.1849C141.196 15.3352 145.773 10.5927 151.421 10.5927C157.068 10.5927 161.647 15.3352 161.647 21.1849C161.647 27.0352 157.068 31.7777 151.421 31.7777ZM203.68 34.117L203.679 19.1183C203.679 10.6633 198.416 4.9588 190.022 4.9588C186.016 4.9588 182.739 7.30695 181.579 9.32402V9.29552L181.572 9.31859C181.569 7.27778 179.936 6.08911 177.922 6.08911H176.627C176.122 6.08911 175.71 6.5084 175.71 7.01996V36.0079H175.715C175.727 36.2449 175.829 36.4681 175.999 36.6317C176.168 36.7953 176.393 36.887 176.627 36.8879H180.66C180.722 36.8879 180.783 36.8804 180.841 36.8695C180.868 36.8634 180.892 36.8526 180.919 36.8451C180.949 36.8363 180.98 36.8288 181.008 36.8166C181.045 36.8017 181.077 36.7813 181.111 36.7623C181.127 36.7522 181.144 36.7454 181.16 36.7352C181.2 36.7077 181.237 36.6773 181.273 36.6443C181.279 36.6382 181.286 36.6341 181.291 36.6287C181.46 36.4659 181.561 36.2437 181.573 36.0079H181.579V18.8856C181.579 14.3446 185.211 10.6626 189.692 10.6626C194.173 10.6626 197.806 14.3446 197.806 18.8856L197.809 33.1984L197.81 33.193C197.81 33.2059 197.813 33.2194 197.813 33.2323V36.0079H197.818C197.83 36.2449 197.932 36.4681 198.102 36.6317C198.271 36.7953 198.496 36.887 198.73 36.8879H202.763C202.825 36.8879 202.885 36.8804 202.944 36.8695C202.968 36.8641 202.99 36.8539 203.013 36.8485C203.046 36.8383 203.08 36.8295 203.112 36.8166C203.145 36.8031 203.175 36.7834 203.206 36.7657C203.225 36.7556 203.245 36.7474 203.263 36.7352C203.301 36.7094 203.335 36.6802 203.368 36.6504C203.377 36.6436 203.386 36.6368 203.395 36.628C203.433 36.5914 203.466 36.5507 203.498 36.5086C203.604 36.3638 203.666 36.1907 203.676 36.0106L203.676 36.0079H203.681L203.68 34.117ZM235.131 33.121C235.131 34.0906 236.77 36.8153 238.78 36.8153H240.082C240.586 36.8153 241 36.3967 241 35.8858V6.89852H240.995C240.982 6.66168 240.88 6.43883 240.711 6.27544C240.541 6.11205 240.316 6.02041 240.082 6.01923H236.05C235.816 6.01993 235.591 6.11139 235.421 6.27489C235.251 6.43838 235.15 6.66151 235.137 6.89852H235.131V9.25413C232.659 6.16985 228.764 4.88959 224.857 4.88959C215.978 4.88959 208.779 12.1851 208.779 21.1849C208.779 30.1847 215.978 37.4808 224.857 37.4808C228.764 37.4808 233.021 35.9448 235.13 33.1163L235.131 33.121ZM224.874 31.7777C219.226 31.7777 214.648 27.0352 214.648 21.1849C214.648 15.3352 219.226 10.5927 224.874 10.5927C230.52 10.5927 235.097 15.3352 235.097 21.1849C235.097 27.0352 230.52 31.7777 224.874 31.7777Z" fill="#848483" fill-opacity="0.7"/>
</svg>
