<svg id="a8169d74-e673-4b04-9020-526bada62b48" data-name="Layer 1" xmlns="http://www.w3.org/2000/svg" viewBox="0 0 141.39 98.85"><defs><style>.b968b69b-1e7c-4645-b201-9e2a263e72c5{fill:none;stroke:#f05657;stroke-miterlimit:10;stroke-width:3px;}</style></defs><path class="b968b69b-1e7c-4645-b201-9e2a263e72c5" d="M75,87.8c11.32,0,22.64,0,34,0,3.82,0,7.66.37,11.48-.35a31.27,31.27,0,0,0,3.33-.86,13.81,13.81,0,0,0,4.08-2.21A14.53,14.53,0,0,0,134,74.54a15.29,15.29,0,0,0-.45-6.91A15.64,15.64,0,0,0,131,62.89a15.81,15.81,0,0,0-5.87-4.64c-.83-.41-1.77-.61-2.64-.94a12.26,12.26,0,0,0-4.18-.84c-3.81,0-7.61,0-11.42,0-1.17,0-1.21,0-1.21-1.12,0-1.76,0-3.52,0-5.28a11.33,11.33,0,0,0-1-4.81A12.48,12.48,0,0,0,99,39,11.92,11.92,0,0,0,93,37.53c-2.78,0-5.57,0-8.35,0-1.28,0-1.28,0-1.28-1.26,0-1.9,0-3.79,0-5.68-.06-1.31-.32-2.6-.49-3.9a1,1,0,0,0-.1-.29c-.27-.76-.57-1.51-.82-2.27a17.48,17.48,0,0,0-2.33-4.26,31.07,31.07,0,0,0-2.08-2.38,14.19,14.19,0,0,0-3.74-2.93A28.26,28.26,0,0,0,70,12.7a14.41,14.41,0,0,0-5.52-1.13c-1.3,0-2.61-.07-3.91,0a13.17,13.17,0,0,0-3.19.56,31.57,31.57,0,0,0-5.14,2.23,19.89,19.89,0,0,0-5,4.12A18.46,18.46,0,0,0,45.41,21a16.67,16.67,0,0,0-2.08,4.49,14.29,14.29,0,0,0-.87,4.13c0,3.41,0,6.83,0,10.24,0,.27,0,.54,0,.81a.52.52,0,0,1-.54.52h-.84c-2.72,0-5.44,0-8.15,0a27.77,27.77,0,0,0-5.45.33,31.64,31.64,0,0,0-4.59,1.38A23.6,23.6,0,0,0,17.36,46a23,23,0,0,0-5.31,5.57,17.16,17.16,0,0,0-2.48,4.88c-.16.58-.33,1.16-.49,1.74a14.21,14.21,0,0,0-.83,3.31,27.78,27.78,0,0,0,.28,7.16A33.81,33.81,0,0,0,9.8,72.93a19.81,19.81,0,0,0,3.78,6.16,22.35,22.35,0,0,0,8.15,6.1c1.09.44,2.16.91,3.27,1.3.62.22,1.34.2,1.92.47a5.64,5.64,0,0,0,2.46.43,2.57,2.57,0,0,1,.84.06,8.69,8.69,0,0,0,3.54.35Z"/></svg>