<svg id="f566b116-1bf0-43a2-b6a6-1aba544d9057" data-name="Layer 1" xmlns="http://www.w3.org/2000/svg" viewBox="0 0 126.12 133.35"><defs><style>.ba0b04d8-4b87-421d-9a6f-aa18c771e7c3{fill:none;stroke:#f05657;stroke-miterlimit:10;stroke-width:3px;}</style></defs><path class="ba0b04d8-4b87-421d-9a6f-aa18c771e7c3" d="M93.45,103.24c1.7.66,1.94,1,1.94,2.79v14.29c0,1.84-.62,2.46-2.48,2.46h-26c-1.86,0-2.48-.62-2.48-2.44q0-7.22,0-14.42c0-1.67.27-2,1.94-2.67,0-5.58.09-11.19,0-16.8-.15-7.69,3.11-13.29,9.78-17.06,5.23-3,10.38-6,15.54-9.12A2.71,2.71,0,0,0,92.72,59q4.2-12,8.32-24a7.86,7.86,0,0,1,8.15-5.54A7.28,7.28,0,0,1,116,35.62a7,7,0,0,0,2.21,4.31,6.68,6.68,0,0,1,1.7,6.62c-2.81,10.75-5.69,21.48-8.57,32.21a9.47,9.47,0,0,1-3,4.58c-4,3.58-8,7.24-12.14,10.76a7.06,7.06,0,0,0-2.73,6C93.5,101.17,93.45,102.22,93.45,103.24Z"/><path class="ba0b04d8-4b87-421d-9a6f-aa18c771e7c3" d="M58.56,103.29c1.62.55,1.94,1,1.94,2.56v14.53c0,1.76-.65,2.39-2.42,2.4H31.92c-1.82,0-2.43-.64-2.43-2.5V105.86c0-1.6.32-2,1.92-2.56,0-1.5.07-3,0-4.55A6.22,6.22,0,0,0,29,94.41C25,90.84,21,87.2,16.89,83.64a11.78,11.78,0,0,1-3.7-6.08q-3.93-15-8-29.86c-1-3.75-.18-6.83,3-9.23a1.57,1.57,0,0,0,.47-1.1c.09-4,2.77-7.34,6.37-7.85a8.05,8.05,0,0,1,8.9,5.64q4.09,12,8.3,24a2.2,2.2,0,0,0,.89,1Q41.21,65,49.36,69.73c6.12,3.59,9.22,8.91,9.2,16C58.55,91.58,58.56,97.39,58.56,103.29Z"/><path class="ba0b04d8-4b87-421d-9a6f-aa18c771e7c3" d="M62.44,12.46c.51-.44.94-.85,1.41-1.21,6-4.65,12.66-5.8,19.68-2.9s11,8.29,11.86,15.82a18.63,18.63,0,0,1-5.68,15.94Q77,52.88,64.29,65.55C62.87,67,62,67,60.6,65.55c-8.51-8.5-17.06-17-25.5-25.54-5.27-5.34-7-11.82-5-19S37,9.15,44.33,7.39a18.71,18.71,0,0,1,16.79,3.93C61.55,11.67,62,12.05,62.44,12.46Z"/><path class="ba0b04d8-4b87-421d-9a6f-aa18c771e7c3" d="M56.63,27.8c0-1.88,0-3.65,0-5.41s.65-2.34,2.34-2.34c2.3,0,4.61,0,6.91,0,1.74,0,2.37.65,2.37,2.43s0,3.45,0,5.32h5.26c1.86,0,2.49.62,2.49,2.44q0,3.45,0,6.9c0,1.6-.68,2.27-2.28,2.28H68.25c0,1.84,0,3.6,0,5.36s-.64,2.39-2.41,2.4H59.06c-1.82,0-2.43-.64-2.43-2.5V39.42H51.42c-1.94,0-2.54-.59-2.54-2.5q0-3.45,0-6.9c0-1.53.68-2.2,2.22-2.22C52.9,27.79,54.71,27.8,56.63,27.8Z"/></svg>