<svg width="219" height="58" viewBox="0 0 219 58" fill="none" xmlns="http://www.w3.org/2000/svg">
<g opacity="0.8">
<path d="M31.36 23.34H40.24V40.38C37.96 42.1 35.32 43.42 32.32 44.34C29.32 45.26 26.3 45.72 23.26 45.72C18.9 45.72 14.98 44.8 11.5 42.96C8.02 41.08 5.28 38.5 3.28 35.22C1.32 31.9 0.34 28.16 0.34 24C0.34 19.84 1.32 16.12 3.28 12.84C5.28 9.52 8.04 6.94 11.56 5.1C15.08 3.22 19.04 2.28 23.44 2.28C27.12 2.28 30.46 2.9 33.46 4.14C36.46 5.38 38.98 7.18 41.02 9.54L34.78 15.3C31.78 12.14 28.16 10.56 23.92 10.56C21.24 10.56 18.86 11.12 16.78 12.24C14.7 13.36 13.08 14.94 11.92 16.98C10.76 19.02 10.18 21.36 10.18 24C10.18 26.6 10.76 28.92 11.92 30.96C13.08 33 14.68 34.6 16.72 35.76C18.8 36.88 21.16 37.44 23.8 37.44C26.6 37.44 29.12 36.84 31.36 35.64V23.34ZM160.542 12.72V39.6C160.542 45.52 159.002 49.92 155.922 52.8C152.842 55.68 148.342 57.12 142.422 57.12C139.302 57.12 136.342 56.74 133.542 55.98C130.742 55.22 128.422 54.12 126.582 52.68L130.302 45.96C131.662 47.08 133.382 47.96 135.462 48.6C137.542 49.28 139.622 49.62 141.702 49.62C144.942 49.62 147.322 48.88 148.842 47.4C150.402 45.96 151.182 43.76 151.182 40.8V39.42C148.742 42.1 145.342 43.44 140.982 43.44C138.022 43.44 135.302 42.8 132.822 41.52C130.382 40.2 128.442 38.36 127.002 36C125.562 33.64 124.842 30.92 124.842 27.84C124.842 24.76 125.562 22.04 127.002 19.68C128.442 17.32 130.382 15.5 132.822 14.22C135.302 12.9 138.022 12.24 140.982 12.24C145.662 12.24 149.222 13.78 151.662 16.86V12.72H160.542ZM142.842 35.76C145.322 35.76 147.342 35.04 148.902 33.6C150.502 32.12 151.302 30.2 151.302 27.84C151.302 25.48 150.502 23.58 148.902 22.14C147.342 20.66 145.322 19.92 142.842 19.92C140.362 19.92 138.322 20.66 136.722 22.14C135.122 23.58 134.322 25.48 134.322 27.84C134.322 30.2 135.122 32.12 136.722 33.6C138.322 35.04 140.362 35.76 142.842 35.76ZM169.254 0.479997H178.614V45H169.254V0.479997ZM218.92 28.98C218.92 29.1 218.86 29.94 218.74 31.5H194.32C194.76 33.5 195.8 35.08 197.44 36.24C199.08 37.4 201.12 37.98 203.56 37.98C205.24 37.98 206.72 37.74 208 37.26C209.32 36.74 210.54 35.94 211.66 34.86L216.64 40.26C213.6 43.74 209.16 45.48 203.32 45.48C199.68 45.48 196.46 44.78 193.66 43.38C190.86 41.94 188.7 39.96 187.18 37.44C185.66 34.92 184.9 32.06 184.9 28.86C184.9 25.7 185.64 22.86 187.12 20.34C188.64 17.78 190.7 15.8 193.3 14.4C195.94 12.96 198.88 12.24 202.12 12.24C205.28 12.24 208.14 12.92 210.7 14.28C213.26 15.64 215.26 17.6 216.7 20.16C218.18 22.68 218.92 25.62 218.92 28.98ZM202.18 19.32C200.06 19.32 198.28 19.92 196.84 21.12C195.4 22.32 194.52 23.96 194.2 26.04H210.1C209.78 24 208.9 22.38 207.46 21.18C206.02 19.94 204.26 19.32 202.18 19.32Z" fill="#848483" fill-opacity="0.7"/>
<path d="M63.9691 45.48C60.5691 45.48 57.5091 44.78 54.7891 43.38C52.1091 41.94 50.0091 39.96 48.4891 37.44C46.9691 34.92 46.2091 32.06 46.2091 28.86C46.2091 25.66 46.9691 22.8 48.4891 20.28C50.0091 17.76 52.1091 15.8 54.7891 14.4C57.5091 12.96 60.5691 12.24 63.9691 12.24C67.3691 12.24 70.4091 12.96 73.0891 14.4C75.7691 15.8 77.8691 17.76 79.3891 20.28C80.9091 22.8 81.6691 25.66 81.6691 28.86C81.6691 32.06 80.9091 34.92 79.3891 37.44C77.8691 39.96 75.7691 41.94 73.0891 43.38C70.4091 44.78 67.3691 45.48 63.9691 45.48ZM63.9691 37.8C66.3691 37.8 68.3291 37 69.8491 35.4C71.4091 33.76 72.1891 31.58 72.1891 28.86C72.1891 26.14 71.4091 23.98 69.8491 22.38C68.3291 20.74 66.3691 19.92 63.9691 19.92C61.5691 19.92 59.5891 20.74 58.0291 22.38C56.4691 23.98 55.6891 26.14 55.6891 28.86C55.6891 31.58 56.4691 33.76 58.0291 35.4C59.5891 37 61.5691 37.8 63.9691 37.8ZM103.285 45.48C99.8855 45.48 96.8255 44.78 94.1055 43.38C91.4255 41.94 89.3255 39.96 87.8055 37.44C86.2855 34.92 85.5255 32.06 85.5255 28.86C85.5255 25.66 86.2855 22.8 87.8055 20.28C89.3255 17.76 91.4255 15.8 94.1055 14.4C96.8255 12.96 99.8855 12.24 103.285 12.24C106.685 12.24 109.725 12.96 112.405 14.4C115.085 15.8 117.185 17.76 118.705 20.28C120.225 22.8 120.985 25.66 120.985 28.86C120.985 32.06 120.225 34.92 118.705 37.44C117.185 39.96 115.085 41.94 112.405 43.38C109.725 44.78 106.685 45.48 103.285 45.48ZM103.285 37.8C105.685 37.8 107.645 37 109.165 35.4C110.725 33.76 111.505 31.58 111.505 28.86C111.505 26.14 110.725 23.98 109.165 22.38C107.645 20.74 105.685 19.92 103.285 19.92C100.885 19.92 98.9055 20.74 97.3455 22.38C95.7855 23.98 95.0055 26.14 95.0055 28.86C95.0055 31.58 95.7855 33.76 97.3455 35.4C98.9055 37 100.885 37.8 103.285 37.8Z" fill="#FF5353"/>
</g>
</svg>
