<svg width="233" height="57" viewBox="0 0 233 57" fill="none" xmlns="http://www.w3.org/2000/svg">
<g clip-path="url(#clip0_3444_6706)">
<path d="M84.2791 15.3742C84.2791 14.9899 84.5508 14.7593 84.8614 14.7593C85.4049 14.7593 86.2589 15.3742 86.7248 16.5273C86.5695 16.5273 86.2977 16.5657 86.1425 16.5657C85.1331 16.6042 84.2791 16.143 84.2791 15.3742ZM23.4087 15.3742C23.4087 14.9899 23.6416 14.7593 23.991 14.7593C24.5345 14.7593 25.3109 15.3742 25.7767 16.5273C24.2239 16.5657 23.4087 16.2198 23.4087 15.3742ZM35.1325 9.22455C35.1325 2.88267 36.3359 1.88334 36.7241 1.88334C37.384 1.88334 37.4617 2.30614 37.4617 4.72758C37.4617 7.22589 36.4135 10.4929 35.0936 12.2994V9.22455H35.1325ZM77.8737 15.4895C77.1361 16.5273 76.5538 17.9494 76.5538 19.8328C76.5538 23.4073 78.5725 26.8281 82.4933 26.8281C86.2977 26.8281 88.9375 23.7916 88.9375 19.5637C88.9375 18.3338 88.8987 18.18 88.8211 17.6419C89.7139 17.2576 90.4515 16.6426 91.0338 16.1814C91.5385 15.797 91.9267 15.5664 92.1984 15.5664C92.5866 15.5664 92.7419 15.8739 92.7419 16.412V24.7525C92.7419 26.0978 93.1689 26.7512 94.2171 26.7512C95.1876 26.7512 95.8475 26.0593 96.2358 25.2522C97.6333 22.3311 99.652 18.4107 100.506 16.9117C100.7 16.5657 100.894 16.2967 101.011 16.2967C101.166 16.2967 101.282 16.412 101.282 16.9885V23.6379C101.282 25.5212 102.136 26.7512 103.961 26.7512C105.902 26.7512 106.873 24.8678 108.542 21.9852C108.619 21.793 108.658 21.6777 108.658 21.5624C108.658 21.178 108.348 20.9474 107.998 20.9474C107.61 20.9474 107.416 21.3318 106.135 22.7539C105.863 23.0229 105.63 23.4073 105.164 23.4073C105.009 23.4073 104.854 23.2151 104.854 22.9461V15.4895C104.854 13.4909 103.961 12.6838 102.835 12.6838C101.904 12.6838 101.166 13.0681 100.351 14.2596C98.9144 16.412 97.4392 19.41 96.6628 20.9474C96.5851 21.1396 96.4687 21.3702 96.391 21.3702C96.3134 21.3702 96.2746 21.2549 96.2746 20.9474V15.4895C96.2746 13.9137 95.8476 12.6838 94.2171 12.6838C92.509 12.6838 91.6161 13.8753 90.3351 14.7593C89.5198 15.3742 88.8211 15.797 88.2776 16.0276C87.4235 13.8368 85.8707 12.7606 84.5896 12.7991C83.2697 12.8375 82.3381 13.6446 82.3381 15.0283C82.3381 16.412 83.1921 17.4113 84.3179 17.8341C84.939 18.1032 85.5213 18.1416 86.3754 18.1416C86.6471 18.1416 86.88 18.1416 87.0353 18.1032C87.113 18.526 87.0742 19.1409 87.0742 19.6022C87.0742 21.6777 85.8707 23.7916 83.5803 23.7916C81.2123 23.7916 79.8147 21.4855 79.8147 18.8334C79.8147 16.8348 80.397 15.1821 81.3676 14.029C81.7558 13.6062 82.0275 13.3372 82.0275 12.9528C82.0275 12.7606 81.7558 12.6838 81.484 12.6838C79.8924 12.6838 78.1066 13.414 76.9032 14.029C75.3116 14.8746 73.4094 16.2967 71.8566 17.7188C71.119 16.0276 70.1873 14.5287 69.7214 13.3756C69.5661 12.9144 69.4497 12.3763 69.1003 12.3763C68.7897 12.3763 68.6733 12.6838 68.4792 13.2603C67.7416 15.528 63.6654 22.1389 62.8114 23.0229C62.7338 23.1382 62.6173 23.292 62.5785 23.292C62.5008 23.292 62.4232 23.2535 62.4232 22.9845V15.528C62.4232 13.5293 61.608 12.7222 60.521 12.7222C59.5893 12.7222 58.7741 13.1065 58.0365 14.298C56.639 16.4504 54.9697 19.5253 54.1544 21.0627C54.038 21.3318 53.8827 21.4086 53.8439 21.4086C53.8051 21.4086 53.7662 21.2549 53.7662 20.9858V15.528C53.7662 13.5293 52.951 12.7222 51.8641 12.7222C50.9324 12.7222 50.0395 13.0681 49.3407 14.298C47.5938 17.3345 44.6435 21.9852 44.1 22.7154C44.0223 22.8307 43.9447 22.9461 43.8282 22.9845C43.7506 22.9845 43.7118 22.9076 43.7118 22.677V15.528C43.7118 13.5293 42.8965 12.7222 41.8096 12.7222C40.2956 12.7222 39.4415 14.1443 38.898 15.0283C38.1216 16.2583 37.1511 17.911 36.3359 19.4484C35.7924 20.4862 35.3266 21.4086 35.1713 21.4086C35.0936 21.4086 35.0936 21.0243 35.0936 20.294V14.6055C37.7334 11.6076 39.4027 7.95617 39.4027 3.95887C39.4027 1.65273 38.3934 0.384356 36.8406 0.384356C33.929 0.384356 31.7163 4.99663 31.7163 10.4545V14.8746C30.3575 15.7202 29.1153 16.143 27.5237 16.4504C26.7084 14.0674 25.0392 12.8375 23.6804 12.8759C22.3605 12.9144 21.4289 13.7215 21.4289 15.1052C21.4289 17.3729 23.6028 18.2953 25.5438 18.2953H26.0873C26.1649 18.7181 26.1649 19.1794 26.1649 19.679C26.1649 21.7546 24.9615 23.8685 22.6711 23.8685C20.3031 23.8685 18.9055 21.5624 18.9055 18.9103C18.9055 16.9117 19.4878 15.2589 20.4583 14.1059C20.8466 13.6831 21.1571 13.2987 21.1571 13.0297C21.1571 12.8375 20.8466 12.7606 20.6136 12.7606C19.022 12.7606 15.4893 14.9515 11.2579 19.2178C10.8697 15.797 10.4815 12.4916 10.4815 9.22455C10.4815 5.6116 11.1803 2.53675 11.3744 1.65273C11.452 1.11463 11.5297 0.768712 11.5297 0.499663C11.5297 0.153742 11.3356 0 10.9085 0C7.49234 0 0 5.49629 0 13.7215C0 19.5637 2.0963 22.3695 5.74542 25.9825C3.53266 29.5954 1.74692 33.9002 1.74692 37.7438C1.74692 40.5111 2.36804 42.5867 4.3867 42.5867C8.57931 42.5867 11.7626 33.708 11.7626 27.174C11.7626 25.2138 11.6849 23.2535 11.5297 21.2933C13.0825 19.6406 15.4893 17.3729 16.0716 17.1423C15.8387 18.0263 15.6446 18.9872 15.6446 19.8712C15.6446 23.4457 17.6633 26.8665 21.5841 26.8665C25.2333 26.8665 28.0283 23.8301 28.0283 19.6022C28.0283 19.0641 27.9895 18.5644 27.9507 18.0647C29.3094 17.7957 30.5128 17.4498 31.7163 16.7579V25.3291C31.7163 26.4437 32.4538 26.8665 33.1914 26.8665C34.1619 26.8665 34.6666 26.1746 35.3654 24.5988C35.9477 23.3304 37.5393 20.3709 38.5098 18.6413C39.2862 17.2576 39.7133 16.3736 40.0238 16.3736C40.1015 16.3736 40.1791 16.5657 40.1791 17.1038V24.4066C40.1791 26.3668 41.1884 26.8665 42.0813 26.8665C42.9354 26.8665 43.4788 26.4053 44.0223 25.6365C46.1963 22.4848 48.5255 18.7566 49.4572 17.1038C49.6125 16.8348 49.8454 16.6042 50.0007 16.6042C50.156 16.6042 50.2336 16.6811 50.2336 17.2576V24.9063C50.2336 26.2515 50.6606 26.9049 51.7088 26.9049C52.6793 26.9049 53.3004 26.2131 53.6886 25.4059C55.0861 22.4848 57.1436 18.6028 58.0365 17.0654C58.2306 16.7195 58.4635 16.412 58.58 16.412C58.7353 16.412 58.7741 16.6042 58.7741 17.1807V24.4066C58.7741 26.3668 59.7834 26.8665 60.6763 26.8665C61.8409 26.8665 62.6173 26.0209 63.3549 25.0216C64.7524 23.1767 66.7711 19.9096 67.9745 17.8341C68.4015 18.526 68.8674 19.3331 69.2556 20.2171C68.2463 21.4471 67.2369 22.8692 67.2369 24.3297C67.2369 25.9056 68.3239 26.8665 69.4885 26.8665C71.4295 26.8665 73.1764 24.9831 73.1764 22.408C73.1764 21.4086 72.8659 20.3324 72.5165 19.2947C74.3022 17.5266 76.3597 15.8739 77.8737 15.4895ZM8.54049 24.791C8.88987 27.0587 9.16161 29.2495 9.16161 31.0175C9.16161 35.0917 7.8029 39.8962 5.5125 39.8577C4.61963 39.8577 3.88204 38.9353 3.84322 37.3978C3.72676 32.2475 6.13362 27.9042 8.54049 24.791ZM69.9932 21.8699C70.2649 22.6001 70.3814 23.1767 70.3814 23.7916C70.3814 24.4835 70.1096 25.1753 69.6438 25.1753C69.2944 25.1753 68.9838 24.791 68.9838 24.176C68.9838 23.561 69.5273 22.5233 69.9932 21.8699ZM10.0545 1.57586C10.0545 1.84491 9.47218 3.03641 8.69577 5.15037C7.88054 7.37964 7.14295 10.4929 7.14295 14.298C7.14295 16.5657 7.68644 19.5253 8.15228 22.5617L6.79357 24.4066C4.65845 21.7546 3.29973 18.795 3.29973 13.6831C3.29973 6.45718 7.64762 1.42212 9.86038 1.42212C10.0157 1.38368 10.0545 1.42212 10.0545 1.57586Z" fill="#848483"/>
<path d="M208.388 15.3742C208.388 14.9899 208.621 14.7593 208.97 14.7593C209.514 14.7593 210.368 15.3742 210.834 16.5273C210.678 16.5273 210.407 16.5657 210.251 16.5657C209.203 16.6042 208.388 16.143 208.388 15.3742ZM147.168 15.3742C147.168 14.9899 147.44 14.7593 147.75 14.7593C148.294 14.7593 149.109 15.3742 149.575 16.5273C148.022 16.5657 147.168 16.2198 147.168 15.3742ZM158.97 9.22455C158.97 2.88267 160.173 1.88334 160.561 1.88334C161.221 1.88334 161.338 2.30614 161.338 4.72758C161.338 7.22589 160.289 10.4929 158.97 12.2994V9.22455ZM132.261 24.791C132.572 27.0587 132.882 29.2495 132.882 31.0175C132.882 35.0917 131.524 39.8962 129.194 39.8577C128.301 39.8577 127.564 38.9353 127.486 37.3978C127.409 32.2475 129.815 27.9042 132.261 24.791ZM194.024 21.8699C194.296 22.6001 194.413 23.1767 194.413 23.7916C194.413 24.4835 194.141 25.1753 193.675 25.1753C193.326 25.1753 192.976 24.791 192.976 24.176C193.015 23.561 193.559 22.5233 194.024 21.8699ZM133.775 1.57586C133.775 1.84491 133.193 3.03641 132.416 5.15037C131.601 7.37964 130.864 10.4929 130.864 14.298C130.864 16.5657 131.407 19.5253 131.873 22.5617L130.514 24.4066C128.379 21.7546 126.982 18.795 126.982 13.6831C126.982 6.45718 131.329 1.42212 133.581 1.42212C133.736 1.38368 133.775 1.42212 133.775 1.57586ZM126.71 22.8692C127.447 23.9069 128.379 24.8678 129.505 25.944C127.253 29.557 125.468 33.8618 125.468 37.7053C125.468 40.4727 126.128 42.5482 128.146 42.5482C132.378 42.5482 135.561 33.6696 135.561 27.1355C135.561 25.1753 135.483 23.2151 135.289 21.2549C136.842 19.6022 139.249 17.3345 139.87 17.1038C139.598 17.9879 139.443 18.9488 139.443 19.8328C139.443 23.4073 141.462 26.8281 145.421 26.8281C149.109 26.8281 151.904 23.7916 151.904 19.5637C151.904 19.0256 151.865 18.526 151.827 18.0263C153.185 17.7572 154.428 17.4113 155.592 16.7195V25.2906C155.592 26.4053 156.369 26.8281 157.067 26.8281C158.038 26.8281 158.543 26.1362 159.28 24.5604C159.862 23.292 161.493 20.3324 162.463 18.6028C163.24 17.2192 163.628 16.3351 163.977 16.3351C164.055 16.3351 164.133 16.5273 164.133 17.0654V24.3682C164.133 26.3284 165.142 26.8281 166.035 26.8281C166.889 26.8281 167.432 26.3668 167.976 25.5981C170.189 22.4464 172.518 18.7181 173.411 17.0654C173.566 16.7964 173.799 16.5657 173.954 16.5657C174.11 16.5657 174.226 16.6426 174.226 17.2192V24.8678C174.226 26.2131 174.653 26.8665 175.701 26.8665C176.672 26.8665 177.293 26.1746 177.681 25.3675C179.079 22.4464 181.136 18.5644 182.029 17.027C182.223 16.6811 182.456 16.3736 182.572 16.3736C182.728 16.3736 182.766 16.5657 182.766 17.1423V24.3682C182.766 26.3284 183.776 26.8281 184.669 26.8281C185.872 26.8281 186.61 25.9825 187.386 24.9831C188.784 23.1382 190.802 19.8712 192.045 17.7957C192.472 18.4875 192.937 19.2947 193.326 20.1787C192.316 21.4086 191.307 22.8307 191.307 24.2913C191.307 25.8672 192.394 26.8281 193.559 26.8281C195.5 26.8281 197.285 24.9447 197.285 22.3695C197.285 21.3702 196.975 20.294 196.625 19.2562C198.372 17.5651 200.43 15.8739 201.944 15.4895C201.206 16.5273 200.624 17.9494 200.624 19.8328C200.624 23.4073 202.643 26.8281 206.602 26.8281C210.407 26.8281 213.085 23.7916 213.085 19.5637C213.085 18.3338 213.046 18.18 212.969 17.6419C213.862 17.2576 214.599 16.6426 215.22 16.1814C215.725 15.797 216.113 15.5664 216.385 15.5664C216.773 15.5664 216.967 15.8739 216.967 16.412V24.7525C216.967 26.0978 217.394 26.7512 218.442 26.7512C219.413 26.7512 220.112 26.0593 220.461 25.2522C221.859 22.3311 223.877 18.4107 224.77 16.9117C224.964 16.5657 225.158 16.2967 225.275 16.2967C225.43 16.2967 225.547 16.412 225.547 16.9885V23.6379C225.547 25.5212 226.401 26.7512 228.264 26.7512C230.205 26.7512 231.176 24.8678 232.884 21.9852C232.961 21.793 233 21.6777 233 21.5624C233 21.178 232.651 20.9474 232.34 20.9474C231.952 20.9474 231.758 21.3318 230.477 22.7539C230.244 23.0229 229.972 23.4073 229.506 23.4073C229.312 23.4073 229.196 23.2151 229.196 22.9461V15.4895C229.196 13.4909 228.303 12.6838 227.138 12.6838C226.207 12.6838 225.469 13.0681 224.654 14.2596C223.217 16.412 221.742 19.41 220.927 20.9474C220.849 21.1396 220.733 21.3702 220.616 21.3702C220.539 21.3702 220.5 21.2549 220.5 20.9474V15.4895C220.5 13.9137 220.073 12.6838 218.442 12.6838C216.696 12.6838 215.803 13.8753 214.56 14.7593C213.745 15.3742 213.046 15.797 212.464 16.0276C211.61 13.8368 210.057 12.7606 208.737 12.7991C207.417 12.8375 206.486 13.6446 206.486 15.0283C206.486 16.412 207.34 17.4113 208.466 17.8341C209.087 18.1032 209.708 18.1416 210.562 18.1416C210.795 18.1416 211.067 18.1416 211.222 18.1032C211.299 18.526 211.261 19.1409 211.261 19.6022C211.261 21.6777 210.018 23.7916 207.728 23.7916C205.36 23.7916 203.962 21.4855 203.962 18.8334C203.962 16.8348 204.545 15.1821 205.515 14.029C205.903 13.6062 206.214 13.3372 206.214 12.9528C206.214 12.7606 205.903 12.6838 205.671 12.6838C204.079 12.6838 202.293 13.414 201.051 14.029C199.459 14.8746 197.557 16.2967 195.965 17.7188C195.189 16.0276 194.296 14.5287 193.791 13.3756C193.636 12.9144 193.52 12.3763 193.17 12.3763C192.86 12.3763 192.743 12.6838 192.549 13.2603C191.773 15.528 187.735 22.1389 186.843 23.0229C186.765 23.1382 186.61 23.292 186.571 23.292C186.493 23.292 186.454 23.2535 186.454 22.9845V15.528C186.454 13.5293 185.639 12.7222 184.552 12.7222C183.621 12.7222 182.844 13.1065 182.068 14.298C180.67 16.4504 178.962 19.5253 178.186 21.0627C178.069 21.3318 177.953 21.4086 177.914 21.4086C177.875 21.4086 177.836 21.2549 177.836 20.9858V15.528C177.836 13.5293 177.021 12.7222 175.934 12.7222C175.002 12.7222 174.11 13.0681 173.411 14.298C171.625 17.3345 168.675 21.9852 168.131 22.7154C168.054 22.8307 167.976 22.9461 167.859 22.9845C167.782 22.9845 167.743 22.9076 167.743 22.677V15.528C167.743 13.5293 166.928 12.7222 165.841 12.7222C164.327 12.7222 163.473 14.1443 162.929 15.0283C162.153 16.2583 161.144 17.911 160.367 19.4484C159.824 20.4862 159.358 21.4086 159.203 21.4086C159.125 21.4086 159.125 21.0243 159.125 20.294V14.6055C161.803 11.6076 163.434 7.95617 163.434 3.95887C163.434 1.65273 162.425 0.384356 160.833 0.384356C157.921 0.384356 155.67 4.99663 155.67 10.4545V14.8746C154.311 15.7202 153.03 16.143 151.477 16.4504C150.662 14.0674 148.993 12.8375 147.634 12.8759C146.314 12.9144 145.382 13.7215 145.382 15.1052C145.382 17.3729 147.595 18.2953 149.536 18.2953H150.08C150.157 18.7181 150.157 19.1794 150.157 19.679C150.157 21.7546 148.954 23.8685 146.664 23.8685C144.295 23.8685 142.898 21.5624 142.898 18.9103C142.898 16.9117 143.48 15.2589 144.451 14.1059C144.839 13.6831 145.111 13.2987 145.111 13.0297C145.111 12.8375 144.8 12.7606 144.567 12.7606C142.937 12.7606 139.404 14.9515 135.173 19.2178C134.784 15.797 134.357 12.4916 134.357 9.22455C134.357 5.6116 135.095 2.53675 135.25 1.65273C135.328 1.11463 135.367 0.768712 135.367 0.499663C135.367 0.153742 135.212 0 134.746 0C131.329 0 123.798 5.49629 123.798 13.7215C123.798 17.0654 124.536 19.4869 125.778 21.5624C125.312 21.4855 124.924 21.4855 124.575 21.4855C123.216 21.4855 121.935 21.8314 121.159 21.9852V21.1396C121.159 19.3331 120.731 16.7964 119.955 15.9508C119.877 15.8739 119.722 15.8355 119.606 15.8355C119.256 15.8355 118.829 15.9892 118.363 16.2583C117.859 16.5273 117.354 16.7579 117.354 16.9501C117.354 17.027 117.354 17.1038 117.471 17.3345C117.781 17.7572 118.558 18.6028 118.868 20.6015C117.432 19.1409 115.801 18.526 113.627 18.526C111.065 18.526 110.328 19.679 110.328 20.8321C110.328 23.0614 113.239 24.1376 116.927 24.1376C117.587 24.1376 118.363 24.0223 119.101 23.8301C119.101 24.5219 119.179 25.1369 119.179 25.6365C119.179 26.3668 119.295 26.9049 119.761 26.9049C120.46 26.9049 120.887 25.4444 121.003 23.3688C122.323 23.0229 123.682 22.7154 124.808 22.7154C125.351 22.677 126.011 22.7539 126.71 22.8692ZM118.363 22.4464C117.665 22.5233 117.199 22.5233 116.461 22.5233C114.792 22.5233 113.589 21.8699 113.589 20.9474C113.589 20.3324 113.899 19.9865 114.714 19.9865C116.073 20.025 117.199 20.9474 118.363 22.4464Z" fill="#848483"/>
<path d="M9.97684 56.7906H8.03582V50.8715L5.74542 56.7906H4.15378L1.86338 50.9484V56.7906H0V47.8351H2.56214L4.96901 53.8695L7.25941 47.8351H9.93802V56.7906H9.97684ZM17.5468 56.7906H11.9567V47.8351H17.5468V49.7185H13.9365V51.4096H17.1974V53.1777H13.9365V54.9073H17.5468V56.7906ZM21.1959 54.9073H22.3217C23.0593 54.9073 23.6416 54.6766 24.1075 54.2539C24.5733 53.8311 24.8062 53.1777 24.8062 52.3321C24.8062 51.4865 24.5733 50.8331 24.1075 50.3719C23.6416 49.9491 23.0593 49.7185 22.3217 49.7185H21.1959V54.9073ZM22.3994 56.7906H19.2161V47.8351H22.3994C23.7193 47.8351 24.8062 48.2579 25.6215 49.065C26.4367 49.8722 26.8249 50.9484 26.8249 52.3321C26.8249 53.7158 26.4367 54.7919 25.6215 55.5991C24.8062 56.3678 23.7581 56.7906 22.3994 56.7906ZM30.2799 56.7906H28.3001V47.8351H30.2799V56.7906ZM36.2582 56.9828C34.9772 56.9828 33.8902 56.56 32.9973 55.676C32.1045 54.8304 31.6774 53.6773 31.6774 52.3321C31.6774 50.9868 32.1045 49.8338 32.9973 48.9497C33.8902 48.0657 34.9384 47.6429 36.2194 47.6429C36.8405 47.6429 37.4229 47.7198 37.9275 47.912C38.4322 48.1042 38.8592 48.3348 39.1698 48.6807C39.4803 48.9882 39.7521 49.2957 39.9462 49.6416C40.1403 49.9875 40.2567 50.295 40.3344 50.6793L38.471 51.2559C38.4322 51.0637 38.3545 50.91 38.2769 50.7178C38.1993 50.564 38.044 50.3719 37.8887 50.1797C37.7334 49.9875 37.5005 49.8338 37.1899 49.7569C36.9182 49.6416 36.5688 49.6031 36.2194 49.6031C35.5595 49.6031 34.9772 49.8338 34.4725 50.3334C33.9678 50.7946 33.6961 51.4865 33.6961 52.3705C33.6961 53.1777 33.929 53.8311 34.4337 54.2923C34.9384 54.7535 35.5207 55.0226 36.2194 55.0226C36.8794 55.0226 37.4229 54.8688 37.8111 54.5229C38.1993 54.177 38.4322 53.7926 38.5486 53.3698L40.412 53.9079C40.3344 54.2538 40.1791 54.5998 40.0238 54.9457C39.8297 55.2916 39.5968 55.5991 39.2474 55.945C38.9369 56.2909 38.5098 56.5216 37.9663 56.7522C37.5005 56.8675 36.9182 56.9828 36.2582 56.9828ZM47.3221 56.7906L46.7009 54.9841H43.2847L42.6636 56.7906H40.5673L43.867 47.8351H46.1574L49.4184 56.7906H47.3221ZM44.9928 50.0644L43.9059 53.1392H46.041L44.9928 50.0644ZM56.3284 56.7906H50.583V47.8351H52.5628V54.8688H56.3672V56.7906H56.3284ZM62.6949 54.9073H63.8207C64.5583 54.9073 65.1406 54.6766 65.6065 54.2539C66.0723 53.8311 66.3052 53.1777 66.3052 52.3321C66.3052 51.4865 66.0723 50.8331 65.6065 50.3719C65.1406 49.9491 64.5583 49.7185 63.8207 49.7185H62.6949V54.9073ZM63.9372 56.7906H60.7539V47.8351H63.9372C65.2571 47.8351 66.344 48.2579 67.1593 49.065C67.9745 49.8722 68.3627 50.9484 68.3627 52.3321C68.3627 53.7158 67.9745 54.7919 67.1593 55.5991C66.344 56.3678 65.2571 56.7906 63.9372 56.7906ZM75.3892 56.7906H69.7991V47.8351H75.3892V49.7185H71.7789V51.4096H75.0398V53.1777H71.7789V54.9073H75.3892V56.7906ZM80.5911 54.1385L82.6874 47.8351H84.7837L81.5616 56.7906H79.543L76.3209 47.8351H78.4948L80.5911 54.1385ZM87.8894 56.7906H85.9095V47.8351H87.8894V56.7906ZM93.9065 56.9828C92.6254 56.9828 91.5385 56.56 90.6456 55.676C89.7527 54.8304 89.3257 53.6773 89.3257 52.3321C89.3257 50.9868 89.7527 49.8338 90.6456 48.9497C91.5385 48.0657 92.5866 47.6429 93.8677 47.6429C94.4888 47.6429 95.0711 47.7198 95.5758 47.912C96.0805 48.1042 96.5075 48.3348 96.818 48.6807C97.1286 48.9882 97.4004 49.2957 97.5945 49.6416C97.7886 49.9875 97.905 50.295 97.9827 50.6793L96.1193 51.2559C96.0805 51.0637 96.0028 50.91 95.9252 50.7178C95.8475 50.564 95.6923 50.3719 95.537 50.1797C95.3817 49.9875 95.1488 49.8338 94.8382 49.7569C94.5665 49.6416 94.2171 49.6031 93.8677 49.6031C93.2077 49.6031 92.6254 49.8338 92.1208 50.3334C91.6161 50.8331 91.3444 51.4865 91.3444 52.3705C91.3444 53.1777 91.5773 53.8311 92.082 54.2923C92.5866 54.7535 93.1689 55.0226 93.8677 55.0226C94.5276 55.0226 95.0711 54.8688 95.4593 54.5229C95.8475 54.177 96.0805 53.7926 96.1969 53.3698L98.0603 53.9079C97.9827 54.2538 97.8274 54.5998 97.6721 54.9457C97.478 55.2916 97.2451 55.5991 96.8957 55.945C96.5851 56.2909 96.1581 56.5216 95.6146 56.7522C95.1099 56.8675 94.5276 56.9828 93.9065 56.9828ZM105.048 56.7906H99.4578V47.8351H105.048V49.7185H101.438V51.4096H104.699V53.1777H101.438V54.9073H105.048V56.7906ZM112.812 50.0259L111.065 50.5256C111.026 50.2565 110.871 49.9875 110.638 49.7569C110.405 49.5263 110.056 49.411 109.59 49.411C109.241 49.411 108.93 49.4878 108.736 49.68C108.503 49.8722 108.387 50.1028 108.387 50.3719C108.387 50.8331 108.658 51.1021 109.241 51.2174L110.405 51.4481C111.22 51.6018 111.842 51.9093 112.269 52.4089C112.696 52.9086 112.929 53.4851 112.929 54.1385C112.929 54.8688 112.618 55.5607 112.036 56.0988C111.453 56.6753 110.638 56.9443 109.668 56.9443C108.542 56.9443 107.688 56.6369 107.105 56.0603C106.484 55.4838 106.174 54.8304 106.096 54.0617L107.882 53.6389C107.921 54.1001 108.076 54.446 108.387 54.7535C108.697 55.061 109.124 55.1763 109.706 55.1763C110.095 55.1763 110.405 55.0994 110.599 54.9073C110.832 54.7535 110.949 54.5229 110.949 54.2154C110.949 53.9848 110.871 53.7926 110.716 53.6389C110.56 53.4851 110.328 53.3698 110.017 53.3314L108.814 53.1008C108.076 52.947 107.494 52.6396 107.067 52.1783C106.64 51.7171 106.446 51.1406 106.446 50.4872C106.446 49.68 106.756 48.9882 107.377 48.4116C107.998 47.8351 108.736 47.6045 109.59 47.6045C110.095 47.6045 110.56 47.6814 110.987 47.8351C111.415 47.9888 111.725 48.181 111.958 48.4116C112.191 48.6423 112.385 48.9113 112.54 49.1804C112.657 49.4494 112.734 49.7569 112.812 50.0259ZM121.508 56.9828C120.227 56.9828 119.14 56.56 118.247 55.676C117.354 54.8304 116.927 53.6773 116.927 52.3321C116.927 50.9868 117.354 49.8338 118.247 48.9497C119.14 48.0657 120.188 47.6429 121.469 47.6429C122.09 47.6429 122.672 47.7198 123.177 47.912C123.682 48.1042 124.109 48.3348 124.419 48.6807C124.73 48.9882 125.002 49.2957 125.196 49.6416C125.39 49.9875 125.506 50.295 125.584 50.6793L123.721 51.2559C123.682 51.0637 123.604 50.91 123.526 50.7178C123.449 50.564 123.294 50.3719 123.138 50.1797C122.983 49.9875 122.75 49.8338 122.44 49.7569C122.168 49.6416 121.818 49.6031 121.469 49.6031C120.809 49.6031 120.227 49.8338 119.722 50.3334C119.217 50.7946 118.946 51.4865 118.946 52.3705C118.946 53.1777 119.179 53.8311 119.683 54.2923C120.188 54.7535 120.77 55.0226 121.469 55.0226C122.129 55.0226 122.672 54.8688 123.061 54.5229C123.449 54.177 123.682 53.7926 123.798 53.3698L125.662 53.9079C125.584 54.2538 125.429 54.5998 125.273 54.9457C125.079 55.2916 124.846 55.5991 124.497 55.945C124.186 56.2909 123.759 56.5216 123.216 56.7522C122.711 56.8675 122.129 56.9828 121.508 56.9828ZM128.534 52.2936C128.534 53.1777 128.806 53.8311 129.311 54.2923C129.815 54.7535 130.398 54.9841 131.096 54.9841C131.756 54.9841 132.378 54.7535 132.882 54.2923C133.387 53.8311 133.659 53.1777 133.659 52.2936C133.659 51.4096 133.387 50.7562 132.882 50.295C132.378 49.8338 131.795 49.6031 131.096 49.6031C130.437 49.6031 129.815 49.8338 129.311 50.295C128.767 50.7562 128.534 51.4096 128.534 52.2936ZM126.477 52.3321C126.477 50.9484 126.904 49.8338 127.797 48.9497C128.69 48.1042 129.777 47.6429 131.058 47.6429C132.339 47.6429 133.426 48.0657 134.319 48.9497C135.211 49.8338 135.638 50.9484 135.638 52.3321C135.638 53.7158 135.211 54.8304 134.319 55.7144C133.426 56.56 132.339 57.0212 131.058 57.0212C129.777 57.0212 128.69 56.5984 127.797 55.7144C126.943 54.8304 126.477 53.6773 126.477 52.3321ZM147.052 56.7906H145.111V50.8715L142.82 56.7906H141.229L138.938 50.9484V56.7906H137.075V47.8351H139.637L142.044 53.8695L144.334 47.8351H147.013V56.7906H147.052ZM150.972 51.8324H152.098C152.486 51.8324 152.758 51.7171 152.991 51.5249C153.224 51.3327 153.341 51.0253 153.341 50.6793C153.341 50.3334 153.224 50.0644 152.991 49.8338C152.758 49.6416 152.448 49.5263 152.059 49.5263H150.934V51.8324H150.972ZM152.331 53.562H150.972V56.7906H148.993V47.8351H152.292C153.185 47.8351 153.923 48.1042 154.466 48.6423C155.01 49.1804 155.32 49.8722 155.32 50.7178C155.32 51.5634 155.049 52.2552 154.466 52.7933C153.962 53.293 153.224 53.562 152.331 53.562ZM161.881 56.7906L161.26 54.9841H157.844L157.223 56.7906H155.165L158.465 47.8351H160.755L164.016 56.7906H161.881ZM159.552 50.0644L158.465 53.1392H160.6L159.552 50.0644ZM172.79 56.7906H170.732L167.122 50.91V56.7906H165.181V47.8351H167.549L170.849 53.293V47.8351H172.828V56.7906H172.79ZM176.71 56.7906H174.731V47.8351H176.71V56.7906ZM184.242 56.7906H178.651V47.8351H184.203V49.7185H180.592V51.4096H183.853V53.1777H180.592V54.9073H184.203V56.7906H184.242ZM191.967 50.0259L190.22 50.5256C190.181 50.2565 190.026 49.9875 189.793 49.7569C189.56 49.5263 189.211 49.411 188.745 49.411C188.395 49.411 188.085 49.4878 187.891 49.68C187.658 49.8722 187.541 50.1028 187.541 50.3719C187.541 50.8331 187.813 51.1021 188.395 51.2174L189.56 51.4481C190.375 51.6018 190.996 51.9093 191.423 52.4089C191.85 52.9086 192.083 53.4851 192.083 54.1385C192.083 54.8688 191.773 55.5607 191.19 56.0988C190.608 56.6369 189.793 56.9443 188.822 56.9443C187.697 56.9443 186.843 56.6369 186.26 56.0603C185.678 55.4838 185.329 54.8304 185.251 54.0617L187.037 53.6389C187.075 54.1001 187.231 54.446 187.541 54.7535C187.852 55.061 188.279 55.1763 188.861 55.1763C189.249 55.1763 189.56 55.0994 189.754 54.9073C189.987 54.7535 190.103 54.5229 190.103 54.2154C190.103 53.9848 190.026 53.7926 189.871 53.6389C189.715 53.4851 189.482 53.3698 189.172 53.3314L187.968 53.1008C187.231 52.947 186.648 52.6396 186.221 52.1783C185.794 51.7171 185.6 51.1406 185.6 50.4872C185.6 49.68 185.911 48.9882 186.532 48.4116C187.153 47.8735 187.891 47.6045 188.745 47.6045C189.249 47.6045 189.715 47.6814 190.142 47.8351C190.569 47.9888 190.88 48.181 191.113 48.4116C191.346 48.6423 191.54 48.9113 191.695 49.1804C191.85 49.4494 191.928 49.7569 191.967 50.0259Z" fill="#FF5353" fill-opacity="0.8"/>
</g>
<defs>
<clipPath id="clip0_3444_6706">
<rect width="233" height="57" fill="white"/>
</clipPath>
</defs>
</svg>
