<svg id="aa37ca39-edbf-4fa9-8357-097f522cf732" data-name="Layer 1" xmlns="http://www.w3.org/2000/svg" viewBox="0 0 114.88 133.35"><defs><style>.b6a3292a-62e4-4b17-acbe-84534d06ac23,.f63c69db-efdb-42ee-8838-4bf9536758b9{fill:none;stroke:#f05657;stroke-miterlimit:10;}.b6a3292a-62e4-4b17-acbe-84534d06ac23{stroke-width:3px;}.f63c69db-efdb-42ee-8838-4bf9536758b9{stroke-width:2px;}</style></defs><path class="b6a3292a-62e4-4b17-acbe-84534d06ac23" d="M66.31,6.66c2,.32,4,.56,6,1,9.2,1.85,17.43,5.58,24,12.53a45.84,45.84,0,0,1,10.57,18.92,56.83,56.83,0,0,1,.87,28.46,95.72,95.72,0,0,1-9.55,25.64c-.71,1.3-1.31,2.67-2.1,3.92a5.28,5.28,0,0,0-.56,4.24,79.29,79.29,0,0,0,7.79,20.34,7,7,0,0,0,1.14,1.48,2,2,0,0,1,.47,2.36,1.92,1.92,0,0,1-2,1.17c-3,0-5.93,0-8.9,0H54c-2.2,0-2.68-.39-3-2.53a24.77,24.77,0,0,0-2.42-8c-.33-.64-.63-.82-1.35-.58a63.5,63.5,0,0,1-15.91,3.09,12,12,0,0,1-7.71-1.8,6.65,6.65,0,0,1-3-6.12c0-1.36.17-2.72.3-4.08.07-.79-.08-1.25-1-1.51-2.31-.68-3.73-2.25-3.56-4.06a3.62,3.62,0,0,0-.71-2.58A6.58,6.58,0,0,1,15,95.71c-.14-1.16-.06-2.34-.17-3.51s-.72-1.59-2-1.91a12.73,12.73,0,0,1-3.94-1.56,3.87,3.87,0,0,1-1.5-5A22.19,22.19,0,0,1,9.26,80c1.05-1.78,2.15-3.54,3.31-5.25,2.48-3.65,2.67-7.64,1.83-11.79-.57-2.74-1.29-5.46-1.73-8.23a29.21,29.21,0,0,1,1.2-12.59c4.47-15.66,14.71-26,29.64-32A47.88,47.88,0,0,1,57.92,6.87a3.28,3.28,0,0,0,.65-.21Z"/><path class="f63c69db-efdb-42ee-8838-4bf9536758b9" d="M52.27,62.67c-1.48,0-3-.05-4.45,0a1.61,1.61,0,0,0-1.12.68A6,6,0,1,1,36.56,57a1.65,1.65,0,0,0,.2-1.33c-.8-2.15-1.67-4.28-2.58-6.39a2,2,0,0,0-1-1,6,6,0,0,1,.49-11.4,2.18,2.18,0,0,0,.93-.62c1-1.36,2.09-2.73,3.07-4.14A1.44,1.44,0,0,0,37.82,31a6.08,6.08,0,0,1,1.87-7.15c2.3-1.73,5-1.61,7.57.26a1.63,1.63,0,0,0,1.15.27c2.11-.38,4.21-.8,6.3-1.3a1.9,1.9,0,0,0,1.14-.88,6,6,0,0,1,11,0,2.44,2.44,0,0,0,1.22,1c.68.29,1.45.33,2.15.56a4.61,4.61,0,0,0,4.52-.42c2-1.38,4.38-1,6.33.58a5.55,5.55,0,0,1,2.13,5.92,1.14,1.14,0,0,0,.51,1.46,4.31,4.31,0,0,1,.81.67A2.92,2.92,0,0,0,88,32.9c2.22-.85,4.83.3,6.24,2.32a5.78,5.78,0,0,1,0,6.79,1.44,1.44,0,0,0-.1,1.85c.41.71.76,1.45,1.11,2.19a6.74,6.74,0,0,0,3.17,3.59c3.06,1.53,3.77,5.61,1.83,8.41a5.9,5.9,0,0,1-8.54,1.33,1.69,1.69,0,0,0-2.16-.25c-.58.31-1.23.48-1.84.74a1.4,1.4,0,0,0-.63,2.24c.56.8,1.15,1.58,1.7,2.39a7.54,7.54,0,0,0,3.3,2.93,5.79,5.79,0,0,1,2.67,7.77,5.88,5.88,0,0,1-7.68,3,1.4,1.4,0,0,0-1.69.21c-.75.68-1.56,1.29-2.37,1.91a6.78,6.78,0,0,0-2.33,2.93,5.95,5.95,0,1,1-10.42-5.68,1.41,1.41,0,0,0-.05-1.84c-1.83-2.72-3.62-5.46-5.4-8.21a1.52,1.52,0,0,0-1.48-.84A5.69,5.69,0,0,1,58,63.38a1.59,1.59,0,0,0-1.12-.68C55.32,62.62,53.8,62.67,52.27,62.67ZM75.78,61c-1.56.32-3,.68-4.46.89s-2.54.44-3,2c-.17.55-.39.89,0,1.44C70.19,68.25,72.07,71.16,74,74a1.28,1.28,0,0,0,.86.59,6.21,6.21,0,0,1,5.49,2.63c1-.8,1.94-1.54,2.86-2.31.18-.15.4-.47.36-.65a6.11,6.11,0,0,1,2.49-6.71c-.62-.87-1.24-1.66-1.78-2.51a1.16,1.16,0,0,0-1.62-.59,4.71,4.71,0,0,1-1.84.12A6,6,0,0,1,75.78,61ZM65.05,29.51c2.34,2.33,4.65,4.66,7,7a1.87,1.87,0,0,0,.81.43,6.16,6.16,0,0,1,3.66,2.72,1.34,1.34,0,0,0,1.11.51c1.69-.26,3.37-.62,5-1a1.06,1.06,0,0,0,.67-.62c.27-1.17.48-2.34-.94-3A5.1,5.1,0,0,1,81,34.36a1.1,1.1,0,0,0-1.45-.2c-3.27,1.39-7.18-.27-7.85-3.74-.41-2.13-1.52-2.63-3.23-2.9a5.32,5.32,0,0,0-1-.22,1.59,1.59,0,0,0-1,.36C66,28.19,65.6,28.81,65.05,29.51ZM51.36,47.34c-.54-.83-1-1.53-1.45-2.17a1.2,1.2,0,0,0-.81-.48q-3.74-.06-7.49,0a1.14,1.14,0,0,0-.77.36c-.85,1-1.66,2.1-2.63,3.34l2.6,6.41c.69-.12,1.53,0,2-.38C45.71,52.11,48.52,49.71,51.36,47.34ZM46.21,56.9c.32,1.62,1.29,1.88,2.67,1.8a42.86,42.86,0,0,1,6.31,0,3.16,3.16,0,0,0,3.65-2,1.37,1.37,0,0,0,.11-.94c-1-2.29-2-4.55-3.09-6.93Zm4.84-18.58c-1.88-1.21-3.77-2.43-5.68-3.63a1.53,1.53,0,0,0-.77-.16q-1.5-.09-3-.12a1,1,0,0,0-.68.22c-.77,1-1.5,2-2.13,2.8.73,1,1.33,1.91,2,2.75a1.42,1.42,0,0,0,.93.45c2.41,0,4.83,0,7.25,0a1.4,1.4,0,0,0,.92-.47C50.32,39.61,50.64,39,51.05,38.32Zm17.19,9.57a16.67,16.67,0,0,1-1.39-1.29c-.37-.45-.61-1-1-1.45a1.45,1.45,0,0,0-.82-.47c-.49-.07-1,.06-1.51,0a2.93,2.93,0,0,0-3.67,1.9,1.49,1.49,0,0,0-.12,1c.92,2.19,1.9,4.36,2.88,6.52a1,1,0,0,0,1.8.14C65.71,52.14,67,50,68.24,47.89ZM58.17,30,55.6,27.08l-6,1.21-1,3.65,6.09,3.89ZM81.69,52.35c1.17-3,2.28-5.77,3.42-8.58.33-.81.08-1-.71-.84-2.21.44-4.43.85-6.63,1.32a1.42,1.42,0,0,0-.83.53c-.53.79-1,1.64-1.53,2.56ZM67.48,37.9c-1.91-1.89-3.86-3.84-5.84-5.82l-3.09,5.17c.51.59,1.13,1,1.35,1.6.75,2,2.29,1.95,4,1.8.42,0,.86.05,1.28,0a1.21,1.21,0,0,0,.72-.42C66.44,39.45,67,38.64,67.48,37.9Zm4.39,11.79c-1.31,2.19-2.48,4.25-3.76,6.25-.58.9.19,1.29.51,1.81a1.25,1.25,0,0,0,1,.38c1.76-.31,3.51-.68,5.26-1.07a1.48,1.48,0,0,0,.8-.51c.54-.8,1-1.64,1.56-2.54Zm20.58-.26c-.69-1.38-1.3-2.65-2-3.88a4.44,4.44,0,0,0-.88-.91,4.28,4.28,0,0,0-.83.94c-.94,2.23-1.7,4.53-2.76,6.7a2.56,2.56,0,0,0,.81,3.6,12.52,12.52,0,0,0,1.58-.65c.36-.2.84-.53.89-.86A6.48,6.48,0,0,1,92.45,49.43ZM63.29,62.64a2.07,2.07,0,0,0,2-1.9,2,2,0,1,0-3.93-.09A2.08,2.08,0,0,0,63.29,62.64Zm-28-18a2,2,0,0,0,.1-3.92,2,2,0,0,0-.1,3.92Zm38.05-2a2,2,0,1,0-2,2A2.07,2.07,0,0,0,73.31,42.67Zm-30,18a2.1,2.1,0,0,0-1.94-2,2,2,0,1,0,0,4A2.11,2.11,0,0,0,43.32,60.68Zm48-22a2,2,0,0,0-1.92-2,2,2,0,1,0,1.92,2Zm0,34a2,2,0,1,0-1.89,2A2,2,0,0,0,91.29,72.62Zm-14,8a2,2,0,1,0-1.91,2A2,2,0,0,0,77.31,80.62Zm-34-53.87a1.92,1.92,0,1,0,1.9,1.9A1.84,1.84,0,0,0,43.35,26.75Zm34,3.84a1.92,1.92,0,1,0-1.92-1.9A1.86,1.86,0,0,0,77.33,30.59Zm-20,12a1.95,1.95,0,1,0-1.86,2A2,2,0,0,0,57.28,42.61Zm6-17.92a1.93,1.93,0,0,0-3.86-.1,1.93,1.93,0,1,0,3.86.1ZM95.35,52.74a1.93,1.93,0,1,0,1.91,1.91A1.86,1.86,0,0,0,95.35,52.74Zm-12.1,6a1.88,1.88,0,0,0-1.85-2,1.93,1.93,0,1,0-.08,3.85A1.87,1.87,0,0,0,83.25,58.7Z"/></svg>