<svg width="18" height="28" viewBox="0 0 18 28" fill="none" xmlns="http://www.w3.org/2000/svg">
<path d="M1.27506 0.774933C1.0433 1.00622 0.859428 1.28094 0.733974 1.58337C0.608521 1.88581 0.543945 2.21001 0.543945 2.53743C0.543945 2.86485 0.608521 3.18906 0.733974 3.49149C0.859428 3.79393 1.0433 4.06865 1.27506 4.29993L10.9751 13.9999L1.27506 23.6999C0.807612 24.1674 0.545004 24.8014 0.545004 25.4624C0.545004 26.1235 0.807612 26.7575 1.27506 27.2249C1.7425 27.6924 2.37649 27.955 3.03756 27.955C3.69862 27.955 4.33261 27.6924 4.80006 27.2249L16.2751 15.7499C16.5068 15.5186 16.6907 15.2439 16.8161 14.9415C16.9416 14.6391 17.0062 14.3149 17.0062 13.9874C17.0062 13.66 16.9416 13.3358 16.8161 13.0334C16.6907 12.7309 16.5068 12.4562 16.2751 12.2249L4.80006 0.749933C3.85006 -0.200067 2.25006 -0.200067 1.27506 0.774933Z" fill="#FF5353"/>
</svg>
