<svg width="18" height="28" viewBox="0 0 18 28" fill="none" xmlns="http://www.w3.org/2000/svg">
<path d="M16.7249 27.2251C16.9567 26.9938 17.1406 26.7191 17.266 26.4166C17.3915 26.1142 17.4561 25.79 17.4561 25.4626C17.4561 25.1351 17.3915 24.8109 17.266 24.5085C17.1406 24.2061 16.9567 23.9314 16.7249 23.7001L7.02494 14.0001L16.7249 4.30007C17.1924 3.83262 17.455 3.19864 17.455 2.53757C17.455 1.8765 17.1924 1.24251 16.7249 0.775064C16.2575 0.307621 15.6235 0.0450172 14.9624 0.0450172C14.3014 0.0450172 13.6674 0.307621 13.1999 0.775064L1.72494 12.2501C1.49318 12.4814 1.30931 12.7561 1.18386 13.0585C1.05841 13.3609 0.993834 13.6851 0.993834 14.0126C0.993834 14.34 1.05841 14.6642 1.18386 14.9666C1.30931 15.2691 1.49318 15.5438 1.72494 15.7751L13.1999 27.2501C14.1499 28.2001 15.7499 28.2001 16.7249 27.2251Z" fill="#FF5353"/>
</svg>
