<svg width="1440" height="141" viewBox="0 0 1440 141" fill="none" xmlns="http://www.w3.org/2000/svg">
<path d="M1455 138.062C1455 138.062 865.903 142.422 818.717 138.062C771.53 133.702 786.822 51.6366 734.665 59.036C700.869 63.8307 707.793 104.06 673.47 105.907C624.516 108.541 674.965 24.4314 626.283 19.7954C574.497 14.8636 612.545 101.556 560.664 105.907C500.135 110.982 553.131 11.2618 493.571 1.81011C430.067 -8.26729 440.378 78.7994 377.078 89.5565C300.257 102.611 277.329 23.3916 198.654 19.7954C109.393 15.7153 -10 89.5565 -10 89.5565" stroke="url(#paint0_linear_4626_9536)"/>
<defs>
<linearGradient id="paint0_linear_4626_9536" x1="722.5" y1="1" x2="722.5" y2="140" gradientUnits="userSpaceOnUse">
<stop stop-color="#FF457E"/>
<stop offset="0.416663" stop-color="#FF5353"/>
<stop offset="0.708342" stop-color="#FF5353"/>
<stop offset="1" stop-color="#FAB936"/>
</linearGradient>
</defs>
</svg>
